<?xml version="1.0" encoding="utf-8"?>
<!-- Generator: Adobe Illustrator 26.1.0, SVG Export Plug-In . SVG Version: 6.00 Build 0)  -->
<svg version="1.1" id="Laag_1" xmlns="http://www.w3.org/2000/svg" xmlns:xlink="http://www.w3.org/1999/xlink" x="0px" y="0px"
	 viewBox="0 0 400 200" style="enable-background:new 0 0 400 200;" xml:space="preserve">
<style type="text/css">
	.st0{fill:#FFFFFF;}
	.st1{fill:#231F20;}
	.st2{fill:#231F21;}
	.st3{fill:#3461AB;}
	.st4{fill:#242022;}
	.st5{fill:#3562AC;}
	.st6{fill:#FEFEFE;}
	.st7{fill:#F8F7F8;}
	.st8{fill:#FAFAFA;}
</style>
<g>
	<g>
		<path class="st0" d="M0,200C0,133.33,0,66.67,0,0c133.33,0,266.67,0,400,0c0,66.67,0,133.33,0,200C266.67,200,133.33,200,0,200z"
			/>
		<path class="st1" d="M376.77,99.75c-0.81-9.03-0.53-17.63-0.46-26.52c4.28,0,8.17,0,12.34,0c0,22.04,0,43.94,0,66.13
			c-3.79,0.98-7.71,0.34-11.25,0.4c-1.76-0.99-0.58-2.77-1.68-3.67c-10.35,6.64-21.19,5.7-28.22-2.44
			c-7.6-8.79-7.58-23.34,0.04-32.17C354.68,93.19,365.32,92.4,376.77,99.75z"/>
		<path class="st1" d="M216.14,81c-2.59,3.22-4.96,6.17-7.26,9.03c-1.95-0.08-2.71-1.59-3.92-2.38c-2.52-1.65-5.12-3.12-8.11-3.64
			c-5.2-0.9-9.73,0.92-10.51,4.4c-1.08,4.8,2.41,6.84,5.85,8.68c4.54,2.42,9.3,4.46,13.69,7.1c7.15,4.3,11.09,10.68,9.71,19.2
			c-1.43,8.81-7.27,14.21-15.62,16.31c-11.9,3-22.25-0.48-31.43-9.17c2.4-3.29,4.71-6.45,7.28-9.97c2.86,2.35,5.47,4.66,8.72,5.93
			c1.24,0.48,2.46,1.05,3.74,1.36c5.84,1.42,11.2-0.44,12.6-4.28c1.51-4.14-0.48-7.38-6.73-10.68c-3.23-1.7-6.6-3.13-9.82-4.84
			c-10.51-5.57-14.77-13.87-11.94-23.06c2.63-8.53,12.77-14.42,23.25-13.51C202.86,72.15,208.89,74.88,216.14,81z"/>
		<path class="st2" d="M232.88,100.57c5.14-4.4,9.93-6.2,15.55-5.63c7.4,0.75,12.85,5.47,13.72,12.87
			c1.22,10.42,0.19,20.9,0.55,31.7c-4.53,0-8.59,0-13.33,0c0-5.58,0-11.19,0-16.81c0-1.83,0.03-3.66-0.01-5.5
			c-0.08-3.94,0.75-8.46-4.27-10.09c-4.86-1.58-8.76,0.37-12.05,4.71c0,8.92,0,18.21,0,27.75c-4.04,0-7.79,0-11.87,0
			c0-22.09,0-44.12,0-66.39c3.85,0,7.6,0,11.71,0C232.88,81.96,232.88,90.69,232.88,100.57z"/>
		<path class="st3" d="M65.63,112.99c-12.59-3.78-25.73-1.76-38.06-5.94c25-13.48,51.92-21.63,78.68-30.88
			c-2.2,10.03-29.65,67.6-34.69,72.39C66.83,137.12,70.07,124.58,65.63,112.99z"/>
		<path class="st1" d="M165.69,121.35c-10.59,0-20.88,0-31.44,0c-0.13,4.03,2.04,6.3,5.15,7.72c5.13,2.33,9.32,0.3,13.14-3.52
			c3.99,0.64,8.17,0.21,12.21,1.45c-3.83,10.81-16.16,16.3-28.38,12.82c-11.67-3.33-18.18-15.21-15.36-28.04
			c2.57-11.67,13.29-18.57,26.15-16.82C159.04,96.55,166.78,107.32,165.69,121.35z"/>
		<path class="st1" d="M273.89,109.21c-1.67-3.31-3.15-6.22-4.8-9.5c8.82-4.92,17.63-7.37,27.29-3.91c5.84,2.09,9.61,6.2,9.79,12.51
			c0.29,10.27,0.08,20.55,0.08,31.18c-3.99,0-7.88,0-11.92,0c-0.17-0.68-0.37-1.47-0.57-2.25c-0.94-0.19-1.48,0.54-2.17,0.95
			c-7.3,4.32-15.83,3.44-21-2.18c-7.07-7.68-3.64-19.3,6.41-22.09c5.23-1.45,10.59-0.25,15.8-1.03c1.91-4.53,0.33-7.2-4.66-7.64
			C283.16,104.82,278.81,107.06,273.89,109.21z"/>
		<path class="st4" d="M324.36,138.89c-3.98,0-7.78,0-11.87,0c0-14.38,0-28.59,0-42.97c3.62-0.96,7.25-0.28,10.74-0.46
			c1.48,1.55,0.35,3.37,1.18,5.26c3.57-4.66,8.13-6.65,14.09-5.37c0.78,4.08,0.35,8.13,0.28,12.06c-0.66,0.26-0.95,0.45-1.24,0.47
			c-11.95,0.72-12.66,1.48-12.66,13.7c0,5.32-0.03,10.64-0.06,15.96C324.81,137.85,324.61,138.15,324.36,138.89z"/>
		<path class="st5" d="M82.19,49.71c-42.61,2.98-65.59,26.92-69.47,71.73c-7.84-11.17-2.46-38.23,10.74-53.96
			C38.03,50.12,64.95,41.81,82.19,49.71z"/>
		<path class="st0" d="M365.64,129.29c-6.32-0.09-10.75-4.95-10.73-11.79c0.01-6.81,4.5-11.59,10.88-11.6
			c6.54-0.01,11.35,5.19,11.11,12.01C376.67,124.64,371.98,129.38,365.64,129.29z"/>
		<path class="st6" d="M72.18,113.82c9.06-9.41,16.76-17.41,24.45-25.4c0.21,0.08,0.43,0.16,0.64,0.25
			c-7.49,14.6-14.99,29.19-22.48,43.79c-0.28-0.06-0.55-0.11-0.83-0.17C73.3,125.43,72.64,118.56,72.18,113.82z"/>
		<path class="st7" d="M152.2,112.45c-6.26,0-12.13,0-18.05,0c1.16-5.21,3.92-7.49,8.86-7.53
			C148.11,104.88,150.82,106.98,152.2,112.45z"/>
		<path class="st8" d="M293.84,121.56c1.56,7-4.49,10.16-9.52,9.38c-2.71-0.42-4.57-1.88-4.56-4.95c0-2.94,1.83-4.22,4.39-4.38
			C287.26,121.41,290.39,121.56,293.84,121.56z"/>
	</g>
</g>
</svg>
