<?xml version="1.0" encoding="utf-8"?>
<!-- Generator: Adobe Illustrator 26.1.0, SVG Export Plug-In . SVG Version: 6.00 Build 0)  -->
<svg version="1.1" id="Laag_1" xmlns="http://www.w3.org/2000/svg" xmlns:xlink="http://www.w3.org/1999/xlink" x="0px" y="0px"
	 viewBox="0 0 331.88 177" style="enable-background:new 0 0 331.88 177;" xml:space="preserve">
<style type="text/css">
	.st0{fill:#FEFEFE;}
	.st1{fill:#FAB515;}
	.st2{fill:#C5D10F;}
	.st3{fill:#5BB1DC;}
	.st4{fill:#759733;}
	.st5{fill:#958337;}
	.st6{fill:#5DB0DD;}
	.st7{fill:#FEFCF7;}
	.st8{fill:#5BB2D8;}
	.st9{fill:#F9B116;}
	.st10{fill:#FDF7E6;}
	.st11{fill:#978238;}
	.st12{fill:#59B1DE;}
	.st13{fill:#95812F;}
	.st14{fill:#9A8037;}
	.st15{fill:#7A9530;}
	.st16{fill:#F9B613;}
	.st17{fill:#917F31;}
	.st18{fill:#6F912F;}
	.st19{fill:#938533;}
	.st20{fill:#FBF8F1;}
	.st21{fill:#EEEDBF;}
	.st22{fill:#F2BD21;}
	.st23{fill:#FAF4E0;}
	.st24{fill:#70ADCB;}
	.st25{fill:#F9F7ED;}
	.st26{fill:#FAF8E8;}
	.st27{fill:#F8FAEE;}
	.st28{fill:#F8F4DE;}
	.st29{fill:#FCF6E6;}
	.st30{fill:#FDF9EA;}
	.st31{fill:#FDF8EA;}
	.st32{fill:#F4F2DD;}
	.st33{fill:#FAF7EA;}
	.st34{fill:#FBF6E9;}
	.st35{fill:#70B7D3;}
	.st36{fill:#6FAFCC;}
	.st37{fill:#F7F4D4;}
	.st38{fill:#EBEABB;}
	.st39{fill:#F9F2D2;}
	.st40{fill:#EBE9B2;}
	.st41{fill:#77ADC6;}
	.st42{fill:#EDEA9F;}
	.st43{fill:#E5C816;}
	.st44{fill:#F9F3DB;}
	.st45{fill:#D6EBF3;}
	.st46{fill:#DEEFF6;}
	.st47{fill:#DCEDF5;}
	.st48{fill:#D7EBF3;}
	.st49{fill:#9FC7D2;}
	.st50{fill:#F7BA0A;}
	.st51{fill:#908832;}
	.st52{fill:#A08627;}
	.st53{fill:#ECB719;}
	.st54{fill:#E3B51E;}
	.st55{fill:#BD8F22;}
	.st56{fill:#AC871A;}
	.st57{fill:#B28223;}
	.st58{fill:#B28822;}
	.st59{fill:#B38A1F;}
	.st60{fill:#C59013;}
	.st61{fill:#AE8222;}
	.st62{fill:#B68B21;}
	.st63{fill:#B98929;}
	.st64{fill:#AD861F;}
	.st65{fill:#B18820;}
	.st66{fill:#BB8D22;}
	.st67{fill:#B98E25;}
	.st68{fill:#B48821;}
	.st69{fill:#B18428;}
	.st70{fill:#B38923;}
	.st71{fill:#B78D1E;}
	.st72{fill:#DCB129;}
	.st73{fill:#FFFFFF;}
	.st74{fill:#FAF7E7;}
	.st75{fill:#FBF9EE;}
	.st76{fill:#FBF9E7;}
	.st77{fill:#F2F0C7;}
	.st78{fill:#5AB4DB;}
	.st79{fill:#60AEDF;}
	.st80{fill:#928533;}
	.st81{fill:#908539;}
	.st82{fill:#B0891D;}
	.st83{fill:#B1861F;}
	.st84{fill:#5BB4D4;}
	.st85{fill:#928532;}
</style>
<g>
	<path class="st0" d="M165.85,176.98c-55.02,0-110.04,0-165.06,0.02C0.15,177,0,176.85,0,176.21C0.02,117.74,0.02,59.26,0,0.79
		C0,0.15,0.15,0,0.79,0c110.1,0.02,220.19,0.02,330.29,0c0.65,0,0.79,0.14,0.79,0.79c-0.02,58.47-0.02,116.94,0,175.41
		c0,0.65-0.14,0.79-0.79,0.79C276.01,176.98,220.93,176.98,165.85,176.98z"/>
	<path class="st1" d="M85.01,96.34c-1.08-1.27-2.16-2.54-3.24-3.81c-0.21-0.25-0.52-0.44-0.58-0.8c-0.2-0.51-0.31-1.1-1.05-1.08
		c-0.32-0.01-0.42-0.24-0.5-0.5c-0.99-1.36-2.14-2.58-3.27-3.81c-0.28-0.19-0.55-0.4-0.67-0.74c-0.51-0.73-1.03-1.46-1.73-2.04
		c-0.31-0.17-0.56-0.39-0.69-0.73c-0.55-0.92-1.25-1.7-2.09-2.37c-0.43-0.16-0.47,0.13-0.54,0.43c-0.12,0.49,0.02,0.97,0.02,1.46
		c-0.01,16.44-0.01,32.88-0.01,49.32c0,0.31,0.05,0.64-0.11,0.93c-0.26,0.22-0.52,0.21-0.79,0.03c-0.22-0.37-0.13-0.79-0.13-1.18
		c-0.01-9.25,0-18.51-0.01-27.76c0,9.26,0,18.52-0.01,27.79c0,0.39,0.1,0.81-0.14,1.18c-0.38,0.28-0.82,0.23-1.25,0.23
		c-7.86,0.01-15.71,0.01-23.57,0c-1.38,0-1.55-0.17-1.55-1.53c0-27.73-0.01-55.46,0.03-83.19c0-1.18-0.08-2.42,0.29-3.59
		c1.38-0.01,2.76-0.03,4.14-0.03c7.4,0,14.79,0.01,22.19-0.01c0.6,0,0.99,0.17,1.38,0.63c2.81,3.3,5.66,6.57,8.49,9.86
		c3.06,3.56,6.12,7.14,9.17,10.72c0.1,0.12,0.18,0.21,0.32,0.24c0.3,0.18,0.57,0.39,0.68,0.74c0.91,1.36,2.06,2.52,3.14,3.74
		c0.27,0.2,0.53,0.41,0.67,0.72c0.64,0.84,1.25,1.7,2.06,2.4c0.35,0.14,0.57,0.39,0.7,0.74c0.99,1.5,2.26,2.77,3.46,4.09
		c0.3,0.18,0.57,0.39,0.68,0.75c1.22,1.7,2.67,3.22,4.02,4.81c1.1,1.29,2.19,2.6,3.28,3.9c0.11,0.19,0.13,0.43,0.38,0.52
		c1.3,1.1,2.24,2.51,3.36,3.76c1.42,1.57,2.77,3.21,4.16,4.8c0.17,0.19,0.32,0.51,0.69,0.39c0.31,0.36,0.37,0.94,0.92,1.11
		c0.64,0.41,0.77,0.36,0.88-0.32c0.05-0.31,0.04-0.63,0.04-0.95c0-15.26-0.01-30.52,0.02-45.78c0-0.96-0.37-1.71-0.78-2.49
		c-0.22-0.37-0.03-0.64,0.24-0.89c0.55-0.26,0.63,0.22,0.78,0.52c0.25,0.52,0.52,1.01,1.12,1.2c0.05,0.07,0.09,0.15,0.11,0.23
		c0.11,0.56-0.15,1.01-0.46,1.44c-0.3,0.23-0.23,0.56-0.24,0.86c0.03-0.25-0.05-0.51,0.11-0.73c0.39-0.1,0.66-0.46,1.07-0.51
		c0.17,0.03,0.31,0.11,0.43,0.23c0.05,0.07,0.08,0.14,0.11,0.22c-0.14,0.68,0.15,1.42-0.37,2.21c0.64-0.29,1.18-0.43,1.65,0.02
		c0.52,0.36,0.79,0.92,1.1,1.44c0.08,0.22,0.2,0.42,0.35,0.59c0.33,0.53,0.66,1.06,1,1.58c0.16,0.44,0.44,0.82,0.71,1.2
		c0.48,0.72,0.89,1.48,1.37,2.2c0.11,0.21,0.24,0.4,0.38,0.59c0.55,0.97,1.15,1.9,1.74,2.85c0.09,0.22,0.21,0.42,0.35,0.62
		c1.76,2.76,3.44,5.56,5.17,8.34c0.09,0.22,0.2,0.43,0.34,0.62c0.85,1.22,1.52,2.54,2.38,3.75c0.04,0.07,0.08,0.14,0.11,0.22
		c1.17,1.93,2.35,3.85,3.55,5.76c0.29,0.46,0.57,0.93,0.82,1.4c0.13,0.24,0.23,0.49,0.4,0.7c0.27,0.32,0.47,0.68,0.66,1.05
		c0.1,0.2,0.22,0.38,0.35,0.56c0.12,0.19,0.25,0.37,0.37,0.56c0.13,0.24,0.26,0.48,0.35,0.74c0.04,0.17,0.03,0.33-0.03,0.49
		c-0.96,1.29-1.55,2.81-2.59,4.05c-0.33,0.09-0.44,0.34-0.44,0.66c-0.9,1.84-2.07,3.53-3.13,5.27c-0.14,0.19-0.28,0.38-0.39,0.59
		c-0.39,0.76-0.89,1.45-1.33,2.18c-0.14,0.16-0.28,0.33-0.34,0.54c-0.02,0.07-0.05,0.13-0.09,0.19c-0.12,0.18-0.24,0.35-0.34,0.53
		c-0.12,0.17-0.24,0.35-0.35,0.53c-0.13,0.18-0.22,0.38-0.31,0.59c-0.82,1.27-1.56,2.59-2.38,3.86c-0.15,0.17-0.28,0.36-0.36,0.58
		c-0.21,0.41-0.49,0.77-0.72,1.17c-0.13,0.19-0.26,0.38-0.36,0.59c-1.3,2.25-2.74,4.41-4.07,6.64c-0.15,0.18-0.28,0.36-0.36,0.58
		c-0.21,0.41-0.48,0.77-0.72,1.16c-0.13,0.18-0.26,0.36-0.36,0.57c-0.21,0.4-0.43,0.8-0.69,1.18c-0.14,0.19-0.26,0.39-0.37,0.6
		c-1.42,2.39-2.93,4.72-4.34,7.11c-0.12,0.2-0.26,0.38-0.46,0.5c-0.48,0.2-0.63,0.6-0.65,1.08c-0.08,0.3-0.22,0.58-0.37,0.85
		c-0.17,0.25-0.35,0.49-0.51,0.74c-0.13,0.18-0.23,0.37-0.35,0.55c-0.06,0.09-0.14,0.16-0.23,0.22c-0.16,0.08-0.23,0.23-0.3,0.39
		c-0.04,0.06-0.08,0.11-0.14,0.15c-1-0.66-1.53-1.76-2.38-2.57c-0.39-0.37-0.72-0.8-1.08-1.2c-0.25-0.22-0.55-0.38-0.66-0.73
		c-1.53-1.98-3.23-3.83-4.86-5.73c-2.41-2.8-4.84-5.6-7.26-8.39c-0.1-0.12-0.24-0.21-0.36-0.32c-1.15-1.6-2.56-2.99-3.81-4.51
		c-0.25-0.21-0.5-0.41-0.65-0.71l0,0c-0.3-0.18-0.56-0.39-0.68-0.74c-1.26-1.83-2.85-3.4-4.27-5.1c-1.1-1.32-2.2-2.65-3.44-3.86
		c-0.41-0.39-0.66-0.95-1.08-1.36c-0.38-0.06-0.33-0.48-0.56-0.66l0,0C85.22,96.6,85.12,96.47,85.01,96.34z"/>
	<path class="st2" d="M262.6,44.88c1.74,0.04,3.41,0.62,5.14,0.74c0.33,0.18,0.76,0.06,1.07,0.32c2.45,0.7,4.84,1.53,7.07,2.79
		c0.18,0.11,0.39,0.16,0.54,0.32c3.8,2.27,6.61,5.42,8.43,9.45c0.91,2.02,1.61,4.12,1.96,6.32c0.08,0.51,0.22,1,0.34,1.5
		c0.21,0.57,0.16,1.18,0.31,1.75c0.37,4.95,0.3,9.92,0.34,14.88c0.02,3.22-0.26,6.41-0.69,9.59c-0.13,0.35-0.19,0.71-0.3,1.06
		c-0.33,2-0.99,3.91-1.78,5.76c-1.89,4.43-4.75,8.05-8.94,10.54c-2.26,1.35-4.67,2.26-7.26,2.71c-0.33,0.21-0.74,0.12-1.07,0.29
		c-16.42,0.76-32.85,0.13-49.27,0.34c-0.14,0-0.29,0.02-0.43,0c-0.8-0.12-1.07,0.15-1.06,1.02c0.05,5.72,0.04,11.45,0.05,17.17
		c0,0.34-0.02,0.69-0.04,1.03c-0.08,0.05-0.16,0.05-0.24,0.01c-0.56-0.48-0.81-1.18-1.18-1.78c-4.44-7.15-8.81-14.34-13.23-21.5
		c-2.84-4.59-5.65-9.2-8.48-13.8c-1.33-2.15-2.67-4.29-3.95-6.47c-0.07-0.21-0.08-0.43,0-0.64c2.44-4,4.91-7.99,7.36-11.98
		c2.76-4.51,5.54-9.02,8.3-13.53c2.52-4.12,5.05-8.23,7.59-12.34c1.06-1.71,2.11-3.43,3.15-5.15c0.16-0.29,0.36-0.55,0.67-0.69
		c0.66-0.01,1.32-0.03,1.98-0.03c13.73,0.01,27.46,0.03,41.19,0.04C260.95,44.76,261.8,44.6,262.6,44.88z"/>
	<path class="st3" d="M143.39,88.86c0-0.15-0.01-0.3-0.01-0.45c-0.11-0.24-0.14-0.5-0.18-0.76c-0.13-0.69-0.06-1.39-0.05-2.09
		c0.01-13.29,0-26.58,0-39.88c-0.01-0.4-0.05-0.81,0.28-1.12c1.5,0,2.99,0.01,4.49-0.02c0.4-0.01,0.63,0.13,0.84,0.45
		c2.13,3.44,4.26,6.88,6.4,10.32c0.82,1.31,1.66,2.61,2.48,3.92c0.11,0.17,0.18,0.35,0.27,0.53c0.13,0.4,0.35,0.75,0.67,1.04
		c0.03,0.04,0.04,0.08,0.04,0.12c0.09,0.2,0.15,0.42,0.35,0.55c1.27,2,2.55,4,3.82,6c0.2,0.31,0.41,0.62,0.62,0.93
		c0.21,0.12,0.25,0.34,0.35,0.53c0.88,1.44,1.76,2.89,2.64,4.33c0.23,0.37,0.39,0.32,0.61-0.02c1.5-2.38,3.03-4.74,4.43-7.17
		c0.53-0.91,1.23-1.72,1.69-2.67c0.1-0.18,0.15-0.4,0.34-0.53c0.28-0.41,0.56-0.82,0.84-1.23c0.43-0.07,0.36-0.48,0.5-0.74
		c1.05-1.73,2.09-3.47,3.16-5.2c2.17-3.49,4.36-6.97,6.54-10.45c0.17-0.14,0.21-0.36,0.33-0.52c0.81-0.39,1.68-0.1,2.52-0.17
		c0.43-0.04,0.86,0.01,1.29,0.02c0.48,0.62-0.42,0.9-0.34,1.42c-0.92,0.32-1.86,0.13-2.8,0.13c-0.14,0-0.4-0.14-0.2,0.2
		c0.07,0.11,0.13,0.23,0.24,0.31c0.54,0.19,1.09,0.08,1.63,0.1c0.67,0.02,1.02,0.3,1.02,0.99c0,0.37,0.01,0.75,0.01,1.12
		c0,12.22,0,24.44,0,36.66c0,0.43,0.06,0.85,0.23,1.25c0.13,0.32,0.18,0.69,0.06,1.01c-0.37,0.98-0.33,1.95-0.08,2.94
		c0.02,0.08-0.02,0.17-0.04,0.25c-0.2,0.35-0.16,0.72-0.16,1.1c0,13.07,0,26.14,0,39.21c0,0.34-0.02,0.69,0.11,1.02
		c0.05,0.11,0.04,0.22-0.01,0.32c-0.95,0.01-1.9,0-2.85,0.04c-0.41,0.02-0.63-0.16-0.83-0.48c-0.49-0.78-0.99-1.54-1.49-2.31
		c-0.18-0.14-0.24-0.35-0.34-0.54c-1.88-3.04-3.77-6.08-5.64-9.14c-0.79-1.29-1.67-2.53-2.34-3.9c-0.14-0.67-0.61-1.12-1.03-1.61
		c-0.11-0.12-0.22-0.24-0.33-0.35c-0.18-0.14-0.23-0.36-0.34-0.53c-1.34-2.17-2.68-4.34-4.02-6.51c-0.65-1.05-1.32-2.09-1.95-3.15
		c-0.35-0.59-0.56-0.54-0.91,0.02c-0.89,1.46-1.83,2.89-2.75,4.33c-0.31,0.11-0.25,0.45-0.4,0.65c-0.69,1.15-1.37,2.31-2.08,3.45
		c-4.01,6.43-8.03,12.84-12.02,19.27c-0.36,0.58-0.74,0.83-1.43,0.8c-1.38-0.06-2.76-0.03-4.14-0.03c-0.4-0.44-0.26-0.98-0.26-1.48
		c-0.01-12.35-0.01-24.7-0.01-37.05c-0.01-0.28-0.04-0.55,0-0.83c0.01-0.59,0.01-1.19,0-1.78C143.12,90.59,143.01,89.7,143.39,88.86
		z"/>
	<path class="st4" d="M216.49,45.26c-1.45,2.41-2.88,4.82-4.34,7.21c-3.2,5.23-6.43,10.45-9.64,15.67
		c-3.57,5.81-7.13,11.63-10.72,17.43c-0.57,0.92-1.01,1.94-1.76,2.74c-0.4-0.59-0.29-1.29-0.28-1.92c0.02-0.86,0.04-1.72,0.04-2.58
		c0.01-12.22,0-24.43,0.01-36.65c0-0.87-0.3-1.78,0.2-2.61c0.25,0.01,0.49,0.01,0.74,0.02c0.37,0.25,0.78,0.15,1.18,0.15
		c7.8,0.01,15.6,0,23.4,0.01C215.75,44.74,216.34,44.54,216.49,45.26z"/>
	<path class="st5" d="M143.38,85.65c0,0.7,0,1.39,0.01,2.09c-0.12,0.09-0.25,0.09-0.37,0c-0.19-0.12-0.3-0.29-0.33-0.51
		c-0.1-0.19-0.16-0.4-0.34-0.54c-0.22-0.35-0.45-0.7-0.67-1.06c-0.16-0.21-0.11-0.52-0.38-0.67c-1.56-2.38-3.04-4.8-4.46-7.26
		c0.1-0.15,0.35-0.21,0.31-0.47c-0.2,0.03-0.16,0.29-0.34,0.34c-0.94-1.18-1.64-2.53-2.41-3.82c-0.1-0.19-0.16-0.4-0.33-0.54
		c-1.73-2.82-3.46-5.63-5.19-8.45c-0.12-0.17-0.16-0.4-0.34-0.53c-0.63-0.94-1.24-1.88-1.75-2.9c-0.08-0.2-0.15-0.41-0.34-0.55
		c-0.58-0.67-0.98-1.45-1.37-2.23c-0.17-0.44-0.34-0.89-0.72-1.21c-0.45-0.44-0.71-1.02-1.01-1.56c-0.11-0.17-0.16-0.39-0.33-0.53
		c-0.33-0.47-0.66-0.94-0.99-1.4c-0.38-0.41-0.68-0.87-0.87-1.4c-0.06-0.2-0.11-0.41-0.32-0.53c-0.17-0.11-0.11-0.34-0.25-0.46
		c0-0.06,0-0.11,0-0.17c-0.14-0.16-0.24-0.35-0.44-0.46c-0.33-0.24-0.42-0.62-0.58-0.96c0.01-0.05,0-0.1-0.03-0.14
		c-0.6-0.56-1.04-1.21-1.23-2.02c-0.01-0.2,0-0.4,0.08-0.59c0.1-0.2,0.28-0.3,0.5-0.27c0.98,0.14,1.93-0.15,2.9-0.14
		c6.04,0.02,12.09,0.01,18.13,0c0.34,0,0.95,0.18,0.96-0.25c0.01-0.47-0.59-0.28-0.93-0.28c-6.62-0.01-13.24-0.01-19.86-0.01
		c-0.31,0-0.63-0.03-0.94,0.09c-0.19,0.13-0.38,0.26-0.57,0.39c-0.08,0.04-0.17,0.04-0.26,0.02c-0.29-0.19-0.69-0.15-0.94-0.44
		c-0.05-0.08-0.08-0.17-0.1-0.26c-0.03-0.49-0.15-0.98,0.2-1.41c0.11,0,0.23,0,0.34,0c0.18,0.15,0.22,0.38,0.36,0.55
		c0.04,0.06,0.08,0.12,0.12,0.18c0.19,0.37,0.44,0.02,0.66,0.06c7.2-0.04,14.4-0.01,21.6-0.02c0.79,0.09,0.15-0.58,0.41-0.77
		c0.82-0.01,1.64-0.01,2.45-0.02c-0.02,0.35-0.03,0.69-0.05,1.04c-0.4,0.34-0.72,0.02-1.06-0.11c-0.72-0.04-0.42,0.33-0.19,0.56
		c0.31,0.31,0.57,0.57,0.18,0.99c-0.1,0.1-0.2,0.2-0.28,0.31c-0.17,0.36-0.11,0.74-0.11,1.11c0,10.94,0,21.88,0,32.83
		c0,0.3-0.12,0.63,0.12,0.89c0.15-0.37,0.07-0.75,0.07-1.12c0.01-10.89,0-21.77,0.01-32.66c0-0.48-0.12-0.99,0.24-1.41
		c0.36-0.17,0.46,0.08,0.53,0.35c0.08,0.28,0.05,0.57,0.05,0.86c0,11.49,0.01,22.97,0,34.46c0.05,0.25-0.26,0.55,0.19,0.77
		c0.2,0.1,0.06,0.54,0.09,0.82C143.27,84.7,143.08,85.21,143.38,85.65z"/>
	<path class="st6" d="M188.31,90.83c-0.46-0.95-0.54-1.91-0.08-2.9c0.17-0.36,0.21-0.83-0.03-1.15c-0.29-0.37-0.2-0.75-0.23-1.14
		c0.24-0.3,0.17-0.66,0.17-1c0-12.34,0-24.69,0.01-37.03c0-0.56-0.2-1.15,0.17-1.68c0.02-0.26-0.59-0.63,0.17-0.76
		c0.26-0.05,0.14-0.39,0.17-0.61c0.34,0,0.69,0,1.03,0c0.14,0.13,0.24,0.35,0.13,0.45c-0.43,0.41-0.24,0.8-0.04,1.2
		c-0.36,0.29,0.16,0.48,0.09,0.74c0.02,12.87,0,25.75,0.01,38.62c0,1.54-0.09,3.07,0.02,4.61c0.03,0.45-0.1,0.81-0.66,0.77
		c-0.32-0.12-0.4-0.37-0.4-0.68c0.02-0.61-0.05-1.22,0.02-1.63c0.12,0.68-0.34,1.62,0.32,2.44c0.1,0.31,0.07,0.63,0.07,0.94
		c0,13.11,0,26.23,0,39.34c0,0.42,0.09,0.87-0.24,1.24c-0.23,0-0.46,0-0.69,0c0-0.05,0-0.11,0-0.16c-0.24-0.3-0.17-0.66-0.17-1
		c0-13.2,0-26.41,0-39.61C188.14,91.49,188.07,91.13,188.31,90.83z"/>
	<path class="st7" d="M43.44,44.58c-0.01,1.15-0.02,2.3-0.02,3.44c0,27.85,0,55.7-0.02,83.55c0,0.8,0.15,1.07,1.02,1.07
		c8.09-0.04,16.18-0.02,24.27-0.02c0.26,0,0.52-0.02,0.78-0.03c0.11-0.08,0.23-0.08,0.34,0c0.23,0.01,0.46,0.01,0.69,0.02
		c0.12-0.1,0.23-0.1,0.35,0c0.13,0.04,0.34,0.2,0.22,0.22c-0.53,0.09-0.93,0.48-1.51,0.48c-8.4-0.02-16.81-0.01-25.21-0.02
		c-0.94,0-1.49-0.62-1.49-1.65c0-18.5,0-37,0-55.49c0-9.32,0-18.64,0-27.96c0-0.47,0.01-0.92,0.25-1.4
		c0.21-0.43,0.43-1.19-0.61-1.35C43.04,45.3,43.13,44.84,43.44,44.58z"/>
	<path class="st8" d="M189,90.83c0.78,0.07,0.84-0.4,0.59-0.91c-0.17-0.35-0.3-0.57-0.01-0.91c0.12-0.15,0.11-0.43,0.11-0.66
		c0-13.9-0.01-27.81-0.01-41.71c-0.09-0.12-0.09-0.24,0-0.36c0-0.26-0.2-0.28-0.39-0.36c-0.4-0.18-0.4-0.51,0-0.63
		c0.44-0.13,0.39-0.41,0.4-0.72c0.1,0,0.21-0.01,0.31-0.01c0,13.47-0.01,26.94-0.01,40.41c0,1.12,0.02,2.23,0.03,3.35
		c0,0.18,0,0.36-0.01,0.54c0.24,0.53,0.31,1.09,0.31,1.68c-0.01,13.53,0,27.07-0.01,40.6c0,0.4,0.03,0.81-0.11,1.19
		c-0.05,0.1-0.12,0.19-0.21,0.27c-0.1,0-0.21-0.01-0.31-0.01c-0.27-0.39-0.16-0.84-0.16-1.26c-0.01-12.88-0.01-25.76-0.01-38.64
		c0,12.88,0,25.77-0.01,38.65c0,0.42,0.12,0.87-0.17,1.26c-0.12,0-0.23,0-0.35,0C189,118.68,189,104.75,189,90.83L189,90.83z"/>
	<path class="st9" d="M117.83,48.01c-0.12,0.23-0.23,0.46-0.35,0.69c0.22,0.35,0.29,0.75,0.02,1.04c-0.5,0.53-0.43,1.16-0.43,1.78
		c0,14.3-0.01,28.6,0.01,42.89c0,0.98-0.21,1.99,0.27,2.96c0.16,0.32,0.09,0.74-0.21,1.04c-0.97,0.11-0.6-0.65-0.72-1.1
		c-0.01-15.58-0.01-31.16-0.02-46.74c0-0.52,0.02-1.03,0.04-1.55c0.3-0.08,0.5-0.23,0.48-0.58c-0.01-0.22-0.01-0.45,0.03-0.67
		c0.04-0.22,0.06-0.49,0.34-0.52c0.31-0.03,0.35,0.22,0.37,0.45C117.65,47.87,117.93,47.82,117.83,48.01z"/>
	<path class="st10" d="M70.84,132.61c-0.12,0-0.23,0-0.35,0c0.01-0.29,0.03-0.57,0.03-0.86c0-17.07-0.01-34.15-0.02-51.22
		c0-0.22,0-0.45,0-0.74c0.44,0.1,0.67,0.28,0.69,0.68c-0.39,0.16-0.47,0.56-0.46,0.86c0.26,7.15,0.07,14.3,0.1,21.45
		C70.88,112.72,70.84,122.67,70.84,132.61z"/>
	<path class="st11" d="M140.98,44.58c-0.03,0.34,0.81,0.68,0,1.02c-0.36-0.27-0.77-0.17-1.17-0.17c-7.06-0.01-14.11,0-21.17-0.01
		c-0.18,0-0.33-0.05-0.47-0.17l0,0c-0.18-0.22-0.19-0.45,0-0.67c1.61-0.01,3.21-0.04,4.82-0.04
		C128.98,44.55,134.98,44.56,140.98,44.58z"/>
	<path class="st12" d="M189.35,132.6c0-13.77,0-27.53,0-41.3c0.11,0,0.23,0,0.34,0c0,13.77,0,27.53,0,41.3
		C189.57,132.6,189.46,132.6,189.35,132.6z"/>
	<path class="st13" d="M143.38,93.94c0.01,0.23,0.03,0.46,0.03,0.69c0,12.66,0,25.32,0,37.98c-0.47,0-0.94-0.01-1.4-0.01
		c-0.05-0.11-0.02-0.19,0.07-0.26c0.13-0.09,0.28-0.13,0.43-0.19c0.4-0.47,0.25-1.04,0.25-1.57c0.01-11.61,0.01-23.21,0.01-34.82
		c0-0.43-0.04-0.87,0.05-1.29C142.88,94.18,142.88,93.77,143.38,93.94z"/>
	<path class="st14" d="M142.01,132.44c0,0.05,0,0.1,0,0.16c-0.12,0-0.23,0-0.35,0c-0.08-0.09-0.14-0.18-0.19-0.29
		c-0.12-0.36-0.09-0.74-0.09-1.11c0-11.93,0-23.87,0-35.8c0-0.34-0.02-0.69,0.07-1.03c0.07-0.29,0.18-0.57,0.58-0.45
		c0.28,0.31,0.22,0.7,0.22,1.07c0.01,12.13,0.01,24.27,0,36.4C142.25,131.75,142.29,132.13,142.01,132.44z"/>
	<path class="st15" d="M216.49,45.26c-0.3-0.4-0.74-0.36-1.17-0.36c-7.88,0-15.77,0.01-23.65-0.01c-0.32,0-0.78,0.24-0.94-0.32
		c1.78-0.01,3.57-0.03,5.35-0.03c6.68,0,13.35,0,20.03,0c0.29,0,0.57,0.02,0.86,0.03C216.81,44.81,216.65,45.03,216.49,45.26z"/>
	<path class="st16" d="M117.83,48.01c-0.34-0.05-0.33-0.39-0.51-0.67c-0.33,0.49-0.12,0.98-0.18,1.43
		c-0.03,0.19,0.07,0.43-0.15,0.55c-0.3,0.17-0.36-0.19-0.56-0.27c-0.07-1.39-0.07-2.79,0-4.18c0.43-0.16,0.5,0.21,0.67,0.44
		c0.18,0.25,0.2,0.57,0.36,0.83c0,0.05,0.01,0.1,0.04,0.14c0.24,0.16,0.46,0.35,0.6,0.61c0.08,0.12,0.16,0.24,0.2,0.38
		c0.03,0.21,0.08,0.41,0.19,0.59c0.34,0.62,0.69,1.25,1.03,1.87c-0.6,0.24-0.76-0.25-1-0.6C118.3,48.77,118.3,48.24,117.83,48.01z"
		/>
	<path class="st17" d="M141.67,132.44c0,0.05,0,0.1,0,0.16c-4.85,0.01-9.7,0.03-14.55,0.03c-3.56,0-7.12-0.02-10.67-0.04
		c0.01-0.05,0.01-0.09,0.02-0.14c0.12-0.17,0.16-0.39,0.34-0.52c0.07-0.05,0.14-0.11,0.2-0.16c1.08,0.51,2.24,0.38,3.37,0.38
		c6.6,0.03,13.21,0.01,19.81,0.02C140.69,132.17,141.22,132.07,141.67,132.44z"/>
	<path class="st18" d="M190,132.61c0.01-0.06,0.02-0.11,0.03-0.17c0.34-0.29,0.74-0.28,1.15-0.28c8.16,0,16.33,0,24.49,0
		c0.41,0,0.8,0.05,1.16,0.28c0.06,0.01,0.12,0.01,0.18,0.02c-0.11,0.25-0.34,0.16-0.53,0.16C207.65,132.62,198.82,132.61,190,132.61
		z"/>
	<path class="st19" d="M117.47,46.14c-0.49-0.31-0.48-1.01-1.03-1.28c0.2-0.62,0.7-0.2,1.05-0.29
		C117.48,45.1,117.47,45.62,117.47,46.14z"/>
	<path class="st20" d="M89.82,66.72c-0.34-0.14-0.58-0.37-0.68-0.74c0.41,0.01,0.3-0.42,0.54-0.64
		C89.99,65.79,90.16,66.22,89.82,66.72z"/>
	<path class="st21" d="M262.6,44.88c-0.84,0.07-1.65-0.06-2.45-0.29c0.65,0,1.29-0.01,1.94-0.01
		C262.32,44.57,262.54,44.59,262.6,44.88z"/>
	<path class="st22" d="M80.15,90.49c0.9-0.05,1.13,0.46,1.05,1.24c-0.41-0.22-0.53-0.75-0.99-0.92
		C80.07,90.73,80.07,90.62,80.15,90.49z"/>
	<path class="st23" d="M95.39,108.43c0.34,0.12,0.54,0.38,0.65,0.71c-0.26-0.04-0.42,0.46-0.77,0.07
		C94.91,108.82,95.46,108.7,95.39,108.43z"/>
	<path class="st24" d="M173.78,114.66c0.61,0.37,1.19,0.75,1.03,1.61C174.39,115.79,174.02,115.27,173.78,114.66z"/>
	<path class="st25" d="M96.38,74.32c-0.35-0.13-0.57-0.39-0.7-0.74C96.23,73.33,96.37,73.49,96.38,74.32z"/>
	<path class="st26" d="M287.45,68.07c-0.25-0.56-0.37-1.14-0.31-1.75C287.63,66.83,287.44,67.47,287.45,68.07z"/>
	<path class="st27" d="M92.52,68.91c-0.21-0.36-0.55-0.45-0.46-0.79c0.01-0.04,0.22-0.09,0.3-0.06
		C92.72,68.21,92.61,68.49,92.52,68.91z"/>
	<path class="st28" d="M112.32,128.09c0.33,0.14,0.56,0.38,0.66,0.73C112.48,128.83,112.06,128.77,112.32,128.09z"/>
	<path class="st29" d="M75.7,85.6c0.35,0.13,0.57,0.38,0.67,0.74C75.79,86.42,75.59,86.15,75.7,85.6z"/>
	<path class="st30" d="M73.29,82.84c0.36,0.12,0.57,0.38,0.69,0.73C73.39,83.67,73.17,83.41,73.29,82.84z"/>
	<path class="st31" d="M80.15,90.49c0.02,0.11,0.04,0.21,0.06,0.32c-0.4-0.05-1.12,0.18-0.56-0.67
		C79.89,90.15,79.88,90.53,80.15,90.49z"/>
	<path class="st32" d="M93.62,71.18c-0.35-0.13-0.56-0.38-0.67-0.72C93.52,70.38,93.72,70.65,93.62,71.18z"/>
	<path class="st33" d="M100.52,79.16c-0.34-0.14-0.57-0.39-0.68-0.75C100.45,78.31,100.64,78.6,100.52,79.16z"/>
	<path class="st34" d="M94.71,107.69c0.35,0.13,0.57,0.38,0.68,0.74C94.83,108.48,94.63,108.22,94.71,107.69z"/>
	<path class="st35" d="M158.57,60.79c-0.49-0.17-0.72-0.52-0.67-1.04C158.19,60.06,158.44,60.39,158.57,60.79z"/>
	<path class="st36" d="M174.81,60.9c-0.03,0.91-0.03,0.91-0.5,0.74C174.44,61.37,174.55,61.08,174.81,60.9z"/>
	<path class="st37" d="M268.81,45.93c-0.41,0.07-0.75-0.08-1.07-0.32C268.11,45.67,268.6,45.34,268.81,45.93z"/>
	<path class="st38" d="M267.75,112.91c0.32-0.24,0.67-0.38,1.07-0.29C268.58,113.15,268.12,112.87,267.75,112.91z"/>
	<path class="st39" d="M85.35,96.71c0.42,0.02,0.35,0.46,0.56,0.66C85.34,97.47,85.33,97.1,85.35,96.71z"/>
	<path class="st19" d="M118.17,44.58c0,0.22,0,0.45,0,0.67c-0.46-0.05-0.32-0.41-0.35-0.67C117.94,44.58,118.06,44.58,118.17,44.58z
		"/>
	<path class="st40" d="M286.8,93.6c-0.07-0.4,0.07-0.75,0.3-1.06C287.18,92.94,287.1,93.31,286.8,93.6z"/>
	<path class="st39" d="M85.01,96.34c0.21,0.03,0.32,0.15,0.33,0.36c-0.09,0.06-0.23,0.19-0.25,0.17
		C84.92,96.73,85.03,96.53,85.01,96.34z"/>
	<path class="st41" d="M163.09,109.11c0.03-0.28-0.1-0.66,0.4-0.65C163.4,108.71,163.31,108.96,163.09,109.11z"/>
	<path class="st42" d="M276.41,49.04c-0.26,0.02-0.41-0.13-0.54-0.32C276.14,48.69,276.38,48.7,276.41,49.04z"/>
	<path class="st43" d="M108.21,88.38c-0.42,0.05-0.39-0.24-0.38-0.52C108.02,87.99,108.2,88.11,108.21,88.38z"/>
	<path class="st35" d="M158.97,61.47c-0.4,0-0.38-0.28-0.35-0.55C158.81,61.05,158.93,61.23,158.97,61.47z"/>
	<path class="st44" d="M99.85,113.65c0.25-0.04,0.34,0.1,0.36,0.32C100.01,113.94,99.68,114.07,99.85,113.65z"/>
	<path class="st45" d="M173.12,113.78c0.2,0.12,0.33,0.29,0.34,0.53C173.1,114.29,173.1,114.04,173.12,113.78z"/>
	<path class="st46" d="M163.76,68.94c-0.19-0.13-0.32-0.3-0.35-0.53C163.8,68.4,163.78,68.66,163.76,68.94z"/>
	<path class="st47" d="M182.8,129.3c0.2,0.13,0.33,0.3,0.34,0.54C182.76,129.83,182.77,129.57,182.8,129.3z"/>
	<path class="st48" d="M173.46,62.87c-0.02,0.24-0.15,0.4-0.34,0.53C173.1,63.14,173.09,62.88,173.46,62.87z"/>
	<path class="st49" d="M184.85,44.73c0,0.25,0.01,0.5-0.33,0.52C184.51,45,184.64,44.84,184.85,44.73z"/>
	<path class="st5" d="M141.67,132.44c-7.25,0-14.51,0-21.76,0.01c-0.73,0-1.46-0.28-2.2-0.02c-0.55,0.19-0.5-0.4-0.69-0.66
		c0.06-0.2,0.11-0.4,0.31-0.52c0.52-0.08,0.52-0.08,0.5-0.75c0.12-0.27,0.24-0.55,0.36-0.82c0.14-0.45,0.33-0.89,0.71-1.2
		c1.02-1.62,2.05-3.24,3.07-4.86c0.58-0.92,1.16-1.84,1.73-2.75c0.19-0.13,0.25-0.35,0.34-0.53c0.23-0.4,0.46-0.8,0.69-1.19
		c0.2-0.12,0.24-0.35,0.36-0.52c0.13-0.46,0.48-0.79,0.7-1.19c0.17-0.14,0.22-0.36,0.33-0.53c1.38-2.24,2.76-4.48,4.14-6.73
		c0.18-0.14,0.24-0.35,0.34-0.54c0.23-0.39,0.47-0.79,0.7-1.18c0.18-0.13,0.22-0.35,0.34-0.53c0.81-1.32,1.62-2.64,2.43-3.96
		c0.17-0.14,0.23-0.36,0.34-0.54c0.03-0.22,0.13-0.4,0.33-0.51c0.2-0.12,0.26-0.34,0.35-0.53c0-0.05,0.01-0.09,0.02-0.14
		c0.17-0.14,0.22-0.35,0.33-0.53c0.46-0.75,0.92-1.49,1.39-2.24c0.19-0.13,0.24-0.35,0.34-0.53c0.97-1.62,1.95-3.24,2.92-4.86
		c0.09-0.14,0.15-0.3,0.22-0.45c0.13-0.26,0.19-0.57,0.49-0.72c0.96-1.29,1.53-2.83,2.6-4.05c0,0.89,0,1.78-0.01,2.67
		c-0.25,0.58-0.26,1.15,0,1.72c0,0.23,0,0.46,0,0.69c-0.56,0.15-0.32,0.61-0.33,0.93c-0.01,8.27-0.01,16.55-0.01,24.82
		c0,3.96,0,7.93,0,11.89c0,0.5,0.02,0.96-0.7,0.85c-0.28-0.39-0.17-0.84-0.17-1.26c-0.01-12.03,0-24.05-0.01-36.08
		c0-0.39,0.12-0.81-0.17-1.16c-0.57,0.14-0.33,0.6-0.34,0.93c-0.01,6.35-0.01,12.7-0.01,19.05
		C141.67,120.09,141.67,126.26,141.67,132.44z"/>
	<path class="st16" d="M117.14,98.43c0-0.37,0.16-0.92-0.03-1.09c-0.72-0.68-0.22-1.46-0.3-2.17c-0.09-0.82-0.02-1.67-0.02-2.5
		c0-13.97,0-27.94,0-41.92c0-0.42-0.17-0.9,0.51-1.1c0.35-0.1,0.12-0.62,0.18-0.95c0.51,0.6,1.06,1.13,1.05,2.06
		c-0.02,15.66-0.02,31.32-0.02,46.99c0,0.11-0.02,0.23,0,0.34c0.08,0.5-0.34,0.82-0.47,1.24C117.61,99.17,117.31,98.86,117.14,98.43
		z"/>
	<path class="st50" d="M69.8,132.59c-0.11,0-0.23,0-0.34,0c0-10.08,0-20.16,0-30.24c0.11,0,0.23,0,0.34,0
		C69.8,112.43,69.8,122.51,69.8,132.59z"/>
	<path class="st16" d="M121.27,52.35c0.22,0.52,0.66,0.93,0.76,1.51c-0.48-0.27-0.95-0.42-1.43,0.03c-0.1,0.09-0.32,0.2-0.45,0.01
		c-0.05-0.07-0.05-0.26,0.01-0.31c0.65-0.61,0.12-1.45,0.43-2.12c0.11,0.12,0.22,0.24,0.33,0.35
		C121.11,51.95,121.16,52.17,121.27,52.35z"/>
	<path class="st16" d="M119.57,49.88c0.23,0.3,0.45,0.6,0.68,0.9c0.1,0.12,0.09,0.23,0,0.35c-0.36,0.06-0.47,0.91-1.04,0.35
		C119.12,50.89,119.75,50.47,119.57,49.88z"/>
	<path class="st17" d="M117.81,130.5c0.05,0.41,0.37,0.64,0.67,0.95c-0.48,0.21-0.8-0.13-1.17-0.2
		C117.44,130.98,117.5,130.66,117.81,130.5z"/>
	<path class="st51" d="M136.81,77.58c0.02-0.25,0.04-0.51,0.06-0.82c0.37,0.1,0.62,0.27,0.62,0.61c0,0.45-0.39,0.3-0.65,0.34
		C136.81,77.67,136.8,77.63,136.81,77.58z"/>
	<path class="st16" d="M119.24,51.27c-0.08,0.73,0.06,1.27-0.21,1.79C118.88,52.52,118.67,51.97,119.24,51.27z"/>
	<path class="st16" d="M119.17,54.59c0.22,0,0.35,0.08,0.36,0.29c0.01,0.25-0.11,0.37-0.36,0.36c-0.21-0.01-0.3-0.14-0.29-0.33
		C118.89,54.71,119,54.61,119.17,54.59z"/>
	<path class="st52" d="M124.35,57.35c0.69,0.14,0.77,0.63,0.72,1.21C124.73,58.22,124.42,57.86,124.35,57.35z"/>
	<path class="st53" d="M118.88,128.48c-0.14,0.46-0.41,0.84-0.71,1.2C118.13,129.11,118.23,128.63,118.88,128.48z"/>
	<path class="st54" d="M140.79,92.91c-0.11,0.27-0.22,0.55-0.49,0.72C140.27,93.25,140.21,92.86,140.79,92.91z"/>
	<path class="st55" d="M120.25,51.12c0-0.12,0-0.23,0-0.35c0.34,0.03,0.35,0.27,0.34,0.53C120.48,51.24,120.36,51.18,120.25,51.12z"
		/>
	<path class="st56" d="M141.3,84.97c0.48,0.02,0.34,0.4,0.38,0.67C141.44,85.48,141.35,85.23,141.3,84.97z"/>
	<path class="st57" d="M143.02,87.74c0.12,0,0.25,0,0.37,0c0,0.22-0.01,0.45-0.01,0.67C143.19,88.23,143.07,88,143.02,87.74z"/>
	<path class="st58" d="M142.35,86.69c0.37,0.02,0.36,0.27,0.34,0.54C142.49,87.1,142.35,86.94,142.35,86.69z"/>
	<path class="st59" d="M137.16,98.93c0.02,0.26,0.02,0.52-0.34,0.53C136.83,99.22,136.96,99.05,137.16,98.93z"/>
	<path class="st60" d="M135.43,101.7c0.02,0.26,0.02,0.5-0.33,0.53C135.1,101.98,135.22,101.81,135.43,101.7z"/>
	<path class="st61" d="M135.08,102.37c0.03,0.27,0.04,0.53-0.35,0.53C134.75,102.66,134.89,102.5,135.08,102.37z"/>
	<path class="st62" d="M134.4,103.42c0.02,0.26,0.02,0.51-0.34,0.54C134.06,103.7,134.2,103.54,134.4,103.42z"/>
	<path class="st63" d="M131.64,107.91c0.01,0.26,0.01,0.51-0.34,0.53C131.31,108.2,131.44,108.03,131.64,107.91z"/>
	<path class="st64" d="M126.45,60.8c0.38,0.01,0.37,0.28,0.34,0.55C126.59,61.21,126.47,61.04,126.45,60.8z"/>
	<path class="st65" d="M130.6,109.62c0.02,0.27,0.03,0.52-0.34,0.54C130.26,109.92,130.4,109.75,130.6,109.62z"/>
	<path class="st66" d="M123.01,55.27c0.35,0.02,0.35,0.27,0.33,0.53C123.14,55.68,123.01,55.51,123.01,55.27z"/>
	<path class="st67" d="M126.11,116.89c0.01,0.26,0.01,0.5-0.33,0.53C125.77,117.17,125.91,117.01,126.11,116.89z"/>
	<path class="st68" d="M125.08,118.62c0.01,0.26,0.02,0.53-0.36,0.52C124.75,118.9,124.87,118.73,125.08,118.62z"/>
	<path class="st69" d="M124.03,120.33c0.02,0.27,0.04,0.53-0.34,0.53C123.7,120.62,123.83,120.45,124.03,120.33z"/>
	<path class="st70" d="M134.06,73.22c0.36,0.03,0.36,0.28,0.33,0.54C134.2,73.63,134.06,73.47,134.06,73.22z"/>
	<path class="st71" d="M128.53,64.24c0.35,0.02,0.36,0.27,0.34,0.53C128.67,64.65,128.54,64.49,128.53,64.24z"/>
	<path class="st72" d="M116.8,131.93c-0.01,0.24-0.13,0.41-0.34,0.52C116.44,132.19,116.44,131.94,116.8,131.93z"/>
	<path class="st73" d="M260.55,87.1c-0.83,1.88-2.33,3-4.18,3.73c-0.99,0.39-2.01,0.4-3.05,0.4c-11.77,0-23.54,0-35.31,0.02
		c-0.8,0-0.99-0.25-0.99-1.03c0.03-7.51,0.02-15.01,0.02-22.52c0-1.25,0.01-1.25,1.23-1.25c5.5,0,10.99,0,16.49-0.01
		c5.64-0.01,11.28-0.1,16.92-0.01c2.47,0.04,4.97,0.29,7.16,1.65c0.12,0.07,0.2,0.19,0.3,0.29c0.12,0.1,0.14,0.32,0.36,0.31
		c1.03,0.67,1.73,1.59,2.08,2.78c0.13,0.17,0.2,0.37,0.3,0.55c0.78,3.25,0.33,6.55,0.36,9.83c-0.35,0.54-0.1,1.18-0.32,1.75
		c-0.05,0.99-0.45,1.87-0.92,2.73C260.56,86.42,260.74,86.87,260.55,87.1z"/>
	<path class="st4" d="M216.82,132.44c-8.93,0-17.86,0-26.79,0c-0.01-0.95-0.04-1.9-0.04-2.84c0-13.2,0-26.39,0.02-39.59
		c0-0.38-0.22-0.76,0.01-1.14c0.83,1,1.43,2.14,2.1,3.24c3.6,5.83,7.17,11.68,10.75,17.52c3.93,6.4,7.86,12.8,11.79,19.2
		C215.39,130.02,216.2,131.17,216.82,132.44z"/>
	<path class="st74" d="M261.91,83.6c0.03-0.6-0.41-1.28,0.32-1.75C262.28,82.46,262.24,83.06,261.91,83.6z"/>
	<path class="st75" d="M260.55,87.1c-0.01-0.25-0.06-0.51-0.02-0.75c0.1-0.58,0.3-0.14,0.46-0.03
		C260.86,86.59,260.97,87,260.55,87.1z"/>
	<path class="st76" d="M259.5,68.69c-0.04,0.12-0.03,0.35-0.21,0.28c-0.27-0.1-0.11-0.39-0.15-0.59
		C259.34,68.38,259.5,68.45,259.5,68.69z"/>
	<path class="st77" d="M261.87,72.02c-0.2-0.13-0.37-0.28-0.3-0.55C261.87,71.54,261.9,71.76,261.87,72.02z"/>
	<path class="st78" d="M188.31,45.94c0,0.48,0,0.96,0,1.44c0,12.42,0,24.84-0.01,37.25c0,0.34,0.27,0.84-0.33,1.01
		c0-12.53-0.01-25.07,0.02-37.6c0-0.88-0.22-1.21-1.1-1.08c-0.42,0.06-0.86,0.03-1.29,0c-0.19-0.01-0.51,0.05-0.39-0.34
		c0.59-0.36,1.23-0.07,1.75-0.17c-0.51-0.1-1.16,0.19-1.75-0.17c-0.08-0.03-0.21-0.04-0.22-0.09c-0.05-0.16-0.05-0.33-0.07-0.51
		C186.05,46.17,187.19,45.85,188.31,45.94z"/>
	<path class="st13" d="M143.38,85.65c-0.15-0.03-0.29-0.08-0.31-0.24c-0.09-0.84,0.14-1.73-0.37-2.52c0.25-0.3,0.17-0.66,0.17-1
		c0-11.47,0-22.95,0-34.42c0-0.41,0.02-0.8-0.34-1.14c-0.27-0.27-0.51-0.65-0.18-1.08c0.35,0.09,0.6,0.48,1.03,0.35
		c0.01,0.63,0.03,1.26,0.03,1.89c0,12.38,0,24.75,0,37.13C143.42,84.96,143.4,85.31,143.38,85.65z"/>
	<path class="st78" d="M188.31,90.83c0,13.87,0,27.74,0,41.61c-0.57-0.14-0.33-0.61-0.33-0.93c-0.01-5.69-0.01-11.38-0.01-17.07
		c0-7.56,0-15.12,0.01-22.68C187.97,91.44,187.74,90.97,188.31,90.83z"/>
	<path class="st79" d="M143.85,46.36c0.48-0.15,0.98-0.03,1.47-0.07c0.44-0.04,0.92,0.13,1.3-0.26c0.12-0.12,0.34-0.11,0.46,0.04
		c0.06,0.07,0.09,0.21,0.07,0.32c-0.04,0.21-0.22,0.24-0.4,0.24c-0.97,0-1.93,0-2.9,0C143.86,46.54,143.86,46.45,143.85,46.36z"/>
	<path class="st79" d="M185.2,46.29c0.88,0,1.77,0,2.65,0c0,0.11,0,0.23,0,0.34c-0.88,0-1.77,0-2.65,0
		C185.2,46.52,185.2,46.4,185.2,46.29z"/>
	<path class="st13" d="M143.39,93.25c-0.48-0.46-0.49-1.25,0-1.72C143.38,92.1,143.39,92.67,143.39,93.25z"/>
	<path class="st11" d="M118.17,47.32c-0.06-0.11-0.13-0.22-0.19-0.33c0.05-0.19,0.06-0.43,0.36-0.36c0.06,0,0.12,0,0.17,0
		c0.36-0.27,0.78-0.17,1.17-0.17c6.61-0.01,13.22,0,19.84-0.01c-6.53,0-13.06,0-19.58-0.01c-0.36,0-0.75,0.11-1.08-0.17
		c0.06-0.43,0.4-0.34,0.67-0.34c7.02,0,14.04,0,21.05,0c0.39,0,0.76-0.03,0.74,0.55c-0.02,0.62-0.46,0.48-0.81,0.48
		c-6.36,0.01-12.71,0.01-19.07,0c-0.95,0-1.88,0.44-2.85,0.13c0,0-0.06,0.15-0.09,0.22C118.4,47.43,118.28,47.42,118.17,47.32z"/>
	<path class="st11" d="M142.36,45.25c-0.12,0.42,0.18,0.71,0.35,1.01c0.24,0.44,0.08-0.32,0.34-0.07c0,0.2,0,0.44,0,0.69
		c0,11.67,0,23.33-0.01,35c0,0.34,0.27,0.84-0.33,1.01c0-11.63,0-23.27-0.01-34.9c0-0.34,0.27-0.84-0.33-1.01v0
		c-0.03-0.26,0.09-0.58-0.3-0.69c-0.67-0.19-0.43-0.78-0.33-1.11C141.87,44.68,142.11,45.4,142.36,45.25z"/>
	<path class="st14" d="M142.01,82.89c-0.57-0.14-0.33-0.61-0.34-0.93c-0.01-7.64-0.01-15.29-0.01-22.93c0-3.74,0-7.47,0.01-11.21
		c0-0.3-0.19-0.73,0.34-0.84c0.24,0.3,0.17,0.66,0.17,1c0,11.31,0,22.61,0,33.92C142.18,82.23,142.25,82.59,142.01,82.89z"/>
	<path class="st80" d="M142.01,82.89c0-11.97,0-23.94,0-35.91c0.12,0,0.23,0,0.35,0c0,0,0,0,0,0c0,11.63,0,23.27-0.01,34.9
		C142.34,82.22,142.61,82.72,142.01,82.89z"/>
	<path class="st19" d="M118.86,46.29c7.33,0,14.66,0,21.99,0c0,0.12,0,0.23,0,0.35c-7.44,0-14.89,0-22.33,0
		C118.52,46.41,118.64,46.29,118.86,46.29z"/>
	<path class="st81" d="M118.52,45.25c7.18,0,14.35,0,21.53,0.01c0.32,0,0.79-0.23,0.93,0.33c-7.49,0-14.97,0-22.46,0
		C118.43,45.48,118.42,45.37,118.52,45.25z"/>
	<path class="st19" d="M118.35,46.63c-0.12,0.12-0.24,0.24-0.36,0.36c-0.16-0.23-0.31-0.47-0.47-0.7
		C117.81,46.36,118.25,46.09,118.35,46.63z"/>
	<path class="st19" d="M118.52,45.25c0,0.11,0,0.23,0,0.34c-0.01,0.1-0.03,0.26-0.15,0.21c-0.24-0.1-0.18-0.35-0.2-0.56
		C118.29,45.25,118.4,45.25,118.52,45.25z"/>
	<path class="st82" d="M118.17,47.32c0.11,0,0.23,0.01,0.34,0.01c0,0.18-0.01,0.36-0.01,0.54C118.3,47.74,118.17,47.57,118.17,47.32
		z"/>
	<path class="st83" d="M121.27,52.35c-0.19-0.13-0.33-0.29-0.35-0.53C121.3,51.83,121.29,52.09,121.27,52.35z"/>
	<path class="st8" d="M189.06,85.53c0-12.81,0-25.62,0-38.43c0.06,0,0.11,0,0.17,0c0,12.81,0,25.62,0,38.43
		C189.17,85.53,189.11,85.53,189.06,85.53z"/>
	<path class="st84" d="M189,90.83c-0.08-0.03-0.22-0.05-0.23-0.09c-0.22-0.84-0.15-1.69-0.04-2.53c0.02-0.18,0.19-0.34,0.45-0.43
		C188.88,88.82,189.01,89.83,189,90.83L189,90.83z"/>
	<path class="st78" d="M189.67,46.28c0,0.12,0,0.24,0,0.36c-0.19-0.06-0.55,0.11-0.55-0.18C189.13,46.17,189.48,46.34,189.67,46.28z
		"/>
	<path class="st85" d="M142.01,93.94c0.03-0.09,0.05-0.29,0.17-0.14c0.25,0.31,0.17,0.71,0.17,1.08c0,12.52,0,25.04,0,37.56
		c-0.12,0-0.23,0-0.35,0C142.01,119.61,142.01,106.77,142.01,93.94z"/>
</g>
</svg>
