<?xml version="1.0" encoding="utf-8"?>
<!-- Generator: Adobe Illustrator 22.1.0, SVG Export Plug-In . SVG Version: 6.00 Build 0)  -->
<svg version="1.1" xmlns="http://www.w3.org/2000/svg" xmlns:xlink="http://www.w3.org/1999/xlink" x="0px" y="0px" width="383px"
	 height="150.8px" viewBox="0 0 383 150.8" style="enable-background:new 0 0 383 150.8;" xml:space="preserve">
<style type="text/css">
	.st0{fill:#D26124;}
	.st1{fill:#FFFFFF;}
	.st2{fill:#FFFFFF;stroke:#00617D;stroke-width:0.8245;stroke-miterlimit:10;}
	.st3{fill:#00617D;}
	.st4{opacity:0.25;}
	.st5{fill:none;stroke:#FFFFFF;stroke-width:0.471;stroke-miterlimit:10;}
	.st6{clip-path:url(#SVGID_2_);fill:url(#SVGID_3_);}
	.st7{clip-path:url(#SVGID_5_);fill:url(#SVGID_6_);}
	.st8{clip-path:url(#SVGID_8_);fill:url(#SVGID_9_);}
	.st9{fill:#00789A;}
	.st10{fill:none;stroke:#818080;stroke-width:0.5;stroke-linecap:round;stroke-linejoin:round;stroke-miterlimit:10;}
	.st11{fill:#0095C0;}
	.st12{fill:url(#SVGID_10_);}
	.st13{fill:url(#SVGID_11_);}
	.st14{fill:url(#SVGID_12_);}
	.st15{fill:url(#SVGID_13_);}
	.st16{fill:url(#SVGID_14_);}
	.st17{fill:url(#SVGID_15_);}
	.st18{fill:url(#SVGID_16_);}
	.st19{fill:url(#SVGID_17_);}
	.st20{fill:url(#SVGID_18_);}
	.st21{fill:url(#SVGID_19_);}
	.st22{fill:url(#SVGID_20_);}
	.st23{fill:url(#SVGID_21_);}
	.st24{fill:url(#SVGID_22_);}
	.st25{fill:url(#SVGID_23_);}
	.st26{fill:url(#SVGID_24_);}
	.st27{fill:url(#SVGID_25_);}
	.st28{fill:url(#);}
	.st29{clip-path:url(#SVGID_27_);}
	.st30{clip-path:url(#SVGID_29_);}
	.st31{clip-path:url(#SVGID_31_);fill:#FFFFFF;}
	.st32{clip-path:url(#SVGID_33_);fill:#FFFFFF;}
	.st33{clip-path:url(#SVGID_35_);fill:#FFFFFF;}
	.st34{clip-path:url(#SVGID_37_);fill:#FFFFFF;}
	.st35{clip-path:url(#SVGID_39_);}
	.st36{clip-path:url(#SVGID_41_);fill:#FFFFFF;}
	.st37{clip-path:url(#SVGID_43_);fill:#FFFFFF;}
	.st38{clip-path:url(#SVGID_47_);}
	.st39{clip-path:url(#SVGID_49_);}
	.st40{clip-path:url(#SVGID_51_);fill:#FFFFFF;}
	.st41{clip-path:url(#SVGID_53_);fill:#FFFFFF;}
	.st42{clip-path:url(#SVGID_55_);fill:#FFFFFF;}
	.st43{fill:none;}
	.st44{fill:#D26124;stroke:#FFFFFF;stroke-width:6;stroke-miterlimit:10;}
	.st45{fill:none;stroke:#FFFFFF;stroke-width:6;stroke-miterlimit:10;}
	.st46{clip-path:url(#SVGID_61_);}
	.st47{opacity:0.5;fill:url(#SVGID_62_);}
	.st48{clip-path:url(#SVGID_64_);}
	.st49{fill:#706F6F;}
	.st50{fill:#B70E0C;}
	.st51{fill:#E30613;}
	.st52{fill:#9D9D9C;}
	.st53{fill:#F3975B;}
	.st54{fill:#ED6C2A;}
	.st55{fill:none;stroke:#FFFFFF;stroke-width:2;stroke-miterlimit:10;stroke-dasharray:3,3;}
	.st56{fill:none;stroke:#00617D;stroke-width:3;stroke-miterlimit:10;}
	.st57{clip-path:url(#SVGID_66_);fill:url(#SVGID_67_);}
	.st58{clip-path:url(#SVGID_69_);fill:url(#SVGID_70_);}
	.st59{clip-path:url(#SVGID_72_);fill:url(#SVGID_73_);}
	.st60{fill:url(#SVGID_74_);}
	.st61{fill:url(#SVGID_75_);}
	.st62{fill:url(#SVGID_76_);}
	.st63{fill:url(#SVGID_77_);}
	.st64{fill:url(#SVGID_78_);}
	.st65{fill:url(#SVGID_79_);}
	.st66{fill:url(#SVGID_80_);}
	.st67{fill:url(#SVGID_81_);}
	.st68{clip-path:url(#SVGID_83_);}
	.st69{clip-path:url(#SVGID_85_);}
	.st70{clip-path:url(#SVGID_87_);fill:#FFFFFF;}
	.st71{clip-path:url(#SVGID_89_);fill:#FFFFFF;}
	.st72{clip-path:url(#SVGID_91_);fill:#FFFFFF;}
	.st73{clip-path:url(#SVGID_93_);fill:#FFFFFF;}
	.st74{clip-path:url(#SVGID_95_);}
	.st75{clip-path:url(#SVGID_97_);fill:#FFFFFF;}
	.st76{clip-path:url(#SVGID_99_);fill:#FFFFFF;}
	.st77{clip-path:url(#SVGID_103_);}
	.st78{clip-path:url(#SVGID_105_);}
	.st79{clip-path:url(#SVGID_107_);fill:#FFFFFF;}
	.st80{clip-path:url(#SVGID_109_);fill:#FFFFFF;}
	.st81{clip-path:url(#SVGID_111_);fill:#FFFFFF;}
	.st82{clip-path:url(#SVGID_117_);}
	.st83{opacity:0.5;fill:url(#SVGID_118_);}
	.st84{clip-path:url(#SVGID_120_);}
	.st85{fill:url(#SVGID_121_);}
	.st86{fill:url(#SVGID_122_);}
	.st87{fill:url(#SVGID_123_);}
	.st88{fill:url(#SVGID_124_);}
	.st89{fill:url(#SVGID_125_);}
	.st90{fill:url(#SVGID_126_);}
	.st91{fill:url(#SVGID_127_);}
	.st92{fill:url(#SVGID_128_);}
	.st93{fill:#72B3D3;}
	.st94{fill:url(#SVGID_129_);}
	.st95{fill:url(#SVGID_130_);}
	.st96{fill:url(#SVGID_131_);}
	.st97{fill:url(#SVGID_132_);}
	.st98{fill:url(#SVGID_133_);}
	.st99{fill:url(#SVGID_134_);}
	.st100{fill:url(#SVGID_135_);}
	.st101{fill:url(#SVGID_136_);}
	.st102{fill:url(#SVGID_137_);}
	.st103{fill:url(#SVGID_138_);}
	.st104{fill:url(#SVGID_139_);}
	.st105{fill:url(#SVGID_140_);}
	.st106{fill:url(#SVGID_141_);}
	.st107{fill:url(#SVGID_142_);}
	.st108{fill:url(#SVGID_143_);}
	.st109{fill:url(#SVGID_144_);}
	.st110{clip-path:url(#SVGID_146_);}
	.st111{clip-path:url(#SVGID_148_);}
	.st112{clip-path:url(#SVGID_150_);}
	.st113{clip-path:url(#SVGID_152_);}
	.st114{clip-path:url(#SVGID_154_);}
	.st115{clip-path:url(#SVGID_156_);}
	.st116{clip-path:url(#SVGID_158_);}
	.st117{fill:url(#SVGID_159_);}
	.st118{fill:url(#SVGID_160_);}
	.st119{fill:url(#SVGID_161_);}
	.st120{fill:url(#SVGID_162_);}
	.st121{fill:url(#SVGID_163_);}
	.st122{fill:url(#SVGID_164_);}
	.st123{fill:url(#SVGID_165_);}
	.st124{fill:url(#SVGID_166_);}
	.st125{clip-path:url(#SVGID_168_);}
	.st126{fill:url(#SVGID_169_);}
	.st127{fill:url(#SVGID_170_);}
	.st128{fill:url(#SVGID_171_);}
	.st129{fill:url(#SVGID_172_);}
	.st130{fill:url(#SVGID_173_);}
	.st131{fill:url(#SVGID_174_);}
	.st132{fill:url(#SVGID_175_);}
	.st133{fill:url(#SVGID_176_);}
</style>
<g id="Layer_1">
	<g>
		<g>
			<line class="st10" x1="32.2" y1="139.5" x2="44.5" y2="140.1"/>
			<line class="st10" x1="44.5" y1="140.1" x2="84.1" y2="142"/>
			<line class="st10" x1="84.1" y1="142" x2="106.5" y2="143"/>
			<line class="st10" x1="0.3" y1="119" x2="11.5" y2="119.7"/>
			<line class="st10" x1="11.5" y1="119.7" x2="49.4" y2="121.7"/>
			<line class="st10" x1="49.4" y1="121.7" x2="87.3" y2="123.8"/>
			<line class="st10" x1="87.3" y1="123.8" x2="101.6" y2="124.5"/>
			<line class="st10" x1="7.6" y1="100.4" x2="18.1" y2="101.1"/>
			<line class="st10" x1="18.1" y1="101.1" x2="54.4" y2="103.3"/>
			<line class="st10" x1="54.4" y1="103.3" x2="90.6" y2="105.6"/>
			<line class="st10" x1="90.6" y1="105.6" x2="117.5" y2="107.2"/>
			<line class="st10" x1="14.6" y1="81.8" x2="24.8" y2="82.5"/>
			<line class="st10" x1="24.8" y1="82.5" x2="53.9" y2="84.6"/>
			<line class="st10" x1="21.6" y1="63.2" x2="31.4" y2="64"/>
			<line class="st10" x1="31.4" y1="64" x2="53.9" y2="65.7"/>
			<line class="st10" x1="28.8" y1="44.6" x2="38.1" y2="45.4"/>
			<line class="st10" x1="38.1" y1="45.4" x2="53.9" y2="46.8"/>
			<line class="st10" x1="35.9" y1="26" x2="44.7" y2="26.8"/>
			<line class="st10" x1="44.7" y1="26.8" x2="74.1" y2="29.8"/>
			<line class="st10" x1="74.1" y1="29.8" x2="103.5" y2="32.7"/>
			<line class="st10" x1="103.5" y1="32.7" x2="132.9" y2="35.6"/>
			<line class="st10" x1="132.9" y1="35.6" x2="162.3" y2="38.5"/>
			<line class="st10" x1="162.3" y1="38.5" x2="191.7" y2="41.4"/>
			<line class="st10" x1="191.7" y1="41.4" x2="210.2" y2="43.3"/>
			<line class="st10" x1="42.9" y1="7.3" x2="51.4" y2="8.3"/>
			<line class="st10" x1="51.4" y1="8.3" x2="79.1" y2="11.4"/>
			<line class="st10" x1="79.1" y1="11.4" x2="106.7" y2="14.5"/>
			<line class="st10" x1="106.7" y1="14.5" x2="134.4" y2="17.6"/>
			<line class="st10" x1="134.4" y1="17.6" x2="162.1" y2="20.6"/>
			<line class="st10" x1="162.1" y1="20.6" x2="189.8" y2="23.7"/>
			<line class="st10" x1="189.8" y1="23.7" x2="217.5" y2="26.8"/>
			<line class="st10" x1="217.5" y1="26.8" x2="245.2" y2="29.9"/>
			<line class="st10" x1="8.7" y1="127.5" x2="11.5" y2="119.7"/>
			<line class="st10" x1="11.5" y1="119.7" x2="18.1" y2="101.1"/>
			<line class="st10" x1="18.1" y1="101.1" x2="24.8" y2="82.5"/>
			<line class="st10" x1="24.8" y1="82.5" x2="31.4" y2="64"/>
			<line class="st10" x1="31.4" y1="64" x2="38.1" y2="45.4"/>
			<line class="st10" x1="38.1" y1="45.4" x2="44.7" y2="26.8"/>
			<line class="st10" x1="44.7" y1="26.8" x2="51.4" y2="8.3"/>
			<line class="st10" x1="51.4" y1="8.3" x2="54.2" y2="0.3"/>
			<line class="st10" x1="44.5" y1="140.1" x2="49.4" y2="121.7"/>
			<line class="st10" x1="49.4" y1="121.7" x2="54.4" y2="103.3"/>
			<line class="st10" x1="54.4" y1="103.3" x2="57.3" y2="92.5"/>
			<line class="st10" x1="70.4" y1="43.6" x2="74.1" y2="29.8"/>
			<line class="st10" x1="74.1" y1="29.8" x2="79.1" y2="11.4"/>
			<line class="st10" x1="79.1" y1="11.4" x2="81.2" y2="3.4"/>
			<line class="st10" x1="84.1" y1="142" x2="87.4" y2="123.8"/>
			<line class="st10" x1="87.4" y1="123.8" x2="90.6" y2="105.6"/>
			<line class="st10" x1="90.6" y1="105.6" x2="92.3" y2="96"/>
			<line class="st10" x1="101" y1="46.8" x2="103.5" y2="32.7"/>
			<line class="st10" x1="103.5" y1="32.7" x2="106.8" y2="14.5"/>
			<line class="st10" x1="106.8" y1="14.5" x2="108.2" y2="6.5"/>
			<line class="st10" x1="132.3" y1="42.4" x2="132.9" y2="35.6"/>
			<line class="st10" x1="132.9" y1="35.6" x2="134.5" y2="17.6"/>
			<line class="st10" x1="134.5" y1="17.6" x2="135.1" y2="9.6"/>
			<line class="st10" x1="162.4" y1="43.2" x2="162.3" y2="38.5"/>
			<line class="st10" x1="162.3" y1="38.5" x2="162.1" y2="20.7"/>
			<line class="st10" x1="162.1" y1="20.7" x2="162.1" y2="12.7"/>
			<line class="st10" x1="191.7" y1="41.4" x2="189.8" y2="23.7"/>
			<line class="st10" x1="189.8" y1="23.7" x2="189" y2="16"/>
			<line class="st10" x1="220.9" y1="43.4" x2="217.5" y2="26.8"/>
			<line class="st10" x1="217.5" y1="26.8" x2="215.9" y2="19"/>
			<line class="st10" x1="249.4" y1="43.4" x2="245.2" y2="29.9"/>
			<line class="st10" x1="245.2" y1="29.9" x2="242.9" y2="22.3"/>
		</g>
		<g>
			<g>
				<path class="st11" d="M15.5,119.9c-0.4,1.1-2.5,1.9-4.7,1.8c-2.2-0.1-3.7-1.1-3.3-2.2c0.4-1.1,2.5-1.9,4.7-1.8
					C14.4,117.8,15.9,118.8,15.5,119.9z"/>
			</g>
			<g>
				<path class="st11" d="M22,101.3c-0.4,1.1-2.4,1.9-4.5,1.7c-2.1-0.1-3.5-1.1-3.1-2.2c0.4-1.1,2.4-1.9,4.5-1.7
					C20.9,99.3,22.4,100.2,22,101.3z"/>
			</g>
			<g>
				<path class="st11" d="M28.4,82.8c-0.4,1.1-2.3,1.9-4.4,1.7c-2-0.1-3.4-1.1-3-2.2c0.4-1.1,2.4-1.9,4.4-1.7
					C27.5,80.7,28.8,81.7,28.4,82.8z"/>
			</g>
			<g>
				<path class="st11" d="M34.9,64.2c-0.4,1.1-2.3,1.8-4.2,1.7c-1.9-0.1-3.2-1.2-2.8-2.2c0.4-1.1,2.3-1.8,4.2-1.7
					C34,62.2,35.3,63.2,34.9,64.2z"/>
			</g>
			<g>
				<path class="st11" d="M41.4,45.7c-0.4,1.1-2.2,1.8-4,1.7c-1.8-0.2-3-1.2-2.6-2.3c0.4-1.1,2.2-1.8,4-1.7
					C40.6,43.6,41.8,44.6,41.4,45.7z"/>
			</g>
			<g>
				<path class="st11" d="M47.8,27.2c-0.4,1.1-2.1,1.8-3.8,1.7c-1.7-0.2-2.8-1.2-2.4-2.3c0.4-1.1,2.1-1.8,3.8-1.7
					C47.1,25,48.2,26.1,47.8,27.2z"/>
			</g>
			<g>
				<g>
					<path class="st11" d="M54.3,8.6c-0.4,1.1-2,1.8-3.6,1.6C49,10.1,48,9,48.4,8c0.4-1.1,2-1.8,3.6-1.6C53.7,6.5,54.7,7.5,54.3,8.6
						z"/>
				</g>
			</g>
			<g>
				<path class="st11" d="M48.7,140.3c-0.3,1.1-2.4,1.9-4.7,1.8c-2.3-0.1-4-1.1-3.7-2.2c0.3-1.1,2.4-1.9,4.7-1.8
					C47.3,138.3,49,139.2,48.7,140.3z"/>
			</g>
			<g>
				<path class="st11" d="M53.4,121.9c-0.3,1.1-2.3,1.9-4.5,1.7c-2.2-0.1-3.8-1.1-3.5-2.2c0.3-1.1,2.3-1.9,4.5-1.7
					C52.2,119.9,53.7,120.9,53.4,121.9z"/>
			</g>
			<g>
				<path class="st11" d="M58.2,103.6c-0.3,1.1-2.2,1.8-4.4,1.7c-2.1-0.1-3.6-1.1-3.3-2.2c0.3-1.1,2.3-1.8,4.4-1.7
					C57,101.5,58.5,102.5,58.2,103.6z"/>
			</g>
			<g>
				<path class="st11" d="M77.2,30.1c-0.3,1.1-1.9,1.8-3.6,1.6c-1.7-0.2-2.9-1.2-2.6-2.3c0.3-1.1,1.9-1.8,3.6-1.6
					C76.4,28,77.5,29,77.2,30.1z"/>
			</g>
			<g>
				<g>
					<path class="st11" d="M82,11.7c-0.3,1.1-1.8,1.8-3.5,1.6c-1.6-0.2-2.7-1.2-2.4-2.3c0.3-1.1,1.9-1.8,3.5-1.6
						C81.2,9.6,82.3,10.6,82,11.7z"/>
				</g>
			</g>
			<g>
				<path class="st11" d="M88.3,142.2c-0.2,1.1-2.2,1.8-4.5,1.7c-2.3-0.1-4.1-1.1-3.9-2.1c0.2-1.1,2.2-1.8,4.6-1.7
					C86.8,140.2,88.5,141.1,88.3,142.2z"/>
			</g>
			<g>
				<path class="st11" d="M91.4,124c-0.2,1.1-2.1,1.8-4.4,1.7c-2.2-0.1-3.9-1.1-3.7-2.2c0.2-1.1,2.2-1.8,4.4-1.7
					C89.9,122,91.6,122.9,91.4,124z"/>
			</g>
			<g>
				<path class="st11" d="M94.4,105.8c-0.2,1.1-2.1,1.8-4.2,1.7c-2.1-0.1-3.7-1.1-3.5-2.2c0.2-1.1,2.1-1.8,4.2-1.7
					C93,103.8,94.6,104.7,94.4,105.8z"/>
			</g>
			<g>
				<path class="st11" d="M106.6,33c-0.2,1.1-1.7,1.8-3.5,1.6c-1.7-0.2-3-1.2-2.8-2.2c0.2-1.1,1.8-1.8,3.5-1.6
					C105.6,30.9,106.8,31.9,106.6,33z"/>
			</g>
			<g>
				<g>
					<path class="st11" d="M109.7,14.8c-0.2,1.1-1.6,1.8-3.3,1.6c-1.6-0.2-2.8-1.2-2.6-2.3c0.2-1.1,1.7-1.8,3.3-1.6
						C108.7,12.7,109.9,13.7,109.7,14.8z"/>
				</g>
			</g>
			<g>
				<path class="st11" d="M136,35.9c-0.1,1.1-1.5,1.8-3.3,1.6c-1.7-0.2-3.1-1.2-3-2.2c0.1-1.1,1.6-1.8,3.3-1.6
					C134.8,33.9,136.1,34.9,136,35.9z"/>
			</g>
			<g>
				<g>
					<path class="st11" d="M137.4,17.9c-0.1,1.1-1.5,1.8-3.1,1.6c-1.6-0.2-2.9-1.2-2.8-2.2c0.1-1.1,1.5-1.8,3.1-1.6
						C136.2,15.8,137.5,16.8,137.4,17.9z"/>
				</g>
			</g>
			<g>
				<path class="st11" d="M165.4,38.8c0,1-1.4,1.8-3.1,1.6c-1.7-0.2-3.1-1.2-3.1-2.2c0-1,1.4-1.8,3.1-1.6
					C164,36.8,165.4,37.8,165.4,38.8z"/>
			</g>
			<g>
				<g>
					<path class="st11" d="M165.1,21c0,1-1.3,1.7-2.9,1.6c-1.6-0.2-3-1.2-3-2.2c0-1,1.3-1.8,2.9-1.6C163.7,18.9,165.1,19.9,165.1,21
						z"/>
				</g>
			</g>
			<g>
				<path class="st11" d="M194.8,41.8c0.1,1-1.2,1.7-2.9,1.6c-1.7-0.2-3.2-1.1-3.3-2.2c-0.1-1,1.2-1.7,2.9-1.6
					C193.2,39.7,194.7,40.7,194.8,41.8z"/>
			</g>
			<g>
				<g>
					<path class="st11" d="M192.8,24.1c0.1,1-1.1,1.7-2.7,1.5c-1.6-0.2-3-1.2-3.1-2.2c-0.1-1,1.1-1.7,2.7-1.6
						C191.3,22,192.7,23,192.8,24.1z"/>
				</g>
			</g>
			<g>
				<g>
					<path class="st11" d="M220.5,27.2c0.2,1-0.9,1.7-2.6,1.5c-1.6-0.2-3.1-1.2-3.3-2.2c-0.2-1,0.9-1.7,2.6-1.5
						C218.8,25.2,220.2,26.1,220.5,27.2z"/>
				</g>
			</g>
			<g>
				<g>
					<path class="st11" d="M248.2,30.3c0.3,1-0.7,1.7-2.4,1.5c-1.6-0.2-3.2-1.2-3.5-2.2c-0.3-1,0.8-1.7,2.4-1.5
						C246.3,28.3,247.8,29.2,248.2,30.3z"/>
				</g>
			</g>
		</g>
		<linearGradient id="SVGID_2_" gradientUnits="userSpaceOnUse" x1="68.4455" y1="47.7539" x2="68.4455" y2="88.625">
			<stop  offset="0" style="stop-color:#F3975B"/>
			<stop  offset="1" style="stop-color:#B6551E"/>
		</linearGradient>
		<path style="fill:url(#SVGID_2_);" d="M58.2,47.5h10.2c6.3,0,10.2,3.9,10.2,10.6v6.9c0,6.8-3.9,10.6-10.2,10.6h-1.3v12.7h-8.9
			V47.5z M68.5,67.8c1.1,0,1.3-1,1.3-3.8v-4.7c0-2.8-0.2-3.7-1.3-3.7h-1.3v12.2H68.5z"/>
		<linearGradient id="SVGID_3_" gradientUnits="userSpaceOnUse" x1="91.988" y1="47.7535" x2="91.988" y2="88.658">
			<stop  offset="0" style="stop-color:#F3975B"/>
			<stop  offset="1" style="stop-color:#B6551E"/>
		</linearGradient>
		<path style="fill:url(#SVGID_3_);" d="M97.2,95.1l-6.3-6.3h-0.1c-6.3,0-10.2-3.9-10.2-10.6V57.7c0-6.8,4-10.6,10.2-10.6
			c6.3,0,10.2,3.8,10.2,10.6v20.5c0,2.6-0.6,4.8-1.6,6.5l4.1,4.1L97.2,95.1z M89.5,77.1c0,2.8,0.1,3.8,1.3,3.8c1.1,0,1.3-1,1.3-3.8
			V58.8c0-2.8-0.2-3.8-1.3-3.8c-1.2,0-1.3,1-1.3,3.8V77.1z"/>
		<linearGradient id="SVGID_5_" gradientUnits="userSpaceOnUse" x1="131.362" y1="48.9544" x2="131.362" y2="98.9452">
			<stop  offset="0" style="stop-color:#72B3D3"/>
			<stop  offset="1" style="stop-color:#00789A"/>
		</linearGradient>
		<path style="fill:url(#SVGID_5_);" d="M105.7,116.8H128v4.8c0,6.5,0.3,9.4,3.3,9.4c3,0,3.4-2.2,3.4-7.5v-2.9
			c0-4.9-3.5-8.7-11-14.2c-7.6-5.6-17.8-12.7-17.8-27.8V73c0-17,9.9-26.6,25.5-26.6C146.9,46.5,157,56,157,73v6.1h-22.3v-4
			c0-6.1-0.4-8.9-3.4-8.9c-2.9,0-3.3,2.3-3.3,7.5v2.9c0,4.9,3.5,8.6,11.3,14c7.5,5.6,17.7,12.8,17.7,27.9v5.6
			c0,16.9-10.1,26.6-25.7,26.6c-15.7,0-25.5-9.7-25.5-26.6V116.8z"/>
		<linearGradient id="SVGID_6_" gradientUnits="userSpaceOnUse" x1="189.3813" y1="48.9542" x2="189.3813" y2="98.9451">
			<stop  offset="0" style="stop-color:#72B3D3"/>
			<stop  offset="1" style="stop-color:#00789A"/>
		</linearGradient>
		<path style="fill:url(#SVGID_6_);" d="M161.7,47.5h22.3v40.7h10.6V47.5H217v102.2h-22.3v-41.4h-10.6v41.4h-22.3V47.5z"/>
		<linearGradient id="SVGID_8_" gradientUnits="userSpaceOnUse" x1="232.9587" y1="48.9542" x2="232.9587" y2="98.9451">
			<stop  offset="0" style="stop-color:#72B3D3"/>
			<stop  offset="1" style="stop-color:#00789A"/>
		</linearGradient>
		<path style="fill:url(#SVGID_8_);" d="M221.8,47.5h22.3v102.2h-22.3V47.5z"/>
		<linearGradient id="SVGID_9_" gradientUnits="userSpaceOnUse" x1="267.2719" y1="48.9542" x2="267.2719" y2="98.9451">
			<stop  offset="0" style="stop-color:#72B3D3"/>
			<stop  offset="1" style="stop-color:#00789A"/>
		</linearGradient>
		<path style="fill:url(#SVGID_9_);" d="M248.9,47.5h36.8v19.8h-14.4v21.1h14.4v19.8h-14.4V130h14.4v19.8h-36.8V47.5z"/>
		<linearGradient id="SVGID_10_" gradientUnits="userSpaceOnUse" x1="308.8059" y1="48.9542" x2="308.8059" y2="98.9451">
			<stop  offset="0" style="stop-color:#72B3D3"/>
			<stop  offset="1" style="stop-color:#00789A"/>
		</linearGradient>
		<path class="st12" d="M290.4,47.5h22.3v82.2h14.4v20h-36.8V47.5z"/>
		<linearGradient id="SVGID_11_" gradientUnits="userSpaceOnUse" x1="357.4921" y1="48.9542" x2="357.4921" y2="98.9451">
			<stop  offset="0" style="stop-color:#72B3D3"/>
			<stop  offset="1" style="stop-color:#00789A"/>
		</linearGradient>
		<path class="st13" d="M331.9,47.5h25.6c15.7,0,25.5,9.7,25.5,26.6v49c0,16.9-9.8,26.6-25.5,26.6h-25.6V47.5z M357.6,129.7
			c2.9,0,3.3-2.3,3.3-9.3V76.8c0-6.9-0.4-9.3-3.3-9.3h-3.3v62.1H357.6z"/>
	</g>
</g>
<g id="Ali_illustration">
</g>
</svg>
