<?xml version="1.0" encoding="utf-8"?>
<!-- Generator: Adobe Illustrator 26.1.0, SVG Export Plug-In . SVG Version: 6.00 Build 0)  -->
<svg version="1.1" xmlns="http://www.w3.org/2000/svg" xmlns:xlink="http://www.w3.org/1999/xlink" x="0px" y="0px"
	 viewBox="0 0 158.24 43.22" style="enable-background:new 0 0 158.24 43.22;" xml:space="preserve">
<style type="text/css">
	.st0{display:none;}
	.st1{display:inline;fill:#FFFFFF;}
	.st2{fill:#2C1F5C;}
	.st3{fill:#87BD5F;}
	.st4{fill:#AED094;}
	.st5{fill:#ADD08F;}
	.st6{fill:#ADCF93;}
	.st7{fill:#A4CB85;}
	.st8{fill:#C0D7AE;}
	.st9{fill:#A9C198;}
	.st10{fill:#A2C883;}
	.st11{fill:#D9E2D2;}
	.st12{fill:#C3D4B7;}
	.st13{fill:#9DC57C;}
	.st14{fill:#CAD6C0;}
	.st15{fill:#B8D6A3;}
	.st16{fill:#9CC876;}
	.st17{fill:#255CA2;}
	.st18{fill:#E3EAE7;}
	.st19{fill:#FBFCFB;}
	.st20{fill:#2A4E92;}
	.st21{fill:#EBEEE8;}
	.st22{fill:#CEDEC8;}
	.st23{fill:#D2DCCB;}
	.st24{fill:#EFF3ED;}
	.st25{fill:#F4F6F3;}
	.st26{fill:#E1E9DB;}
	.st27{fill:#3076B0;}
	.st28{fill:#203B8C;}
	.st29{fill:#F5F6F3;}
	.st30{fill:#D3E0C8;}
	.st31{fill:#D4DFCE;}
	.st32{fill:#F6F6F5;}
	.st33{fill:#91C261;}
	.st34{fill:#8CC05D;}
	.st35{fill:#EEF1EA;}
	.st36{fill:#E9F0E5;}
	.st37{fill:#E5ECE0;}
	.st38{fill:#D7E4CE;}
	.st39{fill:#FCFDFC;}
	.st40{fill:#77B736;}
	.st41{fill:#DCE4D4;}
	.st42{fill:#8ABF5E;}
	.st43{fill:#E2EADC;}
	.st44{fill:#EBF1E7;}
	.st45{fill:#ECEFEA;}
	.st46{fill:#F2F5F2;}
	.st47{fill:#99C771;}
	.st48{fill:#FFFFFF;}
	.st49{fill:#D9E6CF;}
	.st50{fill:#8DC05A;}
	.st51{fill:#F0F5ED;}
	.st52{fill:#FDFCFB;}
	.st53{fill:#E3EBDE;}
	.st54{fill:#8EC053;}
	.st55{fill:#F3F4F3;}
	.st56{fill:#87BE63;}
	.st57{fill:#FDFDFC;}
	.st58{fill:#87BE5F;}
	.st59{fill:#343D74;}
	.st60{fill:#254280;}
	.st61{fill:#B5CCBE;}
	.st62{fill:#352E48;}
	.st63{fill:#72A491;}
	.st64{fill:#1F5FA3;}
	.st65{fill:#323366;}
	.st66{fill:#284281;}
	.st67{fill:#7DB931;}
	.st68{fill:#94C467;}
	.st69{fill:#275C9C;}
	.st70{fill:#F0F5EE;}
	.st71{fill:#FDFFFD;}
	.st72{fill:#A9CE85;}
	.st73{fill:#2E62AB;}
	.st74{fill:#2856A2;}
	.st75{fill:#D4E0E5;}
	.st76{fill:#2862AA;}
	.st77{fill:#7FBA36;}
	.st78{fill:#EAF0E5;}
	.st79{fill:#CEE1C1;}
	.st80{fill:#2A519E;}
	.st81{fill:#31356A;}
	.st82{fill:#BDD0E3;}
	.st83{fill:#314883;}
	.st84{fill:#1C74BA;}
	.st85{fill:#3B2C49;}
	.st86{fill:#2B2D6D;}
	.st87{fill:#2B3E79;}
	.st88{fill:#1F63A7;}
	.st89{fill:#D5E7C7;}
	.st90{fill:#2B4580;}
	.st91{fill:#2F3971;}
	.st92{fill:#97C482;}
	.st93{fill:#312E60;}
	.st94{fill:#243674;}
	.st95{fill:#3E7BA7;}
	.st96{fill:#2F264B;}
	.st97{fill:#1D70B7;}
	.st98{fill:#352D5B;}
	.st99{fill:#1F7CBF;}
	.st100{fill:#2657A3;}
	.st101{fill:none;stroke:#ADD08F;stroke-miterlimit:10;}
	.st102{fill:none;stroke:#275C9C;stroke-miterlimit:10;}
</style>
<g id="Laag_2" class="st0">
	<rect x="0" y="-0.06" class="st1" width="158" height="43"/>
</g>
<g id="Layer_1">
	<g>
		<path class="st2" d="M29.74,30.56H19.45c-2.65,0-4.84-0.83-6.57-2.5c-1.73-1.67-2.6-3.77-2.6-6.31c0-2.52,0.86-4.56,2.57-6.11
			c1.71-1.55,3.91-2.32,6.6-2.32h10.29v3H19.45c-1.74,0-3.18,0.53-4.3,1.59c-1.13,1.06-1.69,2.42-1.69,4.09
			c0,1.65,0.56,2.99,1.69,4.01c1.13,1.03,2.56,1.54,4.3,1.54h10.29V30.56z"/>
		<path class="st2" d="M81.32,25.23c0,1.63-0.61,2.94-1.84,3.94c-1.17,0.93-2.64,1.39-4.4,1.39H61.2v-3h13.89
			c0.87,0,1.63-0.19,2.27-0.56c0.73-0.45,1.09-1.07,1.09-1.84s-0.37-1.37-1.12-1.79c-0.62-0.35-1.37-0.53-2.24-0.53H66.5
			c-1.58,0-2.91-0.41-3.97-1.24c-1.14-0.89-1.71-2.07-1.71-3.53c0-1.45,0.57-2.62,1.71-3.51c1.07-0.82,2.39-1.24,3.97-1.24h13.73v3
			H66.5c-0.6,0-1.12,0.16-1.55,0.48c-0.43,0.32-0.64,0.75-0.64,1.29c0,0.56,0.21,0.98,0.64,1.29c0.43,0.3,0.94,0.45,1.55,0.45h8.58
			c1.76,0,3.23,0.48,4.4,1.44C80.71,22.28,81.32,23.6,81.32,25.23z"/>
		<path class="st2" d="M107.47,30.56l-4.08-0.03l-3.07-4.82h-8.64l1.92-2.98h4.82l-3.17-4.97l-8.21,12.77h-4.08l9.89-15.57
			c0.25-0.4,0.6-0.77,1.04-1.11c0.53-0.39,1.01-0.58,1.44-0.58c0.46,0,0.94,0.19,1.44,0.56c0.43,0.32,0.77,0.7,1.04,1.14
			L107.47,30.56z"/>
		<path class="st2" d="M129.12,21.75c0,2.54-0.86,4.64-2.59,6.31c-1.72,1.67-3.92,2.5-6.58,2.5h-10.26V13.32h10.26
			c2.68,0,4.88,0.77,6.6,2.32C128.26,17.19,129.12,19.23,129.12,21.75z M125.95,22c0-1.67-0.56-3.03-1.69-4.09
			c-1.13-1.06-2.56-1.59-4.31-1.59h-7.12v11.23h7.12c1.74,0,3.18-0.51,4.31-1.54C125.38,24.99,125.95,23.65,125.95,22z"/>
		<path class="st2" d="M147.43,30.56H131.7V13.32h15.73v3h-12.56v11.23h12.56V30.56z M146.61,23.32h-10.4v-3h10.4V23.32z"/>
	</g>
	<path class="st3" d="M55.79,28.94c-0.47,0.38-0.93,0.77-1.4,1.15c-0.75,0.42-1.02,1.31-1.79,1.71c-0.45,0.26-0.93,0.37-1.45,0.34
		c-0.34-0.04-0.66-0.15-0.93-0.29c-0.15-0.13-0.3-0.31-0.42-0.51c-0.21,0.14-0.2,0.31,0.05,0.53c0.05,0.3,0.02,0.56-0.08,0.83
		c-0.26,0.45-0.66,0.69-1.16,0.78c-0.72,0.03-1.34-0.28-1.95-0.57c-1.28-0.79-2.08,0.48-3.13,0.71c-2.17,0.11-3.78-1.25-5.63-1.98
		c-0.17-0.09-0.33-0.18-0.5-0.26c-0.16-0.1-0.32-0.21-0.48-0.31c-0.3-0.24-0.59-0.49-0.86-0.76c-0.13-0.15-0.25-0.3-0.37-0.44
		c-0.21-0.33-0.32-0.69-0.34-1.08c0.22-0.6,0.69-0.87,1.31-0.94c2.83,0.69,5.63,1.58,8.6,0.79c0.47-0.22,0.95-0.44,1.41-0.67
		c0.62-0.32,1.24-0.64,1.9-0.88c0.34-0.1,0.7-0.14,1.05-0.13c0.34,0.04,0.68,0.14,0.99,0.27c0.83,0.34,1.59,1.08,2.59,0.46
		c0.17-0.23,0.32-0.47,0.39-0.74c0.01-1.2-1.15-1.88-1.36-2.98c-0.08-0.58,0.05-1.1,0.53-1.5c2.18-0.49,3.39,0.77,4.46,2.31
		c0.19,0.58,0.2,1.16,0.07,1.75C56.93,27.41,56.59,28.31,55.79,28.94z"/>
	<path class="st4" d="M48.51,33.13c0.48-0.13,0.84-0.39,0.95-0.9c0.47-0.24,1.09-0.13,1.45-0.61c0.55-0.07,1.11-0.14,1.66-0.2
		c0.29,0.14,0.43,0.32,0.43,0.55c0,0.25-0.04,0.38-0.11,0.38c-2.46,3.79-6.31,3.17-9.98,2.9c-0.86-0.06-1.84-0.42-2.5-1.15
		c-0.27-0.26-0.35-0.56-0.22-0.91c1.12-1.05,2.22,0.93,3.34,0.03c0.86-0.21,0.69-0.9,0.7-1.52c1.03-0.31,2.03-0.49,2.77,0.56
		C47.13,33.15,47.67,33.39,48.51,33.13z"/>
	<path class="st5" d="M37.25,12.46c-0.46-1.59,0.73-2.09,1.85-2.6c5.01-2.27,9.88-2.42,14.52,0.93c-0.19,0.28-0.45,0.48-0.77,0.6
		c-0.48,0.12-0.97,0.13-1.45,0.04c-0.59-0.12-1.19-0.18-1.78,0.07c-0.43,0.22-0.86,0.43-1.35,0.5c-0.34-0.01-0.67-0.1-0.97-0.25
		c-0.98-0.5-1.73-1.6-3.08-1.1c-0.44,0.19-0.87,0.38-1.33,0.52c-0.74,0.13-1.51,0.22-2.16,0.64c-0.28,0.12-0.57,0.19-0.88,0.21
		c-0.79-0.04-1.4,0.52-2.16,0.61C37.54,12.57,37.39,12.51,37.25,12.46z"/>
	<path class="st6" d="M33.13,27.54c-2.65-4-1.88-8.01,0.01-12.01c0.47-1,1.08-1.88,2.46-1.49c0.08,0.13,0.17,0.26,0.25,0.4
		c0.01,0.32-0.05,0.61-0.2,0.9c-0.39,0.66-0.76,1.32-0.96,2.06c-0.08,0.29-0.18,0.58-0.29,0.86c-0.19,0.57-0.31,1.15-0.27,1.75
		c0.08,0.6,0.21,1.2,0.21,1.81c-0.03,0.61,0.01,1.22,0.13,1.83c0.07,0.48,0.04,0.94-0.17,1.38c-0.14,0.25-0.34,0.4-0.63,0.44
		c0.26,0.36,0.63,0.66,0.53,1.16C34.02,27.13,33.66,27.44,33.13,27.54z"/>
	<path class="st7" d="M33.13,27.54c0.23-0.27,0.46-0.54,0.69-0.81c0.93-0.1,1.83-0.07,2.61,0.55c0.23,0.32,0.23,0.64,0.04,0.98
		c-0.3,0.25-0.59,0.49-0.89,0.74c0.28,0.31,0.54,0.64,0.87,0.9l-0.06-0.06c0.27,0.3,0.55,0.59,0.87,0.84l-0.06-0.05
		c0.33,0.32,0.79,0.47,1.12,0.81c0.17,0.27,0.25,0.56,0.24,0.87c-0.08,0.31-0.25,0.55-0.51,0.74C35.85,31.68,33.9,30.11,33.13,27.54
		z"/>
	<path class="st8" d="M54.25,12.43c1.43,0.97,3.46,1.24,3.98,3.27c-0.25,0.44-0.45,0.93-0.96,1.17c-0.7,0.24-1.38,0.22-2.03-0.14
		c-0.26-0.23-0.41-0.51-0.43-0.85c0.72-1.22-1.25-1.49-0.96-2.57c0.03-0.16,0.06-0.33,0.09-0.49
		C54.05,12.69,54.15,12.56,54.25,12.43z"/>
	<path class="st9" d="M59.17,19.63c-0.01,1.32-0.01,2.64-0.02,3.96c-0.27,0.24-0.58,0.4-0.93,0.51c-0.76,0.05-1.4-0.13-1.72-0.9
		c-0.05-0.52,0.17-0.97,0.43-1.39c0.32-0.54,0.58-1.12,0.83-1.7c0.15-0.29,0.37-0.5,0.66-0.66C58.69,19.47,58.93,19.53,59.17,19.63z
		"/>
	<path class="st5" d="M35.6,14.04c0.36-0.72,0.58-1.56,1.64-1.59l-0.05-0.04c0.27,0.21,0.47,0.47,0.57,0.8
		c0.09,0.71-0.05,1.32-0.71,1.74c-0.34,0.1-0.65,0.05-0.94-0.15c-0.15-0.29-0.33-0.57-0.55-0.81L35.6,14.04z"/>
	<path class="st10" d="M38.03,33.05c0.02-0.31,0.04-0.62,0.06-0.93c1.19-0.5,1.89,0.03,2.35,1.06c-0.02,0.31-0.03,0.61-0.05,0.92
		C39.51,33.97,38.72,33.61,38.03,33.05z"/>
	<path class="st11" d="M52.89,32.35c-0.11-0.31-0.21-0.62-0.32-0.93c0.34-0.79,1.01-1.14,1.82-1.33
		C54.24,31.07,53.7,31.8,52.89,32.35z"/>
	<path class="st12" d="M57.44,27.4c0.03,0.31,0.07,0.62,0.1,0.93c-0.59,0.2-1.17,0.41-1.76,0.61c0.15-0.89,0.16-1.82,0.94-2.48
		c0.05,0.13,0.06,0.26,0.05,0.39C57.02,27.02,57.23,27.2,57.44,27.4z"/>
	<path class="st13" d="M52.36,10.96c0.42-0.06,0.83-0.11,1.25-0.17c0.85,0.31,0.68,1,0.64,1.64l0.05-0.04
		c-0.13,0.12-0.27,0.24-0.4,0.37c-0.18-0.02-0.36-0.05-0.55-0.07c-0.33-0.17-0.61-0.4-0.84-0.69
		C52.34,11.67,52.29,11.32,52.36,10.96z"/>
	<path class="st14" d="M58.31,17.14c-0.03,0.56-0.05,1.13-0.08,1.69c-0.24,0.24-0.54,0.34-0.89,0.32c-0.52-0.17-0.82-0.51-0.85-1.06
		c0.15-0.5,0.46-0.87,0.93-1.11C57.76,16.84,58.05,16.9,58.31,17.14z"/>
	<path class="st15" d="M57.5,18.82c0.24,0,0.49,0,0.73,0.02c0.11,0.19,0.18,0.39,0.19,0.61c-0.04,0.33-0.07,0.66-0.11,0.99
		c-0.36,0.19-0.69,0.15-0.99-0.12C57.06,19.78,57.05,19.27,57.5,18.82z"/>
	<path class="st16" d="M58.31,17.14l-0.35,0.05l-0.35-0.05c-0.21-0.11-0.3-0.24-0.27-0.4c0.03-0.17,0.07-0.26,0.13-0.26
		c0.13-0.37,0.31-0.7,0.76-0.78C58.26,16.18,58.29,16.66,58.31,17.14z"/>
	<path class="st17" d="M52.95,22.56c-0.11,0.58-0.21,1.16-0.32,1.75c-0.01,0.17-0.01,0.34-0.01,0.51c-0.13,0.53-0.42,0.95-0.9,1.23
		c-0.37,0.09-0.7,0-0.97-0.26c-0.19-0.31-0.3-0.64-0.36-1c0.28-1.78-0.79-3.48-0.3-5.28c0.1-0.36,0.25-0.71,0.45-1.03
		c0.24-0.31,0.56-0.52,0.93-0.65c1.73,0.37,2,1.67,2.06,3.1C53.5,21.53,53.34,22.08,52.95,22.56z"/>
	<path class="st18" d="M52.95,22.56c0.01-0.52,0.01-1.03,0.02-1.55c0.48-0.31,1-0.3,1.53-0.16c0.99,0.4,2.01,0.79,2.22,2.01
		c0.36,0.67,1.02,0.65,1.65,0.69c-0.03,0.77-0.06,1.55-0.09,2.32c-0.5-0.27-0.99-0.55-1.49-0.82
		C55.51,24.22,54.23,23.39,52.95,22.56z"/>
	<path class="st19" d="M36.47,28.27c-0.09-0.23-0.17-0.47-0.23-0.7c0.28-0.29,0.62-0.46,1.02-0.53c1.94,0.11,3.67,1.32,5.68,1.08
		c0.61-0.01,1.21,0.03,1.81,0.13c0.62,0.12,1.18,0.36,1.58,0.86C42.82,31.25,39.6,30.23,36.47,28.27z"/>
	<path class="st20" d="M50.96,25.04c0.04,0.31,0.08,0.63,0.12,0.94c0.16,0.18,0.24,0.37,0.24,0.58c-0.01,0.21-0.03,0.32-0.07,0.32
		c-0.3,0.44-0.71,0.69-1.26,0.68c-0.21,0-0.4-0.03-0.6-0.1c-0.35-0.17-0.59-0.08-0.68,0.3c-0.38,0.63-1.04,0.56-1.64,0.64
		c-0.11-0.1-0.22-0.21-0.34-0.32c-0.06-0.31-0.04-0.6,0.05-0.9c0.16-0.43,0.36-0.85,0.56-1.27c0.36-0.71,0.72-1.42,1.51-1.78
		c0.51-0.11,0.96,0.03,1.4,0.28C50.49,24.61,50.73,24.83,50.96,25.04z"/>
	<path class="st21" d="M40.45,33.18c-0.78-0.35-1.57-0.71-2.35-1.06c-0.02-0.27-0.03-0.53-0.05-0.8c0,0-0.04-0.38-0.04-0.38
		c1.84,0.76,3.68,1.52,5.52,2.28C42.48,34.72,41.47,33.2,40.45,33.18z"/>
	<path class="st22" d="M49.99,27.56c0.33-0.3,0.66-0.6,1-0.9c0.28,0.02,0.56,0.04,0.85,0.05c0.43,0.05,0.84,0.14,1.25,0.27
		c0.27,0.1,0.51,0.26,0.72,0.45c0.09,0.26,0.2,0.52,0.32,0.78C52.36,30.29,51.18,28.87,49.99,27.56z"/>
	<path class="st23" d="M52.63,24.3c1.08,0.82,3.24,1.07,1.81,3.23c-0.23,0.24-0.48,0.27-0.77,0.1l-0.26-0.19
		c-0.46-0.5-1.03-0.93-1.12-1.66c-0.01-0.51-0.02-1.02,0.34-1.44L52.63,24.3z"/>
	<path class="st24" d="M48.51,33.13c-1.12,1.44-1.98,0.68-2.83-0.27c0.24-0.69,0.81-0.56,1.31-0.6C47.49,32.55,48,32.84,48.51,33.13
		z"/>
	<path class="st25" d="M50.91,31.62c0.19,0.34,0.37,0.68,0.57,1.04c-0.9,0.85-1.33-0.38-2.02-0.43c-0.14-0.21-0.27-0.43-0.37-0.66
		c0.35-0.43,0.74-0.46,1.16-0.1C50.48,31.49,50.7,31.54,50.91,31.62z"/>
	<path class="st26" d="M50.25,31.47c-0.39,0.03-0.77,0.07-1.16,0.1c-0.76-0.05-1.21-0.36-1.2-1.43
		C49.01,30.25,49.71,30.7,50.25,31.47z"/>
	<path class="st27" d="M46.32,29.1c-0.58-0.05-1.15-0.11-1.73-0.16c-0.17-0.26-0.2-0.54-0.08-0.82c0.33-0.53,0.78-0.87,1.44-0.87
		c0.47,0.09,0.62,0.56,0.98,0.78l0.13,0.37C46.82,28.63,46.57,28.86,46.32,29.1z"/>
	<path class="st28" d="M48.71,27.76c0.05-0.22,0.1-0.45,0.15-0.68c0.18,0.13,0.36,0.25,0.53,0.38
		C49.21,27.66,48.99,27.76,48.71,27.76z"/>
	<path class="st29" d="M53.67,27.64c0.25-0.08,0.5-0.11,0.77-0.1c-0.04,0.26-0.15,0.48-0.33,0.67
		C53.82,28.13,53.61,27.98,53.67,27.64z"/>
	<path class="st30" d="M36.45,29.91c-0.5-0.1-0.77-0.43-0.87-0.9C35.87,29.31,36.16,29.61,36.45,29.91z"/>
	<path class="st31" d="M37.25,30.69c-0.47-0.1-0.77-0.38-0.87-0.84C36.83,29.98,37.16,30.22,37.25,30.69z"/>
	<path class="st32" d="M38,30.94l0.04,0.38c-0.52,0.06-0.76-0.24-0.86-0.68C37.46,30.74,37.73,30.84,38,30.94z"/>
	<path class="st33" d="M48.58,11.68c0.12-0.51,0.46-0.79,0.96-0.92c0.69-0.3,1.09,0.33,1.64,0.48c0.62,0.1,1.05,0.54,1.57,0.8
		c0.29,0.09,0.54,0.23,0.76,0.43l-0.06-0.05c0.23,0.2,0.33,0.41,0.31,0.65c-0.02,0.25-0.06,0.37-0.12,0.38
		c-0.29,0.55-0.73,0.93-1.3,1.17c-1.57,0.4-3.12,0.6-4.52-0.5c-0.36-0.53-0.29-1.06,0-1.6C48.06,12.23,48.31,11.95,48.58,11.68z"/>
	<path class="st34" d="M48.6,12.41c-0.13,0.46-0.45,0.73-0.91,0.87c-0.48,0.71-0.83,1.53-1.67,1.95c-0.69,0.27-1.37,0.29-2.04-0.04
		c-0.66-0.47-0.4-1.09-0.32-1.68c-0.05-0.26-0.13-0.51-0.25-0.75c-0.26-0.31-0.53-0.62-0.73-0.97c-0.1-0.26-0.09-0.53,0.03-0.78
		c0.33-0.31,0.65-0.63,0.98-0.94c1.45-0.56,2.18,0.73,3.22,1.21C47.37,11.8,48.05,12.02,48.6,12.41z"/>
	<path class="st35" d="M46.88,11.7c-1.35-0.01-2.13-1.09-3.19-1.64c2.32-1.83,2.96,0.34,3.99,1.59
		C47.43,11.93,47.17,11.94,46.88,11.7z"/>
	<path class="st36" d="M37.21,13.27c-0.01-0.28-0.01-0.57-0.02-0.85c0.88-0.1,1.29-1.66,2.49-0.76c0.38,0.32,0.95,0.45,1.02,1.05
		c-0.08,0.35-0.26,0.63-0.53,0.86c-0.65,0.37-1.35,0.43-2.07,0.27C37.77,13.69,37.48,13.5,37.21,13.27z"/>
	<path class="st37" d="M42.71,11c0.08,0.21,0.17,0.41,0.27,0.6c-0.19,0.27-0.45,0.45-0.77,0.56c-0.33,0.06-0.65,0.06-0.98-0.01
		c-0.32-0.12-0.53-0.34-0.67-0.65c-0.04-0.5-0.14-1.02,0.46-1.31C41.81,10.02,42.18,10.67,42.71,11z"/>
	<path class="st38" d="M51.12,11.44c-0.53-0.23-1.06-0.46-1.58-0.68c0.6-1.04,1.08-0.78,1.51,0.13c0.26,0.09,0.36,0.21,0.29,0.34
		C51.27,11.37,51.2,11.44,51.12,11.44z"/>
	<path class="st39" d="M51.12,11.44c0-0.19-0.03-0.38-0.07-0.56c0.44,0.03,0.87,0.05,1.31,0.08c0.09,0.29,0.18,0.57,0.27,0.86
		l0.05,0.37C52.16,11.94,51.64,11.69,51.12,11.44z"/>
	<path class="st40" d="M40.57,11.51c0.23,0.05,0.45,0.14,0.64,0.28c0.1,0.65-0.13,0.92-0.82,0.7c-0.42-0.12-0.78-0.3-0.71-0.83
		C39.98,11.61,40.27,11.56,40.57,11.51z"/>
	<path class="st41" d="M46.88,11.7c0.27-0.06,0.53-0.08,0.8-0.05c0.3,0.01,0.59,0.02,0.89,0.03c0.14,0.24,0.15,0.49,0.03,0.74
		C47.95,12.36,47.33,12.23,46.88,11.7z"/>
	<path class="st42" d="M42.89,28.92c-2.11,0.44-3.82-0.6-5.57-1.46C36,26.94,34.4,26.78,34,25.05c-0.01-0.49-0.01-0.98-0.02-1.48
		c0.62-0.43,1.19-0.05,1.92,0.12c-0.84-0.52-1.79-0.8-1.89-1.84c-0.29-0.51-0.57-1.03-0.86-1.54c1.7-1.03,2.87,0.21,4.16,0.91
		c0.6,0.42,1.19,0.86,1.69,1.39c0.64,0.8,0.96,1.79,1.63,2.58c0.5,0.62,1.05,1.2,1.61,1.78c0.34,0.34,0.63,0.71,0.85,1.13
		C43.21,28.41,43.14,28.68,42.89,28.92z"/>
	<path class="st43" d="M34.02,21.85c1.33,1.05,3.28,1.47,4.18,3.93c-1.78-0.93-3-1.57-4.22-2.21C33.15,22.98,32.62,22.4,34.02,21.85
		z"/>
	<path class="st44" d="M37.12,22.03c-1.36-0.49-2.34-1.81-3.96-1.72c0.11-0.78-0.33-1.73,0.73-2.21c0.53-0.05,0.99,0.14,1.44,0.39
		c0.74,0.42,1.47,0.85,2.12,1.4c0.26,0.23,0.49,0.49,0.68,0.78c0.07,0.16,0.14,0.32,0.21,0.48c0.04,0.35-0.03,0.68-0.23,0.99
		C37.76,22.27,37.43,22.23,37.12,22.03z"/>
	<path class="st45" d="M34,25.05c1.11,0.8,2.22,1.6,3.33,2.41c-0.36,0.04-0.73,0.07-1.09,0.11c-0.89-0.05-1.86,0.14-2.42-0.82
		C33.9,26.18,32.84,25.5,34,25.05z"/>
	<path class="st46" d="M33.97,17.15c0.05-1.06,0.52-1.87,1.5-2.37c0.25-0.29,0.47-0.27,0.66,0.07c0.15,0.02,0.29-0.01,0.42-0.09
		c0.2,0.28,0.28,0.58,0.22,0.92c-0.13,0.49-0.36,0.93-0.66,1.34c-0.22,0.27-0.49,0.46-0.81,0.59C34.78,17.7,34.31,17.6,33.97,17.15z
		"/>
	<path class="st47" d="M33.97,17.15c0.54,0.02,1.08,0.04,1.62,0.05c0.34,0.83-0.08,1.29-0.82,1.58c-0.42-0.08-0.76-0.26-0.89-0.69
		C33.91,17.78,33.94,17.47,33.97,17.15z"/>
	<path class="st48" d="M36.13,14.85c-0.22-0.05-0.44-0.07-0.66-0.07c0.03-0.26,0.06-0.53,0.1-0.79
		C36.16,14.03,36.35,14.31,36.13,14.85z"/>
	<path class="st49" d="M45.89,14.6c0.25-0.89,0.85-1.33,1.8-1.31c1.56,1.09,3.34,0.44,5.01,0.62c1.36-0.2,1.82,0.83,2.43,1.67
		c0.02,0.21,0.02,0.43,0,0.64c0.22,0.2,0.31,0.42,0.27,0.66c-0.04,0.24-0.09,0.36-0.15,0.36c-2.01,0.42-3.77-0.95-5.75-0.79
		c-0.4-0.05-0.79-0.15-1.18-0.26C47.42,15.8,46.35,15.64,45.89,14.6z"/>
	<path class="st50" d="M55.14,15.57c-0.81-0.56-1.62-1.11-2.43-1.67c0.13-0.42,0.45-0.62,0.86-0.71c0.28-0.27,0.53-0.24,0.73,0.09
		C54.21,14.17,56.14,14.36,55.14,15.57z"/>
	<path class="st51" d="M55.15,17.08c0-0.29-0.01-0.58-0.01-0.87c0.78,0.09,1.56,0.18,2.34,0.27c0.04,0.22,0.09,0.44,0.14,0.66
		c-0.15,0.46-0.44,0.78-0.93,0.91C55.8,18.3,55.35,17.88,55.15,17.08z"/>
	<path class="st52" d="M54.3,13.29c-0.24-0.05-0.49-0.09-0.73-0.09c-0.04-0.26-0.08-0.52-0.12-0.78c0.28-0.01,0.57-0.02,0.85-0.03
		C54.3,12.69,54.3,12.99,54.3,13.29z"/>
	<path class="st53" d="M57.46,20.24c0.29,0.07,0.57,0.13,0.86,0.2c0.05,0.67,0.15,1.36-0.78,1.56c-1.19,0.51-1.68-0.8-2.62-0.95
		c-0.3-0.16-0.58-0.35-0.84-0.56c-0.12-0.33-0.12-0.65-0.04-0.99c0.25-0.47,0.62-0.8,1.13-0.99C56.42,18.46,56.84,19.47,57.46,20.24
		z"/>
	<path class="st54" d="M55.06,20.53c0.82,0.49,1.65,0.97,2.47,1.46c-0.06,0.49-0.36,0.75-0.83,0.87c-0.81-0.56-1.87-0.78-2.42-1.69
		c0,0,0.1-0.35,0.1-0.35C54.62,20.74,54.85,20.64,55.06,20.53z"/>
	<path class="st55" d="M57.44,27.4c-0.22-0.18-0.44-0.37-0.65-0.55C57.36,26.63,57.42,26.99,57.44,27.4z"/>
	<path class="st56" d="M34.77,18.79c0.27-0.53,0.55-1.06,0.82-1.58l0.01-0.01c0.52-0.48,0.38-1.22,0.71-1.78
		c0.01-0.25,0.09-0.47,0.25-0.66c0.69-0.3,0.66-0.9,0.66-1.49c0.27,0.01,0.54,0.02,0.81,0.03c0.77,0.56,1.63,0.28,2.46,0.27
		c0.35,0.01,0.66,0.13,0.92,0.36c0.17,0.54-0.04,0.93-0.47,1.25c-0.41,0.22-0.85,0.34-1.3,0.42c-0.39,0.1-0.77,0.22-1.08,0.48
		c-0.27,0.32-0.38,0.7-0.4,1.12c0.07,0.48,0.25,0.9,0.48,1.31c0.28,0.41,0.52,0.84,0.65,1.32c0,0.7-0.04,1.36-1.04,1.3l-0.22,0.02
		c-0.22-0.24-0.46-0.44-0.75-0.61C36.44,19.95,35.61,19.37,34.77,18.79z"/>
	<path class="st57" d="M52.68,12.19c0,0-0.05-0.38-0.05-0.37c0.53-0.09,0.84,0.1,0.88,0.65C53.23,12.38,52.96,12.28,52.68,12.19z"/>
	<path class="st58" d="M54.49,19.5c-0.04,0.22-0.09,0.43-0.13,0.64c0.15,0.17,0.22,0.36,0.21,0.55c-0.02,0.2-0.04,0.3-0.09,0.3
		l-0.18,0.17c-0.44-0.05-0.88-0.11-1.33-0.16c-0.38-1.17-0.48-2.49-1.79-3.16c-0.14,0.01-0.29,0.02-0.43,0.03
		c-0.27-0.1-0.52-0.25-0.75-0.43c-0.33-0.29-0.59-0.63-0.78-1.02c-0.09-0.29-0.05-0.55,0.14-0.79c2.18-0.45,4.01,0.41,5.8,1.44
		c0.51,0.32,1.03,0.64,1.54,0.96c0.27,0.26,0.54,0.52,0.81,0.77c-0.01,0.47-0.03,0.95-0.04,1.42c-0.81-0.42-1.61-0.84-2.42-1.26
		C54.77,19.07,54.59,19.25,54.49,19.5z"/>
	<path class="st59" d="M50.96,25.03c-0.25,0.06-0.5,0.09-0.75,0.09c-0.59-1.12-0.93-2.42-1.6-3.1c-1.13-0.93-2.02-0.36-2.91-0.26
		c-0.37,0.04-0.74-0.01-1.08-0.17c-0.28-0.29-0.44-0.65-0.51-1.07c0.01-0.42,0.11-0.81,0.28-1.17c0.92-1.17,1.25-2.95,2.85-3.41
		c0.33,0.05,0.63,0.2,0.88,0.46c0.41,0.48,0.74,1.08,1.32,1.36c0.28,0.1,0.55,0.23,0.82,0.36c0.26,0.17,0.49,0.37,0.7,0.6
		C50.08,20.82,52.42,22.93,50.96,25.03z"/>
	<path class="st60" d="M50.23,19.57c-0.34-0.03-0.68-0.07-1.02-0.1c-0.29-0.42-0.32-0.86-0.15-1.33c0.1-0.13,0.19-0.25,0.29-0.38
		c0.28-0.17,0.59-0.22,0.92-0.18c0.3,0.09,0.6,0.21,0.89,0.35l0.02-0.08c-0.05,0.34-0.11,0.67-0.16,1.01
		C50.76,19.1,50.5,19.34,50.23,19.57z"/>
	<path class="st61" d="M51.82,27.49c-0.28-0.28-0.56-0.56-0.83-0.83c0.03-0.23,0.06-0.45,0.1-0.68c0.22-0.05,0.43-0.11,0.64-0.17
		c0.14,0.1,0.29,0.21,0.43,0.31C52.39,26.65,52.3,27.12,51.82,27.49z"/>
	<path class="st61" d="M52.64,24.35c0.01,0.54,0.01,1.07,0.02,1.61c-0.22,0.23-0.46,0.25-0.72,0.05l-0.21-0.2
		C51.84,25.2,51.98,24.62,52.64,24.35z"/>
	<path class="st62" d="M50.23,19.57c0.11-0.4,0.26-0.75,0.78-0.71c0.04,0.21,0.02,0.42-0.05,0.63
		C50.73,19.55,50.48,19.57,50.23,19.57z"/>
	<path class="st63" d="M42.89,28.92c-0.02-0.18-0.03-0.37-0.02-0.56c0.34-0.44,0.78-0.5,1.28-0.35c0.11,0.11,0.23,0.23,0.34,0.34
		c0.03,0.2,0.06,0.39,0.09,0.59C44.02,28.93,43.46,28.92,42.89,28.92z"/>
	<path class="st64" d="M45.35,21.98c0.58-1.03,1.61-1.24,2.56-1.44c2.3,0.87,2.5,2.64,2.3,4.58c-0.27-0.27-0.55-0.54-0.82-0.81
		c-0.82-0.65-1.69-1.22-2.73-1.49c-0.34-0.11-0.66-0.26-0.96-0.45C45.58,22.24,45.47,22.11,45.35,21.98z"/>
	<path class="st65" d="M46.22,22.09c1.91-0.42,3.16,0.07,3.17,2.22c-0.56,0.77-1.11,1.54-1.67,2.3c-1.1,0.46-1.06-0.41-1.24-1.01
		c0.11-0.94,0.15-1.87-0.49-2.69C45.87,22.58,45.95,22.31,46.22,22.09z"/>
	<path class="st66" d="M47.02,25.16c0.01,0.58-0.07,1.21,0.7,1.45c-0.05,0.47-0.33,0.76-0.78,0.91c-0.28,0.28-0.57,0.28-0.86,0.01
		c-0.53,0.27-1.06,0.54-1.6,0.81l0.02,0c-0.45-0.48-0.5-1.03-0.31-1.63C44.85,25.69,45.48,24.63,47.02,25.16z"/>
	<path class="st28" d="M46.09,27.53c0.29,0,0.57-0.01,0.86-0.01c0.01,0.17,0.01,0.33-0.01,0.5C46.47,28.17,46.22,27.95,46.09,27.53z
		"/>
	<path class="st67" d="M51.94,26c0.24,0.02,0.48,0.01,0.72-0.05c0.7,0.28,0.8,0.86,0.76,1.49c-0.53,0.01-1.06,0.03-1.6,0.04
		C51.86,26.99,51.9,26.5,51.94,26z"/>
	<path class="st68" d="M40.39,12.49c0.27-0.23,0.54-0.47,0.82-0.7c0.22-0.04,0.45-0.07,0.67-0.09c0.57,0.19,1.07,0.5,1.52,0.88
		c0.43,0.26,0.81,0.2,1.15-0.15c1.92,1.51-0.87,1.46-0.82,2.36c-0.12,0.09-0.25,0.18-0.37,0.28c-0.16,0-0.31,0-0.47,0
		c-0.29-0.1-0.55-0.26-0.78-0.47c-0.29-0.32-0.44-0.76-0.88-0.95c-0.14-0.03-0.29-0.06-0.43-0.09c-0.1-0.1-0.2-0.21-0.3-0.31
		C40.52,12.98,40.48,12.73,40.39,12.49z"/>
	<path class="st69" d="M42.38,14.88c0.25,0.05,0.49,0.02,0.71-0.09c0.81-0.06,1.63-0.13,2.44-0.19c1,0.43,2.34,0.07,3.12,0.99
		c-1.92,1.34-3.98,1.26-6.11,0.43c-0.18-0.17-0.36-0.35-0.54-0.52C42.13,15.29,42.25,15.09,42.38,14.88z"/>
	<path class="st70" d="M43.75,13.04c-0.83-0.17-1.44-0.64-1.87-1.34c0.37-0.03,0.74-0.06,1.11-0.1c0.4,0.04,0.71,0.18,0.81,0.6
		c0.18,0.19,0.24,0.38,0.17,0.56C43.89,12.95,43.82,13.04,43.75,13.04z"/>
	<path class="st71" d="M43.75,13.04c0.01-0.28,0.03-0.55,0.04-0.83c0.25,0.08,0.51,0.15,0.76,0.22
		C44.52,12.93,44.34,13.24,43.75,13.04z"/>
	<path class="st72" d="M40.56,13.93c-0.91,0.03-1.89,0.34-2.54-0.63c0.83-0.02,1.66-0.04,2.49-0.05l-0.04-0.05
		c0.24,0.14,0.33,0.3,0.27,0.47C40.69,13.84,40.63,13.93,40.56,13.93z"/>
	<path class="st73" d="M40.3,26.05c-1.32-0.76-1.31-2.24-1.93-3.38c0.33-0.2,0.68-0.25,1.05-0.17c1.07,0.61,1.53,1.54,1.52,2.72
		C40.85,25.6,40.63,25.87,40.3,26.05z"/>
	<path class="st27" d="M44.51,26.72c0,0.54,0,1.08,0.01,1.62c-0.55,0-1.1,0.01-1.64,0.01c-0.26-0.28-0.53-0.56-0.79-0.83
		c0.16-0.28,0.37-0.49,0.64-0.67c0.42-0.23,0.88-0.37,1.37-0.36C44.23,26.58,44.37,26.65,44.51,26.72z"/>
	<path class="st74" d="M42.94,27.44c-0.29,0.03-0.57,0.06-0.86,0.08c-0.83-0.22-1.43-0.7-1.78-1.48l0.21-0.14
		c0.45-0.44,0.99-0.5,1.58-0.33C42.78,26.02,43.23,26.57,42.94,27.44z"/>
	<path class="st75" d="M37.12,22.03c0.35-0.04,0.69-0.07,1.04-0.11c0.27-0.25,0.55-0.25,0.84-0.02c0.15,0.32,0.09,0.6-0.2,0.81
		l-0.21-0.07l-0.22,0.03C37.79,22.74,37.37,22.53,37.12,22.03z"/>
	<path class="st76" d="M38.75,22.03c-0.2-0.03-0.39-0.07-0.59-0.11c0.03-0.26,0.05-0.53,0.08-0.79c0.64-0.5,0.52-1.18,0.48-1.84
		c-0.08-0.36,0.05-0.59,0.41-0.71c0.35,0.05,0.64,0.19,0.9,0.42c0.22,0.27,0.39,0.56,0.52,0.88C40.78,21.25,40.69,22.37,38.75,22.03
		z"/>
	<path class="st75" d="M37.27,20.53c0.4,0.02,0.67,0.2,0.75,0.61C37.77,20.94,37.52,20.74,37.27,20.53z"/>
	<path class="st47" d="M36.31,15.42c0.08,0.71,0.14,1.42-0.71,1.78C35.64,16.53,35.66,15.86,36.31,15.42z"/>
	<path class="st69" d="M42.72,15.2c1.83,0.01,3.67,0.01,5.5,0.02c0.22,0,0.45,0.02,0.67,0.05c0.01,0.25,0.05,0.49,0.11,0.74
		c0,0-0.12,0.33-0.12,0.33c-0.17,0.16-0.35,0.26-0.56,0.33c-0.19,0.1-0.4,0.17-0.6,0.23c0,0-0.32,0-0.32,0
		c-0.85,0.41-1.42,1.09-1.54,2.11c-0.12,1.02-0.76,1.3-1.54,1.43c-1.63,0.01-1.11-1.42-1.21-2.94c-0.2,1.67-0.22,2.78-1.03,3.6
		c-1.01,0.39-1.13-0.49-1.38-1.17c-0.12-0.54-0.13-1.08,0.04-1.61c0.46-0.45,0.66-0.95,0.22-1.56c0-0.18,0-0.35,0-0.53
		c0.06-0.17,0.12-0.33,0.18-0.5c0.19-0.3,0.43-0.54,0.72-0.73C42.16,14.87,42.46,14.94,42.72,15.2z"/>
	<path class="st48" d="M54.49,19.5c-0.17-0.53,0-0.72,0.56-0.53C54.86,19.15,54.67,19.33,54.49,19.5z"/>
	<path class="st77" d="M54.47,21c-0.04-0.29-0.08-0.57-0.12-0.86c0.24,0.13,0.47,0.25,0.71,0.38C54.87,20.69,54.67,20.85,54.47,21z"
		/>
	<path class="st72" d="M42.74,15.53c-0.26-0.02-0.49,0.04-0.69,0.2c-0.3,0.12-0.61,0.19-0.93,0.21c-0.52-0.11-0.83-0.42-0.88-0.96
		c0.48-0.19,0.87-0.46,1-1c-0.22-0.15-0.29-0.31-0.23-0.47c0.06-0.17,0.13-0.25,0.19-0.25c0.44,0.08,0.72,0.34,0.83,0.78
		c0.26,0.25,0.52,0.5,0.78,0.74L43,14.85C42.95,15.09,42.87,15.32,42.74,15.53z"/>
	<path class="st39" d="M40.24,15.01c0.36,0.28,0.73,0.56,1.09,0.85c-0.02,0.18-0.04,0.36-0.06,0.54l0.01-0.01
		c-0.25,0.26-0.54,0.46-0.89,0.58c-0.36,0.05-0.72,0.04-1.08-0.05c-0.16-0.08-0.32-0.17-0.48-0.25c-0.25-0.27-0.38-0.6-0.4-0.96
		c0.05-0.37,0.25-0.64,0.62-0.77C39.45,14.96,39.84,14.99,40.24,15.01z"/>
	<path class="st78" d="M38.07,18.69c-1.13-0.43-0.88-1.33-0.79-2.18c0.16-0.24,0.39-0.41,0.67-0.5c0.29-0.03,0.57,0.02,0.83,0.16
		l0.06,0.2c0.52,0.59,0.17,1.13-0.11,1.68C38.54,18.28,38.31,18.49,38.07,18.69z"/>
	<path class="st48" d="M38.07,18.69c0.02-0.31,0.05-0.63,0.07-0.94c0.64,0.09,0.99,0.39,0.79,1.07c-0.04,0.17-0.12,0.32-0.23,0.46
		C38.5,19.08,38.28,18.88,38.07,18.69z"/>
	<path class="st79" d="M41.24,13.26c0.06,0.24,0.08,0.49,0.04,0.74c-0.24-0.01-0.48-0.03-0.72-0.06c-0.09-0.24-0.12-0.48-0.08-0.74
		C40.74,13.18,40.99,13.2,41.24,13.26z"/>
	<path class="st72" d="M38.06,16.4l-0.4-0.01l-0.38,0.12c0.22-0.33,0.44-0.67,0.66-1c0.15,0.13,0.3,0.27,0.45,0.4
		C38.28,16.07,38.17,16.23,38.06,16.4z"/>
	<path class="st72" d="M39.05,14.94c-0.12,0.24-0.18,0.49-0.18,0.76c-0.25,0.2-0.5,0.19-0.75-0.01l-0.17-0.18
		C38.21,15.12,38.55,14.88,39.05,14.94z"/>
	<path class="st80" d="M48.54,15.94c0.86,0.09,1.56,0.33,1.88,0.91c-0.11,0.2-0.21,0.41-0.32,0.61c-0.66,0.09-1.28,0.03-1.87-0.19
		c-0.37-0.41-0.28-0.79,0.22-1.12L48.54,15.94z"/>
	<path class="st80" d="M51.15,17.93c-0.29,0.02-0.58,0.03-0.87,0.05c-0.28-0.13-0.39-0.29-0.32-0.46c0.07-0.19,0.14-0.28,0.23-0.28
		l0.23-0.23C50.88,17.16,51.13,17.46,51.15,17.93z"/>
	<path class="st81" d="M42.11,21.14c0.02-1.81,0.46-3.41,2.1-4.58c1.5,1.45-2.09,2.78,0.29,3.94c0.01,0.25,0,0.5-0.02,0.76
		c-0.21,0.22-0.46,0.38-0.76,0.46c-0.31,0.04-0.61,0.03-0.91-0.03c-0.14-0.06-0.28-0.13-0.42-0.19
		C42.3,21.37,42.21,21.25,42.11,21.14z"/>
	<path class="st82" d="M49.37,18.03c-0.05,0.48-0.1,0.96-0.16,1.45c-0.94,0.01-1.46-0.37-1.36-1.35
		C48.32,17.51,48.83,17.54,49.37,18.03z"/>
	<path class="st83" d="M49.37,18.03c-0.5,0.03-1.01,0.06-1.51,0.1c-0.03-0.32-0.06-0.64-0.09-0.95l0.01,0.04
		c0.27-0.22,0.51-0.46,0.73-0.72c0.31,0,0.61,0,0.92,0c0.02,0.22,0.02,0.45,0.01,0.67c0.19,0.12,0.28,0.27,0.27,0.44
		c-0.01,0.18-0.04,0.27-0.09,0.27L49.37,18.03z"/>
	<path class="st84" d="M44.15,20.96c0.38,0.01,0.75,0.03,1.13,0.04l-0.04-0.06c0.71,1.6,0.02,1.84-0.74,2
		c-0.17-0.28-0.34-0.56-0.51-0.83C44.05,21.72,44.1,21.34,44.15,20.96z"/>
	<path class="st85" d="M43.73,21.17c0.25,0,0.51,0.03,0.76,0.08c0.03,0.24,0.04,0.47,0.05,0.71c0,0,0.03,0.02,0.03,0.02
		C43.83,22.16,43.54,21.9,43.73,21.17z"/>
	<path class="st86" d="M49.6,17.87c-0.11-0.22-0.17-0.46-0.18-0.71c0.26,0.02,0.51,0.05,0.77,0.08c0.03,0.25,0.06,0.5,0.1,0.74
		C50.05,17.98,49.82,17.94,49.6,17.87z"/>
	<path class="st87" d="M44.52,22.77c0.45-0.1,0.75-0.35,0.8-0.82c0.3,0.05,0.6,0.09,0.9,0.14c-0.02,0.2-0.04,0.41-0.06,0.61
		c0.12,0.13,0.23,0.25,0.35,0.38c-0.05,0.16-0.09,0.33-0.14,0.49c-0.26,0.24-0.56,0.39-0.92,0.44c-0.35-0.01-0.68-0.11-0.97-0.3
		c-0.06-0.16-0.12-0.32-0.18-0.48C44.38,23.08,44.45,22.92,44.52,22.77z"/>
	<path class="st88" d="M45.42,23.55c0.25,0.01,0.51,0,0.76-0.02l-0.03,0.03c0.01-0.28,0.01-0.57,0.02-0.85
		c1.89,0.29,2.24,1.09,0.86,2.46c-0.84,0.52-1.67,1.04-2.51,1.56l0.01,0.01c-0.43-0.33-0.52-0.77-0.47-1.26
		c0.07-0.32,0.19-0.61,0.35-0.89C44.67,24.17,45.05,23.86,45.42,23.55z"/>
	<path class="st89" d="M42.92,14.8c-0.44-0.07-0.72-0.32-0.82-0.75C42.54,14.14,42.88,14.32,42.92,14.8z"/>
	<path class="st90" d="M43.73,21.17c0.11,0.44,0.38,0.72,0.84,0.81c0,0.26-0.02,0.53-0.04,0.79l0.04-0.04
		c-0.3,0.28-0.39,0.7-0.66,0.95c-0.48,0.15-0.12-0.44-0.23,0.08c-0.06,0.25,0.19,0.34,0.47,0.2c0.3,0.05,0.5,0.19,0.64,0.44
		c0.05,0.3-0.03,0.55-0.23,0.76l0.04-0.02c-0.68,0.78-1.33,1.69-2.56,0.79c-0.51-0.01-1.01-0.01-1.52-0.02
		c-0.21-1.25-0.55-2.44-1.71-3.21c-0.15-0.22-0.17-0.44-0.05-0.68c0.41-0.25,0.82-0.49,1-0.6c0.65-0.84-0.12-1.33-0.02-1.9
		c0.48-0.43,0.97-0.42,1.46-0.02c0.1,0.66,0.03,1.41,0.92,1.64l-0.02-0.01c0.23,0.31,0.48,0.33,0.76,0.07
		C43.14,21.19,43.44,21.18,43.73,21.17z"/>
	<path class="st91" d="M42.03,25.94c0.99,0.15,1.71-0.52,2.56-0.79c-0.02,0.53-0.05,1.06-0.07,1.59c-0.53,0.24-1.05,0.47-1.58,0.71
		C42.63,26.94,42.33,26.44,42.03,25.94z"/>
	<path class="st92" d="M38.94,18.82c-0.26-0.36-0.53-0.72-0.79-1.07c0.23-0.46,0.47-0.92,0.7-1.38c0.58-0.18,1.14-0.11,1.69,0.14
		c0.09,0.12,0.18,0.24,0.27,0.37c-0.02,0.15-0.05,0.3-0.07,0.45c-0.11,0.28-0.24,0.56-0.38,0.83c-0.1,0.12-0.2,0.24-0.29,0.36
		c-0.13,0.08-0.27,0.16-0.4,0.24C39.42,18.73,39.18,18.75,38.94,18.82z"/>
	<path class="st93" d="M41.19,19.5c-0.49,0.01-0.97,0.01-1.46,0.02c0-0.26-0.03-0.52-0.07-0.77l-0.03,0.05
		c0.24-0.26,0.44-0.54,0.62-0.84c0.16-0.08,0.31-0.16,0.47-0.25c0.14,0.1,0.29,0.2,0.43,0.3C41.17,18.51,41.18,19.01,41.19,19.5z"/>
	<path class="st94" d="M41.16,18.02c-0.18,0.02-0.36,0.03-0.54,0.03c-0.49-0.22-0.53-0.5-0.11-0.83l0,0.01
		c0.22-0.33,0.46-0.36,0.72-0.05c0.19,0.15,0.38,0.29,0.57,0.44C41.58,17.76,41.37,17.89,41.16,18.02z"/>
	<path class="st95" d="M41.27,16.39c0.01-0.18,0.03-0.36,0.06-0.54c0.26-0.08,0.52-0.11,0.79-0.08
		C41.98,16.16,41.69,16.36,41.27,16.39z"/>
	<path class="st96" d="M48.5,16.48c0.02,0.49-0.33,0.63-0.73,0.72C47.83,16.79,48.05,16.53,48.5,16.48z"/>
	<path class="st95" d="M41.22,17.18l-0.35,0.08c0,0-0.36-0.04-0.36-0.04c-0.02-0.24-0.01-0.48,0.03-0.72
		c0.25-0.05,0.49-0.09,0.74-0.12C41.26,16.65,41.24,16.92,41.22,17.18z"/>
	<path class="st48" d="M38.11,15.69c0.25-0.1,0.5-0.09,0.75,0.01c-0.02,0.16-0.04,0.32-0.08,0.47c-0.23,0.12-0.47,0.2-0.73,0.23
		C38.01,16.16,38.03,15.92,38.11,15.69z"/>
	<path class="st97" d="M42.85,21.2c-0.13,0.17-0.27,0.33-0.4,0.5c-0.12-0.19-0.24-0.38-0.36-0.57C42.35,21.1,42.6,21.13,42.85,21.2z
		"/>
	<path class="st84" d="M43.73,23.56c0.08-0.46,0.39-0.71,0.83-0.84c0.01,0.28,0.02,0.56,0.02,0.84c0.24,0.21,0.3,0.38,0.17,0.51
		c-0.11,0.1-0.22,0.15-0.34,0.15l-0.36,0.03l-0.36-0.02c-0.27-0.16-0.36-0.31-0.26-0.45C43.54,23.64,43.64,23.56,43.73,23.56z"/>
	<path class="st98" d="M44.42,24.22c0.02-0.23,0.08-0.45,0.17-0.66c0.28-0.01,0.55-0.01,0.83-0.02c-0.07,0.65-0.08,1.33-0.87,1.61
		C44.51,24.85,44.46,24.54,44.42,24.22z"/>
	<path class="st99" d="M43.73,23.56c-0.01,0.22-0.02,0.45-0.02,0.67c-0.35-0.02-0.7-0.04-1.09-0.07
		C42.78,23.43,43.33,23.64,43.73,23.56z"/>
	<path class="st95" d="M40.51,17.22c0.04,0.28,0.07,0.55,0.11,0.83l-0.12-0.06l-0.32,0.22l-0.36-0.16
		C39.82,17.59,40.07,17.33,40.51,17.22z"/>
	<path class="st100" d="M39.3,18.06c0.4-0.02,0.8-0.04,1.19-0.07c-0.19,0.53-0.68,0.85-1.5,0.95C39.1,18.64,39.2,18.35,39.3,18.06z"
		/>
	<circle class="st101" cx="45.39" cy="21.61" r="13.65"/>
	<circle class="st102" cx="45.39" cy="21.61" r="7.11"/>
</g>
</svg>
