<?xml version="1.0" encoding="utf-8"?>
<!-- Generator: Adobe Illustrator 26.1.0, SVG Export Plug-In . SVG Version: 6.00 Build 0)  -->
<svg version="1.1" id="Laag_1" xmlns="http://www.w3.org/2000/svg" xmlns:xlink="http://www.w3.org/1999/xlink" x="0px" y="0px"
	 viewBox="0 0 1919.52 651.12" style="enable-background:new 0 0 1919.52 651.12;" xml:space="preserve">
<style type="text/css">
	.st0{fill:#FEFEFE;}
	.st1{fill:#006684;}
	.st2{fill:#A4C858;}
	.st3{fill:#4D9BB3;}
	.st4{fill:#026684;}
	.st5{fill:#036684;}
	.st6{fill:#046684;}
	.st7{fill:#056684;}
	.st8{fill:#066684;}
	.st9{fill:#086785;}
	.st10{fill:#0A6785;}
	.st11{fill:#0B6785;}
	.st12{fill:#236B88;}
	.st13{fill:#FFFFFF;}
	.st14{fill:#B9CBDA;}
	.st15{fill:#BACCDA;}
</style>
<g>
	<path class="st0" d="M0,0c639.84,0,1279.68,0,1919.52,0c0,217.04,0,434.08,0,651.12c-639.84,0-1279.68,0-1919.52,0
		C0,434.08,0,217.04,0,0z"/>
	<path class="st1" d="M1131.83,394.87c-0.9,0.06-1.53,0.14-2.16,0.14c-13.12,0.01-26.23,0.01-39.35,0.01c-0.64,0-1.28,0-1.92-0.02
		c-1.11-0.03-1.75-0.57-1.92-1.7c-0.47-3.16-1.03-6.31-1.45-9.47c-1.05-7.93-3.15-15.65-4.68-23.48c-2.05-10.5-4.22-20.97-6.56-31.4
		c-1.23-5.49,0.01-4.94-6.04-4.94c-26.23-0.02-52.46-0.01-78.7-0.01c-0.48,0-0.96,0-1.44,0c-4.53-0.02-3.51,0.09-4.54,3.87
		c-0.75,2.77-1.16,5.63-1.77,8.43c-2.55,11.86-5.19,23.7-7.65,35.58c-1.29,6.25-2.26,12.57-3.38,18.86
		c-0.17,0.94-0.31,1.89-0.54,2.82c-0.21,0.84-0.74,1.39-1.66,1.42c-0.64,0.03-1.28,0.04-1.92,0.04c-12.96,0-25.91,0-38.87,0
		c-0.79,0-1.58-0.1-2.33-0.15c-0.56-1.46,0.18-2.62,0.58-3.76c10.67-31.14,19.25-62.86,26.7-94.91
		c4.37-18.81,9.35-37.48,13.84-56.26c7.58-31.67,14.98-63.38,22.47-95.07c2.24-9.48,4.62-18.92,6.17-28.55
		c0.64-3.94,1.12-7.9,1.72-11.85c0.3-1.99,0.76-2.35,2.83-2.45c0.64-0.03,1.28-0.01,1.92-0.01c18.55,0,37.11,0,55.66,0
		c5.46,0,4.68-0.06,5.18,4.64c2.17,20.25,7.4,39.84,12.27,59.52c6.11,24.64,11.66,49.4,17.02,74.21
		c3.26,15.13,6.92,30.18,10.44,45.26c5.08,21.76,10.28,43.49,16.3,65.02c3.7,13.23,8.2,26.2,12.57,39.21
		C1131.16,391.35,1131.96,392.77,1131.83,394.87z"/>
	<path class="st1" d="M188.75,394.62c-3.67,0.48-37.8,0.61-44.23,0.16c-0.81-1.45,0.24-2.73,0.65-3.96
		c6.03-18.01,11.61-36.16,16.56-54.5c4.33-16.03,8.09-32.19,11.99-48.32c8.44-34.9,16.9-69.79,25.28-104.7
		c4.32-18,8.54-36.02,12.7-54.06c1.87-8.09,3.19-16.29,4.26-24.52c0.31-2.42,0.56-2.63,3.02-2.7c2.08-0.06,4.16-0.02,6.24-0.02
		c16.47,0,32.94,0,49.41,0c1.28,0,2.56-0.03,3.84,0.02c2.28,0.09,2.46,0.25,2.76,2.41c0.81,5.69,1.51,11.4,2.42,17.07
		c1.88,11.67,4.75,23.13,7.64,34.58c7.15,28.32,13.58,56.8,19.76,85.35c3.82,17.62,8.15,35.13,12.24,52.7
		c4.73,20.36,9.71,40.66,15.48,60.77c3.3,11.51,7.27,22.8,11.1,34.14c0.46,1.36,0.96,2.71,1.35,4.09c0.34,1.18-0.13,1.78-1.37,1.85
		c-0.8,0.04-1.6,0.04-2.4,0.04c-12.31,0-24.63,0-36.94,0c-0.48,0-0.96,0.01-1.44,0c-2.63-0.07-2.68-0.06-3.15-2.5
		c-0.45-2.35-0.85-4.71-1.15-7.09c-0.96-7.62-2.87-15.04-4.4-22.55c-2.43-11.88-4.98-23.74-7.48-35.61
		c-0.13-0.62-0.22-1.26-0.36-1.88c-0.21-0.91-0.87-1.3-1.73-1.36c-0.96-0.06-1.92-0.04-2.88-0.04c-26.71,0-53.41,0-80.12,0
		c-0.64,0-1.28-0.01-1.92,0.01c-2.2,0.08-2.51,0.24-2.96,2.29c-1.01,4.52-1.9,9.06-2.87,13.58c-2.19,10.14-4.48,20.26-6.56,30.42
		c-1.31,6.41-2.35,12.87-3.47,19.32C189.71,391.32,189.55,393.06,188.75,394.62z"/>
	<path class="st1" d="M542.6,394.58c-0.52-2.24,0.36-4.23,0.63-6.26c2.89-21.57,3.64-43.26,3.74-65c0.1-19.81,0.64-39.61,0.75-59.41
		c0.14-26.36,0.29-52.72-0.02-79.07c-0.18-15.96-1.13-31.92-2.28-47.85c-0.54-7.49-0.88-14.99-1.34-22.48
		c-0.22-3.51-0.51-7.01-0.76-10.51c-0.08-1.13,0.42-1.85,1.6-1.91c1.28-0.07,2.55-0.08,3.83-0.08c27.02,0,54.04-0.07,81.06,0.03
		c9.92,0.04,19.79,0.79,29.43,3.44c16.83,4.62,28.69,14.88,35.45,30.98c3.68,8.75,5.68,17.94,6.83,27.32
		c1.79,14.63,2.01,29.31,0.92,44c-0.87,11.66-2.98,23.1-7.49,33.99c-2.15,5.19-4.85,10.06-8.17,14.59
		c-6.62,9.04-15.47,14.63-26.41,16.9c-6.75,1.4-13.59,1.96-20.48,1.94c-16.15-0.03-32.3-0.04-48.44,0
		c-7.02,0.02-6.14-0.96-6.14,6.04c0,24.44,0.06,48.88,0.11,73.32c0.02,12,1.09,23.92,2.62,35.81c0.1,0.79,0.2,1.59,0.24,2.38
		c0.1,1.82-0.24,2.22-2.15,2.24c-4.64,0.04-9.27,0.02-13.91,0.02c-8.31,0-16.63,0.01-24.94-0.01
		C545.7,394.99,544.08,395.28,542.6,394.58z"/>
	<path class="st1" d="M772.39,235.15c0.41-0.84,0.84-1.67,1.23-2.52c7.27-15.77,19.64-25.26,36.36-29.23
		c10.17-2.42,20.51-3.09,30.96-2.37c6.56,0.46,13.02,1.3,19.34,3.21c11.81,3.56,20.95,10.68,27.97,20.69
		c3.3,4.71,4.65,10.08,5.34,15.7c0.99,8.12,0.93,16.26,0.95,24.41c0.05,29.72,0.01,59.44,0.12,89.17
		c0.05,12.63,0.94,25.22,2.33,37.77c0.07,0.63,0.07,1.27,0.08,1.9c0.01,0.59-0.45,0.87-0.88,0.98c-0.61,0.15-1.27,0.15-1.9,0.15
		c-12.31,0.01-24.63,0.01-36.94,0c-0.32,0-0.64,0.01-0.96-0.01c-1.78-0.11-2.14-0.45-2.03-2.42c0.34-6.06,0.71-12.12,1.12-18.18
		c0.89-13.07,1.72-26.14,1.72-39.25c0-19.18-0.01-38.35,0.01-57.53c0.01-6.73-0.35-13.41-2.02-19.97
		c-3.18-12.5-10.54-22.59-28.64-24.78c-7.4-0.89-14.69-0.65-21.9,1.08c-12.43,2.98-21.46,10.26-27.04,21.75
		c-2.53,5.21-4.07,10.75-4.9,16.46c-0.69,4.74-0.99,9.52-0.97,14.33c0.06,22.85,0.05,45.7,0.02,68.55
		c-0.01,10.87,0.6,21.7,1.58,32.53c0.78,8.63,1.95,7.34-6.66,7.4c-9.92,0.07-19.83,0.02-29.75,0.01c-1.28,0-2.56,0.01-3.84-0.05
		c-1.19-0.06-1.64-0.6-1.52-1.9c0.35-3.98,0.76-7.95,1.12-11.92c0.22-2.38,0.5-4.77,0.57-7.16c0.43-14.37,0.84-28.75,1.2-43.12
		c1.46-57.04,0.96-114.08,0.37-171.12c-0.16-15.33-1.07-30.66-1.69-45.98c-0.1-2.39-0.52-4.76-0.7-7.15
		c-0.34-4.56-0.32-4.58,4.08-4.59c10.08-0.02,20.15-0.01,30.23,0c0.96,0,1.92-0.01,2.88,0.05c1.07,0.07,1.82,0.57,1.85,1.75
		c0.03,1.44,0.04,2.88,0.04,4.31c0,40.59,0,81.18,0,121.77c0,1.72,0,3.44,0,5.16C771.79,235.08,772.09,235.12,772.39,235.15z"/>
	<path class="st1" d="M446.08,395.01c-20.62,0-41.25-0.01-61.87,0c-4.59,0-4.57,0.09-3.98-4.57c2.82-22.38,3.35-44.88,3.95-67.39
		c0.78-29.06,0.77-58.13,1.1-87.2c0.26-22.2-0.14-44.4-0.66-66.59c-0.32-13.73-1.07-27.45-1.91-41.16
		c-0.47-7.64-1.06-15.29-2.3-22.86c-0.05-0.32-0.1-0.63-0.14-0.95c-0.16-1.57,0.24-2.13,1.67-2.25c0.64-0.05,1.28-0.05,1.92-0.05
		c13.11,0,26.22,0,39.33,0c0.64,0,1.28,0,1.92,0.06c0.94,0.09,1.42,0.67,1.34,1.6c-0.19,2.23-0.38,4.46-0.65,6.68
		c-1.19,9.83-1.98,19.69-2.68,29.57c-0.86,12.29-0.73,24.58-0.73,36.88c-0.01,59.42-0.01,118.84,0.01,178.26
		c0,6.94-0.81,6.21,6.04,6.21c16.79,0,33.57,0.09,50.36-0.12c7.5-0.09,15.04-0.07,22.46-1.49c3.13-0.6,6.24-1.34,9.37-1.97
		c0.93-0.19,1.55,0.24,1.65,1.2c0.08,0.79,0.07,1.59,0.07,2.39c0,9.9,0,19.81,0,29.71c0,0.8,0,1.6-0.06,2.39
		c-0.06,0.9-0.54,1.51-1.46,1.56c-1.43,0.08-2.87,0.08-4.31,0.08C486.37,395.01,466.23,395.01,446.08,395.01z"/>
	<path class="st2" d="M1358.95,286.2c0-5.51,0-10.62,0-15.73c0-53.69,0-107.37,0-161.06c0-0.64-0.01-1.28,0.01-1.92
		c0.09-3.07,0.16-3.2,3.31-3.22c5.6-0.04,11.19-0.02,16.79,0.03c1.8,0.02,2.19,0.47,2.28,2.32c0.06,1.28,0.04,2.56,0.04,3.83
		c0,63.11,0,126.23,0,189.34c0,6.11,0.53,5.79-5.62,5.79c-9.12,0-18.23-0.09-27.35,0.05c-2.87,0.05-4.63-0.84-6.17-3.36
		c-16.11-26.29-32.38-52.48-48.54-78.74c-19.85-32.24-39.63-64.52-59.45-96.78c-0.42-0.68-0.83-1.37-1.33-1.99
		c-0.14-0.18-0.6-0.26-0.84-0.17c-0.2,0.07-0.39,0.43-0.43,0.69c-0.07,0.47-0.02,0.96-0.01,1.43c1.1,57.51,0.2,115.03,0.48,172.55
		c0.03,6.62,0.69,6.34-6.09,6.32c-4.64-0.01-9.28,0.04-13.91-0.03c-2.32-0.04-2.68-0.49-2.77-2.88c-0.04-1.12-0.01-2.24-0.01-3.36
		c0-62.95-0.01-125.91,0.01-188.86c0-6.79-0.76-6.18,6.12-6.19c8.64-0.02,17.27-0.01,25.91,0c1.12,0,2.24,0.03,3.36,0.01
		c1.24-0.02,2.15,0.53,2.78,1.55c1.35,2.17,2.69,4.35,4.03,6.53c22.69,36.87,45.41,73.72,68.06,110.62
		c12.28,20.01,24.43,40.11,36.66,60.16C1356.89,284.13,1357.18,285.48,1358.95,286.2z"/>
	<path class="st2" d="M1407.18,198.06c-0.27-12,0.5-24.61,0.87-37.22c0.25-8.48,1.8-16.82,4.71-24.84
		c2.89-7.95,7.16-14.96,14.05-20.15c3.74-2.81,7.89-4.83,12.23-6.5c7.8-3,15.95-4.61,24.2-5.65c10.79-1.36,21.67-1.93,32.53-1.73
		c9.9,0.18,19.83,0.4,29.66,1.74c9.03,1.23,17.95,2.9,26.46,6.39c8.6,3.53,14.73,9.32,18.13,18.03c2.22,5.68,3.76,11.54,4.83,17.51
		c1.69,9.44,2.56,18.96,3.19,28.53c0.99,15.01,0.9,30.02,0.58,45.03c-0.27,12.93-1.02,25.85-2.87,38.67
		c-1.02,7.1-2.51,14.12-4.61,21.02c-3.16,10.41-9.78,17.33-19.9,21.13c-6.16,2.31-12.51,3.89-18.99,4.88
		c-15.85,2.43-31.81,3.18-47.81,2.61c-10.21-0.37-20.44-0.81-30.55-2.58c-6.15-1.07-12.24-2.35-18.06-4.65
		c-2.37-0.94-4.73-1.96-6.96-3.19c-5.19-2.85-9.07-6.96-11.58-12.39c-2.57-5.55-4.25-11.36-5.44-17.32
		c-1.54-7.67-2.5-15.42-3.14-23.23C1407.51,229.02,1407.04,213.86,1407.18,198.06z"/>
	<path class="st2" d="M1759.3,104.7c0.42,1.35-0.36,2.46-0.78,3.63c-9.52,26.95-19.04,53.89-28.58,80.84
		c-13.16,37.18-26.34,74.34-39.49,111.52c-1.86,5.27-1.43,4.87-6.61,4.88c-8.16,0.02-16.31,0.03-24.47-0.01
		c-2.98-0.01-3.03-0.06-4.08-2.97c-6.53-18.18-13.05-36.37-19.56-54.56c-16.57-46.3-33.13-92.6-49.69-138.91
		c-1.73-4.84-2.21-4.91,3.38-4.88c5.44,0.03,10.88,0.07,16.31-0.02c2.11-0.04,3.19,0.8,3.81,2.78c1,3.2,2.23,6.32,3.35,9.48
		c16.57,46.98,33.17,93.94,49.7,140.94c3.12,8.88,5.97,17.86,8.97,26.79c0.23,0.68,0.14,1.57,0.97,1.95
		c0.76-0.19,0.96-0.82,1.15-1.42c13.4-42.66,28.97-84.58,43.35-126.9c5.6-16.48,11.41-32.88,17.12-49.32
		c1.59-4.58,1.08-4.24,6.03-4.25c5.28-0.01,10.56-0.02,15.84,0.01C1757.12,104.27,1758.28,103.99,1759.3,104.7z"/>
	<path class="st3" d="M1751.02,396.15c-9.73-0.6-19.45-1.19-29.18-1.79c-0.32-0.02-0.64-0.03-0.96-0.05
		c-9.9-0.41-19.81-0.65-29.7-1.27c-9.74-0.61-19.5-0.54-29.22-1.16c-7.19-0.45-14.38-0.37-21.56-0.78
		c-13.09-0.74-26.21-0.51-39.3-1.14c-14.7-0.71-29.41-0.44-44.11-0.85c-42.68-1.19-85.37-0.86-128.06-0.4
		c-17.9,0.19-35.81,0.25-53.7,0.94c-11.03,0.43-22.06,0.28-33.07,0.9c-9.58,0.54-19.18,0.38-28.75,0.98
		c-7.66,0.48-15.33,0.53-23,0.87c-13.89,0.6-27.77,1.23-41.66,1.94c-12.29,0.62-24.57,1.37-36.85,2.05
		c-2.17,0.12-2.53-0.17-2.57-2.35c-0.04-2.07,0.03-4.15,0.09-6.22c0.02-0.71,0.48-1.2,1.16-1.31c2.05-0.33,4.1-0.69,6.16-0.86
		c3.34-0.26,6.68-0.51,10.02-0.87c5.71-0.62,11.47-0.85,17.2-1.3c10.35-0.82,20.69-1.7,31.04-2.52c4.78-0.38,9.57-0.49,14.35-0.93
		c7.47-0.68,14.99-0.85,22.49-1.28c8.93-0.51,17.86-1.07,26.79-1.61c0.48-0.03,0.96-0.06,1.44-0.07
		c11.82-0.42,23.65-0.66,35.46-1.32c12.46-0.69,24.93-0.58,37.39-1.07c29.57-1.15,59.15-0.74,88.72-0.81
		c11.99-0.03,23.99,0.04,35.98,0.24c15.18,0.26,30.37,0.47,45.54,1.13c8.47,0.37,16.93,0.5,25.4,0.87
		c13.09,0.58,26.18,1.2,39.26,1.9c10.69,0.57,21.37,1.23,32.05,1.92c8.93,0.57,17.85,1.18,26.77,1.89
		c9.87,0.78,19.73,1.71,29.59,2.54c5.25,0.44,10.51,0.81,15.77,1.21c0.32,0.02,0.65,0,0.96,0.06c2.29,0.48,4.78,0.07,6.84,1.54
		c0.57,2.68,0.37,5.39,0.16,8.08c-0.07,0.93-0.89,1.22-1.77,1.17c-2.39-0.14-4.79-0.27-7.18-0.41
		C1751.02,396.06,1751.02,396.1,1751.02,396.15z"/>
	<path class="st4" d="M513.32,523.08c0-2.4-0.04-4.62,0.01-6.85c0.04-1.63,0.44-2,1.93-2.1c0.16-0.01,0.32-0.01,0.48-0.01
		c6.13,0.05,5.74-0.76,5.76,5.58c0.01,2.87-0.18,5.75-0.44,8.61c-0.15,1.61,0.36,2.7,1.61,3.69c3.01,2.37,5.93,4.86,8.91,7.28
		c0.62,0.5,1.32,0.91,1.72,1.18c-0.22,0.86-0.2,1.22-0.37,1.42c-1.31,1.54-2.01,4.16-4.11,4.27c-1.79,0.1-3.04-2.1-4.55-3.26
		c-1.89-1.45-3.71-3-5.59-4.53c-0.48,0.33-0.99,0.5-1.23,0.86c-2.59,3.78-6.35,5.75-10.63,6.87c-2.78,0.73-5.6,1.31-8.5,1.39
		c-6.88,0.18-13.75,0.33-20.56-0.89c-1.88-0.34-3.76-0.75-5.59-1.3c-3.95-1.19-6.6-3.79-7.84-7.75c-0.48-1.52-0.97-3.06-1.2-4.62
		c-0.89-6.03-1.02-12.06,0.19-18.1c0.87-4.33,3.41-7.02,7.45-8.64c1.91-0.77,4.12-0.72,5.86-2.11c-0.28-0.43-0.48-0.88-0.81-1.21
		c-5.9-5.83-5.71-12.81-3.76-20.07c0.98-3.64,3.45-5.9,6.95-7.36c5.55-2.32,21.94-2.32,27.44-0.03c3.52,1.47,5.82,3.82,6.92,7.41
		c0.8,2.62,1.08,5.3,1.05,8.04c-0.06,5.37,0.22,4.86-4.99,4.86c-3.34,0-3.31-0.04-3.47-3.51c-0.09-2.07-0.17-4.16-0.52-6.19
		c-0.45-2.63-2.12-4.16-4.81-4.64c-5.41-0.97-10.81-1-16.21,0.04c-3.04,0.58-4.81,2.44-5.31,5.42c-0.86,5.1,0.44,9.44,4.59,12.83
		c5.7,4.64,11.32,9.39,16.97,14.09c3.19,2.66,6.38,5.33,9.59,7.96C511,522.3,511.59,523.16,513.32,523.08z"/>
	<path class="st4" d="M174.59,472.03c6.1,0.43,11.55,0.41,16.87,1.68c0.93,0.22,1.84,0.51,2.76,0.76c5.08,1.38,8.31,4.57,9.47,9.74
		c0.56,2.49,1.26,4.96,1.56,7.48c1.43,12.1,1.26,24.21-0.03,36.3c-0.3,2.84-1.06,5.63-1.71,8.42c-1.08,4.62-4.1,7.4-8.54,8.85
		c-3.67,1.2-7.47,1.84-11.27,2.06c-7.97,0.46-15.96,0.63-23.89-0.74c-2.37-0.41-4.66-1.06-6.9-1.91c-3.36-1.27-5.6-3.63-6.74-6.99
		c-1.19-3.48-1.84-7.08-2.26-10.74c-0.98-8.59-0.87-17.2-0.78-25.82c0.04-3.83-0.04-7.67,0.76-11.44c0.37-1.71,0.7-3.44,1.27-5.09
		c1.6-4.65,4.74-7.87,9.35-9.62c2.85-1.08,5.81-1.8,8.82-2.11C167.29,472.47,171.28,472.27,174.59,472.03z"/>
	<path class="st5" d="M1360.86,500.67c0-1.58-0.03-2.53,0.01-3.47c0.07-1.71,0.37-2.03,1.86-2.13c0.48-0.03,0.96-0.02,1.44-0.02
		c4.2-0.03,4.24-0.03,4.24,4.22c0.01,16.93-0.01,33.87,0.03,50.8c0.01,2.58-0.36,5.1-0.81,7.61c-1.02,5.75-4.33,9.43-10.04,10.94
		c-5.18,1.37-10.45,1.28-15.72,1.12c-2.24-0.07-4.43-0.34-6.64-0.85c-5.07-1.19-8.14-4.18-9.03-9.33c-0.27-1.57-0.51-3.15-0.65-4.73
		c-0.1-1.13,0.49-1.67,1.73-1.74c0.96-0.06,1.92-0.02,2.88-0.04c2.43-0.03,2.89,0.57,2.92,2.72c0.01,0.79,0.16,1.59,0.35,2.36
		c0.65,2.55,2.24,4.17,4.86,4.72c5.24,1.1,10.49,1.1,15.7-0.09c3.24-0.74,5.35-2.75,6.04-6.08c0.19-0.94,0.44-1.87,0.54-2.82
		c0.4-3.78,0.14-7.56,0.2-11.04c-0.63-0.53-0.94-0.54-1.21-0.26c-2.51,2.71-5.73,4.03-9.27,4.57c-5.09,0.77-10.19,0.84-15.21-0.56
		c-4.83-1.35-8.03-4.4-9.58-9.19c-0.94-2.91-1.51-5.9-1.73-8.92c-0.48-6.7-0.49-13.41,0.79-20.05c0.12-0.63,0.29-1.24,0.46-1.86
		c2.01-7.35,5.87-10.76,13.37-11.75c3.49-0.46,6.98-0.61,10.51-0.14c3.93,0.53,7.43,1.82,10.23,4.71
		C1359.43,499.7,1359.85,499.92,1360.86,500.67z"/>
	<path class="st4" d="M1458.78,507.81c0.02,6.86-0.02,13.73,0.94,20.55c0.18,1.26,0.38,2.52,0.57,3.78
		c0.55,3.77,2.89,5.84,6.41,6.93c3.4,1.05,6.91,1.26,10.41,1.5c5.12,0.34,10.21-0.31,15.31-0.75c0.32-0.03,0.63-0.08,0.95-0.15
		c4.88-0.99,6.9-2.99,7.57-7.92c0.32-2.36,0.2-4.78,0.29-7.17c0.07-1.93,0.4-2.42,2.1-2.45c7.33-0.11,6.35-0.61,6.23,5.9
		c-0.06,3.52-0.61,6.98-1.64,10.37c-1.16,3.85-3.61,6.25-7.52,7.27c-3.73,0.97-7.53,1.54-11.35,1.7c-5.42,0.22-10.86,0.18-16.29,0.1
		c-3.69-0.06-7.29-0.83-10.82-1.9c-5-1.51-8.17-4.79-9.56-9.82c-1.11-4.01-1.81-8.11-2.06-12.25c-0.66-11.01-0.44-22.02-0.02-33.04
		c0.22-5.59,2.23-10.23,6.94-13.52c2.27-1.59,4.82-2.56,7.49-3.06c8.04-1.49,16.15-2.11,24.32-1.5c3.02,0.23,6.03,0.47,8.99,1.31
		c4.9,1.39,8.05,4.43,9.33,9.33c0.93,3.56,1.4,7.2,1.27,10.9c-0.04,1.19-0.69,1.7-1.81,1.72c-1.12,0.02-2.24,0.04-3.36,0.02
		c-3.15-0.06-3.16-0.06-3.29-3.24c-0.08-2.07-0.12-4.13-0.61-6.18c-0.78-3.28-2.56-5.43-5.99-6.02c-1.26-0.22-2.5-0.62-3.76-0.67
		c-7.19-0.27-14.38-0.48-21.51,0.8c-0.78,0.14-1.57,0.27-2.35,0.45c-3.28,0.75-5.31,2.78-6.12,6.03c-0.54,2.17-1.06,4.34-1.06,6.6
		C1458.79,498.23,1458.78,503.02,1458.78,507.81z"/>
	<path class="st5" d="M223.57,541.97c-1.08,1.51-0.71,2.64-0.71,3.7c-0.04,6.23-0.01,12.46-0.02,18.69c0,1.12-0.02,2.24-0.12,3.35
		c-0.06,0.69-0.53,1.09-1.24,1.2c-5.54,0.92-6.33,0.26-6.33-5.38c0-21.08,0-42.17,0-63.25c0-5.57-0.37-5.25,5.16-5.21
		c2.19,0.02,2.32,0.2,2.4,2.53c0.03,0.79,0,1.57,0,2.31c1.13,0.36,1.56-0.45,2.09-0.97c2.39-2.32,5.33-3.49,8.53-4.04
		c4.29-0.74,8.6-0.75,12.88,0.02c6.04,1.09,10.12,4.46,11.86,10.45c1.12,3.86,1.57,7.83,1.8,11.81c0.29,5.11,0.17,10.22-0.74,15.28
		c-0.17,0.94-0.41,1.87-0.61,2.8c-1.52,7.16-6.16,10.96-13.19,12.01c-3.8,0.57-7.65,0.54-11.47-0.07
		C230,546.57,226.54,545.03,223.57,541.97z"/>
	<path class="st6" d="M755.66,522.51c-5.43,0-10.87-0.01-16.3,0.01c-0.81,0-1.71,0.16-1.68,1.22c0.09,3.66,0.11,7.32,1.04,10.93
		c0.81,3.13,2.73,4.97,5.76,5.76c1.07,0.28,2.19,0.44,3.3,0.55c3.99,0.41,7.98,0.25,11.97-0.08c4.13-0.34,7.08-1.87,7.17-7.19
		c0.01-0.48,0.08-0.95,0.14-1.43c0.07-0.55,0.5-0.82,0.96-0.9c0.62-0.12,1.27-0.14,1.91-0.14c5.02,0.03,5.18-0.55,4.66,4.95
		c-0.44,4.71-2.87,8.07-7.48,9.55c-1.97,0.63-3.99,1.24-6.04,1.45c-6.37,0.64-12.74,0.79-19.08-0.57
		c-5.89-1.26-9.75-4.55-10.96-10.59c-0.44-2.19-0.91-4.38-1.14-6.59c-0.76-7.34-0.65-14.66,0.68-21.94
		c0.06-0.31,0.16-0.62,0.23-0.93c1.38-6.53,5.46-10.34,11.96-11.45c6.99-1.19,13.98-1.05,20.94,0.46c5.67,1.23,8.74,4.75,9.97,10.3
		c1.05,4.73,1.07,9.5,1.02,14.29c-0.02,1.9-0.39,2.22-2.23,2.3c-0.96,0.04-1.92,0.02-2.88,0.02c-4.63,0-9.27,0-13.9,0
		C755.66,522.5,755.66,522.5,755.66,522.51z"/>
	<path class="st5" d="M993.39,522.51c-5.43,0-10.86-0.03-16.29,0.01c-1.92,0.01-2.21,0.32-2.18,2.28c0.04,3.19,0.17,6.35,0.9,9.5
		c0.83,3.57,3.02,5.48,6.41,6.3c0.62,0.15,1.25,0.24,1.89,0.31c4.46,0.48,8.93,0.39,13.39-0.07c3.66-0.38,6.41-1.84,6.56-6.72
		c0.01-0.48,0.05-0.96,0.1-1.43c0.1-0.96,0.74-1.32,1.6-1.42c5.99-0.63,7.08,0.58,5.78,6.44c-0.82,3.68-2.92,6.3-6.42,7.79
		c-2.23,0.94-4.59,1.47-6.95,1.71c-6.37,0.64-12.75,0.83-19.06-0.6c-0.47-0.11-0.93-0.21-1.39-0.34c-4.87-1.35-7.98-4.41-9.31-9.33
		c-1.04-3.88-1.47-7.84-1.7-11.81c-0.31-5.26-0.16-10.53,0.74-15.74c0.16-0.94,0.43-1.86,0.6-2.8c1.26-6.63,5.46-10.33,11.89-11.45
		c6.97-1.21,13.97-1.07,20.92,0.46c5.42,1.19,8.6,4.43,9.85,9.82c1.17,5.03,1.22,10.11,1.16,15.22c-0.01,1.08-0.56,1.79-1.73,1.83
		c-1.12,0.03-2.23,0.05-3.35,0.05c-4.47,0.01-8.94,0-13.41,0C993.39,522.5,993.39,522.5,993.39,522.51z"/>
	<path class="st5" d="M1703.85,531.43c1.07-0.09,1.69-0.18,2.32-0.19c5.41-0.1,6.04,0.65,4.88,6.01c-0.91,4.22-3.28,7.23-7.51,8.54
		c-1.52,0.47-3.07,0.89-4.64,1.14c-6.84,1.05-13.68,1.06-20.49-0.34c-5.7-1.18-9.48-4.39-10.75-10.21c-0.44-2.02-1.01-4.05-1.17-6.1
		c-0.6-7.49-0.87-14.99,0.6-22.43c0.03-0.16,0.05-0.32,0.07-0.47c1.24-6.95,5.34-11.14,12.28-12.28c6.99-1.14,13.98-1.04,20.95,0.53
		c5.25,1.18,8.36,4.38,9.64,9.49c1.29,5.16,1.4,10.43,1.27,15.71c-0.03,1.18-0.78,1.65-1.89,1.66c-1.12,0-2.24,0.02-3.36,0.02
		c-8.95,0-17.91,0-26.86,0.01c-1.28,0-2.55,0.03-3.83,0.12c-0.69,0.05-1.22,0.47-1.22,1.22c0,4.16,0.26,8.3,1.63,12.27
		c0.6,1.75,1.88,2.94,3.56,3.69c0.58,0.26,1.18,0.53,1.8,0.66c5.87,1.16,11.76,1.01,17.62-0.01c2.46-0.43,3.92-2.08,4.45-4.47
		C1703.52,534.59,1703.62,533.16,1703.85,531.43z"/>
	<path class="st5" d="M1555.07,531.26c1.91,0,3.81-0.04,5.71,0.02c1.21,0.04,1.59,0.54,1.64,1.86c0.28,7.23-3.25,11.93-10.34,13.4
		c-7.43,1.54-14.92,1.58-22.38,0.08c-1.25-0.25-2.48-0.64-3.66-1.1c-3.14-1.22-5.42-3.4-6.55-6.58c-0.64-1.8-1.18-3.66-1.46-5.54
		c-1.27-8.58-1.43-17.17,0.15-25.74c0.09-0.47,0.15-0.95,0.26-1.41c1.38-5.83,4.86-9.5,10.81-10.87c2.84-0.65,5.7-0.9,8.56-0.98
		c4.79-0.14,9.58,0.14,14.26,1.4c4.56,1.23,7.46,4.03,8.72,8.63c1.45,5.3,1.73,10.7,1.61,16.14c-0.03,1.49-0.47,1.83-2.13,1.91
		c-1.12,0.05-2.24,0.02-3.36,0.02c-8.79,0-17.59,0-26.38,0c-1.28,0-2.56,0-3.83,0.06c-0.89,0.04-1.49,0.51-1.53,1.46
		c-0.17,3.86,0.29,7.65,1.35,11.36c0.66,2.31,2.12,3.93,4.44,4.63c1.37,0.41,2.77,0.77,4.19,0.93c4.15,0.47,8.31,0.32,12.45-0.1
		c1.1-0.11,2.18-0.45,3.24-0.79c1.64-0.53,2.7-1.71,3.11-3.37C1554.35,535,1554.65,533.29,1555.07,531.26z"/>
	<path class="st5" d="M657.2,546.5c0-1.35,0-2.6,0-3.89c-0.4,0.06-0.75,0.01-0.92,0.16c-3.94,3.42-8.67,4.6-13.72,4.78
		c-3.83,0.14-7.65,0.16-11.41-0.9c-7.04-1.98-10.74-6.52-11.06-13.79c-0.12-2.73,0.13-5.41,0.86-8.05c1.1-4.01,3.52-6.73,7.53-7.95
		c4.79-1.45,9.72-1.82,14.69-1.49c6.39,0.42,6.96,0.64,13.31,3.7c0.49-2.4,0.22-4.77,0.2-7.11c-0.01-1.59-0.16-3.19-0.41-4.76
		c-0.57-3.55-2.63-5.79-6.22-6.34c-4.44-0.68-8.92-0.79-13.33,0.18c-3.7,0.81-6.47,2.74-6.94,6.88c-0.13,1.17-0.81,1.62-1.92,1.64
		c-6.44,0.09-5.87,0.28-4.96-5.64c0.67-4.35,3.21-7.08,7.55-8.3c3.28-0.92,6.63-1.05,9.96-1.2c4.62-0.21,9.23,0.13,13.79,1.13
		c5.96,1.3,8.93,5.19,9.83,10.92c0.32,2.04,0.41,4.13,0.42,6.2c0.04,10.21,0.02,20.42,0.02,30.64c0,0.64-0.02,1.28-0.05,1.91
		c-0.05,0.9-0.47,1.52-1.42,1.55C661.09,546.81,659.18,547.03,657.2,546.5z"/>
	<path class="st5" d="M1085.37,500.73c3.77-4.46,7.73-5.73,12.17-6.18c3.38-0.34,6.71-0.2,10.03,0.31
		c7.98,1.23,12.78,6.51,13.37,14.55c0.06,0.8,0.06,1.6,0.06,2.39c0,10.38,0,20.75,0,31.13c0,0.8-0.03,1.6-0.07,2.39
		c-0.04,0.98-0.68,1.4-1.56,1.44c-1.28,0.05-2.56,0.07-3.83,0.02c-1.81-0.07-2.16-0.4-2.16-2.34c-0.03-9.9-0.01-19.8-0.03-29.7
		c0-1.6,0.05-3.2-0.14-4.78c-0.58-4.92-3.16-7.82-8.02-8.9c-4.48-0.99-8.9-0.44-13.21,0.97c-2.79,0.91-4.51,2.93-5.39,5.68
		c-0.89,2.76-1.19,5.61-1.19,8.5c0,8.46,0,16.92-0.03,25.38c-0.02,5.66,0.6,5.26-5.59,5.18c-1.62-0.02-1.96-0.39-2.04-1.96
		c-0.05-0.96-0.03-1.92-0.03-2.87c0-21.39,0-42.79,0-64.18c0-1.12,0-2.24,0.07-3.35c0.06-0.9,0.57-1.45,1.51-1.48
		c1.12-0.04,2.24-0.07,3.35-0.04c2.5,0.06,2.69,0.21,2.71,2.8c0.04,6.39,0.01,12.77,0.02,19.16
		C1085.37,496.43,1085.37,498.01,1085.37,500.73z"/>
	<path class="st5" d="M1236.1,521.01c0.12,4.31,0.05,8.62-0.81,12.86c-0.06,0.31-0.07,0.63-0.13,0.95
		c-1.38,7.48-4.24,10.43-11.74,11.9c-6.97,1.37-13.96,1.26-20.93-0.1c-5.74-1.12-9.41-4.29-10.61-10.2
		c-1.41-6.93-1.93-13.9-1.34-20.93c0.29-3.49,0.54-6.98,1.42-10.41c1.27-4.95,4.18-8.02,9.15-9.4c3.59-1,7.26-1.22,10.9-1.32
		c4.62-0.13,9.25,0.14,13.76,1.4c4.53,1.27,7.46,4.03,8.68,8.65c0.9,3.41,1.46,6.86,1.63,10.37
		C1236.19,516.86,1236.1,518.93,1236.1,521.01z"/>
	<path class="st5" d="M387.78,530.78c0.23,1.49,0.51,3.05,0.7,4.62c0.36,2.93,2.14,4.53,4.87,5.21c0.77,0.19,1.57,0.27,2.37,0.35
		c4.31,0.42,8.64,0.4,12.93-0.13c5.86-0.72,7.2-2.84,7.6-8.53c0.09-1.24-0.28-2.53-0.59-3.76c-0.56-2.19-2.01-3.53-4.19-4.18
		c-1.72-0.52-3.48-0.45-5.23-0.51c-4.95-0.16-9.92-0.02-14.8-1.14c-0.31-0.07-0.64-0.08-0.95-0.15c-6.22-1.38-9.01-4.54-9.62-10.84
		c-0.25-2.56-0.2-5.12,0.22-7.65c0.72-4.34,3.07-7.23,7.49-8.35c5.01-1.27,10.12-1.46,15.23-1.31c3.34,0.1,6.71,0.29,9.94,1.38
		c1.99,0.67,3.87,1.5,5.47,2.89c2.6,2.28,3.65,5.16,3.31,8.57c-0.07,0.7-0.48,1.18-1.2,1.25c-0.95,0.08-1.91,0.12-2.87,0.12
		c-2.94-0.01-3.07,0-3.67-3.05c-0.5-2.56-1.84-3.87-4.41-4.27c-5.74-0.88-11.44-0.94-17.17,0.06c-2.62,0.46-3.87,2.06-4.3,4.46
		c-0.2,1.09-0.22,2.23-0.19,3.34c0.16,4.82,2.54,7.39,7.33,7.75c4.78,0.36,9.57,0.65,14.36,0.83c10.12,0.39,14.01,6.73,13.83,14.8
		c-0.05,2.25-0.2,4.45-0.94,6.61c-1.11,3.23-3.16,5.55-6.44,6.58c-2.13,0.66-4.31,1.35-6.51,1.53c-6.54,0.55-13.09,0.78-19.58-0.6
		c-1.09-0.23-2.17-0.54-3.22-0.9c-3.63-1.22-5.85-3.7-6.77-7.43c-0.39-1.56-0.65-3.12-0.66-4.73c-0.02-3.01,0.14-3.19,3.24-3.23
		c1.12-0.01,2.24,0.01,3.36,0.07C387.03,530.44,387.32,530.62,387.78,530.78z"/>
	<path class="st5" d="M696.97,494.28c3.62,0.2,8.12,0.06,12.44,1.46c1.36,0.44,2.7,1,3.95,1.67c2.68,1.44,4.29,3.73,5,6.69
		c0.91,3.82,0.41,4.49-3.55,4.5c-0.48,0-0.96,0.01-1.44-0.01c-1.85-0.09-1.85-0.09-2.44-2.18c-0.17-0.61-0.33-1.23-0.5-1.85
		c-0.45-1.7-1.49-2.78-3.26-3.1c-0.31-0.06-0.63-0.13-0.94-0.18c-5.56-0.93-11.11-0.9-16.68-0.02c-2.78,0.44-4.31,1.9-4.69,4.61
		c-0.17,1.26-0.37,2.55-0.26,3.8c0.4,4.58,2.75,6.88,7.37,7.23c4.3,0.33,8.61,0.51,12.91,0.77c1.43,0.09,2.89,0.09,4.3,0.34
		c6.38,1.11,10.18,5.2,10.71,11.67c0.18,2.21,0.14,4.48-0.1,6.68c-0.54,5.14-3.36,8.5-8.39,9.87c-1.69,0.46-3.42,0.9-5.16,1.04
		c-6.7,0.51-13.4,0.74-20.04-0.69c-3.19-0.69-6.16-1.84-8.03-4.74c-1.99-3.09-2.27-6.58-2.03-10.13c0.05-0.67,0.5-1.19,1.22-1.25
		c0.95-0.08,1.91-0.1,2.87-0.1c3.21,0,3.98-0.31,3.97,3.54c-0.01,4.72,2.75,6.62,6.83,7.02c4.63,0.45,9.26,0.41,13.87-0.13
		c2.98-0.35,5.67-1.32,6.6-4.62c0.99-3.51,1.1-6.95-1.23-10.04c-0.8-1.06-2-1.51-3.26-1.87c-1.73-0.48-3.49-0.37-5.24-0.43
		c-4.95-0.14-9.91-0.06-14.78-1.2c-1.24-0.29-2.49-0.6-3.68-1.03c-2.88-1.05-4.8-3.09-5.75-6c-1.38-4.21-1.33-8.46-0.3-12.74
		c0.91-3.78,3.22-6.16,6.99-7.08c1.7-0.42,3.43-0.77,5.16-0.97C691.66,494.56,693.9,494.49,696.97,494.28z"/>
	<path class="st5" d="M848.99,494.25c3.99,0.24,8.32,0.12,12.5,1.41c1.22,0.37,2.45,0.76,3.58,1.34c3.35,1.7,5.39,4.38,5.88,8.18
		c0.37,2.84-0.01,3.36-2.92,3.41c-0.96,0.02-1.92-0.02-2.87-0.04c-0.91-0.02-1.63-0.5-1.67-1.37c-0.25-5.08-3.74-6.18-7.86-6.37
		c-4.62-0.22-9.24-0.41-13.85,0.46c-2.81,0.53-4.17,2.16-4.58,4.76c-0.19,1.25-0.24,2.55-0.14,3.81c0.35,4.26,2.7,6.67,7.04,7.02
		c4.77,0.39,9.56,0.58,14.35,0.86c1.75,0.1,3.47,0.27,5.18,0.8c4.35,1.33,7.17,4.12,8.25,8.5c1.01,4.09,0.99,8.21-0.34,12.27
		c-1.01,3.08-3.04,5.16-6.05,6.36c-2.25,0.9-4.61,1.43-6.98,1.62c-6.53,0.53-13.08,0.74-19.56-0.65c-1.4-0.3-2.8-0.68-4.11-1.25
		c-2.79-1.21-4.62-3.35-5.54-6.24c-0.24-0.76-0.4-1.55-0.55-2.33c-1.16-5.88-0.43-6.74,5.43-6.44c1.89,0.1,2.14,0.31,2.37,2.23
		c0.1,0.79,0.08,1.6,0.2,2.38c0.49,3.47,1.92,5.17,5.43,5.72c5.4,0.85,10.85,0.78,16.23-0.11c3.89-0.65,5.42-2.48,6.04-6.4
		c0.12-0.78,0.15-1.59,0.13-2.39c-0.14-5.17-2.43-7.6-7.61-7.91c-3.35-0.2-6.7-0.24-10.06-0.28c-2.9-0.03-5.73-0.56-8.53-1.19
		c-5.87-1.31-8.75-4.66-9.19-10.67c-0.17-2.38-0.18-4.81,0.13-7.16c0.61-4.7,3.07-7.81,7.94-9.02
		C841.05,494.65,844.89,494.79,848.99,494.25z"/>
	<path class="st4" d="M1313.14,521.12c-0.08,4.62,0.06,9.26-1.06,13.8c-0.3,1.24-0.61,2.47-0.99,3.69
		c-1.11,3.62-3.51,6.03-7.12,7.14c-1.97,0.61-3.99,1.24-6.03,1.44c-6.21,0.63-12.43,0.8-18.58-0.6c-0.93-0.21-1.84-0.52-2.74-0.83
		c-3.57-1.2-5.93-3.57-7.11-7.18c-0.79-2.44-1.38-4.92-1.61-7.46c-0.59-6.69-0.59-13.38-0.02-20.07c0.23-2.71,0.86-5.33,1.72-7.92
		c1.14-3.44,3.43-5.72,6.81-6.85c1.8-0.61,3.67-1.12,5.55-1.38c5.56-0.77,11.14-0.7,16.71-0.03c0.32,0.04,0.64,0.05,0.95,0.12
		c7.3,1.62,10.77,3.44,12.52,12.32C1313.05,511.9,1313.05,516.5,1313.14,521.12z"/>
	<path class="st5" d="M1399.01,539.54c2.34-9.27,4.68-18.55,7.03-27.82c1.21-4.79,2.43-9.59,3.7-14.36c0.57-2.15,0.73-2.23,2.95-2.3
		c1.28-0.04,2.56-0.03,3.83,0.03c1.21,0.06,1.6,0.62,1.3,1.92c-0.47,2.02-0.98,4.03-1.52,6.03c-4.09,15.25-8.17,30.5-12.28,45.75
		c-1,3.69-2.06,7.37-3.61,10.89c-0.84,1.91-1.73,3.79-3.03,5.41c-3.59,4.47-8.38,5.48-13.78,4.64c-0.68-0.11-1.14-0.56-1.22-1.27
		c-0.07-0.63-0.08-1.27-0.08-1.91c0-2.55,0.02-2.72,2.59-2.75c3.28-0.04,5.36-1.75,6.92-4.36c1.99-3.34,2.81-7.1,3.74-10.81
		c0.22-0.87-0.12-1.57-1.09-1.77c-1.06-0.22-1.59-0.88-1.92-1.88c-0.65-1.97-1.4-3.91-2.1-5.85c-4.68-12.89-9.37-25.79-14.04-38.69
		c-0.43-1.2-0.83-2.41-1.18-3.64c-0.26-0.91,0.22-1.61,1.11-1.69c0.64-0.06,1.28-0.07,1.92-0.07c4.84,0.02,4.25-0.3,5.73,3.95
		c4.19,12.05,8.34,24.12,12.52,36.18c0.51,1.47,1.11,2.9,1.68,4.35C1398.45,539.53,1398.73,539.53,1399.01,539.54z"/>
	<path class="st7" d="M937.45,513.81c0,9.43,0,18.85,0,28.28c0,1.12-0.01,2.24-0.1,3.35c-0.05,0.69-0.53,1.13-1.22,1.26
		c-0.47,0.09-0.95,0.12-1.43,0.11c-6.42-0.06-5.75,0.74-5.75-5.48c-0.02-18.21-0.01-36.42-0.01-54.63c0-1.28,0.03-2.56-0.02-3.83
		c-0.07-1.83-0.39-2.17-2.36-2.18c-5.6-0.05-11.19-0.02-16.79-0.03c-1.12,0-2.24-0.02-3.35-0.08c-0.94-0.05-1.4-0.61-1.45-1.53
		c-0.02-0.48-0.04-0.96-0.04-1.44c-0.01-5.02-0.25-4.73,4.63-4.73c15.67,0,31.34,0,47.01,0c0.96,0,1.92,0.01,2.88,0.03
		c0.89,0.02,1.57,0.41,1.66,1.35c0.18,1.89,0.75,4.02-0.29,5.6c-1.1,1.67-3.26,0.7-4.93,0.74c-5.11,0.12-10.23,0.02-15.35,0.06
		c-2.83,0.02-3.05,0.22-3.06,2.95C937.43,493.69,937.45,503.75,937.45,513.81C937.45,513.81,937.45,513.81,937.45,513.81z"/>
	<path class="st6" d="M1582.2,500.7c3.53-4.53,8.46-5.83,13.87-6.25c3.71-0.29,7.37-0.02,10.97,0.62
		c6.12,1.09,9.12,4.32,10.12,10.53c0.38,2.36,0.7,4.76,0.72,7.14c0.08,10.38,0.04,20.75,0.03,31.13c0,0.48-0.03,0.96-0.07,1.43
		c-0.07,0.96-0.71,1.41-1.56,1.46c-1.27,0.08-2.56,0.08-3.83,0.04c-1.88-0.06-2.16-0.3-2.17-2.32c-0.03-10.06-0.03-20.11-0.02-30.17
		c0-2.24-0.15-4.45-0.51-6.67c-0.58-3.59-2.54-5.63-6.13-6.4c-4.33-0.93-8.58-0.84-12.78,0.44c-4.48,1.37-7.28,4.41-8.34,9.02
		c-0.47,2.04-0.66,4.08-0.66,6.17c0.03,8.14,0.01,16.28,0.01,24.42c0,1.28-0.01,2.55-0.05,3.83c-0.03,0.87-0.38,1.49-1.35,1.63
		c-5.71,0.81-6.29,0.33-6.29-5.41c0-13.57,0-27.14,0-40.71c0-1.12-0.03-2.24,0.03-3.35c0.09-1.8,0.45-2.13,2.37-2.21
		c0.96-0.04,1.92-0.04,2.88,0c1.85,0.07,2.04,0.33,2.18,2.33C1581.7,498.43,1581.14,499.56,1582.2,500.7z"/>
	<path class="st6" d="M1142.29,500.48c6.1-4.93,7.83-5.7,15.45-6.1c3.99-0.21,7.97,0.09,11.85,1.25c3.83,1.15,6.27,3.61,7.4,7.45
		c0.9,3.09,1.29,6.27,1.32,9.45c0.09,10.38,0.04,20.75,0.03,31.13c0,0.48-0.02,0.96-0.05,1.43c-0.06,1.18-0.78,1.64-1.87,1.69
		c-0.16,0.01-0.32,0.02-0.48,0.02c-5.71-0.02-5.25,0.56-5.25-5.02c-0.01-9.42-0.02-18.84,0.01-28.26c0.01-2.41-0.21-4.79-0.79-7.12
		c-0.62-2.53-2.21-4.19-4.75-4.89c-4.91-1.35-9.81-1.28-14.61,0.41c-3.89,1.37-6.38,4.15-7.46,8.12c-0.59,2.16-0.84,4.37-0.83,6.63
		c0.05,8.14,0.02,16.28,0.02,24.42c0,1.28-0.01,2.55-0.03,3.83c-0.01,1.11-0.45,1.84-1.67,1.85c-1.28,0.02-2.56,0.06-3.83,0.01
		c-1.73-0.07-2.12-0.48-2.14-2.4c-0.04-5.11-0.02-10.22-0.02-15.32c0-9.42,0-18.84,0-28.26c0-1.28,0-2.55,0.03-3.83
		c0.03-1.1,0.54-1.8,1.7-1.89c0.32-0.02,0.64-0.04,0.96-0.04c4.64,0.04,4.99-0.6,4.75,4.54
		C1142.03,499.89,1142.21,500.19,1142.29,500.48z"/>
	<path class="st7" d="M568.41,509.66c0-10.54,0-21.08,0-31.61c0-1.27,0.04-2.55,0.12-3.82c0.04-0.71,0.53-1.13,1.22-1.24
		c0.47-0.07,0.95-0.1,1.43-0.1c6.34,0.06,5.72-0.78,5.73,5.52c0.02,18.2,0.01,36.4,0.01,54.6c0,1.12-0.02,2.24,0.01,3.35
		c0.07,2.42,0.23,2.57,2.85,2.64c1.12,0.03,2.24,0.01,3.36,0.01c8.79,0,17.58,0,26.37,0c1.12,0,2.24-0.03,3.36,0.02
		c1.67,0.07,2.14,0.42,2.15,1.88c0.05,6.36,0.77,5.9-5.35,5.9c-11.98,0-23.97,0-35.95,0c-0.8,0-1.6,0.02-2.4-0.01
		c-2.54-0.08-2.8-0.31-2.88-2.67c-0.04-1.12-0.01-2.24-0.01-3.35C568.41,530.42,568.41,520.04,568.41,509.66z"/>
	<path class="st5" d="M1030.45,520.98c0.13,3.03,0.05,6.09,0.43,9.09c0.85,6.74,1.82,10.27,11.11,10.96
		c3.04,0.23,6.07,0.24,9.1-0.06c0.95-0.09,1.92-0.19,2.84-0.42c2.53-0.63,4.29-2.09,4.75-4.78c0.3-1.73,0.56-3.46,0.78-5.2
		c0.25-2.07,0.38-2.25,2.18-2.36c5.58-0.33,6.35,0.55,5.33,6.15c-0.99,5.47-3.98,9.33-9.24,11.29c-1.49,0.55-3.04,1-4.6,1.28
		c-6.54,1.18-13.06,1-19.49-0.64c-4.88-1.24-8.05-4.35-9.46-9.24c-1.16-4.03-1.48-8.17-1.78-12.31c-0.37-5.12,0.06-10.22,0.8-15.29
		c0.14-0.94,0.46-1.86,0.65-2.79c1.4-6.79,5.79-10.48,12.4-11.64c6.19-1.09,12.42-0.85,18.61,0.19c6.53,1.09,10.14,5,11.06,11.47
		c0.84,5.95,0.47,5.31-4.57,5.35c-0.48,0-0.96-0.03-1.43-0.09c-0.72-0.08-1.12-0.53-1.22-1.23c-0.21-1.42-0.3-2.86-0.62-4.25
		c-0.6-2.57-2.31-4.21-4.84-4.8c-5.03-1.18-10.08-1.54-15.2-0.34c-3.48,0.81-5.67,2.8-6.37,6.32c-0.34,1.72-0.76,3.45-0.85,5.19
		c-0.14,2.71-0.04,5.43-0.04,8.14C1030.67,520.98,1030.56,520.98,1030.45,520.98z"/>
	<path class="st5" d="M363.9,511.56c-0.31-1.62-0.63-3.33-0.98-5.04c-0.49-2.42-2-4.08-4.31-4.69c-5.32-1.41-10.7-1.79-16.12-0.4
		c-3.05,0.78-5.1,2.56-5.81,5.7c-0.28,1.24-0.63,2.48-0.78,3.74c-0.79,6.53-0.96,13.06-0.07,19.6c0.15,1.11,0.33,2.21,0.54,3.3
		c0.76,3.93,3.27,6.15,7.09,6.83c4.92,0.88,9.88,0.86,14.81,0.08c3.22-0.51,5.07-2.51,5.51-5.77c0.28-2.05,0.57-4.11,0.85-6.11
		c0.36-0.2,0.63-0.48,0.91-0.49c6.97-0.22,7.41-1.02,6.04,6.91c-0.77,4.41-3.3,7.5-7.18,9.62c-2.58,1.41-5.38,2.16-8.22,2.44
		c-5.42,0.54-10.83,0.53-16.23-0.63c-6.12-1.31-9.99-4.78-11.24-10.95c-0.51-2.5-1.05-5.03-1.2-7.56
		c-0.38-6.38-0.48-12.76,0.66-19.11c1.65-9.22,5.98-13.26,15.28-14.35c4.81-0.56,9.58-0.26,14.35,0.18
		c0.48,0.04,0.95,0.12,1.42,0.21c7.46,1.49,10.31,4.47,11.53,12.05c0.8,5,0.8,5-4.43,4.9c-0.63-0.01-1.26-0.11-1.89-0.19
		C364.29,511.82,364.16,511.7,363.9,511.56z"/>
	<path class="st7" d="M1631.42,519.71c0-4.95,0.02-9.91-0.01-14.86c-0.02-3.27-0.06-3.24-3.08-3.41c-1.24-0.07-2.76,0.53-3.65-0.53
		c-1.11-1.31-0.55-3.04-0.41-4.6c0.07-0.72,0.63-1.06,1.31-1.17c0.31-0.05,0.64-0.04,0.95-0.09c1.52-0.23,3.42,0.72,4.49-0.77
		c0.95-1.31,0.32-3.1,0.39-4.68c0.09-1.91,0.05-3.83,0.16-5.74c0.04-0.68,0.51-1.1,1.25-1.21c5.62-0.84,6.22-0.26,6.33,5.45
		c0.04,2.17-1.02,4.91,0.67,6.39c1.61,1.42,4.29,0.47,6.49,0.52c3.52,0.09,7.04,0,10.55,0.05c1.5,0.02,2.01,0.55,2.1,1.98
		c0.05,0.8,0.05,1.6,0,2.39c-0.1,1.46-0.57,1.96-2.09,1.98c-3.84,0.04-7.68-0.01-11.51,0.04c-7.23,0.09-6.18-0.99-6.23,6.44
		c-0.06,7.83-0.02,15.66,0,23.49c0,1.44-0.02,2.89,0.21,4.3c0.53,3.25,2.55,5.08,5.78,5.4c0.79,0.08,1.6,0.08,2.39,0.02
		c3.56-0.29,5.55-2.1,6.01-5.66c0.23-1.73,0.15-3.51,0.21-5.26c0.04-1.18,0.72-1.69,1.85-1.69c5.5-0.01,5.62-0.72,5.36,5.39
		c-0.05,1.11-0.27,2.22-0.48,3.32c-1.06,5.62-4.5,9.2-10.1,10.11c-3.31,0.54-6.68,0.54-9.99-0.37c-5.83-1.6-8.67-4.91-8.86-10.93
		c-0.17-5.43-0.04-10.86-0.04-16.3C1631.46,519.71,1631.44,519.71,1631.42,519.71z"/>
	<path class="st7" d="M271.71,519.59c0-5.43,0-10.86,0-16.29c0-1.12-0.49-1.81-1.7-1.82c-0.48,0-0.96,0.02-1.44-0.03
		c-1.22-0.13-2.86,0.54-3.54-0.74c-0.74-1.4-0.52-3.12-0.09-4.68c0.1-0.36,0.61-0.66,1-0.87c0.26-0.14,0.62-0.08,0.94-0.1
		c1.42-0.12,3.12,0.51,4.19-0.41c1.31-1.12,0.57-3,0.64-4.55c0.09-1.91,0.02-3.83,0.05-5.75c0.02-1.17,0.71-1.69,1.83-1.75
		c0.16-0.01,0.32-0.02,0.48-0.02c5.72,0,5.32-0.53,5.32,5c0,1.6-0.03,3.2,0.01,4.79c0.06,2.39,0.28,2.63,2.85,2.65
		c4.96,0.05,9.91-0.01,14.87,0.04c1.85,0.02,2.19,0.43,2.26,2.28c0.02,0.64,0.02,1.28-0.01,1.92c-0.08,1.81-0.38,2.15-2.35,2.17
		c-5.11,0.05-10.23,0-15.35,0.05c-1.93,0.02-2.25,0.33-2.26,2.25c-0.03,9.9-0.03,19.81,0.01,29.71c0,1.1,0.27,2.21,0.57,3.28
		c0.72,2.58,2.47,4.05,5.14,4.32c1.1,0.11,2.24,0.13,3.34-0.01c3.08-0.38,4.91-2.17,5.29-5.24c0.24-1.9,0.22-3.82,0.39-5.73
		c0.07-0.87,0.56-1.52,1.51-1.54c6.21-0.11,5.66-0.67,5.66,5.05c0,0.8-0.05,1.6-0.16,2.39c-1.1,7.36-5.47,11.32-12.93,11.59
		c-2.07,0.07-4.18,0.06-6.21-0.3c-6.67-1.19-10-5.1-10.26-11.85c-0.1-2.55-0.02-5.11-0.02-7.67c0-2.72,0-5.43,0-8.15
		C271.72,519.59,271.71,519.59,271.71,519.59z"/>
	<path class="st8" d="M1731.73,499.19c0.79,0.16,1.13-0.48,1.58-0.88c5.29-4.66,11.43-5.21,17.96-3.68c4.26,1,6.93,3.75,8.1,7.94
		c0.34,1.22,0.64,2.48,0.75,3.73c0.52,5.76-0.55,6.73-6.21,5.77c-0.71-0.12-1.11-0.54-1.13-1.28c-0.03-1.43,0.07-2.88-0.09-4.29
		c-0.39-3.42-2.38-5.47-5.82-5.95c-1.41-0.2-2.87-0.18-4.29-0.11c-5.07,0.28-8.27,3.06-9.8,7.75c-0.94,2.89-1.21,5.91-1.2,8.96
		c0.04,8.29,0.02,16.58,0.01,24.87c0,5.35,0.32,4.78-5,4.77c-2.34,0-2.63-0.32-2.63-2.88c-0.02-15.31-0.01-30.61,0-45.92
		c0-0.63,0.06-1.28,0.2-1.89c0.06-0.28,0.32-0.66,0.56-0.72c2.03-0.55,4.08-0.55,6.1-0.01c0.29,0.08,0.5,0.73,0.6,1.15
		C1731.59,497.4,1730.99,498.38,1731.73,499.19z"/>
	<path class="st9" d="M795.01,499.96c4.7-4.96,9.93-6.34,15.76-6.04c7.83,0.41,12.26,4.8,12.76,12.68c0.05,0.79,0.07,1.59,0.06,2.39
		c-0.02,3.14-0.03,3.17-3.23,3.18c-1.26,0-2.55,0.24-3.93-0.39c-0.6-1.28,0.09-2.69-0.03-4.07c-0.39-4.61-2.66-6.97-7.24-7.29
		c-1.27-0.09-2.56-0.06-3.82,0.07c-4.19,0.43-7.07,2.69-8.7,6.53c-1.34,3.15-1.55,6.5-1.57,9.85c-0.05,8.13-0.02,16.26-0.02,24.39
		c0,1.28-0.02,2.55-0.05,3.83c-0.02,1.18-0.71,1.67-1.83,1.7c-0.16,0-0.32,0.01-0.48,0.01c-5.54,0.01-5.27,0.53-5.27-5.06
		c0-13.87,0-27.74,0-41.61c0-0.8-0.02-1.6,0.01-2.39c0.11-2.36,0.41-2.63,2.89-2.7c0.64-0.02,1.28-0.02,1.91,0
		c2.39,0.06,2.39,0.06,2.52,2.82C794.77,498.3,794.85,498.74,795.01,499.96z"/>
	<path class="st10" d="M1255.54,509.89c0,10.52,0,21.05,0,31.57c0,1.27-0.02,2.55-0.07,3.82c-0.03,0.93-0.57,1.44-1.49,1.48
		c-0.96,0.05-1.91,0.07-2.87,0.06c-3.04-0.04-3.22-0.16-3.22-3.27c-0.02-22.48-0.01-44.96-0.01-67.45c0-0.32,0-0.64,0.01-0.96
		c0.11-1.88,0.39-2.24,2.3-2.24c5.63-0.02,5.35-0.63,5.35,4.93C1255.54,488.52,1255.54,499.2,1255.54,509.89z"/>
	<path class="st11" d="M315.65,520.7c0,7.35,0,14.69,0,22.04c0,0.96,0.02,1.93-0.14,2.86c-0.06,0.37-0.5,0.79-0.87,0.98
		c-0.4,0.2-0.93,0.23-1.4,0.23c-5.75-0.01-5.25,0.55-5.25-5.02c-0.01-13.89,0-27.79,0-41.68c0-0.96-0.02-1.92,0.02-2.87
		c0.09-1.8,0.43-2.16,2.36-2.17c5.72-0.05,5.28-0.43,5.28,5.03C315.65,506.96,315.65,513.83,315.65,520.7z"/>
	<path class="st12" d="M308.02,477.19c0-0.94-0.05-1.89,0.01-2.83c0.06-0.89,0.6-1.43,1.51-1.45c6.84-0.11,6.07-0.71,6.11,5.44
		c0,0.63-0.03,1.26-0.11,1.88c-0.1,0.71-0.6,1.07-1.27,1.15c-0.62,0.07-1.26,0.08-1.88,0.1
		C307.96,481.56,307.96,481.56,308.02,477.19z"/>
	<path class="st13" d="M1028.93,129.42c1.57,6.34,3.19,12.67,4.69,19.03c7.9,33.53,15.77,67.06,23.65,100.6
		c2.88,12.27,5.75,24.53,8.61,36.8c0.37,1.6,0.01,2.06-1.55,2.15c-0.8,0.05-1.6,0.03-2.4,0.03c-22.37,0-44.75-0.01-67.12,0.01
		c-5.11,0.01-4.44-0.27-3.44-4.48c6.58-27.78,13.15-55.56,19.73-83.34c5.29-22.35,10.58-44.69,15.87-67.04
		c0.29-1.24,0.66-2.47,0.99-3.7C1028.25,129.03,1028.57,129.01,1028.93,129.42z"/>
	<path class="st14" d="M1028.93,129.42c-0.33,0.02-0.65,0.04-0.98,0.06c-0.15-0.59-0.06-1.43,0.43-1.45
		C1028.9,128.01,1029.05,128.82,1028.93,129.42z"/>
	<path class="st13" d="M248.54,129.48c2.23,9.31,4.5,18.62,6.69,27.94c5.96,25.33,11.88,50.66,17.82,75.99
		c3.94,16.78,7.91,33.56,11.82,50.34c0.28,1.21,0.78,2.43,0.44,3.72c-0.99,0.8-2.15,0.54-3.24,0.54
		c-22.71,0.01-45.43,0.01-68.14,0.01c-0.96,0-1.93-0.01-2.87-0.16c-0.4-0.06-0.9-0.39-0.82-1c0.1-0.79,0.16-1.58,0.34-2.35
		c6.73-28.42,13.48-56.84,20.22-85.26c5.3-22.36,10.59-44.73,15.89-67.1c0.22-0.93,0.57-1.82,0.86-2.73
		C247.91,129.01,248.24,129.03,248.54,129.48z"/>
	<path class="st15" d="M248.54,129.48c-0.33-0.02-0.65-0.04-0.98-0.06c-0.11-0.6,0.02-1.42,0.54-1.4
		C248.6,128.05,248.68,128.89,248.54,129.48z"/>
	<path class="st13" d="M585.3,189.07c0-15.97,0-31.95,0-47.92c0-1.28-0.02-2.56,0.02-3.83c0.07-1.9,0.3-2.17,2.31-2.18
		c6.55-0.04,13.11-0.03,19.66-0.02c7.99,0.01,15.99,0.06,23.98,0.05c3.38,0,6.71,0.46,9.95,1.35c9.1,2.48,15.15,8.53,19.16,16.83
		c2.25,4.66,3.24,9.68,3.74,14.78c1.39,14.03,1.39,28.07-0.05,42.09c-0.54,5.24-1.58,10.4-3.42,15.38
		c-3.58,9.69-10.39,15.41-20.58,17.24c-3.01,0.54-6.01,0.87-9.05,0.87c-14.07,0.02-28.14,0.02-42.2,0.02
		c-0.64,0-1.28-0.01-1.92-0.05c-0.9-0.05-1.5-0.46-1.54-1.42c-0.05-1.28-0.07-2.55-0.07-3.83
		C585.29,221.97,585.3,205.52,585.3,189.07z"/>
	<path class="st13" d="M1557.54,200.76c-0.3,11.81-0.4,24.59-1.02,37.35c-0.49,10.03-1.2,20.09-3.6,29.91
		c-0.34,1.39-0.73,2.78-1.15,4.15c-1.49,4.92-4.69,8.2-9.46,10.12c-3.73,1.5-7.58,2.55-11.51,3.23c-6.29,1.1-12.65,1.88-19.04,2.12
		c-12.63,0.47-25.27,0.56-37.89-0.04c-8.62-0.41-17.21-1.29-25.54-3.75c-2.28-0.68-4.52-1.59-6.68-2.61
		c-3.33-1.56-5.53-4.21-6.86-7.65c-1.22-3.15-2.01-6.41-2.57-9.71c-1.07-6.29-1.78-12.64-2.26-19.01
		c-1.43-19.15-1.05-38.32-0.97-57.48c0.05-11.51,0.77-22.98,2.1-34.41c0.57-4.91,1.49-9.77,2.82-14.56
		c1.58-5.68,5.09-9.42,10.59-11.46c3.76-1.39,7.62-2.44,11.56-3.06c7.1-1.13,14.24-1.96,21.45-2.13
		c10.71-0.25,21.43-0.39,32.14,0.11c8.62,0.4,17.21,1.26,25.55,3.68c1.99,0.58,3.96,1.26,5.87,2.06c4.43,1.88,7.7,5.03,9.96,9.29
		c2.44,4.58,3.73,9.51,4.58,14.56c0.77,4.56,1.23,9.17,1.29,13.82C1557.06,176.79,1557.31,188.29,1557.54,200.76z"/>
	<path class="st13" d="M490.36,540.74c-3.66-0.3-7.33-0.56-10.98-0.92c-1.1-0.11-2.17-0.49-3.26-0.75
		c-2.23-0.53-3.64-1.98-4.26-4.12c-0.49-1.68-0.85-3.41-1.08-5.14c-0.6-4.46-0.46-8.91,0.41-13.34c0.47-2.38,1.74-4.07,3.93-5.07
		c0.58-0.27,1.17-0.51,1.76-0.75c5.35-2.09,5.36-2.1,9.81,1.55c7.41,6.08,14.81,12.18,22.21,18.27c0.62,0.51,1.21,1.04,1.82,1.56
		c0.73,0.64,0.67,1.36,0.24,2.13c-1.41,2.54-3.75,3.84-6.38,4.75c-3.52,1.21-7.21,1.35-10.86,1.67c-1.11,0.1-2.24,0.01-3.36,0.01
		C490.37,540.64,490.36,540.69,490.36,540.74z"/>
	<path class="st13" d="M198.11,509.73c-0.14,4.95-0.18,9.91-0.45,14.85c-0.16,2.86-0.61,5.72-1.11,8.54
		c-0.55,3.12-2.46,5.03-5.59,5.86c-4.37,1.16-8.85,1.31-13.31,1.59c-5.13,0.32-10.26-0.02-15.31-0.78
		c-8.65-1.29-9.07-3.07-10.17-9.7c-0.86-5.23-0.84-10.51-0.9-15.78c-0.07-6.55,0.12-13.1,0.4-19.65c0.12-2.85,0.65-5.71,1.2-8.52
		c0.5-2.53,2.03-4.32,4.64-4.96c2.01-0.49,4.02-1.16,6.07-1.32c7.97-0.65,15.95-0.96,23.91,0.41c6.81,1.18,9.02,3.4,10.07,10.78
		c0.58,4.09,0.37,8.29,0.48,12.44c0.05,2.08,0.01,4.15,0.01,6.23C198.07,509.73,198.09,509.73,198.11,509.73z"/>
	<path class="st13" d="M1360.48,520.38c-0.34,4.47-0.24,8.62-1.23,12.72c-1.12,4.66-4.04,7.1-8.61,7.77
		c-3.34,0.49-6.7,0.47-10.04-0.01c-4.22-0.61-7.04-2.8-7.91-7.16c-1.2-6-1.5-12.04-0.96-18.11c0.24-2.69,0.34-5.4,1.12-8.05
		c0.95-3.25,2.96-5.18,6.16-6.04c4.76-1.27,9.51-1.16,14.22,0.15c2.98,0.83,5.04,2.73,5.84,5.78c0.4,1.54,0.81,3.1,0.95,4.68
		C1360.27,514.96,1360.34,517.84,1360.48,520.38z"/>
	<path class="st13" d="M251.86,521.42c-0.11,2.4-0.17,5.12-0.38,7.82c-0.11,1.42-0.46,2.82-0.72,4.23c-0.86,4.54-3.81,6.8-8.21,7.42
		c-3.34,0.47-6.7,0.46-10.02-0.08c-4.33-0.71-7.27-3.05-8.29-7.49c-1.3-5.64-1.59-11.36-1.07-17.1c0.26-2.84,0.4-5.7,1.24-8.5
		c1.02-3.41,3.15-5.4,6.54-6.25c4.42-1.1,8.82-1.13,13.25,0c3.42,0.87,5.47,2.95,6.4,6.36C251.79,512.2,251.56,516.67,251.86,521.42
		z"/>
	<path class="st0" d="M752.23,516.51c-4.14,0-8.29,0.03-12.43-0.02c-1.5-0.02-1.98-0.55-1.96-2.06c0.03-2.71,0.15-5.39,1.04-8.01
		c0.85-2.5,2.5-4.09,4.95-4.74c5.82-1.54,11.68-1.47,17.49,0.04c2.12,0.55,3.64,1.91,4.42,4.01c1.14,3.05,1.26,6.22,1.08,9.42
		c-0.04,0.68-0.51,1.17-1.21,1.26c-0.79,0.1-1.59,0.11-2.38,0.11c-3.67,0.01-7.33,0-11,0C752.23,516.53,752.23,516.52,752.23,516.51
		z"/>
	<path class="st0" d="M989.66,516.5c-4.3,0-8.61,0.01-12.91-0.01c-1.13-0.01-1.75-0.63-1.75-1.78c0-2.71,0.18-5.39,1-8.02
		c0.78-2.49,2.33-4.21,4.79-4.9c5.97-1.67,11.98-1.6,17.95,0.02c2.1,0.57,3.65,1.96,4.27,4.14c0.35,1.22,0.79,2.46,0.86,3.7
		c0.43,7.94,1,6.8-6.07,6.89c-2.71,0.03-5.42,0.01-8.13,0.01C989.66,516.53,989.66,516.51,989.66,516.5z"/>
	<path class="st0" d="M1689.05,516.53c-4.15,0-8.31,0.03-12.46-0.01c-1.96-0.02-2.55-0.67-2.3-2.69c0.29-2.37,0.32-4.76,1.05-7.08
		c0.85-2.69,2.55-4.41,5.22-5.1c5.68-1.46,11.39-1.41,17.07,0c2.52,0.62,4.21,2.22,4.92,4.74c0.34,1.23,0.73,2.48,0.79,3.74
		c0.38,7.03,0.95,6.38-5.66,6.41c-2.88,0.01-5.75,0-8.63,0C1689.05,516.54,1689.05,516.53,1689.05,516.53z"/>
	<path class="st0" d="M1540.02,516.54c-4,0-7.99,0.04-11.99-0.01c-2.61-0.04-3.02-0.47-2.79-3.19c0.17-2.06,0.48-4.13,0.95-6.14
		c0.66-2.86,2.45-4.81,5.36-5.55c5.69-1.44,11.39-1.4,17.08,0.01c2.54,0.63,4.2,2.3,4.91,4.78c0.44,1.52,0.72,3.12,0.85,4.7
		c0.45,5.57,0.5,5.44-4.78,5.42C1546.42,516.53,1543.22,516.54,1540.02,516.54C1540.02,516.54,1540.02,516.54,1540.02,516.54z"/>
	<path class="st13" d="M641.84,521.28c2.89,0.19,5.3,0.17,7.66,0.53c5.07,0.77,7.22,3.17,7.74,8.23c0.47,4.63-1.62,8.03-6.01,9.76
		c-2.1,0.83-4.31,1.13-6.55,1.27c-3.2,0.2-6.39,0.2-9.56-0.25c-4.43-0.64-5.96-2.31-6.72-6.78c-0.38-2.24-0.26-4.43,0.09-6.65
		c0.49-3.09,2.26-4.95,5.26-5.4C636.57,521.56,639.46,521.48,641.84,521.28z"/>
	<path class="st13" d="M1228.19,520.05c0.25,4.78-0.29,8.57-0.68,12.38c-0.13,1.25-0.53,2.48-0.86,3.71
		c-0.5,1.82-1.72,3.06-3.46,3.68c-1.34,0.48-2.74,0.88-4.15,1.06c-3.81,0.48-7.64,0.46-11.46,0.01c-1.25-0.15-2.49-0.51-3.7-0.88
		c-2.15-0.66-3.55-2.16-4.06-4.32c-0.48-2.01-0.9-4.06-1.04-6.11c-0.39-5.73-0.38-11.47,0-17.2c0.13-1.89,0.55-3.78,0.92-5.65
		c0.51-2.6,2.14-4.28,4.64-4.96c5.97-1.61,11.99-1.61,17.96,0.01c2.49,0.68,4,2.4,4.65,4.97c0.83,3.27,0.92,6.62,1.22,9.94
		C1228.3,518.11,1228.19,519.56,1228.19,520.05z"/>
	<path class="st13" d="M1275.73,520.99c-0.21-4.3-0.17-8.58,0.59-12.86c0.72-4.01,2.88-6.11,6.84-6.83c4.94-0.9,9.8-0.86,14.72,0.1
		c3.81,0.74,5.83,2.98,6.4,6.72c0.5,3.31,0.9,6.62,0.92,9.98c0.02,5.1,0.06,10.2-0.84,15.25c-0.86,4.85-2.54,6.68-7.36,7.41
		c-4.44,0.67-8.92,0.66-13.36,0.01c-4.67-0.69-6.33-2.38-7.26-6.94c-0.25-1.25-0.58-2.51-0.62-3.77
		C1275.67,527.04,1275.73,524.01,1275.73,520.99z"/>
</g>
</svg>
