<?xml version="1.0" encoding="utf-8"?>
<!-- Generator: Adobe Illustrator 26.1.0, SVG Export Plug-In . SVG Version: 6.00 Build 0)  -->
<svg version="1.1" id="Laag_1" xmlns="http://www.w3.org/2000/svg" xmlns:xlink="http://www.w3.org/1999/xlink" x="0px" y="0px"
	 viewBox="0 0 1920 884" style="enable-background:new 0 0 1920 884;" xml:space="preserve">
<style type="text/css">
	.st0{fill:#C9D300;}
	.st1{fill:#FFFFFF;}
	.st2{fill:#8EB526;}
	.st3{fill:#194077;}
	.st4{fill:#1A4077;}
	.st5{fill:#1A4078;}
	.st6{fill:#194178;}
	.st7{fill:#1B4078;}
	.st8{fill:#194076;}
	.st9{fill:#194177;}
	.st10{fill:#184178;}
	.st11{fill:#194176;}
	.st12{fill:#1A4076;}
	.st13{fill:#1C407A;}
	.st14{fill:#1A4377;}
	.st15{fill:#1C3F78;}
	.st16{fill:#183F20;}
	.st17{fill:#8AB693;}
	.st18{fill:#144029;}
	.st19{fill:#2E612A;}
	.st20{fill:#1C4474;}
	.st21{fill:#1F4576;}
	.st22{fill:#1D4375;}
	.st23{fill:#0A3B3C;}
	.st24{fill:#5B8C8A;}
	.st25{fill:#BBD471;}
	.st26{fill:#5D8C8B;}
	.st27{fill:#83B590;}
	.st28{fill:#1E4A2A;}
	.st29{fill:#77A88F;}
	.st30{fill:#0C3E2A;}
	.st31{fill:#517F2F;}
	.st32{fill:#3D6C2C;}
	.st33{fill:#31672C;}
	.st34{fill:#C1D674;}
	.st35{fill:#BCD57A;}
	.st36{fill:#C5D767;}
	.st37{fill:#89BA8F;}
	.st38{fill:#184321;}
	.st39{fill:#30602A;}
	.st40{fill:#89BF8E;}
	.st41{fill:#B4D27D;}
	.st42{fill:#77A893;}
	.st43{fill:#8ABF8E;}
	.st44{fill:#1C4822;}
	.st45{fill:#245226;}
	.st46{fill:#91C48E;}
	.st47{fill:#47772E;}
	.st48{fill:#C2D66B;}
	.st49{fill:#A0CB88;}
	.st50{fill:#0D3F2E;}
	.st51{fill:#C2D773;}
	.st52{fill:#3D6A2C;}
	.st53{fill:#6CA08F;}
	.st54{fill:#5B8B8E;}
	.st55{fill:#0D3C3F;}
	.st56{fill:#1B4621;}
	.st57{fill:#8DBD87;}
	.st58{fill:#275325;}
	.st59{fill:#0B3C32;}
	.st60{fill:#A5CC84;}
	.st61{fill:#6EA092;}
	.st62{fill:#1E4634;}
	.st63{fill:#7AA288;}
	.st64{fill:#35622A;}
	.st65{fill:#B5D37E;}
	.st66{fill:#80AA8E;}
	.st67{fill:#1C4732;}
	.st68{fill:#10392B;}
	.st69{fill:#75A190;}
	.st70{fill:#86B191;}
	.st71{fill:#204D2A;}
	.st72{fill:#264D27;}
	.st73{fill:#356265;}
	.st74{fill:#A0C285;}
	.st75{fill:#8AB58C;}
	.st76{fill:#1C4939;}
	.st77{fill:#66A293;}
	.st78{fill:#567D63;}
	.st79{fill:#6B9890;}
	.st80{fill:#0B4136;}
	.st81{fill:#1B442E;}
	.st82{fill:#CAD400;}
	.st83{fill:#CAD500;}
	.st84{fill:#184526;}
	.st85{fill:#3E7168;}
	.st86{fill:#517B62;}
	.st87{fill:#245126;}
	.st88{fill:#A2CB88;}
	.st89{fill:#88BE90;}
</style>
<g>
	<path class="st0" d="M0.09,882.75C0.09,590.03,0.1,297.31,0,4.59C0,0.84,0.84,0,4.59,0c637.76,0.1,1275.53,0.09,1913.29,0.09
		c1.74,2.59,0.96,5.51,0.96,8.27c0.04,208,0.04,416,0.04,624c0,81.04,0.01,162.07-0.03,243.11c0,2.44,0.62,5-0.76,7.33
		c-1.75,0.83-3.61,0.43-5.41,0.43c-635.72,0.02-1271.45,0.02-1907.17,0C3.7,883.22,1.83,883.67,0.09,882.75z"/>
	<path class="st1" d="M0.09,882.75c636.08,0,1272.16,0,1908.23-0.01c3.16,0,6.32-0.1,9.48-0.16c1.12-2.03,0.55-4.23,0.55-6.34
		c0.03-289.92,0.03-579.83,0.05-869.75c0-2.13-0.51-4.32,0.46-6.39c0.31,0.22,1.04-0.5,1.01,0.5c-0.04,1.33-0.01,2.66-0.01,3.99
		c0,291.5-0.01,583.01,0.12,874.51c0,4.24-1.1,4.75-4.96,4.75c-636.82-0.1-1273.63-0.1-1910.45-0.16
		C3.13,883.68,1.2,884.83,0.09,882.75z"/>
	<path class="st2" d="M1918.88,0.09c0,292.22,0,584.45-0.06,876.67c0,1.91,1.23,4.22-1.01,5.82c0.02-1.5,0.07-2.99,0.07-4.49
		c0-292.67,0-585.33,0-878C1918.21,0.09,1918.55,0.09,1918.88,0.09z"/>
	<path class="st3" d="M1243.44,340.87c-2.02,15.08-7.32,28.88-15.8,41.54c-13.25,19.77-32.19,31.38-54.83,36.63
		c-18.75,4.34-37.87,4.38-56.94,0.68c-22.17-4.31-40.87-14.35-55.02-32.2c-10.87-13.73-16.8-29.46-19.8-46.65
		c-1.65-9.46-1.65-18.85-1.66-28.31c-0.05-40.44,0.07-80.87-0.14-121.31c-0.03-4.78,1.51-5.59,5.81-5.53
		c15.65,0.24,31.31,0.25,46.96-0.01c4.23-0.07,5.54,0.75,5.52,5.32c-0.19,44.6-0.27,89.19,0.03,133.79
		c0.08,12.55,3.24,24.55,11.81,34.35c6.57,7.5,15.01,11.5,24.97,12.45c10.37,0.99,20.6,0.94,30.09-4
		c11.74-6.11,17.79-16.43,20.91-28.89c2.29-9.16,1.94-18.45,1.94-27.74c-0.01-40.1,0.04-80.21-0.1-120.31
		c-0.01-3.83,0.89-5.04,4.87-4.99c16.32,0.23,32.64,0.11,48.96,0.07c2.53-0.01,4.39-0.03,4.38,3.53
		c-0.17,46.76-0.2,93.52-0.27,140.28C1243.88,333.21,1244.12,337.11,1243.44,340.87z"/>
	<path class="st3" d="M1723.16,321.38c-29.61,0.05-59.22,0.06-88.82,0.21c-2.85,0.01-3.19-1.18-3.18-3.55
		c0.08-11.47,0.12-22.94-0.06-34.41c-0.05-3.16,1.05-3.9,4.02-3.87c12.14,0.12,24.3-0.24,36.43,0.11c4.76,0.13,4.98-1.76,4.57-5.55
		c-2.75-25.5-19.79-44.37-43.93-48.97c-19.37-3.7-37.85-2.59-54.68,8.58c-12.68,8.42-20.24,20.7-24.32,35.14
		c-5.06,17.87-5.42,36-1.95,54.18c4.28,22.44,18.69,43.68,44.38,50.53c3.73,0.99,7.36,1.84,11.19,1.92
		c0.43,0.23,0.87,0.44,1.31,0.65c4.63,0.3,9.26,0.31,13.89-0.01c0.44-0.2,0.87-0.44,1.28-0.7c11.28-0.38,21.18-4.33,29.48-11.92
		c2.4-2.19,3.91-1.99,5.96,0.12c9.47,9.74,19.5,18.9,29.62,27.96c2.32,2.08,2.19,3.6-0.05,5.63c-11.01,10-23.88,16.29-38.16,20.27
		c-17.77,4.94-35.89,5.78-53.88,3.49c-31.76-4.03-58.76-17.7-78.94-43.22c-14.69-18.58-22.42-39.87-24.84-63.36
		c-2.91-28.3,1.79-54.92,16.53-79.45c14.11-23.48,34.67-38.83,60.45-47.68c22.49-7.71,45.56-9.61,68.74-5.35
		c35.64,6.55,61.4,26.12,75.13,60.37c5.51,13.76,9.02,27.92,9.8,42.73C1724.49,297.28,1724.61,309.33,1723.16,321.38z"/>
	<path class="st3" d="M613.78,421.59c-27.62-1.54-51.78-11.19-71.83-30.54c-2.94-2.84-3.07-4.77,0.21-7.7
		c9.38-8.39,18.48-17.1,27.54-25.84c2.07-2,3.25-2.06,5.57-0.16c16.63,13.61,35.43,21.96,57.25,22.02
		c9.03,0.03,17.58-2.36,25.5-7.01c8.54-5.01,12.6-12.1,11.91-22.06c-0.66-9.46-6.6-14.78-14.3-18.5
		c-11.09-5.36-23.17-7.52-35.09-10.17c-17.67-3.93-35.48-7.54-50.84-17.96c-11.9-8.07-19.46-18.9-22.35-33.26
		c-3.79-18.82-1.49-36.47,8.52-52.89c7.94-13.01,19.66-21.83,33.5-27.62c20.88-8.73,42.58-11.48,65.2-8.66
		c19.72,2.46,37.84,8.31,53.48,20.82c3.83,3.06,7.3,6.48,10.31,10.4c1.46,1.9,1.83,3.07-0.16,4.92c-9.59,8.89-19.13,17.84-28.47,27
		c-1.78,1.75-2.47,0.79-3.56-0.21c-11.07-10.14-24.35-15.32-39-17.47c-11.09-1.63-21.73-0.64-31.78,4.84
		c-8.75,4.77-12.86,11.86-11.8,21.83c0.97,9.04,7.76,13.02,14.92,15.98c12.56,5.21,26.11,7.03,39.24,10.3
		c20.01,4.99,40.18,9.79,55.02,25.78c8.15,8.78,12.47,19.23,13.89,31.17c1.12,9.44,1.45,18.61-0.64,28.03
		c-3.38,15.23-11.26,27.38-23.52,36.65c-13.41,10.13-28.8,15.69-45.32,18.42c-5.08,0.84-10.07,2.22-15.29,1.91
		C632.51,422.95,623.15,422.97,613.78,421.59z"/>
	<path class="st3" d="M910.52,369.73c12.81-0.5,24.01-5.44,34.16-12.84c2.3-1.67,3.29-2.22,5.62,0.03c10,9.67,20.2,19.14,30.5,28.49
		c2.55,2.31,2.36,3.9,0.08,6.03c-13.45,12.6-29.01,21.21-46.8,26.34c-17.47,5.05-35.3,5.95-52.82,3.25
		c-45.2-6.95-79.33-29.93-97.16-73.22c-8.52-20.69-10.5-42.54-7.26-64.88c3.11-21.47,10.77-40.87,24.51-57.68
		c16.22-19.86,36.84-33,61.62-39.79c14.21-3.89,28.64-6.27,43.3-5.28c28.18,1.91,53.71,10.65,74.31,31.04
		c2.33,2.31,2.9,3.51,0.24,5.96c-9.99,9.2-19.84,18.56-29.59,28.01c-2.62,2.54-4.47,2.35-7.33,0.24
		c-16.9-12.45-35.8-15.75-56.31-12.17c-15.7,2.74-28.43,10.2-38.51,22.4c-9.4,11.37-14.53,24.4-15.59,39.12
		c-1.43,19.79,3.19,37.79,16.22,53.02c10.88,12.72,24.67,20.43,41.62,21.88c0.4,0.24,0.82,0.46,1.24,0.66
		c5.59,0.34,11.17,0.26,16.76,0.04C909.75,370.22,910.15,370,910.52,369.73z"/>
	<path class="st3" d="M1299.37,415.42c0-27.45-0.87-54.94,0.24-82.35c1.15-28.32,8.11-55.39,23.52-79.78
		c14.83-23.46,35.16-40.35,60.42-51.62c24.47-10.91,50.36-14.67,76.83-15.91c3.91-0.18,5.01,0.9,4.93,4.85
		c-0.26,12.81-0.28,25.63,0.01,38.43c0.09,4.05-1.22,4.72-4.97,4.85c-23.32,0.78-45.49,5.62-64.76,19.73
		c-13.97,10.23-23.9,23.68-30.21,39.68c-4.55,11.53-8.28,23.34-8.22,35.97c-0.35,0.55-0.61,1.14-0.78,1.77
		c-0.33,26.08-0.05,52.17-0.14,78.25c-0.03,7.14-0.02,7.15-7.23,7.15c-14.63,0.01-29.27,0.02-43.9-0.02
		C1303.16,416.43,1301.08,416.9,1299.37,415.42z"/>
	<path class="st3" d="M359.62,233.73c-19.18,0.33-37.77,3.22-55.22,11.78c-21.79,10.69-36.18,27.77-44.64,50.26
		c-4.82,12.8-7.77,25.92-8.03,39.61c-0.31,0.54-0.54,1.11-0.67,1.72c-0.25,24.11-0.03,48.21-0.11,72.31
		c-0.02,6.83-0.21,7.04-6.95,7.04c-14.31,0.02-28.62,0.03-42.92-0.01c-5.59-0.01-6.07-0.46-6.07-5.9c-0.03-25.6-0.03-51.2,0-76.8
		c0-3.14,0.43-6.26,0.85-9.37c4.62-51.89,26.97-92.83,73.84-118.29c16.02-8.7,33.28-14.04,51.39-16.73
		c12.83-1.9,25.62-3.91,38.65-3.31c1.43,1.3,1.13,3.05,1.13,4.67c0.03,12.8,0.03,25.59,0,38.39
		C360.85,230.73,361.11,232.48,359.62,233.73z"/>
	<path class="st3" d="M419.77,415.2c-0.04-11.97-0.13-23.95-0.13-35.92c-0.01-62.71,0.04-125.42-0.1-188.13
		c-0.01-4.32,1-5.58,5.44-5.49c16.97,0.36,33.94,0.27,50.92,0.34c1.31,1.78,0.87,3.84,0.87,5.8c0.02,72.53,0.02,145.06,0.02,217.59
		c0,6.97-0.08,7.05-6.92,7.05c-14.82,0.02-29.64,0.02-44.46-0.02C423.47,416.43,421.35,416.96,419.77,415.2z"/>
	<path class="st3" d="M549.87,687.34c0.6,8.91-8.57,18.57-17.91,19.89c-8.71,1.23-17.15,1.48-25.35-2.15
		c-1.19-0.53-2.28-1.3-3.4-1.99c-2.59-1.61-2.21-3.93-1.04-6.02c1.62-2.89,3.45-0.59,4.83,0.35c9.05,6.12,18.39,6.35,28.1,1.79
		c6.07-2.85,7.42-8.54,8.28-14.25c0.56-3.7,0.11-7.56,0.11-12.05c-5.69,5.22-12.08,6.86-19.23,6.64
		c-10.07-0.32-17.5-4.82-21.34-13.98c-5.3-12.64-4.93-25.12,2.06-37.43c6.77-11.93,27.33-15.36,38.02-5.23
		c1.17-1.26,1.42-3.36,3.42-3.87c3.2-1.28,4.28,0.25,4.3,3.22c0.04,5.15,0.01,10.29,0.02,15.44c0,14.44,0.02,28.88-0.01,43.32
		C550.73,683.16,551.1,685.37,549.87,687.34z"/>
	<path class="st3" d="M1537.86,671.33c5.27-16.49,10.25-31.97,15.1-47.48c0.47-1.49,1.15-2.81,2.08-3.87
		c1.42-1.62,3.4-3.12,5.61-1.97c2.3,1.2,0.65,3.49,0.18,4.88c-5.53,16.52-11.53,32.89-16.8,49.48c-1.52,4.79-2.92,7.83-8.56,6.81
		c-1.5-0.27-2.05-0.56-2.63-2.11c-3.97-10.58-8.17-21.07-12.71-32.62c-3.83,8.9-7.35,17.06-10.83,25.23
		c-0.9,2.12-1.71,4.29-2.45,6.47c-1.03,3.05-3.42,2.89-6,3.02c-2.77,0.15-3.32-1.07-4.14-3.46c-6.21-18.21-12.69-36.32-19.13-54.45
		c-0.36-1.01-0.69-2.15,0.13-2.76c0.84-0.62,1.92-1.1,3.25-0.64c3.71,1.29,5.14,4.25,6.22,7.64c4.83,15.15,9.72,30.27,14.95,46.57
		c5.15-12.57,9.98-23.97,14.41-35.52c0.94-2.44-1.62-4.79-2.31-7.29c-0.78-2.83-2.16-5.49-3.15-8.27c-1.02-2.87,0.26-3.72,2.95-3
		c2.53,0.68,4.29,2.13,5.25,4.72c5.22,14,10.53,27.96,15.82,41.93C1535.88,666.64,1536.74,668.6,1537.86,671.33z"/>
	<path class="st3" d="M1717.15,677.28c-0.16-1.11-0.33-2.22-0.56-3.77c-9.83,8.65-20.39,9.26-31.35,3.51
		c-6.73-3.53-9.82-9.95-11.28-17.05c-2.18-10.6-1.99-21.22,3.56-30.8c7.35-12.69,25.62-17.02,39.48-5.93
		c0-11.18-0.04-21.86,0.04-32.53c0.01-1.48-1.01-3.77,1.29-4.2c1.73-0.32,4.05-0.36,4.76,2.22c1.05,1.65,0.91,3.5,0.91,5.32
		c0.01,26.07,0.02,52.13-0.01,78.2C1723.98,678.13,1723.11,678.73,1717.15,677.28z"/>
	<path class="st4" d="M243.31,587.11c2.5,1.45,2.73,3.74,2.72,6.37c-0.07,26.74,0,53.48-0.12,80.22c-0.01,1.8,1.85,4.83-2.31,5.28
		c-3.86,0.42-5.18-1.25-4.7-4.92c-22.18,11.41-40.99,4.99-43.06-14.46c-1.42-6.88-1.41-13.75-0.03-20.63
		c2.55-18.92,24.55-28.83,40.82-17.21c1.24,0.11,1.94-0.51,2.21-1.69c0.23-9.59,0.03-19.17,0.1-28.75
		C238.97,588.43,239.14,585.71,243.31,587.11z"/>
	<path class="st3" d="M626.85,672.63c3.26-9.19,6.05-16.98,8.8-24.79c2.89-8.22,5.72-16.45,8.63-24.66
		c0.33-0.92,0.83-1.86,1.49-2.57c1.81-1.95,3.95-3.93,6.75-2.41c2.87,1.56,0.21,3.4-0.36,5.01c-8.13,23.05-16.24,46.1-24.51,69.1
		c-4.75,13.22-12.65,18.42-25.25,14.78c-3.4-0.98-4.43-4.01-2.55-6.93c0.56-0.86,1.22-1.32,1.97-0.74
		c4.28,3.26,9.07,4.21,13.23,0.76c3.63-3.02,5.28-7.76,6.66-12.33c0.14-0.47,0.3-0.95,0.5-1.4c1.43-3.11,2.8-5.4-0.46-9.16
		c-3.24-3.73-4.24-9.49-5.91-14.47c-4.29-12.77-8.88-25.43-13.52-38.08c-0.71-1.93-3.48-5.41,0.19-6.78
		c3.3-1.23,6.04,1.33,7.18,4.52c3.48,9.75,6.74,19.58,10.08,29.37C621.96,658.3,624.16,664.74,626.85,672.63z"/>
	<path class="st3" d="M1264.71,671.1c5.5-15.59,11.06-31.15,16.41-46.79c0.56-1.63,1.32-3.25,2.33-4.26
		c1.48-1.49,3.5-3.13,6.07-1.94c3.42,1.58,0.48,3.36-0.04,4.82c-8.63,24.29-17.15,48.62-26.17,72.76
		c-4.34,11.6-12.23,14.16-23.82,11.39c-3.36-0.8-4.4-5.11-2.03-7.48c0.8-0.8,1.32-0.44,2.07,0.1c6.69,4.77,12.91,3.33,17.24-5.82
		c1.68-3.55,3.01-7.28,4.31-11c0.61-1.74,1.16-3.28-1.55-4.62c-2.93-1.46-2.87-5.46-3.9-8.29c-5.81-15.89-11.18-31.94-16.68-47.94
		c-0.38-1.1-2.19-2.21-0.47-3.42c1.79-1.26,3.81-1.1,5.61,0.16c3.55,2.48,3.98,6.62,5.23,10.27c4.82,14,9.51,28.04,14.25,42.06
		C1263.95,671.1,1264.33,671.1,1264.71,671.1z"/>
	<path class="st4" d="M661.58,649.04c-0.14-11.1,2.78-21.17,12.37-27.59c13.35-8.94,36.28-6.46,41.38,15.49
		c2.48,10.69,2.15,21.6-3.53,31.82c-5.16,9.29-17.52,13.07-26.33,11.77c-11.17-1.65-18.92-7.42-22.24-18.77
		C662,657.51,661.56,653.36,661.58,649.04z"/>
	<path class="st4" d="M1617.07,671.24c0.04,2.37,1.42,3.53,3.58,4.09c1.32,0.34,2.72,0.96,2.36,2.65c-0.42,1.95-2.18,1.02-3.31,1.08
		c-6.63,0.33-9.47-1.56-11.19-7.61c-7.02,6.36-15.1,8.98-24.42,7.88c-7.3-0.86-13.73-5.29-14.96-10.77
		c-2.12-9.39,0.74-17.27,7.62-21.64c8.5-5.38,17.93-6.54,27.63-5.9c4.04,0.27,4.79-1.12,4.48-4.73c-0.74-8.74-5.18-12.9-14.05-13.2
		c-6.11-0.21-11.81,0.76-17.17,3.83c-1.21,0.69-3.06,2.42-4.26,0.1c-1.05-2.03-1.09-4.35,1.41-5.58c10.92-5.4,22.25-6.64,33.45-1.53
		c4.57,2.09,6.91,6.8,6.99,12.15c1.24,2.67,0.79,5.53,0.83,8.32c0.13,9.75-0.2,19.51,0.17,29.26
		C1616.42,670.22,1616.7,670.75,1617.07,671.24z"/>
	<path class="st4" d="M1425.36,657.83c-2.35,17.5-17.16,24.87-31.7,22.45c-20.24-3.37-24.78-23.91-21.64-39.76
		c2.12-10.72,7.56-19.35,18.47-22.33c16.55-4.53,31.62,1.76,34.86,21.08C1426.75,645.45,1426.64,651.64,1425.36,657.83z"/>
	<path class="st5" d="M943.46,679.1c-9-1.08-17.23-11.06-18.12-21.37c-1.3-6.16-1.39-12.31,0.01-18.47
		c1.29-11.96,11.91-21.66,23.82-22.23c10.22-0.49,18.56,2.37,23.22,12.08c2.69,5.61,3.44,11.69,2.99,17.91
		c-0.24,3.28-2.73,2.33-4.48,2.34c-11.47,0.08-22.96,0.26-34.42-0.06c-4.46-0.12-5.32,1.52-4.14,5.21c1.33,4.18,1.6,8.65,4.49,12.37
		c7.09,9.13,21.26,10.53,30.94,2.99c1.23-0.96,2.43-4.09,4.87-0.98c2.06,2.64,0.54,4.33-1.27,5.82c-2.78,2.28-5.76,4.33-9.59,4.43
		C955.67,680.53,949.56,680.6,943.46,679.1z"/>
	<path class="st6" d="M438.12,678.69c-6.26,0.53-6.29,0.53-6.3-5.65c-0.03-16.78-0.06-33.56,0.03-50.34
		c0.01-1.54-1.18-4.22,1.45-4.45c1.82-0.16,4.36,0.21,4.99,3.01c0.66,2.93,2.14,2.72,4.23,1.12c7.35-5.64,15.93-6.07,24.6-5.1
		c8.04,0.9,14.12,8.26,14.44,18.08c0.45,13.61,0.11,27.24,0.27,40.87c0.03,2.75-1.32,2.85-3.37,2.79c-2.5-0.07-4.49-0.11-4.44-3.64
		c0.14-11.46,0.05-22.93-0.03-34.39c-0.02-3.14,0.34-6.38-0.83-9.37c-2.26-5.75-7.4-8.86-15.32-8.24
		c-7.14,0.57-14.48,1.61-18.12,9.35c-0.3,0.54-0.54,1.1-0.73,1.69c-0.38,12.81-0.04,25.61-0.18,38.42
		C438.78,674.79,439.21,676.83,438.12,678.69z"/>
	<path class="st4" d="M1098.73,619.01c2.4,0.7,2.77,2.58,2.77,4.71c0,17.29,0.01,34.58,0.04,51.87c0,2.01-0.07,3.62-2.88,3.31
		c-1.96-0.21-4.19,0.47-4.13-2.72c0.07-3.9-0.97-3.46-3.93-1.61c-8.99,5.6-18.74,6.89-28.8,2.95c-8.11-3.18-9.56-10.6-9.89-17.82
		c-0.59-12.78-0.28-25.6-0.34-38.4c-0.02-3.86,2.26-3.51,4.66-2.35c2.76,1.34,3.17,3.9,3.16,6.7c-0.04,10.14,0.33,20.3-0.06,30.42
		c-0.64,16.56,10.32,18.68,22.29,16.32c4.45-0.88,9.21-2.45,11.79-7.04c0.36-0.52,0.64-1.08,0.82-1.69
		c0.36-13.45,0.07-26.91,0.15-40.37C1094.41,620.34,1094.55,617.67,1098.73,619.01z"/>
	<path class="st7" d="M778.69,619c2.49,0.81,2.98,2.72,2.98,5.07c-0.04,17.21,0,34.42-0.05,51.63c0,1.44,0.66,3.68-2.28,3.06
		c-2.79-0.66-5.38-1.5-5.01-5.2c-4.3-0.12-7.1,3.25-10.78,4.65c-8.51,3.23-21.3,1.26-26.83-4.49c-3.85-4-4.68-9.1-4.83-14.1
		c-0.36-12.61-0.18-25.23-0.19-37.84c0-1.26-0.47-2.99,1.22-3.4c1.79-0.43,3.66,0.08,4.88,1.62c1.4,1.77,1.61,3.89,1.61,6.12
		c-0.02,10.12,0.43,20.26,0.01,30.37c-0.66,16.13,11.03,18.45,22.62,15.8c4.45-1.02,9.25-2.47,11.66-7.24
		c0.38-0.5,0.64-1.06,0.78-1.67c0.3-13.44,0.04-26.89,0.13-40.33C774.62,620.32,774.76,617.76,778.69,619z"/>
	<path class="st4" d="M891.32,617.18c5.68-0.77,10.52,1.21,15.09,4.03c1.82,1.12,3.53,2.42,3.29,4.97
		c-0.13,1.32-0.07,2.73-1.42,3.51c-1.61,0.94-2.25-0.47-3.25-1.31c-6.93-5.89-15.39-7.05-22.45-3.46c-3.3,1.68-4.9,3.99-5.13,7.73
		c-0.24,4.1,2.01,6.48,5.04,8.29c5.15,3.07,11.21,3.74,16.73,5.91c7.85,3.09,12.58,8.89,11.97,16.47
		c-0.57,7.18-4.63,13.68-13.51,16.13c-8.67,2.38-16.64,0.83-24.67-2.24c-1.02-0.39-1.61-1.03-2.33-1.66
		c-1.9-1.68-1.5-3.26-0.14-5.14c1.44-1.99,2.31-0.97,3.95-0.12c7.12,3.69,14.43,6.79,22.64,2.98c4.09-1.89,6.32-4.72,6.59-9.38
		c0.29-5.1-1.72-8.8-6.26-10.63c-5.76-2.32-11.81-3.93-17.65-6.09c-5.93-2.2-9.91-8.1-9.83-14.02c0.09-6.22,4.25-11.9,10.36-14.16
		c1.54-0.57,3.02-1.49,4.61-1.72C887.09,616.96,889.28,617.18,891.32,617.18z"/>
	<path class="st4" d="M989.35,649.19c-0.25-12.65,3.47-22.83,14.7-29.05c8.64-4.78,23.09-4.61,30.88,2.29
		c1.94,1.72,3.26,3.49,1.93,5.98c-0.95,1.78-1.68,3.83-4.33,0.79c-5.84-6.69-13.72-7.6-21.71-5.13c-8.74,2.7-12.52,9.75-13.3,18.4
		c-0.69,7.6-1.14,15.37,3.04,22.25c6.88,11.31,20.74,13.28,31.04,4.84c0.93-0.77,1.82-3.88,4.46-0.92c2.53,2.84,0.59,4.68-0.89,5.78
		c-6.7,5.02-14.18,7.31-22.74,5.94C996.33,677.79,988.54,664.69,989.35,649.19z"/>
	<path class="st8" d="M360.54,671.1c5.23-14.67,10.22-28.74,15.29-42.78c1.1-3.04,1.65-6.45,4.12-8.77c1.59-1.5,3.84-2.52,5.93-1.12
		c1.89,1.27,0.29,3.21-0.19,4.49c-4.09,10.89-8.45,21.69-12.65,32.54c-2.49,6.42-4.77,12.91-7.32,19.3
		c-0.86,2.15-1.41,4.53-4.96,4.47c-3.21-0.06-5.02-0.76-6.18-3.9c-6.72-18.17-13.61-36.28-20.41-54.42
		c-1.06-2.82,1.21-3.22,2.96-3.16c3.53,0.13,5.56,2.51,6.62,5.65c4.82,14.32,9.55,28.67,14.38,42.98
		C358.62,667.85,359.55,669.18,360.54,671.1z"/>
	<path class="st9" d="M1227.16,619.24c0.82,3.26-0.38,4.48-3.77,4.25c-3.81-0.25-7.67,0.17-11.47-0.14
		c-3.63-0.29-4.96,0.75-4.88,4.61c0.24,11.63,0.05,23.26,0.1,34.89c0.02,4.19,0.33,8.2,4.78,10.59c4.92,2.65,8.83,0.29,13.02-1.79
		c1.28-0.64,2.08-4.26,4.39-1.19c1.98,2.64,0.81,4.75-1.47,6.28c-6.83,4.58-14.23,5.63-21.55,1.75c-5.11-2.71-6.64-8.24-6.71-13.54
		c-0.28-20.93-0.18-41.87-0.17-62.81c0-1-0.67-2.48,1.01-2.89c1.31-0.32,2.62-0.31,3.71,0.77c1.82,1.79,3.15,3.73,3.06,6.49
		c-0.11,3.48,0.04,6.97,0.08,10.45c0.37,0.44,0.83,0.77,1.37,0.97c4.45,0.42,8.91,0.06,13.36,0.21
		C1223.78,618.23,1225.7,617.7,1227.16,619.24z"/>
	<path class="st10" d="M1365.14,619.42c-0.05,1.27-0.11,2.53-0.16,3.8c-5.93,0.91-11.91,0.53-17.83,0.3
		c-4.16-0.16-5.01,1.39-4.97,5.12c0.15,14.74,0.08,29.49,0.04,44.24c-0.01,1.95,0.47,4-0.8,5.79c-6.22,0.51-6.2,0.51-6.19-5.73
		c0.02-22.11-0.2-44.22,0.12-66.33c0.14-9.46,3.7-17.45,13.8-20.44c7.86-2.33,15.37-1.31,22.09,3.6c1.1,0.81,2.38,1.84,2.12,3.66
		c-0.21,1.45,0.09,3.1-1.67,3.82c-1.64,0.67-2.21-0.65-3.16-1.59c-4.51-4.48-10.17-5.28-16.07-4.17c-5.12,0.97-10.06,6.1-9.39,11.59
		c-0.31,0.48-0.54,0.99-0.7,1.53c-0.25,2.8,0.08,5.63-0.16,8.42c-0.34,3.82,0.99,5.44,5.02,5.18c4.44-0.29,8.92-0.1,13.39-0.04
		C1362.2,618.19,1363.99,617.73,1365.14,619.42z"/>
	<path class="st11" d="M1449.78,623.57c4.39-5.21,9.85-7.23,16.33-6.51c1.32,0.15,2.5,0.44,3.71,1.15c2.77,1.62,2.18,3.87,1.37,6.08
		c-1.06,2.89-3.02,1.04-4.48,0.48c-9.44-3.6-17.51,1.74-17.54,11.7c-0.03,12.63-0.04,25.26-0.03,37.89c0,2.53,0.44,4.73-3.64,4.69
		c-4.09-0.03-4.03-2.01-4.03-4.94c0.04-16.78-0.08-33.57,0.01-50.35c0.01-1.88-1.45-4.83,1.57-5.51c2.4-0.54,4.3,1.22,5.53,3.38
		C1448.89,622.19,1449.24,622.71,1449.78,623.57z"/>
	<path class="st8" d="M1643.3,678.63c-6.27,0.59-6.29,0.59-6.29-5.59c0-16.97-0.02-33.95,0.06-50.92c0.01-1.45-0.99-3.98,1.26-4.07
		c1.56-0.07,4.1,0.28,4.86,2.66c1.02,3.19,2.15,2.89,4.29,0.64c4.27-4.47,9.88-4.82,15.63-4.14c1.95,0.23,3.47,1.33,3.92,3.21
		c0.37,1.56,0.48,3.39-0.88,4.67c-1.6,1.51-3.2,0.1-4.6-0.44c-7.05-2.7-13.79,0.22-16.69,7.4c-0.32,0.49-0.55,1.01-0.7,1.58
		c-0.28,13.07-0.02,26.14-0.14,39.21C1644.01,674.78,1644.5,676.82,1643.3,678.63z"/>
	<path class="st12" d="M271.39,619.04c2.24,0.55,2.34,2.89,3.64,4.87c4.87-5.68,10.8-7.88,17.88-6.76c4.38,0.7,5.64,3.4,3.79,6.91
		c-1.35,2.57-2.8,1.56-4.39,0.88c-9.19-3.92-18.14,1.9-18.12,11.81c0.02,12.14,0.02,24.29,0,36.43c-0.01,6.07-0.03,6.07-6.41,5.4
		c-0.94-1.11-0.84-2.47-0.84-3.79c-0.03-17.22,0-34.44-0.02-51.66C266.91,620.03,267.37,617.64,271.39,619.04z"/>
	<path class="st4" d="M807.37,619.08c2.11,0.72,2.11,2.77,3.01,5.17c4.8-5.47,10.43-8.3,17.6-7.19c2.55,0.4,4.37,1.48,5.32,3.78
		c0.79,1.9-0.97,3.05-1.8,4.38c-1.14,1.83-2.47,0.03-3.4-0.35c-9.23-3.78-18.24,1.92-18.29,11.81c-0.06,12.31,0,24.61-0.02,36.92
		c-0.01,5.83-0.04,5.83-6.38,4.9c-0.82-0.97-0.8-2.15-0.8-3.31c-0.04-17.44,0-34.89-0.03-52.33
		C802.57,619.4,803.71,617.72,807.37,619.08z"/>
	<path class="st13" d="M1127.78,619.23c1.9,0.76,1.32,2.9,2.3,4.24c1.79,0.16,2.5-1.33,3.48-2.31c4.46-4.46,10.04-4.76,15.68-3.79
		c2.65,0.46,4.98,2.34,3.75,5.7c-1.14,3.11-3.16,2.74-5.82,1.46c-5.93-2.87-12.48-0.12-15.95,6.31c-0.32,0.53-0.56,1.09-0.71,1.69
		c-0.31,13.43-0.02,26.86-0.16,40.29c-0.02,1.93,0.55,4.01-0.92,5.73c-2.07,0.42-4.14,0.75-6.2-0.05c-0.95-1.11-0.83-2.47-0.83-3.78
		c-0.02-17.19-0.06-34.37,0.02-51.56C1122.43,618.57,1122.87,618.35,1127.78,619.23z"/>
	<path class="st14" d="M309.93,645.61c0-7.82-0.02-15.64,0.02-23.46c0.01-1.43-0.72-3.55,0.83-4.05c1.82-0.59,3.85,0.45,5.3,1.83
		c1.69,1.62,1.71,3.8,1.7,6.01c-0.03,13.97,0.03,27.95,0,41.92c-0.01,3.51,0.33,6.67,4.5,7.69c1.09,0.27,1.68,1.07,1.62,2.21
		c-0.1,1.91-1.63,1.25-2.64,1.34c-7.69,0.67-11-2.19-11.17-10.03c-0.17-7.81-0.04-15.64-0.04-23.46
		C310.02,645.61,309.97,645.61,309.93,645.61z"/>
	<path class="st15" d="M1172.76,619.03c3.54,0.83,2.73,3.78,2.74,6.08c0.1,13.28,0.06,26.56,0.07,39.84c0,4.51-0.31,9.14,5.41,10.83
		c0.84,0.25,1.22,1.12,1.04,2.03c-0.14,0.7-0.68,0.99-1.36,1.23c-5.25,1.86-9.73-0.54-11.46-6.21c-1-1.29-0.83-2.83-0.83-4.3
		c-0.02-15.1-0.01-30.19-0.02-45.29C1168.35,620.22,1168.65,617.66,1172.76,619.03z"/>
	<path class="st8" d="M406.82,619.01c2.97,1.02,3.1,3.4,3.09,6.03c-0.06,13.61,0.01,27.22-0.04,40.83
		c-0.02,4.27,0.02,8.37,5.18,9.92c0.82,0.25,1.33,0.99,1.25,1.93c-0.06,0.72-0.52,1.06-1.22,1.33c-4.71,1.8-9.86-0.67-11.35-5.49
		c-0.79-1.34-0.88-2.81-0.88-4.32c-0.01-15.39-0.03-30.78,0.02-46.17C402.87,620.57,402.66,617.6,406.82,619.01z"/>
	<path class="st16" d="M419.77,415.2c17.62,0.08,35.23,0.13,52.85,0.27c2.36,0.02,3.34-0.86,3.18-3.2c-0.1-1.49-0.01-2.99-0.01-4.48
		c0.01-72.43,0.02-144.86,0.03-217.29c0-1.49,0.05-2.99,0.08-4.48c0.33-0.12,0.65-0.08,0.95,0.1c0.76,1.41,0.43,2.94,0.43,4.41
		c0.02,73.71,0.02,147.41,0.01,221.12c0,1.32,0.18,2.67-0.3,3.96c-0.33,0.35-0.66,0.71-0.99,1.06c-18.7,0.41-37.39,0.67-56.09-0.14
		C419.86,416.08,419.81,415.64,419.77,415.2z"/>
	<path class="st17" d="M476.98,415.59c-0.06-0.83-0.18-1.65-0.18-2.48c0.01-75.67,0.03-151.34,0.04-227.01
		c1.53,1.71,0.89,3.81,0.89,5.73c0.05,73,0.05,145.99,0.03,218.99C477.76,412.43,478.23,414.17,476.98,415.59z"/>
	<path class="st18" d="M195.84,324.38c0.01,28.24,0.02,56.47,0.04,84.71c0,6.33,0.01,6.33,6.51,6.33c14.3,0.01,28.6-0.12,42.9,0.1
		c3.81,0.06,4.72-1.15,4.7-4.81c-0.13-23.75-0.04-47.51,0.01-71.26c0-1.48,0.21-2.96,0.32-4.44c0.14,0.03,0.3,0.02,0.41,0.09
		c0.13,0.09,0.21,0.25,0.32,0.37c0.61,1.26,0.37,2.61,0.37,3.93c0.01,24.24,0.01,48.49,0.01,72.73c0,1.16,0.13,2.33-0.29,3.45
		c-0.37,0.36-0.74,0.72-1.12,1.08c-18.12,0.48-36.24,0.48-54.36,0c-0.35-0.37-0.7-0.74-1.06-1.1c-0.31-28.05-0.05-56.11-0.13-84.16
		c0-0.68,0.14-1.31,0.53-1.88C195.15,327.79,194.93,325.99,195.84,324.38z"/>
	<path class="st19" d="M1299.37,415.42c17.28,0.04,34.56-0.05,51.83,0.2c4.04,0.06,4.06-1.92,4.05-4.88
		c-0.05-24.9-0.03-49.8,0.06-74.7c0.01-1.77-0.94-3.9,1.07-5.33c0.64,1.61,0.34,3.29,0.34,4.93c0.02,25.27,0.02,50.54-0.01,75.8
		c0,1.62,0.48,3.33-0.52,4.86c-0.3,0.11-0.6,0.24-0.89,0.38c-18.63,0.36-37.26,0.6-55.89-0.13
		C1299.39,416.18,1299.38,415.8,1299.37,415.42z"/>
	<path class="st20" d="M405.99,607.39c-3.99,0.16-5.36-2.62-5.49-5.72c-0.15-3.32,1.97-5.94,5.37-5.91
		c3.18,0.03,5.78,2.17,5.78,5.62C411.66,604.8,410.04,607.45,405.99,607.39z"/>
	<path class="st21" d="M1172.25,607.45c-3.9,0.16-5.54-2.11-5.77-5.47c-0.24-3.67,1.76-6.35,5.35-6.23c3.03,0.11,5.44,2.3,5.52,5.85
		C1177.45,605.1,1175.61,607,1172.25,607.45z"/>
	<path class="st22" d="M318.9,601.91c-0.38,2.93-1.42,5.5-5.34,5.48c-3.62-0.02-5.43-2-5.61-5.4c-0.2-3.83,2.34-6,5.64-6.16
		C316.94,595.67,318.75,598.18,318.9,601.91z"/>
	<path class="st23" d="M1717.15,677.28c4.5,0.52,5.97-1.33,5.94-5.95c-0.17-27.53-0.03-55.07,0-82.61c0.27,0.22,0.53,0.44,0.8,0.66
		c0.91,0.98,0.6,2.19,0.6,3.32c0.02,27.5,0.02,54.99-0.02,82.49c0,1.23,0.61,2.69-0.81,3.64
		C1721.45,678.51,1718.62,680.74,1717.15,677.28z"/>
	<path class="st24" d="M1723.66,678.84c0.13-14.41,0.33-28.81,0.37-43.22c0.04-15.41-0.09-30.82-0.14-46.23
		c1.7,1.2,1.07,3.02,1.07,4.57c0.05,26.88,0.06,53.75,0.01,80.63C1724.97,676.04,1725.9,677.99,1723.66,678.84z"/>
	<path class="st25" d="M1356.19,416.31c0.06-28.54,0.13-57.08,0.19-85.61c0.26-0.47,0.52-0.94,0.78-1.42
		c0.02,28.22,0.05,56.44,0.04,84.66C1357.2,414.78,1357.71,416.03,1356.19,416.31z"/>
	<path class="st26" d="M195,329.53c0,27.7,0,55.4-0.02,83.1c0,0.98-0.25,1.96-0.38,2.94c-0.21-0.95-0.6-1.89-0.6-2.84
		c-0.02-25.28-0.03-50.57,0.06-75.85C194.07,334.42,193.83,331.86,195,329.53z"/>
	<path class="st27" d="M251.14,415.59c-0.03-26.7-0.06-53.4-0.08-80.11c0.21-0.08,0.44-0.12,0.67-0.1
		c0.05,26.14,0.1,52.28,0.12,78.42C251.84,414.4,251.38,415,251.14,415.59z"/>
	<path class="st28" d="M1341.42,678.67c-0.04-17.26-0.02-34.52-0.17-51.78c-0.03-3.28,1.55-3.87,4.28-3.82
		c6.48,0.12,12.96,0.11,19.45,0.16c-7.09,1.74-14.32,0.07-21.44,0.87c-1.51,1.34-0.75,3.11-0.76,4.65
		c-0.06,15.08-0.02,30.16-0.07,45.24c-0.01,1.59,0.58,3.32-0.61,4.79l-0.36,0.07L1341.42,678.67z"/>
	<path class="st29" d="M547.46,618.12c2.73-1.83,4-0.65,4.21,2.19c0.16,2.14,0.09,4.3,0.08,6.46c-0.04,18.23-0.06,36.45-0.17,54.68
		c-0.01,1.74,0.52,3.68-0.93,5.21c-0.83-2.93-0.38-5.93-0.39-8.89c-0.05-18.26-0.04-36.52,0-54.78
		C550.27,620.73,550.46,618.56,547.46,618.12z"/>
	<path class="st30" d="M547.46,618.12c3.13-0.49,3.33,1.25,3.31,3.79c-0.11,21.58-0.1,43.16-0.12,64.74
		c-0.26,0.23-0.53,0.46-0.79,0.69c-0.04-21.28-0.1-42.57-0.11-63.85c0-2.39,0.28-4.82-3.33-4.44
		C546.77,618.74,547.12,618.43,547.46,618.12z"/>
	<path class="st31" d="M1127.78,619.23c-3.55-0.91-4.44,0.59-4.42,4.04c0.08,18.42-0.06,36.83-0.12,55.25
		c-0.17,0.19-0.38,0.29-0.64,0.32c-0.94-0.73-0.7-1.79-0.7-2.75c-0.01-18.35-0.01-36.71-0.01-55.06c0-0.67,0.09-1.32,0.34-1.94
		C1124.14,616.47,1125.96,617.88,1127.78,619.23z"/>
	<path class="st32" d="M807.37,619.08c-3.09-0.57-3.8,0.67-3.79,3.75c0.08,18.55-0.09,37.11-0.18,55.66
		c-0.17,0.19-0.39,0.29-0.66,0.28c-0.88-0.77-0.65-1.81-0.66-2.78c-0.01-18.5-0.01-37-0.01-55.5c0-0.83-0.01-1.65,0.5-2.37
		C804.38,617.47,806,617.62,807.37,619.08z"/>
	<path class="st33" d="M271.39,619.04c-3.42-0.58-3.56,1.45-3.55,4.07c0.04,18.49-0.02,36.98-0.06,55.47
		c-0.21,0.18-0.44,0.25-0.71,0.21c-0.85-0.79-0.63-1.83-0.63-2.8c-0.01-18.38-0.01-36.77,0-55.15c0-0.97-0.19-2.01,0.6-2.83
		C268.67,617.54,270.18,617.66,271.39,619.04z"/>
	<path class="st34" d="M802.58,618.13c0.06,20.22,0.11,40.44,0.17,60.66c-1.42-0.86-1.13-2.29-1.13-3.57
		c-0.02-18.21-0.02-36.42,0.01-54.63C801.63,619.71,801.18,618.52,802.58,618.13z"/>
	<path class="st35" d="M267.03,618.01c0.01,20.26,0.03,40.52,0.04,60.78c-1.44-0.86-1.12-2.3-1.12-3.58
		c-0.02-18.12-0.02-36.24,0.04-54.36C265.99,619.88,265.24,618.42,267.03,618.01z"/>
	<path class="st36" d="M1122.22,619.09c0.05,17.6,0.1,35.19,0.17,52.79c0.01,2.32,0.14,4.64,0.21,6.96
		c-1.37-0.88-1.16-2.29-1.17-3.59c-0.02-17.61-0.04-35.22,0.01-52.84C1121.44,621.3,1121.95,620.2,1122.22,619.09z"/>
	<path class="st37" d="M402.89,672.73c-1.04-1.06-1.01-2.41-1.01-3.74c-0.03-15.81-0.06-31.62-0.05-47.42
		c0-2.62,0.06-5.42,4.07-3.47c-3.08,0.56-2.55,2.96-2.55,5.06c-0.01,14.9,0.01,29.8-0.02,44.7
		C403.31,669.48,403.71,671.17,402.89,672.73z"/>
	<path class="st38" d="M402.89,672.73c-0.01-16.89-0.01-33.79-0.06-50.68c-0.01-2.19-0.44-4.54,3.06-3.95
		c0.31,0.3,0.62,0.61,0.93,0.91c-3.34-0.22-3.05,2.04-3.04,4.27c0.01,16.76-0.03,33.52-0.05,50.28
		C403.45,673.29,403.17,673.01,402.89,672.73z"/>
	<path class="st39" d="M1172.76,619.03c-3.01-0.45-3.41,1.16-3.41,3.74c0.03,16.69-0.08,33.37-0.15,50.06
		c-0.23-0.09-0.47-0.17-0.7-0.25c-0.85-0.79-0.63-1.84-0.63-2.81c-0.01-16.28-0.01-32.57,0-48.85c0-0.98-0.18-2.01,0.56-2.85
		C1170.03,617.65,1171.54,617.7,1172.76,619.03z"/>
	<path class="st40" d="M1299.41,416.56c18.63,0.04,37.26,0.09,55.89,0.13c-1.11,0.27-2.22,0.77-3.33,0.77
		c-16.27,0.03-32.54,0.01-48.81-0.03C1301.86,417.43,1300.47,417.66,1299.41,416.56z"/>
	<path class="st40" d="M419.9,416.52c18.7,0.05,37.39,0.09,56.09,0.14c-1.1,1.02-2.46,0.78-3.76,0.78
		c-16.04,0.02-32.07,0.04-48.11,0.04C422.65,417.48,421.12,417.68,419.9,416.52z"/>
	<path class="st41" d="M1168.43,618.07c0.02,18.17,0.05,36.35,0.07,54.52c-1.26-0.94-1.11-2.32-1.11-3.62
		c-0.02-16.18-0.04-32.36-0.02-48.54C1167.37,619.56,1166.97,618.35,1168.43,618.07z"/>
	<path class="st42" d="M1342.1,678.77c0.05-16.61,0.07-33.22,0.21-49.84c0.01-1.62-1.07-3.72,1.23-4.85
		c-0.1,16.22-0.16,32.44-0.35,48.67C1343.17,674.77,1344.03,677.06,1342.1,678.77z"/>
	<path class="st43" d="M195.66,416.67c18.12,0,36.24,0,54.36,0c-1.1,0.27-2.2,0.78-3.31,0.78c-16.26,0.04-32.52,0.02-48.78-0.03
		C197.17,417.42,196.42,416.93,195.66,416.67z"/>
	<path class="st44" d="M778.69,619c-2.78-0.25-3.09,1.34-3.08,3.65c0.07,12.05,0.06,24.1-0.05,36.14c-0.02,1.99,0.88,4.26-1.05,5.95
		c-0.62-15.54-0.8-31.08,0.1-46.62C776.11,617.76,777.53,617.77,778.69,619z"/>
	<path class="st45" d="M1098.73,619.01c-3.13-0.31-3.29,1.61-3.29,4.02c0.05,12.11,0.03,24.21-0.1,36.32
		c-0.02,1.84,0.87,3.97-0.99,5.52c-1.02-10.36-0.33-20.74-0.39-31.12c-0.03-5.23-0.75-10.51,0.52-15.71
		C1095.95,618.16,1097.53,617.73,1098.73,619.01z"/>
	<path class="st46" d="M774.61,618.13c-0.03,15.54-0.07,31.08-0.1,46.62c-0.27,0.11-0.55,0.21-0.82,0.3
		c-0.03-14.3-0.09-28.61-0.04-42.91C773.65,620.81,773.04,619.16,774.61,618.13z"/>
	<path class="st47" d="M359.62,233.73c0.03-15.9,0.07-31.79,0.1-47.69c0.35-0.02,0.71-0.03,1.06-0.05c1.11,1.66,0.55,3.53,0.55,5.29
		c0.06,12.52,0.05,25.05,0.01,37.57c-0.01,1.61,0.43,3.3-0.48,4.84C360.45,233.7,360.03,233.71,359.62,233.73z"/>
	<path class="st48" d="M360.86,233.69c-0.03-15.9-0.05-31.8-0.08-47.7c1.35,1.14,1.07,2.71,1.07,4.17
		c0.03,13.28,0.02,26.56,0.02,39.84C361.87,231.31,362.02,232.68,360.86,233.69z"/>
	<path class="st49" d="M1094.48,618.05c-0.04,15.61-0.08,31.21-0.12,46.82c-0.31,0.16-0.62,0.31-0.94,0.47
		c-0.01-14.13-0.07-28.26,0.02-42.38C1093.45,621.34,1092.46,619.32,1094.48,618.05z"/>
	<path class="st50" d="M1643.3,678.63c-0.05-15.05-0.11-30.1-0.16-45.16c0-0.16,0-0.43,0.09-0.47c0.23-0.11,0.51-0.12,0.77-0.17
		c1.18,3.38,0.47,6.87,0.51,10.3c0.11,10.26,0.07,20.53,0.01,30.8c-0.01,1.59,0.58,3.32-0.61,4.78l-0.32,0.07L1643.3,678.63z"/>
	<path class="st51" d="M1130.51,631.18c0.2-0.19,0.44-0.3,0.71-0.32c0.04,14.9,0.07,29.8,0.1,44.69c0,1.16-0.04,2.34-1.04,3.18
		c-0.92-13.41-0.21-26.84-0.36-40.26C1129.9,636.05,1129.19,633.51,1130.51,631.18z"/>
	<path class="st52" d="M1130.51,631.18c-0.08,15.85-0.15,31.7-0.22,47.55c-0.31,0.05-0.59,0-0.86-0.17
		c-0.01-14.29-0.05-28.59,0.01-42.88C1129.45,634.17,1128.64,632.31,1130.51,631.18z"/>
	<path class="st53" d="M1643.91,678.72c0.03-15.3,0.06-30.59,0.09-45.88c0.29-0.26,0.58-0.53,0.87-0.79
		c0.04,14.71,0.09,29.43,0.11,44.14C1644.98,677.14,1645.06,678.2,1643.91,678.72z"/>
	<path class="st54" d="M438.74,633.33c0.32-0.2,0.65-0.4,0.97-0.61c0.04,14.26,0.09,28.52,0.08,42.79c0,1.16,0.62,2.76-1.25,3.3
		C438.3,663.65,437.91,648.49,438.74,633.33z"/>
	<path class="st55" d="M438.74,633.33c-0.07,15.16-0.13,30.32-0.2,45.48c0,0-0.25,0.05-0.25,0.05s-0.17-0.18-0.17-0.18
		C437.94,663.56,436.87,648.42,438.74,633.33z"/>
	<path class="st56" d="M243.31,587.11c-2.91-0.18-3.45,1.41-3.42,3.99c0.12,9.1,0.09,18.2,0,27.3c-0.01,1.53,0.78,3.33-0.88,4.6
		c-1.35-4.19-0.48-8.49-0.5-12.72c-0.04-7.76-0.43-15.53,0.23-23.28C240.29,585.65,241.81,586.04,243.31,587.11z"/>
	<path class="st57" d="M238.73,586.99c0.09,12,0.18,24,0.28,36c-1.11,0.18-2.06,0.06-2.38-1.25c1.48-1.44,1.26-3.31,1.27-5.12
		c0.01-8.12,0-16.24,0.03-24.36C237.94,590.48,237.5,588.61,238.73,586.99z"/>
	<path class="st58" d="M1616.27,670.73c-2.28-2.15-1.1-4.89-1.12-7.34c-0.09-10.44,0.03-20.89,0.07-31.33
		c0.27,0.39,0.54,0.78,0.81,1.17c1.17,6.71,0.39,13.47,0.48,20.2C1616.59,659.19,1616.93,664.97,1616.27,670.73z"/>
	<path class="st59" d="M1365.14,619.42c-6.46-0.09-12.92-0.29-19.38-0.23c-3.15,0.03-4.75-1.17-4.52-4.34
		c0.28-3.85-1.04-7.87,1.12-11.54c0.8,3.57,0.4,7.19,0.31,10.77c-0.07,2.84,0.93,3.62,3.69,3.63c6.22,0.02,12.46-0.52,18.68,0.29
		C1365.07,618.48,1365.11,618.95,1365.14,619.42z"/>
	<path class="st60" d="M1616.27,670.73c-0.08-12.5-0.16-25.01-0.24-37.51c1.33,1.35,1.01,3.09,1.02,4.71
		c0.03,11.1,0.02,22.21,0.02,33.31C1616.81,671.07,1616.54,670.9,1616.27,670.73z"/>
	<path class="st61" d="M1365.04,618.01c-6.47,0.04-12.94,0.02-19.41,0.16c-2.53,0.06-3.62-0.76-3.47-3.42
		c0.22-3.8,0.15-7.62,0.21-11.43c0.23-0.1,0.46-0.18,0.7-0.23c0.06,0.33,0.15,0.65,0.17,0.98c0.31,4.22-1.96,9.72,1.07,12.34
		c2.89,2.49,8.27,0.45,12.54,0.79C1359.58,617.4,1362.46,616.33,1365.04,618.01z"/>
	<path class="st62" d="M1723.16,321.38c-0.01-12.05-0.02-24.1-0.04-36.15c0.26,0.94,0.52,1.88,0.79,2.82
		c1.32,6.01,0.45,12.09,0.53,18.13c0.06,5.07,0.58,10.18-0.38,15.23l-0.45,0.06L1723.16,321.38z"/>
	<path class="st63" d="M1724.06,321.42c-0.05-11.12-0.1-22.25-0.15-33.36C1725.55,299.17,1725.89,310.29,1724.06,321.42z"/>
	<path class="st64" d="M613.78,421.59c9.36,0,18.73,0.01,28.09,0.01c-0.68,0.28-1.37,0.56-2.06,0.84c-8,0.84-15.99,0.86-23.99-0.01
		C615.15,422.14,614.46,421.86,613.78,421.59z"/>
	<path class="st65" d="M615.83,422.42c8,0,15.99,0.01,23.99,0.01C631.82,424.16,623.82,424.05,615.83,422.42z"/>
	<path class="st66" d="M195.05,658.46c-1.75-6.25-1.92-12.5,0-18.75C195.73,645.96,195.73,652.21,195.05,658.46z"/>
	<path class="st67" d="M195.05,658.46c0-6.25,0-12.5,0-18.75c0.25-0.24,0.51-0.49,0.77-0.74c0.01,6.88,0.02,13.75,0.03,20.63
		C195.58,659.22,195.31,658.84,195.05,658.46z"/>
	<path class="st68" d="M1227.16,619.24c-6.53-0.72-13.19,1.04-19.66-1.03c6.5-1.02,13.02-0.69,19.54-0.17
		C1227.08,618.44,1227.12,618.84,1227.16,619.24z"/>
	<path class="st69" d="M1227.04,618.04c-6.51,0.06-13.02,0.11-19.54,0.17c-0.07-0.41-0.14-0.81-0.22-1.22
		C1213.85,617.82,1220.54,616.03,1227.04,618.04z"/>
	<path class="st70" d="M891.74,370.39c-0.15-0.23-0.29-0.47-0.42-0.71c6.4,0.02,12.8,0.03,19.19,0.05c-0.17,0.26-0.36,0.49-0.6,0.7
		C903.86,371.39,897.8,371.45,891.74,370.39z"/>
	<path class="st71" d="M1425.36,657.83c0-6.19,0-12.38-0.01-18.56c0.29,0.12,0.52,0.3,0.7,0.55c1.07,5.63,0.97,11.27,0.07,16.91
		C1425.87,657.09,1425.61,657.46,1425.36,657.83z"/>
	<path class="st72" d="M925.35,639.25c0,6.16-0.01,12.32-0.01,18.47c-0.25-0.27-0.51-0.53-0.76-0.79c-0.92-5.78-1-11.56,0.04-17.34
		C924.84,639.44,925.09,639.32,925.35,639.25z"/>
	<path class="st73" d="M774.33,673.56c1.67,1.73,3.34,3.47,5.01,5.2C774.73,679.85,773.03,678.15,774.33,673.56z"/>
	<path class="st74" d="M924.62,639.59c-0.01,5.78-0.03,11.56-0.04,17.34C922.77,651.15,922.75,645.37,924.62,639.59z"/>
	<path class="st75" d="M1426.13,656.73c-0.02-5.64-0.05-11.28-0.07-16.92C1427.92,645.45,1427.94,651.08,1426.13,656.73z"/>
	<path class="st76" d="M943.46,679.1c6.1,0.01,12.21,0.02,18.31,0.03c-0.73,0.32-1.45,0.65-2.18,0.97
		c-4.59,0.74-9.17,0.8-13.75-0.04C945.05,679.73,944.25,679.41,943.46,679.1z"/>
	<path class="st77" d="M1623.29,375.63c-0.21,0.28-0.42,0.57-0.63,0.85c-5.15,0.9-10.3,0.84-15.45,0.03
		c-0.16-0.26-0.29-0.54-0.4-0.83C1612.3,375.67,1617.79,375.65,1623.29,375.63z"/>
	<path class="st78" d="M1243.44,340.87c-0.08-3.88-0.77-7.84,1.72-11.33C1245.62,333.48,1245.13,337.27,1243.44,340.87z"/>
	<path class="st79" d="M945.84,680.05c4.58,0.01,9.17,0.03,13.75,0.04C955,681.74,950.42,681.68,945.84,680.05z"/>
	<path class="st80" d="M1607.21,376.51c5.15-0.01,10.3-0.02,15.45-0.03C1617.51,378.15,1612.36,378.15,1607.21,376.51z"/>
	<path class="st81" d="M891.74,370.39c6.06,0.01,12.13,0.02,18.19,0.03C903.86,372.3,897.8,372.36,891.74,370.39z"/>
	<path class="st82" d="M543.72,647.95c0,4.33-0.32,8.68,0.08,12.97c0.47,5.16-2.25,8.09-6.27,10.09
		c-14.68,7.31-29.16-1.28-29.68-17.69c-0.2-6.24-0.89-12.49,1.73-18.66c2.61-6.13,6.78-10.19,13.11-11.29
		c7.44-1.29,14.45,0.01,19.99,5.96c1.26,1.35,1.01,2.72,1.03,4.14C543.76,638.3,543.72,643.12,543.72,647.95z"/>
	<path class="st82" d="M1717,648.48c0.01,3.33,0.03,6.66,0,9.98c-0.08,10.65-5.66,16.06-16.48,16.01c-9.82-0.05-17.42-6.4-19-17.29
		c-1.06-7.3-1.53-14.81,1.25-22.15c2.37-6.25,6.66-10.33,12.83-11.58c7.55-1.53,14.77-0.18,20.44,5.9c1.12,1.2,0.92,2.39,0.93,3.66
		C1717.02,638.16,1716.99,643.32,1717,648.48z"/>
	<path class="st83" d="M238.11,666.76c-5.14,6.37-11.83,8.92-19.77,7.31c-8.25-1.67-12.56-7.14-14.64-15.28
		c-2.05-8.03-1.81-15.8,0.53-23.52c3.55-11.75,19.43-16.3,29.85-8.73c1.31,0.95,2.61,1.92,3.91,2.89c0.43,0.46,0.71,0.99,0.84,1.61
		c0.22,11.36,0.18,22.71,0.02,34.07C238.74,665.72,238.5,666.27,238.11,666.76z"/>
	<path class="st84" d="M237.85,629.84c0,0,0.12-0.43,0.12-0.42c1.91,0.48,1.97,2.03,1.97,3.54c0.01,10.27,0.01,20.54-0.03,30.81
		c-0.01,1.27,0.1,2.79-1.81,2.99c0,0-0.2-0.37-0.2-0.37c1.19-10.89,0.23-21.82,0.51-32.72C238.45,632.39,238.83,631,237.85,629.84z"
		/>
	<path class="st82" d="M689.29,623.16c9.25-1.01,17.04,6.43,18.76,15.93c1.47,8.12,1.45,15.99-1.27,23.51
		c-3.08,8.51-11.44,13.29-19.9,11.95c-10.46-1.66-14.72-6.27-16.75-16.76c-1.39-7.14-1.64-14.77,1.25-22.08
		C674.71,627.29,680.21,623.16,689.29,623.16z"/>
	<path class="st82" d="M1576.97,657.1c2.04-6.09,7.37-8.35,12.72-9.55c4.92-1.11,10.07-1.83,15.25-1.67
		c2.88,0.09,4.35,0.96,4.02,4.07c-0.19,1.8-0.04,3.63-0.03,5.45c0.01,11.11-4.63,16.32-15.93,17.92c-2.53,1.1-5.06,1.06-7.6,0.06
		c-4.1-0.34-6.7-2.67-8.38-6.25C1575.31,663.8,1574.7,660.46,1576.97,657.1z"/>
	<path class="st85" d="M1585.39,673.39c2.54-0.02,5.07-0.04,7.6-0.06C1590.48,676.17,1587.95,675.93,1585.39,673.39z"/>
	<path class="st86" d="M1576.97,657.1c-0.79,3.35-0.33,6.69,0.04,10.03C1574.1,663.8,1574.09,660.46,1576.97,657.1z"/>
	<path class="st83" d="M1399.12,623.14c8.67-0.96,16.37,6.01,18.41,15.01c1.96,8.66,1.74,16.91-1.16,24.9
		c-2.67,7.35-8.76,11.31-16.72,11.64c-8.03,0.32-14.54-3.21-17.65-10.4c-4.42-10.22-4.53-21,0.36-31.24
		C1385.83,625.79,1390.94,623.15,1399.12,623.14z"/>
	<path class="st82" d="M933.02,637.64c2.71-11.05,10.04-15.87,21.95-14.46c7.97,0.94,12.94,8.77,12.55,19.77
		c-0.48,0.47-1.03,0.94-1.69,0.97c-10.07,0.38-20.14,0.18-30.2,0.12c-3.13-0.02-3.14-2.29-3.06-4.54
		C932.59,638.85,932.74,638.23,933.02,637.64z"/>
	<path class="st87" d="M933.02,637.64c0.14-0.11,0.3-0.14,0.48-0.09c-0.97,6.04-0.97,6.05,4.63,6.06c8.15,0.01,16.3-0.03,24.45,0.03
		c1.62,0.01,3.33-0.51,4.85,0.53c-1.62,1.74-3.72,0.82-5.57,0.85c-8.74,0.15-17.47,0.13-26.21,0.07c-1.34-0.01-3.52,0.74-3.77-1.19
		C931.6,641.86,929.93,639.2,933.02,637.64z"/>
	<path class="st88" d="M967.42,644.17c-9.93-0.02-19.85-0.04-29.78-0.05c-6-0.01-6.24-0.37-4.15-6.56
		c-0.59,4.14,0.82,5.85,5.36,5.67c9.54-0.39,19.1-0.21,28.66-0.27C967.48,643.36,967.45,643.76,967.42,644.17z"/>
	<path class="st89" d="M237.85,629.84c0.34,0.53,0.97,1.06,0.97,1.59c0.05,11.09,0.05,22.18-0.01,33.27c0,0.56-0.59,1.12-0.9,1.68
		C237.89,654.21,237.87,642.03,237.85,629.84z"/>
</g>
</svg>
