<?xml version="1.0" encoding="utf-8"?>
<!-- Generator: Adobe Illustrator 26.1.0, SVG Export Plug-In . SVG Version: 6.00 Build 0)  -->
<svg version="1.1" id="Laag_1" xmlns="http://www.w3.org/2000/svg" xmlns:xlink="http://www.w3.org/1999/xlink" x="0px" y="0px"
	 viewBox="0 0 276.96 148.8" style="enable-background:new 0 0 276.96 148.8;" xml:space="preserve">
<style type="text/css">
	.st0{fill:#FFFFFF;}
	.st1{fill:#5A595B;}
	.st2{fill:#5A5A5C;}
	.st3{fill:#5B5B5C;}
	.st4{fill:#5B5A5C;}
	.st5{fill:#020203;}
	.st6{fill:#EC6626;}
	.st7{fill:#040404;}
	.st8{fill:#060505;}
	.st9{fill:#060504;}
	.st10{fill:#020303;}
	.st11{fill:#100B08;}
	.st12{fill:#EA6627;}
	.st13{fill:#E96727;}
	.st14{fill:#E86728;}
	.st15{fill:#EA6727;}
	.st16{fill:#E56729;}
</style>
<g>
	<path class="st0" d="M276.96,115.31c0,11.16,0,22.33,0,33.49c-92.32,0-184.64,0-276.96,0C0,99.2,0,49.6,0,0
		c12.14,0,24.28,0,36.42,0c-1.21,5-0.54,10.08-0.72,15.13c-0.04,1.18,0.15,2.39-0.5,3.49c-0.83,0.81-1.9,0.71-2.92,0.73
		c-2.15,0.04-4.29-0.01-6.44,0.03c-1.32,0.03-2.55,0.24-3.21,1.59c-0.83,2.33-0.22,4.74-0.4,7.11c-0.09,1.17,0.2,2.4-0.56,3.48
		c-1,0.85-2.24,0.72-3.42,0.73c-3.83,0.03-7.66,0.01-11.49,0.01c-0.72,0-1.44-0.03-2.15,0.02c-1.34,0.1-3.04-0.02-3.08,1.84
		c-0.04,1.88,1.65,1.89,3,1.91c4.55,0.08,9.09,0.01,13.64,0.04c1.18,0.01,2.41-0.13,3.43,0.66c0.87,2.14,0.89,12.55,0.02,14.86
		c-0.97,0.85-2.2,0.74-3.38,0.75c-4.39,0.03-8.78-0.01-13.16,0.02c-1.18,0.01-2.42-0.09-3.35,0.9c-0.61,1.23,0.01,1.95,1.03,2.51
		c0.88,0.5,1.84,0.44,2.8,0.44c4.38,0,8.77-0.01,13.15,0.01c1.02,0.01,2.09-0.14,2.99,0.58c0.57,0.75,0.56,1.64,0.52,2.49
		c-0.22,3.98,0.58,8.01-0.46,11.96c-0.85,0.78-1.92,0.64-2.93,0.65c-4.43,0.03-8.86,0.01-13.29,0.01c-0.95,0-1.91-0.06-2.77,0.44
		c-1.14,0.61-1.68,1.43-0.96,2.71c0.93,0.83,2.08,0.69,3.18,0.7c4.37,0.03,8.75,0,13.12,0.02c1.18,0.01,2.39-0.07,3.29,0.53
		c0.57,0.55,0.75,1.08,0.77,1.64c0.12,4.05,0.11,8.1,0.01,12.14c-0.01,0.48-0.16,0.94-0.47,1.33c-0.97,0.74-2.12,0.62-3.22,0.63
		c-4.23,0.02-8.46,0.01-12.69,0.01c-0.8,0-1.6-0.03-2.39,0.11c-1.02,0.17-1.9,0.58-1.92,1.76c-0.02,1.17,0.82,1.63,1.85,1.81
		c0.79,0.14,1.59,0.12,2.39,0.12c4.15,0.01,8.3-0.01,12.45,0.01c1.18,0.01,2.4-0.09,3.81,0.91c0.41,4.71,0.42,9.64-0.01,14.32
		c-1.3,1.15-2.54,1.03-3.72,1.04c-4.39,0.03-8.78-0.01-13.17,0.02c-1.18,0.01-2.42-0.09-3.36,0.9c-0.61,1.23,0.01,1.95,1.03,2.51
		c0.88,0.5,1.85,0.44,2.8,0.44c4.31,0,8.61-0.01,12.92,0.01c1.02,0,2.08-0.14,3.03,0.43c0.84,0.8,0.67,1.86,0.72,2.86
		c0.11,2.57-0.19,5.15,0.19,7.71c0.26,0.94,0.87,1.51,1.81,1.76c3.54,0.52,7.16-0.31,10.5,0.47c1.12,1.14,0.97,2.38,0.98,3.55
		c0.04,3.66-0.03,7.32,0.04,10.99c0.02,1.35,0.08,2.75,1.64,3.44c1.91-0.04,2.07-1.45,2.1-2.83c0.1-3.82,0.01-7.64,0.05-11.46
		c0.01-1.18-0.09-2.41,1.07-3.79c4.57-0.24,9.45-0.53,14.35,0.16c0.99,0.83,0.82,1.99,0.84,3.07c0.04,3.87-0.01,7.73,0.03,11.6
		c0.01,1.27,0.01,2.58,1.45,3.18c0.94,0.11,1.49-0.44,1.98-1.09c0.59-0.85,0.45-1.82,0.46-2.77c0.01-3.64-0.01-7.28,0.01-10.92
		c0-0.94-0.1-1.91,0.45-2.77c0.28-0.29,0.63-0.52,1.03-0.54c4.37-0.2,8.74-0.26,13.11,0.04c0.32,0.02,0.6,0.21,0.92,0.47
		c0.82,0.93,0.69,2.15,0.7,3.33c0.04,3.82-0.03,7.63,0.03,11.45c0.02,1.17-0.07,2.48,1.53,2.8c1.05-0.09,1.49-0.85,1.9-1.63
		c0.78-1.85,0.35-3.79,0.4-5.68c0.08-2.63,0-5.26,0.03-7.89c0.01-0.87-0.04-1.77,0.59-2.5c0.91-0.64,1.96-0.55,2.97-0.5
		c3.82,0.2,7.68-0.54,11.48,0.45c0.8,0.84,0.65,1.91,0.66,2.92c0.03,3.63,0.01,7.26,0.01,10.89c0,0.95-0.06,1.9,0.43,2.77
		c0.34,0.54,0.64,1.12,1.51,1.16c1.78-0.36,1.88-1.85,1.91-3.3c0.07-3.58,0-7.16,0.04-10.75c0.01-1.18-0.11-2.4,0.9-3.81
		c4.68-0.66,9.62-0.37,14.3-0.15c1.21,1.25,1.07,2.48,1.08,3.66c0.04,3.74-0.03,7.48,0.03,11.22c0.02,1.36,0.08,2.77,1.79,3.26
		c1.8-0.28,1.95-1.67,1.98-3.04c0.08-3.74,0.01-7.48,0.04-11.22c0.01-1.18-0.13-2.4,0.97-3.87c4.63-0.38,9.56-0.26,14.17-0.03
		c1.25,1.35,1.12,2.58,1.14,3.76c0.04,3.82-0.03,7.64,0.04,11.46c0.02,1.16-0.08,2.48,1.52,2.82c1.06-0.08,1.5-0.84,1.91-1.62
		c0.79-1.85,0.35-3.79,0.4-5.68c0.08-2.63,0-5.26,0.03-7.89c0.01-0.87-0.04-1.77,0.59-2.5c0.91-0.64,1.96-0.55,2.97-0.5
		c3.82,0.2,7.68-0.54,11.47,0.45c0.8,0.83,0.66,1.9,0.66,2.91c0.03,3.62,0.01,7.24,0.01,10.86c0,0.94-0.08,1.9,0.39,2.77
		c0.32,0.56,0.63,1.12,1.46,1.23c1.82-0.28,1.98-1.75,2.01-3.21c0.07-3.67,0.01-7.33,0.03-11c0.01-1.11-0.05-2.24,0.77-3.65
		c4.78-0.66,9.78-0.47,14.52-0.11c1.04,1.29,0.95,2.44,0.96,3.54c0.03,3.67-0.01,7.33,0.02,11c0.01,1.27-0.06,2.6,1.3,3.34
		c0.96,0.22,1.53-0.33,2.06-0.96c0.63-0.84,0.51-1.81,0.52-2.76c0.01-3.65-0.01-7.31,0.01-10.96c0.01-0.94-0.11-1.92,0.45-2.78
		c0.28-0.3,0.63-0.53,1.03-0.55c4.37-0.21,8.75-0.26,13.12,0.03c0.32,0.02,0.6,0.21,0.92,0.47c0.82,0.92,0.69,2.15,0.7,3.33
		c0.04,3.82-0.03,7.63,0.03,11.45c0.02,1.17-0.07,2.48,1.53,2.8c1.05-0.09,1.49-0.85,1.9-1.63c0.78-1.85,0.35-3.79,0.4-5.68
		c0.08-2.63,0-5.26,0.03-7.89c0.01-0.87-0.04-1.77,0.59-2.5c0.91-0.64,1.96-0.55,2.97-0.5c3.82,0.2,7.68-0.54,11.47,0.45
		c0.8,0.83,0.66,1.9,0.66,2.91c0.03,3.62,0.01,7.24,0.01,10.86c0,0.94-0.08,1.9,0.39,2.77c0.32,0.56,0.64,1.11,1.41,1.24
		c1.87-0.29,2.03-1.75,2.06-3.22c0.07-3.67,0.01-7.33,0.04-11c0.01-1.11-0.08-2.24,0.81-3.64c4.74-0.74,9.75-0.36,14.43-0.19
		c1.1,1.37,1.01,2.51,1.02,3.62c0.03,3.67-0.02,7.33,0.03,11c0.01,1.26-0.07,2.61,1.33,3.34c0.93,0.21,1.5-0.34,2.03-0.97
		c0.62-0.83,0.51-1.8,0.51-2.73c0.01-3.62-0.01-7.24,0.01-10.87c0.01-1.01-0.14-2.06,0.5-2.97c0.95-0.78,2.09-0.57,3.18-0.6
		c4.18-0.1,8.36,0.17,12.53-0.16c0.92-0.25,1.56-0.8,1.82-1.76c0.4-2.51,0.07-5.03,0.19-7.54c0.04-1.01-0.13-2.07,0.58-2.94
		c1.15-0.76,2.45-0.45,3.7-0.51c4.26-0.21,8.54,0.4,12.77-0.34C275.4,115.46,276.06,114.71,276.96,115.31z"/>
	<path class="st0" d="M238.63,0c12.78,0,25.56,0,38.33,0c0,11,0,22.01,0,33.01c-6.15-1.43-12.5-0.13-18.37-0.97
		c-1.19-1.37-0.9-2.62-0.99-3.78c-0.19-2.44,0.44-4.94-0.45-7.33c-0.76-1.44-2.13-1.52-3.5-1.54c-3.5-0.04-7,0.01-10.5-0.02
		c-1.1-0.01-2.25,0.12-3.22-0.61c-0.65-0.9-0.58-1.95-0.59-2.97c-0.03-3.01-0.11-6.02,0.02-9.02C239.47,4.45,238.98,2.24,238.63,0z"
		/>
	<path class="st1" d="M276.96,115.31c-0.75-0.04-1.17,0.47-1.61,0.95c-4.83,0.54-9.68,0.07-14.52,0.25
		c-0.85,0.03-1.75-0.28-2.55,0.28c-0.01,2.93,0.01,5.86-0.04,8.79c-0.01,0.75,0.33,1.6-0.41,2.23c-0.93-0.88-0.8-2.04-0.8-3.14
		c-0.02-16.82-0.02-33.64,0-50.46c0-0.88,0-1.76,0.38-2.58c0.14-0.29,0.38-0.49,0.69-0.58c5.22-0.03,10.44,0,15.66,0.01
		c1.58,0,2.79,0.46,3.2,2.16c0,0.8,0,1.59,0,2.39c-0.68,1.46-1.99,1.66-3.39,1.67c-3.65,0.03-7.29,0-10.94,0.02
		c-1.02,0.01-2.07-0.12-3.47,0.59c-0.18,4.06-0.47,8.34,0.2,12.62c0.69,0.94,1.71,0.67,2.62,0.68c4.18,0.06,8.36-0.09,12.53,0.08
		c1.27,0.13,1.9,1.03,2.45,2.03c0,0.64,0,1.28,0,1.91c-0.84,1.79-2.43,2.12-4.18,2.14c-3.42,0.04-6.84,0-10.26,0.02
		c-1.02,0.01-2.08-0.11-3.33,0.59c-0.31,4-0.29,8.15-0.02,12.11c1.21,0.83,2.27,0.67,3.29,0.67c3.5,0.03,7-0.02,10.5,0.03
		c1.89,0.03,3.47,0.52,4,2.61C276.96,114.03,276.96,114.67,276.96,115.31z"/>
	<path class="st0" d="M276.96,113.39c-0.75-1.51-2.04-1.94-3.64-1.93c-4.93,0.04-9.85,0.01-14.92,0.01c0-4.95,0-9.75,0-14.83
		c2.04,0,4.08,0,6.13,0c2.71,0,5.42-0.08,8.13,0.03c1.68,0.07,3.08-0.37,4.3-1.47C276.96,101.27,276.96,107.33,276.96,113.39z"/>
	<path class="st0" d="M258.28,91.34c0-4.82,0-9.65,0-14.69c3.13,0,6.05,0,8.97,0c2.07,0,4.14-0.07,6.2,0.03
		c1.34,0.06,2.48-0.23,3.5-1.08c0,5.9,0,11.8,0,17.7c-0.58-0.5-1.17-0.99-1.75-1.49c-4.79-0.45-9.59-0.06-14.39-0.21
		C259.97,91.58,259.08,91.87,258.28,91.34z"/>
	<path class="st0" d="M276.96,35.41c0,6.06,0,12.12,0,18.18c-4.78-2.14-9.83-0.83-14.75-1.19c-1.4-0.1-2.88,0.28-4.13-0.71
		c-0.99-2.94-0.35-5.98-0.44-8.97c-0.06-1.94-0.4-3.96,0.41-5.75c1.02-0.92,2.16-0.85,3.26-0.86c2.94-0.04,5.89-0.09,8.83,0.01
		C272.46,36.19,274.71,35.86,276.96,35.41z"/>
	<path class="st0" d="M276.96,73.2c-0.84-1.14-1.88-1.61-3.37-1.57c-4.37,0.11-8.75,0.06-13.12,0.02c-0.75-0.01-1.6,0.34-2.25-0.36
		c-0.44-0.51-0.59-1.12-0.59-1.77c-0.04-3.66-0.06-7.31,0.02-10.97c0.01-0.56,0.12-1.11,0.85-1.94c5.84-1.23,12.28,0.45,18.47-1.11
		C276.96,61.4,276.96,67.3,276.96,73.2z"/>
	<path class="st0" d="M178.73,0c5.75,0,11.5,0,17.25,0c-0.36,5.53-0.15,11.07-0.25,16.6c-0.02,0.79-0.09,1.59-0.66,2.23
		c-0.84,0.58-1.81,0.62-2.75,0.57c-4.02-0.21-8.08,0.58-12.07-0.49c-0.91-0.87-0.78-2.02-0.8-3.12c-0.04-2.85-0.1-5.7,0.01-8.55
		C179.57,4.78,179.15,2.4,178.73,0z"/>
	<path class="st0" d="M58.94,0c5.75,0,11.5,0,17.25,0c-0.36,5.53-0.15,11.07-0.25,16.6c-0.02,0.79-0.09,1.59-0.66,2.23
		c-0.84,0.58-1.81,0.62-2.75,0.57c-4.02-0.21-8.08,0.58-12.07-0.49c-0.91-0.87-0.78-2.02-0.8-3.12c-0.04-2.85-0.1-5.7,0.01-8.55
		C59.77,4.78,59.36,2.4,58.94,0z"/>
	<path class="st0" d="M118.83,0c5.75,0,11.5,0,17.25,0c-0.36,5.53-0.15,11.07-0.25,16.6c-0.02,0.79-0.09,1.59-0.66,2.23
		c-0.84,0.58-1.81,0.62-2.75,0.57c-4.02-0.21-8.08,0.58-12.07-0.49c-0.91-0.87-0.78-2.02-0.8-3.12c-0.04-2.85-0.1-5.7,0.01-8.55
		C119.67,4.78,119.26,2.4,118.83,0z"/>
	<path class="st0" d="M39.29,0c5.75,0,11.5,0,17.25,0c-1.26,5.02-0.49,10.13-0.71,15.2c-0.05,1.25,0.21,2.58-0.72,3.66
		c-1,0.64-2.14,0.61-3.24,0.54c-3.86-0.22-7.77,0.62-11.59-0.53c-0.69-0.68-0.73-1.57-0.75-2.44C39.44,10.96,39.65,5.47,39.29,0z"/>
	<path class="st0" d="M99.19,0c5.75,0,11.5,0,17.25,0c-1.26,5.02-0.49,10.13-0.71,15.2c-0.05,1.25,0.21,2.58-0.72,3.66
		c-1,0.64-2.14,0.61-3.24,0.54c-3.86-0.22-7.77,0.62-11.59-0.53c-0.69-0.68-0.73-1.57-0.75-2.44C99.34,10.96,99.54,5.47,99.19,0z"/>
	<path class="st0" d="M159.08,0c5.75,0,11.5,0,17.25,0c-1.26,5.02-0.49,10.13-0.71,15.2c-0.05,1.25,0.21,2.58-0.72,3.66
		c-1,0.64-2.14,0.61-3.24,0.54c-3.86-0.22-7.77,0.62-11.59-0.53c-0.69-0.68-0.73-1.57-0.75-2.44C159.23,10.96,159.44,5.47,159.08,0z
		"/>
	<path class="st0" d="M218.98,0c5.75,0,11.5,0,17.25,0c-1.26,5.02-0.49,10.13-0.71,15.2c-0.05,1.25,0.21,2.58-0.72,3.66
		c-1,0.64-2.14,0.61-3.24,0.54c-3.86-0.22-7.77,0.62-11.59-0.53c-0.69-0.68-0.73-1.57-0.75-2.44C219.13,10.96,219.33,5.47,218.98,0z
		"/>
	<path class="st0" d="M79.06,0c5.75,0,11.5,0,17.25,0c-1.21,5.04-0.53,10.16-0.71,15.24c-0.05,1.24,0.2,2.55-0.72,3.62
		c-1.15,0.71-2.45,0.61-3.7,0.54c-3.53-0.2-7.11,0.58-10.6-0.49c-0.91-0.87-0.78-2.02-0.8-3.12c-0.04-2.69-0.11-5.38,0.01-8.07
		C79.92,5.1,79.45,2.56,79.06,0z"/>
	<path class="st0" d="M138.96,0c5.75,0,11.5,0,17.25,0c-1.21,5.04-0.53,10.16-0.71,15.24c-0.05,1.24,0.2,2.55-0.72,3.62
		c-1.15,0.71-2.45,0.61-3.7,0.54c-3.53-0.2-7.11,0.58-10.6-0.49c-0.91-0.87-0.78-2.03-0.8-3.12c-0.04-2.69-0.11-5.38,0.01-8.07
		C139.82,5.1,139.34,2.56,138.96,0z"/>
	<path class="st0" d="M198.86,0c5.75,0,11.5,0,17.25,0c-1.21,5.04-0.53,10.16-0.71,15.24c-0.05,1.24,0.2,2.55-0.72,3.62
		c-1.15,0.71-2.45,0.61-3.7,0.54c-3.53-0.2-7.11,0.58-10.6-0.49c-0.91-0.87-0.78-2.03-0.8-3.12c-0.04-2.69-0.11-5.38,0.01-8.07
		C199.71,5.1,199.24,2.56,198.86,0z"/>
	<path class="st2" d="M276.96,35.41c-0.88,1.18-2.04,1.49-3.51,1.47c-4.98-0.09-9.96-0.03-15.11-0.03c0,5.04,0,9.92,0,14.8
		c-0.33,0.17-0.6,0.1-0.81-0.2c-0.55-0.94-0.49-1.99-0.5-3.02c-0.02-8.19-0.02-16.39,0.01-24.58c0-1.17-0.2-2.42,0.82-3.36
		c0.72,0.64,0.37,1.5,0.38,2.25c0.04,2.86,0.02,5.72,0.02,8.47c0.64,0.66,1.31,0.41,1.91,0.41c4.23,0.02,8.46,0.06,12.69-0.01
		c1.59-0.03,2.94,0.31,4.09,1.41C276.96,33.81,276.96,34.61,276.96,35.41z"/>
	<path class="st2" d="M257.9,51.67c0.15,0,0.29-0.01,0.44-0.03c5,0.01,10,0.08,15-0.01c1.69-0.03,2.89,0.41,3.62,1.95
		c0,0.64,0,1.28,0,1.91c-1.14,1.06-2.45,1.46-4.05,1.42c-4.04-0.11-8.09-0.04-12.13-0.03c-0.77,0-1.56-0.14-2.56,0.24
		c0,4.7,0,9.43,0,14.16c-0.12,0-0.25,0-0.37,0c-0.83-0.71-0.8-1.71-0.81-2.65c-0.04-4.78-0.05-9.56,0-14.34
		C257.06,53.35,257.02,52.35,257.9,51.67z"/>
	<path class="st3" d="M94.88,18.67C95.2,13.58,94.99,8.49,95,3.4c0-1.37,0.32-2.48,1.32-3.4c0.96,0,1.92,0,2.88,0
		c0.77,1.04,1.01,2.17,0.99,3.48c-0.06,5.05,0,10.1,0.01,15.15C98.43,19.74,96.66,19.7,94.88,18.67z"/>
	<path class="st3" d="M154.78,18.67c0.31-5.09,0.1-10.18,0.11-15.27c0-1.37,0.32-2.48,1.32-3.4c0.96,0,1.92,0,2.88,0
		c0.77,1.04,1.01,2.17,0.99,3.48c-0.06,5.05,0,10.1,0.01,15.15C158.32,19.74,156.55,19.7,154.78,18.67z"/>
	<path class="st3" d="M39.29,0c0.77,1.04,1.01,2.17,0.99,3.48c-0.06,5.05,0,10.1,0.01,15.15c-1.76,1.11-3.53,1.07-5.3,0.03
		c0.31-5.09,0.1-10.18,0.11-15.27c0-1.37,0.32-2.48,1.32-3.4C37.38,0,38.33,0,39.29,0z"/>
	<path class="st3" d="M214.68,18.67c0.31-5.09,0.1-10.18,0.11-15.27c0-1.37,0.32-2.48,1.32-3.4c0.96,0,1.92,0,2.88,0
		c0.77,1.04,1.01,2.17,0.99,3.48c-0.06,5.05,0,10.1,0.01,15.15C218.22,19.74,216.45,19.7,214.68,18.67z"/>
	<path class="st4" d="M79.06,0c1,1.11,1.31,2.41,1.31,3.9c0.01,4.92-0.2,9.85,0.12,14.76c-1.8,1.03-3.58,1.13-5.35-0.07
		c0-5.05,0.02-10.1-0.03-15.15C75.1,2.14,75.26,0.97,76.19,0C77.15,0,78.1,0,79.06,0z"/>
	<path class="st4" d="M138.96,0c1,1.11,1.31,2.41,1.31,3.9c0.01,4.92-0.2,9.85,0.12,14.76c-1.8,1.03-3.58,1.13-5.35-0.07
		c0-5.05,0.02-10.1-0.03-15.15c-0.01-1.3,0.15-2.47,1.08-3.45C137.04,0,138,0,138.96,0z"/>
	<path class="st4" d="M198.86,0c1,1.11,1.31,2.41,1.31,3.9c0.01,4.92-0.2,9.85,0.12,14.76c-1.8,1.03-3.58,1.13-5.35-0.07
		c0-5.05,0.02-10.1-0.03-15.15c-0.01-1.3,0.15-2.47,1.08-3.45C196.94,0,197.9,0,198.86,0z"/>
	<path class="st2" d="M55.06,18.63c0.01-5.13,0.06-10.25,0.02-15.38C55.07,1.89,55.37,0.78,56.54,0c0.8,0,1.6,0,2.4,0
		c1.09,0.96,1.43,2.14,1.41,3.61c-0.05,5.01,0.02,10.03,0.04,15.04C58.62,19.72,56.84,19.74,55.06,18.63z"/>
	<path class="st2" d="M174.86,18.63c0.01-5.13,0.06-10.25,0.02-15.38c-0.01-1.37,0.29-2.48,1.46-3.26c0.8,0,1.6,0,2.4,0
		c1.09,0.96,1.43,2.14,1.41,3.61c-0.05,5.01,0.02,10.03,0.04,15.04C178.41,19.72,176.63,19.74,174.86,18.63z"/>
	<path class="st2" d="M114.96,18.63c0.01-5.13,0.06-10.25,0.02-15.38c-0.01-1.37,0.29-2.48,1.46-3.26c0.8,0,1.6,0,2.4,0
		c1.09,0.96,1.43,2.14,1.41,3.61c-0.05,5.01,0.02,10.03,0.04,15.04C118.51,19.72,116.73,19.74,114.96,18.63z"/>
	<path class="st2" d="M234.75,18.63c0.01-5.13,0.06-10.25,0.02-15.38c-0.01-1.37,0.29-2.48,1.46-3.26c0.8,0,1.6,0,2.4,0
		c1.09,0.96,1.43,2.14,1.41,3.61c-0.05,5.01,0.02,10.03,0.04,15.04C238.3,19.72,236.53,19.74,234.75,18.63z"/>
	<path class="st5" d="M234.75,18.63c1.78,0,3.56,0.01,5.33,0.01c4.86,0.01,9.72,0.03,14.59,0.04c1.42,0,2.74,0.12,3.19,1.8
		c-0.06,10.4-0.17,20.79,0.04,31.19c-0.12,6.54-0.19,13.08-0.05,19.62c-0.02,18.04-0.05,36.09-0.07,54.13
		c0,0.79,0.03,1.59,0.05,2.38c-0.12,0.81-0.6,1.28-1.39,1.45c-3.74,0.37-7.49,0.06-11.24,0.16c-2.22,0.06-4.5,0.45-6.63,0.35
		c-7.48-0.36-14.92-0.06-22.39-0.03c-5.78,0.03-11.58-0.65-17.35,0.17c-1.8,0.26-3.46-0.48-5.2-0.49c-2.8-0.01-5.59-0.08-8.38,0.01
		c-7.3,0.24-14.62-0.39-21.9,0.07c-5.89,0.38-11.73-0.43-17.6-0.08c-7.38,0.44-14.78-0.41-22.14,0.07
		c-6.37,0.42-12.69-0.41-19.04-0.09c-1.9,0.1-3.8-0.12-5.69,0.45c-1.74,0.52-3.46-0.47-5.19-0.41c-5.01,0.16-10.02,0.07-15.03,0.3
		c-4.47,0.21-9.04-0.33-13.58-0.32c-2.06,0.01-4.12-0.13-6.17,0.42c-1.2,0.33-2.55,0.25-3.75-0.36c-5.54,0.08-11.08,0.12-16.62,0.23
		c-5.01,0.1-10.11-0.05-15.16-0.46c-0.78-0.16-1.26-0.63-1.42-1.42c-0.35-2.53-0.08-5.08-0.16-7.61c-0.05-1.58,0.02-3.14-0.4-4.72
		c-0.34-1.29,0.13-2.67,0.2-3.99c0.26-5.14,0.55-10.3-0.15-15.44c-0.22-1.59-0.4-3.16,0.29-4.69c0.13-4.06,0.34-8.14-0.02-12.16
		c-0.55-6.03,0.45-12.01,0.09-18.01c-0.11-1.89,0.09-3.78-0.44-5.67c-0.44-1.56,0.32-3.14,0.38-4.69c0.15-4.37,0.37-8.78-0.03-13.12
		c-0.53-5.79,0.44-11.52,0.21-17.28c0.43-1.55,1.64-1.76,2.99-1.76c3.35,0,6.71-0.01,10.06-0.02c1.77-0.01,3.54-0.02,5.3-0.03
		c4.92,0,9.85,0,14.77,0c1.78,0,3.56,0.01,5.33,0.01c4.92-0.02,9.83-0.04,14.75-0.05c1.78,0.02,3.57,0.05,5.35,0.07
		c4.8,0,9.59,0,14.39,0c1.77-0.01,3.54-0.02,5.3-0.03c4.92,0,9.85,0,14.77,0c1.78,0,3.56,0.01,5.33,0.01
		c4.92-0.02,9.83-0.04,14.75-0.05c1.78,0.02,3.57,0.05,5.35,0.07c4.8,0,9.59,0,14.39,0c1.77-0.01,3.54-0.02,5.3-0.03
		c4.92,0,9.85,0,14.77,0c1.78,0,3.56,0.01,5.33,0.01c4.92-0.02,9.83-0.04,14.75-0.05c1.78,0.02,3.57,0.05,5.35,0.07
		c4.8,0,9.59,0,14.39,0c1.77-0.01,3.54-0.02,5.3-0.03C224.9,18.63,229.83,18.63,234.75,18.63z"/>
	<path class="st2" d="M55.1,129.29c13.33-0.03,26.65-0.07,39.98-0.08c7.82-0.01,15.64,0.03,23.46,0.03c19.31,0,38.63,0.01,57.94,0
		c18.6-0.01,37.19-0.05,55.79-0.06c8.06,0,16.12,0.05,24.18,0.07c-0.64,0.72-1.5,0.38-2.25,0.38c-4.7,0.04-9.39,0.03-14.09,0.04
		c-0.66,2.26-0.16,4.57-0.28,6.85c-0.19,3.4,0.29,6.83-0.24,10.23c-0.88,0.9-1.68,1.97-3.2,1.47c-0.64-0.36-1.1-0.9-1.66-1.71
		c0-5.42,0-11.05,0-16.77c-4.92,0-9.68,0-14.47,0c-0.55,0.49-0.29,1.17-0.3,1.77c-0.02,4.46-0.02,8.92-0.01,13.38
		c0,0.8,0,1.6-0.49,2.27c-1.28,1.74-3.27,1.46-4.36-0.61c-0.42-4.77-0.06-9.55-0.19-14.32c-0.02-0.86,0.23-1.75-0.23-2.58
		c-4.8,0-9.59,0-14.39,0c-0.53,3.8-0.09,7.62-0.24,11.43c-0.07,1.66,0.21,3.34-0.18,4.99c-0.04,1.12-1.2,1.36-1.53,2.1
		c-1.36,0.37-2.33-0.04-3.38-1.13c0-5.55,0-11.34,0-17.38c-5.06,0-9.9,0-14.74,0c-0.66,2.26-0.16,4.57-0.28,6.85
		c-0.19,3.4,0.29,6.83-0.24,10.23c-0.88,0.9-1.68,1.97-3.2,1.47c-0.64-0.36-1.1-0.9-1.66-1.71c0-5.42,0-11.05,0-16.77
		c-4.92,0-9.68,0-14.47,0c-0.55,0.49-0.29,1.17-0.3,1.77c-0.02,4.46-0.02,8.92-0.01,13.38c0,0.8,0,1.6-0.49,2.27
		c-1.28,1.74-3.27,1.46-4.36-0.61c-0.42-4.77-0.06-9.55-0.19-14.32c-0.02-0.86,0.23-1.75-0.23-2.58c-4.8,0-9.59,0-14.39,0
		c-0.53,3.8-0.09,7.62-0.24,11.43c-0.07,1.66,0.21,3.34-0.18,4.99c-0.05,1.11-1.1,1.44-1.62,2.12c-1.26,0.34-2.24-0.06-3.28-1.15
		c0-5.55,0-11.34,0-17.26c-5.02,0-9.83,0-14.84,0c0,4.28,0,8.48,0,12.68c0,0.88-0.03,1.75,0.01,2.63c0.05,1.39-0.28,2.58-1.73,3.06
		c-1.51,0.5-2.64-0.09-3.47-1.65c0-5.38,0-10.95,0-16.68c-4.92,0-9.73,0-14.65,0c-0.46,0.43-0.21,1.11-0.22,1.71
		c-0.02,4.46-0.02,8.92-0.01,13.37c0,0.8,0,1.6-0.5,2.27c-1.29,1.74-3.27,1.45-4.35-0.61c-0.42-4.77-0.06-9.55-0.19-14.32
		c-0.02-0.86,0.23-1.75-0.23-2.58c-4.8,0-9.59,0-14.39,0c-0.53,3.8-0.09,7.62-0.24,11.43c-0.07,1.66,0.21,3.34-0.18,4.99
		c-0.05,1.11-1.1,1.44-1.63,2.12c-1.26,0.34-2.24-0.06-3.29-1.16c0-5.55,0-11.34,0-17.38c-5.06,0-9.9,0-14.74,0
		c-0.66,2.26-0.16,4.57-0.28,6.85c-0.19,3.4,0.29,6.83-0.24,10.23c-0.51,0.48-1.02,0.97-1.49,1.41c-1.56,0.58-2.44-0.29-3.33-1.58
		c0-5.48,0-11.17,0-16.85c-0.15-0.11-0.2-0.21-0.14-0.3C54.99,129.34,55.05,129.29,55.1,129.29z"/>
	<path class="st2" d="M21.94,20.45c0.33,5.73,0.05,11.46,0.08,17.19c0.08,17.6,0.03,35.2,0.02,52.79c0,0.32-0.06,0.63-0.09,0.95
		c-0.15,0.14-0.29,0.14-0.42-0.01c0-4.83,0-9.66,0-14.72c-1.6,0-3.01,0-4.42,0c-4.54,0-9.09-0.01-13.63,0
		c-1.15,0-2.25-0.06-2.93-1.37c0-0.65,0-1.44,0-2.31c0.46-0.53,0.79-1.32,1.78-1.22c5.47-0.47,10.95-0.07,16.43-0.22
		c0.94-0.03,1.91,0.24,2.81-0.23c0-4.79,0-9.58,0-14.37c-3.49-0.52-6.99-0.11-10.49-0.24c-2.94-0.11-5.9,0.22-8.83-0.18
		c-0.89,0.09-1.21-0.63-1.69-1.17c-0.09-0.85-0.16-1.71,0.06-2.59c0.88-0.96,2.01-1.09,3.23-1.08c5.81,0.03,11.62,0.01,17.58,0.01
		c0-4.92,0-9.72,0-14.59c-0.58-0.48-1.33-0.23-2.01-0.23c-5.34-0.02-10.68,0.01-16.02-0.03c-1.99-0.01-2.81-0.75-2.9-2.39
		c-0.1-1.84,0.73-2.76,2.72-2.8c2.87-0.06,5.74-0.01,8.61-0.01c3.17,0,6.34,0,9.76,0c0-3.01-0.03-5.85,0.02-8.69
		C21.61,22.11,21.22,21.19,21.94,20.45z"/>
	<path class="st2" d="M21.53,91.37c0.14,0.01,0.28,0.01,0.42,0.01c0.01,12.15,0.01,24.3,0.02,36.45c-0.71-0.63-0.37-1.46-0.38-2.2
		c-0.04-2.97-0.02-5.93-0.02-8.9c-3.49-0.52-6.99-0.11-10.49-0.24c-2.94-0.11-5.9,0.22-8.83-0.18c-0.88,0.09-1.21-0.63-1.69-1.17
		c-0.09-0.85-0.16-1.71,0.05-2.58c0.87-0.98,2-1.1,3.23-1.1c5.81,0.02,11.61,0.01,17.58,0.01c0-4.9,0-9.7,0-14.59
		c-0.45-0.47-1.12-0.22-1.73-0.22c-5.42-0.02-10.83,0.01-16.25-0.02c-2.11-0.01-2.94-0.79-2.96-2.57c-0.01-1.8,0.81-2.61,2.89-2.62
		c5.1-0.03,10.19-0.01,15.29-0.01C19.62,91.43,20.57,91.39,21.53,91.37z"/>
	<path class="st4" d="M55.1,129.29c0,0.15-0.01,0.29-0.03,0.44c-4.85,0-9.7,0-14.54,0c-0.51,0.78-0.26,1.6-0.27,2.36
		c-0.03,4.22-0.01,8.44-0.02,12.66c0,2.54-0.69,3.52-2.47,3.55c-1.82,0.03-2.64-1.1-2.65-3.69c-0.01-4.14,0.01-8.28-0.01-12.43
		c0-0.77,0.18-1.57-0.28-2.54c-3.02,0-6.11,0.02-9.2-0.02c-0.75-0.01-1.6,0.34-2.25-0.38C33.96,129.19,44.53,129.08,55.1,129.29z"/>
	<path class="st4" d="M2.24,56.51c5.95-0.02,11.89-0.04,17.84-0.05c0.54,0,1.13-0.14,1.48,0.47c-5.58-0.33-11.17-0.04-16.75-0.15
		C3.95,56.76,3.05,57.02,2.24,56.51z"/>
	<path class="st4" d="M21.56,71.3c-0.42,0.69-1.12,0.46-1.71,0.46c-5.84,0.01-11.69-0.01-17.53-0.02c0.79-0.58,1.69-0.27,2.54-0.29
		C10.43,71.34,16,71.62,21.56,71.3z"/>
	<path class="st4" d="M2.24,116.31c5.95-0.02,11.89-0.04,17.84-0.05c0.54,0,1.13-0.14,1.48,0.47c-5.58-0.33-11.17-0.04-16.75-0.15
		C3.95,116.56,3.05,116.83,2.24,116.31z"/>
	<path class="st2" d="M258.28,116.79c0.54-0.9,1.42-0.5,2.15-0.5c4.97-0.04,9.94-0.02,14.92-0.02c-0.62,0.78-1.48,0.4-2.23,0.41
		C268.18,116.74,263.23,116.75,258.28,116.79z"/>
	<path class="st2" d="M59.9,146.75c0-4.98-0.02-9.95,0.02-14.93c0.01-0.73-0.39-1.61,0.51-2.15c-0.03,4.96-0.05,9.92-0.12,14.87
		C60.29,145.28,60.67,146.14,59.9,146.75z"/>
	<path class="st2" d="M239.58,146.75c0-4.98-0.02-9.95,0.02-14.93c0.01-0.73-0.39-1.61,0.51-2.15c-0.03,4.96-0.05,9.92-0.12,14.87
		C239.98,145.28,240.36,146.14,239.58,146.75z"/>
	<path class="st2" d="M179.69,146.75c0-4.98-0.02-9.95,0.02-14.93c0.01-0.73-0.39-1.61,0.51-2.15c-0.03,4.96-0.05,9.92-0.12,14.87
		C180.09,145.28,180.46,146.14,179.69,146.75z"/>
	<path class="st4" d="M94.88,129.66c0.61,0.35,0.47,0.94,0.47,1.48c-0.01,5.14-0.03,10.28-0.05,15.42c-0.52-0.8-0.25-1.68-0.27-2.53
		C94.93,139.24,95.21,134.45,94.88,129.66z"/>
	<path class="st4" d="M154.78,129.66c0.61,0.35,0.47,0.94,0.47,1.48c-0.01,5.14-0.03,10.28-0.05,15.42
		c-0.52-0.8-0.25-1.68-0.27-2.53C154.82,139.24,155.11,134.45,154.78,129.66z"/>
	<path class="st4" d="M214.67,129.66c0.61,0.35,0.47,0.94,0.47,1.48c-0.01,5.14-0.03,10.28-0.05,15.42
		c-0.52-0.8-0.25-1.68-0.27-2.53C214.72,139.24,215,134.45,214.67,129.66z"/>
	<path class="st4" d="M139.97,146.08c-0.02-4.98-0.04-9.96-0.05-14.94c0-0.53-0.14-1.13,0.47-1.48c-0.32,4.62-0.05,9.24-0.15,13.86
		C140.22,144.37,140.49,145.27,139.97,146.08z"/>
	<path class="st4" d="M199.86,146.08c-0.02-4.98-0.04-9.96-0.05-14.94c0-0.53-0.14-1.13,0.47-1.48c-0.32,4.62-0.05,9.24-0.15,13.86
		C200.11,144.37,200.38,145.27,199.86,146.08z"/>
	<path class="st4" d="M80.07,146.08c-0.02-4.98-0.04-9.96-0.05-14.94c0-0.53-0.14-1.13,0.47-1.48c-0.32,4.62-0.05,9.24-0.15,13.86
		C80.32,144.37,80.59,145.27,80.07,146.08z"/>
	<path class="st2" d="M258.28,91.34c4.8,0.03,9.61,0.05,14.41,0.11c0.84,0.01,1.74-0.25,2.51,0.36c-5.16,0.02-10.32,0.04-15.47,0.05
		C259.2,91.86,258.59,92,258.28,91.34z"/>
	<path class="st6" d="M252.93,23.99c0,33.48,0,66.79,0,100.25c-75.31,0-150.56,0-225.96,0c0-33.36,0-66.72,0-100.25
		C102.22,23.99,177.47,23.99,252.93,23.99z"/>
	<path class="st5" d="M72.12,66.31c0.21-8.46,0.25-16.87-0.31-25.45c2.46,0,4.79,0,7.42,0c-0.72,12.49-0.5,24.94-0.03,37.5
		c-2.55,0-4.84,0-7.16,0c-5.45-9.69-13.17-17.96-17.84-28.22c0.87,9.34,0.11,18.69,0.91,28.13c-2.37,0.46-4.65,0.06-7.28,0.26
		c0.45-12.64,0.69-25.08-0.05-37.69c2.94,0,5.69,0,8.6,0C60.83,49.66,67.52,57.28,72.12,66.31z"/>
	<path class="st5" d="M175.58,40.75c3.55,0,7.12,0,10.86,0c3.68,12.62,8.86,24.77,12.57,37.6c-3.24,0-6.25,0-9.43,0
		c-0.75-3.58-1.65-7.18-2.86-10.79c-4.38,0-8.75,0-13.2,0c-1.39,3.47-2.15,7.12-3.03,10.81c-2.8,0-5.57,0-8.51,0
		c-0.15-1.35,0.49-2.46,0.92-3.6c3.46-9.15,6.96-18.28,10.41-27.43C174.12,45.2,174.81,43.01,175.58,40.75z"/>
	<path class="st5" d="M124.37,78.41c-2.61-9.39-6.64-18.17-9.47-27.55c2.93,0,5.67,0,8.51,0c1.45,6.78,3.92,13.25,5.28,20.54
		c1.65-7.29,4.52-13.69,6.19-20.57c2.26,0,4.46,0,6.77,0c1.7,6.65,4.14,13.02,5.95,19.67c1.63-6.57,4.26-12.83,5.43-19.61
		c2.28-0.32,4.57-0.13,6.88-0.13c0.5,1.34-0.15,2.43-0.54,3.48c-1.88,4.99-3.82,9.96-5.8,14.91c-1.2,3.02-2.18,6.13-3.2,9.24
		c-2.22,0-4.36,0-6.45,0c-2.19-6.65-4.35-13.21-6.67-20.27c-1.99,7.07-4.51,13.47-6.21,20.24
		C128.82,78.56,126.62,78.48,124.37,78.41z"/>
	<path class="st5" d="M203.5,40.77c8.1,0,15.8,0,23.71,0c-0.04,2.2,0.06,4.3-0.3,6.56c-5.17-0.02-10.23-0.69-15.49-0.27
		c0,2.84,0,5.65,0,8.72c4.23,0.32,8.4,0.1,12.69-0.16c0.58,1.99,0.21,3.91,0.23,5.97c-4.37-0.34-8.49-0.32-12.87-0.25
		c-0.18,3.63-0.13,7.15,0.18,10.72c5.71,0.44,11.18-0.19,16.82-0.3c0.37,2.23-0.07,4.33,0.15,6.57c-8.38,0-16.55,0-25.06,0
		C203.92,65.87,204.13,53.42,203.5,40.77z"/>
	<path class="st5" d="M93.18,65.93c0.74,4.76,3.94,7.52,8.52,7.7c3.3,0.13,6.47-0.6,9.87-1.36c-0.19,1.91-0.36,3.7-0.54,5.49
		c-1.58,1.05-3.36,1.15-5.07,1.38c-3.01,0.41-6.04,0.52-9.04-0.06c-6.49-1.26-10.71-5.74-11.5-12.31c-0.41-3.4,0.27-6.65,1.84-9.7
		c4.21-8.2,13.17-8.44,18.75-6.21c2.94,1.18,4.61,3.64,5.49,6.56c0.78,2.61,0.84,5.3,0.32,8.2c-3.13,0.1-6.21,0.23-9.3,0.28
		C99.42,65.97,96.32,65.93,93.18,65.93z"/>
	<path class="st7" d="M212.78,97.19c1.42-2.04,1.42-2.04,3.55-1.69c0.38,0.61,0.15,1.2-0.08,1.77c-0.48,0.58-1.28,0.15-1.83,0.67
		c1.27,5.87-2.71,5.97-6.81,5.88c-0.42,0.9-0.15,1.41,0.66,1.71c0.77,0.28,1.57,0.2,2.36,0.21c1.03,0.02,2.03,0.06,3.06,0.28
		c2.71,0.58,3.05,3.39,1.5,5.22c-2.04,2.4-7.32,2.9-9.97,1.18c-1.79-1.16-1.55-3,0.63-5.02c-1.4-1.39-0.9-2.78,0.31-4.01
		c-3.2-2.83-1.24-6.11,2.05-6.64C209.77,96.51,211.22,96.73,212.78,97.19z"/>
	<path class="st8" d="M153.16,99.5c-1.66-0.75-2.9-0.54-4.06,0.41c-0.25,1.36-0.1,2.71-0.1,4.05c0,1.27,0,2.54,0,3.88
		c-0.9,0.49-1.81,0.23-2.88,0.22c-0.12-5.45,0.22-10.76-0.24-16.07c0.96-0.61,1.91-0.78,3.09-0.45c0,2.06,0,4.1,0,6.22
		c1.1-0.41,2.03-0.9,3.01-1.08c2.59-0.47,4.37,0.95,4.59,3.54c0.03,0.4,0.01,0.8,0.01,1.19c0,2.14,0,4.28,0,6.5
		c-1.06,0.3-1.97,0.23-2.94,0.1C153.48,105.13,154.38,102.25,153.16,99.5z"/>
	<path class="st7" d="M203.23,102.15c0.01,3.49-2.53,6.01-6.04,5.98c-3.36-0.03-5.58-2.22-5.59-5.49c-0.01-3.52,2.49-6.01,6.02-5.99
		C200.94,96.66,203.22,98.9,203.23,102.15z"/>
	<path class="st7" d="M183.59,102.15c0.01,3.49-2.53,6.01-6.04,5.98c-3.36-0.03-5.58-2.22-5.59-5.49c-0.01-3.52,2.49-6.01,6.02-5.99
		C181.29,96.66,183.57,98.9,183.59,102.15z"/>
	<path class="st7" d="M132.44,105.84c0.46,0.5,0.29,0.98,0.26,1.56c-1.92,0.8-3.89,0.96-5.97,0.45c-2.17-0.53-3.58-1.85-4.01-3.95
		c-0.49-2.4,0.04-4.65,2.16-6.18c1.9-1.37,4.01-1.45,6.11-0.45c1.75,0.83,2.34,2.6,1.89,5.54c-2.33,0-4.7,0-7.34,0
		C126.81,106.8,130.11,105.34,132.44,105.84z"/>
	<path class="st9" d="M169.44,107.91c-1,0.33-1.86,0.26-2.72,0.11c0-1.89,0.01-3.76,0-5.63c-0.03-3.37-1.45-4.16-4.72-2.45
		c0,2.58,0,5.25,0,8.01c-1,0.29-1.84,0.17-2.88,0.11c-0.35-3.56,0.37-7.14-0.49-10.54c0.26-0.69,0.84-0.46,1.26-0.59
		c0.37-0.12,0.76-0.2,1.02-0.27c0.77,0.17,0.49,0.84,0.87,1.23c0.32-0.15,0.68-0.3,1.03-0.47c1.23-0.62,2.51-0.99,3.9-0.66
		c1.55,0.37,2.65,1.25,2.71,2.9C169.5,102.41,169.44,105.18,169.44,107.91z"/>
	<path class="st8" d="M217.72,96.78c1.04-0.22,2.07-0.18,3.26-0.01c0.7,2.43,1.41,4.9,2.28,7.94c0.97-2.9,1.62-5.29,2.12-7.81
		c0.89-0.4,1.8-0.31,2.73-0.07c0.13,1.22-0.44,2.21-0.84,3.24c-1.25,3.18-2.4,6.4-3.47,9.65c-0.88,2.69-2.01,3.41-4.96,3.57
		c-0.49-0.61-0.38-1.31-0.29-2c3.22-1.28,3.76-2.28,2.65-5.42c-0.79-2.25-1.8-4.41-2.67-6.64
		C218.22,98.45,217.66,97.73,217.72,96.78z"/>
	<path class="st10" d="M115.55,95.38c-1.61-0.29-2.87-0.12-4.11-0.09c-0.58-0.79-0.39-1.52-0.15-2.37c3.83,0,7.63,0,11.37,0
		c0.43,0.31,0.37,0.72,0.37,1.11c-0.01,0.39,0.01,0.8-0.5,1.24c-1.15,0-2.47,0-3.94,0c-0.41,4.28,0.03,8.46-0.15,12.67
		c-0.99,0.31-1.85,0.14-2.9,0.17C115.55,103.85,115.55,99.68,115.55,95.38z"/>
	<path class="st8" d="M143.12,97.15c0.23,0.63,0.15,1.23-0.28,1.94c-3.19-0.23-6.22,0.07-4.98,4.59c0.52,1.89,2.37,2.33,5.6,1.77
		c0.51,0.64,0.26,1.31,0.08,1.96c-3.13,1.29-6.07,0.75-7.85-1.42c-1.56-1.91-1.57-4.8-0.04-6.89
		C137.32,96.84,140.17,96.09,143.12,97.15z"/>
	<path class="st11" d="M189.26,108.13c-0.89,0-1.51,0.01-2.14,0c-0.31,0-0.64,0.01-0.8-0.16c0-2.77,0-5.45,0-8.13
		c0-2.61,0-5.21,0-8.02c0.65-0.43,1.63-0.54,2.93-0.29C189.08,96.93,189.09,102.37,189.26,108.13z"/>
	<path class="st6" d="M180.04,45.69c1.84,5.79,3.51,11.04,5.21,16.41c-3.43,0-6.75,0-10.35,0
		C176.45,56.71,178.55,51.59,180.04,45.69z"/>
	<path class="st12" d="M104.83,61.48c-3.83,0-7.69,0-11.54,0c0.35-4.38,3.01-6.81,7.02-6.39C103.52,55.43,105.2,57.73,104.83,61.48z
		"/>
	<path class="st13" d="M213.19,109.08c0.27,1.18-0.44,1.73-1.4,2.12c-1.07,0.43-2.21,0.39-3.29,0.19c-1.72-0.32-2.06-1.32-1.14-3.09
		C211.18,107.88,211.67,107.94,213.19,109.08z"/>
	<path class="st14" d="M207.65,100.99c-0.02-2.52,1.34-3.09,3.95-1.65c0.45,0.87,0.44,1.7-0.52,2.21
		C209.82,102.23,208.63,102.07,207.65,100.99z"/>
	<path class="st15" d="M196.38,99.13c2.35-0.03,3.41,0.66,3.8,2.42c0.38,1.7-0.4,3.51-1.74,4.04c-1.18,0.47-2.55-0.01-3.31-1.17
		C194.03,102.76,194.44,100.86,196.38,99.13z"/>
	<path class="st15" d="M180.62,102.44c0,1.87-1.12,3.24-2.7,3.3c-1.75,0.06-3.06-1.47-3.02-3.52c0.04-1.84,1.24-3.2,2.81-3.18
		C179.39,99.07,180.61,100.5,180.62,102.44z"/>
	<path class="st16" d="M130.4,100.91c-1.73,0.05-3.21,0.15-4.79-0.09c0.45-1.55,1.51-1.86,2.8-1.78
		C129.58,99.11,129.66,99.2,130.4,100.91z"/>
</g>
</svg>
