<?xml version="1.0" encoding="utf-8"?>
<!-- Generator: Adobe Illustrator 26.1.0, SVG Export Plug-In . SVG Version: 6.00 Build 0)  -->
<svg version="1.1" id="Laag_1" xmlns="http://www.w3.org/2000/svg" xmlns:xlink="http://www.w3.org/1999/xlink" x="0px" y="0px"
	 viewBox="0 0 468 144" style="enable-background:new 0 0 468 144;" xml:space="preserve">
<style type="text/css">
	.st0{fill:#FEFEFE;}
	.st1{fill:#325AA6;}
	.st2{fill:#3259A6;}
	.st3{fill:#DDDFF2;}
	.st4{fill:#FFFFFF;}
</style>
<g>
	<path class="st0" d="M234,143.98c-77.63,0-155.27,0-232.9,0.02c-0.9,0-1.1-0.2-1.1-1.1C0.03,95.63,0.03,48.37,0,1.1
		C0,0.2,0.2,0,1.1,0c155.27,0.02,310.53,0.02,465.8,0c0.9,0,1.1,0.2,1.1,1.1c-0.03,47.27-0.03,94.53,0,141.8c0,0.9-0.2,1.1-1.1,1.1
		C389.27,143.98,311.63,143.98,234,143.98z"/>
	<path class="st1" d="M190.8,60.32c0.38-0.44,0.75-0.88,1.13-1.33c5.83-6.92,13.18-9.23,21.91-7.14c3.61,0.86,6.38,3.03,8.29,6.23
		c0.38,0.64,0.73,1.3,1.15,2.04c1.25-1.38,2.4-2.76,3.73-3.96c6.2-5.59,16.14-6.72,23.35-2.56c5.49,3.17,7.49,8.15,7.1,14.26
		c-0.32,5.05-1.69,9.91-2.75,14.82c-1.93,8.93-3.95,17.84-5.9,26.77c-0.17,0.76-0.41,1.06-1.23,1.06c-5.12-0.04-10.23-0.03-15.35,0
		c-0.85,0-1.07-0.15-0.86-1.08c2.66-11.54,5.28-23.1,7.89-34.65c0.3-1.32,0.6-2.65,0.61-4.02c0.01-3.43-2.28-5.93-5.7-6.2
		c-4.43-0.35-8.72,2.26-10.66,6.49c-1.46,3.19-1.99,6.64-2.8,10.01c-2.27,9.47-4.5,18.94-6.7,28.42c-0.18,0.79-0.48,1.03-1.26,1.02
		c-5.08-0.03-10.15-0.03-15.23,0c-0.9,0.01-1.16-0.13-0.93-1.13c2.74-11.81,5.42-23.64,8.13-35.46c0.29-1.25,0.56-2.51,0.48-3.79
		c-0.22-3.69-3.17-6.14-6.98-5.72c-3.86,0.42-6.81,2.34-8.83,5.67c-1.94,3.2-2.63,6.82-3.46,10.4c-2.24,9.64-4.49,19.27-6.7,28.91
		c-0.2,0.89-0.54,1.14-1.43,1.13c-5.08-0.04-10.15-0.05-15.23,0c-0.97,0.01-1.1-0.26-0.9-1.14c3.97-17.22,7.91-34.45,11.85-51.68
		c0.31-1.36,0.64-2.72,0.92-4.09c0.12-0.6,0.38-0.82,1.03-0.82c5.28,0.03,10.55,0.03,15.83,0.01c0.68,0,0.91,0.1,0.72,0.86
		c-0.53,2.16-0.98,4.33-1.45,6.5C190.66,60.21,190.73,60.27,190.8,60.32z"/>
	<path class="st1" d="M105.51,110.33c-0.44,0.26-0.84,0.16-1.23,0.16c-6.32,0.01-12.63-0.02-18.95,0.03
		c-1.04,0.01-1.45-0.37-1.78-1.26c-3.14-8.62-6.33-17.22-9.47-25.84c-0.31-0.84-0.69-1.14-1.61-1.13c-3.84,0.06-7.67,0.05-11.51,0
		c-0.86-0.01-1.24,0.21-1.43,1.09c-1.9,8.57-3.86,17.12-5.75,25.7c-0.24,1.08-0.6,1.46-1.77,1.45c-5.67-0.08-11.35-0.05-17.03-0.01
		c-0.98,0.01-1.17-0.19-0.94-1.19c3.1-13.57,6.17-27.15,9.21-40.74c0.19-0.85,0.58-1.02,1.38-1.02c11.47,0.03,22.94,0.02,34.41,0.02
		c1.52,0,3.03-0.13,4.53-0.41c4.92-0.92,8.27-4.41,9.25-9.6c0.25-1.35,0.36-2.7,0.18-4.05c-0.56-4.08-3.02-6.45-7.36-7.17
		c-1.39-0.23-2.78-0.29-4.18-0.29c-10.59,0-21.18-0.02-31.78,0.02c-1.12,0-1.31-0.22-1.04-1.32c1.01-4.11,1.92-8.24,2.81-12.37
		c0.16-0.74,0.42-0.95,1.16-0.95c12.27,0.02,24.54-0.03,36.81,0.04c4.35,0.02,8.58,0.86,12.44,3.02c6.17,3.45,9.56,8.81,10.45,15.73
		c0.95,7.45-0.3,14.4-5.03,20.48c-2.38,3.06-5.51,5.05-9.03,6.5c-1.47,0.61-2.96,1.21-4.48,1.66c-0.97,0.29-1,0.65-0.64,1.5
		c3.95,9.5,7.87,19.02,11.79,28.53C105.14,109.38,105.32,109.86,105.51,110.33z"/>
	<path class="st1" d="M282.17,56.46c1.9-1.1,3.68-2.32,5.65-3.19c7.3-3.21,14.47-3.23,21.14,1.49c4.65,3.29,6.88,8.26,7.87,13.69
		c2.4,13.07-1.37,24.5-9.86,34.45c-4.31,5.05-9.84,8.28-16.54,9.03c-6,0.68-11.72-0.15-16.62-4.11c-0.55-0.45-1.03-1-1.48-1.56
		c-0.44-0.55-0.8-1.17-1.33-1.96c-0.45,1.82-0.91,3.46-1.26,5.11c-0.17,0.79-0.47,1.1-1.34,1.09c-4.96-0.05-9.91-0.05-14.87,0
		c-0.98,0.01-1.11-0.26-0.91-1.15c5.25-23.36,10.49-46.72,15.72-70.08c0.51-2.3,1.04-4.59,1.5-6.9c0.14-0.72,0.43-0.95,1.18-0.95
		c5.24,0.03,10.47,0.04,15.71,0c0.9-0.01,0.95,0.28,0.77,1.04c-1.78,7.62-3.52,15.24-5.28,22.86
		C282.16,55.67,282.02,56,282.17,56.46z"/>
	<path class="st2" d="M140.61,103.68c-3.21,4.98-8.11,7.17-13.68,8.11c-3.56,0.6-7.17,0.58-10.7-0.34
		c-6.71-1.75-11.02-7.08-11.4-14.02c-0.5-9.06,4.46-16.37,13.35-19.68c4.57-1.7,9.35-2.37,14.16-2.86
		c4.65-0.47,9.31-0.73,13.98-0.97c0.45-0.02,0.85-0.02,0.99-0.62c0.41-1.71,0.9-3.4,0.94-5.17c0.06-2.92-1.25-4.8-4.02-5.65
		c-2.67-0.81-5.36-0.8-8.02,0.08c-3.08,1.01-4.82,3.32-5.7,6.31c-0.3,1.01-0.77,1.27-1.76,1.23c-5.03-0.21-10.06-0.36-15.08-0.54
		c-0.36-0.01-0.95,0.24-0.71-0.62c1.76-6.39,5.02-11.61,11.16-14.69c3.48-1.74,7.18-2.64,11.02-3c5.67-0.54,11.33-0.64,16.93,0.61
		c3.48,0.77,6.73,2.09,9.31,4.64c3.73,3.67,4.43,8.3,3.78,13.2c-0.87,6.57-2.7,12.96-4.08,19.44c-1.23,5.77-2.57,11.53-3.84,17.29
		c-0.23,1.02-0.25,2.07,0.05,3.09c0.21,0.7,0.08,1-0.74,1c-5-0.03-9.99-0.02-14.99-0.01c-0.57,0-0.82-0.21-1.01-0.76
		c-0.53-1.49-0.16-2.92,0.11-4.37c0.07-0.39,0.13-0.78,0.19-1.18C140.87,103.98,141.15,103.64,140.61,103.68z"/>
	<path class="st2" d="M350.79,103.2c-1.08,1.01-1.89,1.81-2.75,2.56c-5.87,5.06-12.58,6.4-19.91,4.16
		c-7.21-2.21-10.91-8.46-9.7-15.91c1.29-7.92,3.35-15.68,5.02-23.52c1.19-5.58,2.49-11.13,3.71-16.71c0.15-0.7,0.35-1,1.14-0.99
		c5.16,0.04,10.31,0.04,15.47,0c0.98-0.01,0.97,0.32,0.79,1.11c-2.49,11.01-4.95,22.03-7.4,33.05c-0.44,1.96-0.63,3.95-0.19,5.94
		c0.62,2.8,2.52,4.39,5.4,4.54c4.66,0.24,8.55-2.15,10.61-6.54c1.5-3.21,2.18-6.66,2.95-10.09c2.03-9.03,4.04-18.06,6.04-27.1
		c0.14-0.64,0.36-0.92,1.08-0.91c5.2,0.03,10.39,0.03,15.59,0.01c0.71,0,0.83,0.13,0.67,0.86c-2.39,10.5-4.74,21.02-7.1,31.53
		c-1.8,8.02-3.63,16.03-5.41,24.06c-0.2,0.91-0.47,1.31-1.53,1.29c-4.99-0.07-9.99-0.05-14.99-0.02c-0.83,0-1.13-0.12-0.88-1.06
		C349.91,107.49,350.28,105.5,350.79,103.2z"/>
	<path class="st2" d="M406.71,50.78c6.72,0.08,12.96,1.1,18.56,4.63c3.45,2.17,6.16,5.04,8.14,8.62c0.38,0.69,0.3,0.99-0.42,1.34
		c-3.81,1.84-7.6,3.71-11.37,5.61c-0.65,0.33-0.95,0.21-1.33-0.36c-2.07-3.06-4.67-5.45-8.38-6.38c-2.99-0.74-5.99-0.97-9-0.17
		c-1.14,0.3-2.16,0.84-2.88,1.82c-1.22,1.64-0.93,3.66,0.72,4.85c1.45,1.04,3.15,1.52,4.84,2c5.14,1.45,10.3,2.87,15.09,5.33
		c3.1,1.59,5.96,3.54,7.56,6.75c2.88,5.76,2.12,11.34-1.42,16.54c-3.55,5.21-8.76,8.07-14.74,9.56c-8.53,2.12-17.01,2.04-25.28-1.25
		c-5.95-2.37-10.24-6.66-13.5-12.09c-0.29-0.48-0.14-0.63,0.3-0.85c4.45-2.17,8.89-4.35,13.31-6.56c0.6-0.3,0.81-0.13,1.08,0.39
		c3.27,6.29,8.95,7.83,15.41,7.74c1.8-0.03,3.57-0.38,5.24-1.1c1.67-0.71,3.02-1.77,3.09-3.74c0.07-1.92-1.16-3.08-2.72-3.9
		c-2.21-1.16-4.66-1.64-7-2.42c-4.12-1.38-8.34-2.51-12.17-4.61c-4.59-2.5-7.72-6.18-8.47-11.5c-0.78-5.52,1.38-10.02,5.31-13.72
		c4.06-3.82,9.12-5.43,14.52-6.18C403.12,50.86,405.04,50.85,406.71,50.78z"/>
	<path class="st3" d="M140.61,103.68c0.04-0.2,0.21-0.49,0.31-0.39c0.3,0.28,0.11,0.61-0.07,0.91
		C140.77,104.03,140.69,103.85,140.61,103.68z"/>
	<path class="st4" d="M300.01,75.21c-0.2,6.22-1.56,11.9-4.87,17c-1.32,2.03-2.94,3.79-5.06,5.01c-5.95,3.45-12.96,0.37-14.48-6.34
		c-1.02-4.54-0.05-8.89,1.33-13.17c1.32-4.07,3.23-7.83,6.49-10.73c2.44-2.16,5.27-3.35,8.58-2.8c4.45,0.73,7.33,3.95,7.82,8.6
		C299.93,73.66,299.96,74.53,300.01,75.21z"/>
	<path class="st4" d="M128.85,99.83c-0.46-0.06-1.26-0.11-2.04-0.26c-4.21-0.81-6.08-5.24-3.75-8.87c1.34-2.09,3.39-3.22,5.63-4.05
		c3.98-1.47,8.16-1.79,12.35-1.94c0.92-0.03,1.84-0.02,2.75-0.04c0.41-0.01,0.73,0.04,0.6,0.58c-1.39,5.83-3.74,10.98-9.73,13.49
		C132.92,99.48,131.08,99.79,128.85,99.83z"/>
</g>
</svg>
