<?xml version="1.0" encoding="utf-8"?>
<!-- Generator: Adobe Illustrator 26.1.0, SVG Export Plug-In . SVG Version: 6.00 Build 0)  -->
<svg version="1.1" id="Laag_1" xmlns="http://www.w3.org/2000/svg" xmlns:xlink="http://www.w3.org/1999/xlink" x="0px" y="0px"
	 viewBox="0 0 771 324" style="enable-background:new 0 0 771 324;" xml:space="preserve">
<style type="text/css">
	.st0{fill:#FFFFFF;}
	.st1{fill:#555454;}
	.st2{fill:#E10C1D;}
	.st3{fill:#575656;}
	.st4{fill:#575756;}
	.st5{fill:#585757;}
	.st6{fill:#565656;}
	.st7{fill:#535353;}
	.st8{fill:#585858;}
	.st9{fill:#595858;}
	.st10{fill:#575757;}
	.st11{fill:#535252;}
	.st12{fill:#565555;}
	.st13{fill:#E10E1E;}
	.st14{fill:#555554;}
	.st15{fill:#E00E18;}
	.st16{fill:#5B5B5B;}
	.st17{fill:#525252;}
	.st18{fill:#4D4D4D;}
	.st19{fill:#4E4D4D;}
	.st20{fill:#515050;}
	.st21{fill:#4D4C4C;}
	.st22{fill:#4F4E4E;}
	.st23{fill:#FFFDFC;}
	.st24{fill:#494949;}
	.st25{fill:#E00C18;}
	.st26{fill:#505050;}
	.st27{fill:#4F4F4F;}
	.st28{fill:#FBFBFB;}
	.st29{fill:#504F4F;}
	.st30{fill:#5A5A5A;}
	.st31{fill:#4E4E4E;}
	.st32{fill:#4B4A4A;}
	.st33{fill:#4C4B4B;}
	.st34{fill:#4B4B4B;}
	.st35{fill:#4C4C4C;}
	.st36{fill:#4A4A4A;}
	.st37{fill:#484747;}
	.st38{fill:#50504F;}
	.st39{fill:#4A494A;}
	.st40{fill:#4A4949;}
	.st41{fill:#484848;}
	.st42{fill:#515151;}
	.st43{fill:#464545;}
	.st44{fill:#454545;}
	.st45{fill:#434342;}
	.st46{fill:#4B4A4B;}
	.st47{fill:#E00D17;}
	.st48{fill:#FCFCFD;}
	.st49{fill:#EAE9EA;}
	.st50{fill:#EEEEEE;}
	.st51{fill:#CAC8C9;}
</style>
<g>
	<path class="st0" d="M385.5,324c-127.17,0-254.33,0-381.5,0c-4,0-4,0-4-4C0,214.67,0,109.33,0,4c0-4,0-4,4-4
		c254.33,0,508.67,0,763,0c4,0,4,0,4,4c0,105.33,0,210.67,0,316c0,4,0,4-4,4C639.83,324,512.67,324,385.5,324z"/>
	<path class="st1" d="M167.96,142.99c0,2.34,0,4.68,0,7.02c-1.22,1.85,0.28,4.09-0.85,5.96c-8.84,1.14-17.71,0.22-26.56,0.5
		c-2.47,0.08-4.94,0.02-7.4,0.01c-2.75,0.31-2.67,2.36-2.66,4.36c0.02,4.72-0.06,9.45,0.04,14.17c0.3,0.83,0.77,1.45,1.75,1.49
		c0.57,0.01,1.13,0.01,1.71,0.01c0.59,0,1.17,0,1.75,0c11.46,0,22.92,0,34.37,0c0.5,0,1.01-0.06,1.24,0.55
		c0.03-0.81-0.57-0.57-0.98-0.57c-11.46-0.01-22.91-0.01-34.36-0.01c-0.56,0-1.13,0-1.69,0c-0.54,0-1.1,0-1.64,0
		c-0.55,0.03-1.07-0.1-1.54-0.39c-0.52-0.41-0.54-0.85-0.05-1.3c10.96,0.66,21.93,0.13,32.89,0.29c1.99,0.03,4,0.16,5.98-0.03
		c3-0.28,4.78,0.78,5.1,3.89l-0.01-0.02c1.31,1.49,1.95,3.35,2.76,5.11c-0.13,0.45,0.02,0.74,0.48,0.86
		c1.26,1.14,1.97,2.62,2.58,4.16l-0.31,0.25l0.36-0.18c2,2.42,4,4.85,6.01,7.27c1.06,1.27,0.49,1.65-0.85,1.65c-1,0-2,0.01-3,0.01
		c-23.3,0-46.6,0-69.9,0c-0.67,0-1.34-0.07-2,0.01c-2.54,0.32-3.23-0.98-2.99-3.23c0.09-0.82,0.01-1.66,0.01-2.49
		c0-30.62,0-61.25,0-91.87c0-1,0.07-2-0.01-2.99c-0.17-1.97,0.72-2.64,2.63-2.6c3.83,0.09,7.66,0.03,11.48,0.03
		c20.14,0,40.28,0,60.41,0c1.16,0,2.33-0.01,3.49,0.01c1.64,0.03,1.54,0.71,0.66,1.74c-1.83,2.14-3.62,4.31-5.43,6.47
		c-0.29,0.22-1.2-0.02-0.62,0.84c-1.94,3.35-3.87,6.7-5.81,10.06l0-0.01c-0.4,3.35-2.43,4.01-5.54,3.98
		c-12.76-0.11-25.52,0.02-38.28,0.06c-0.98,5.66-1.61,11.31,0.35,16.91c6.71,1.21,13.47,0.45,20.2,0.48
		c5.41,0.02,10.86,0.73,16.24-0.46c1.74,1.37,0.71,2.84,0.14,4.3c-0.33-0.14-0.42-0.61-0.55-0.66c-0.9-0.34-0.1,0.2-0.1,0.26
		C167.65,140.25,167.06,141.71,167.96,142.99z"/>
	<path class="st1" d="M541.05,197.01c-0.34,1.42-1.51,1.03-2.41,1.03c-20.83,0.02-41.65-0.03-62.48,0.07
		c-2.66,0.01-3.36-0.85-3.35-3.41c0.07-32.16,0.06-64.31,0.02-96.47c0-2.07,0.1-3.39,2.85-3.38c20.16,0.11,40.32,0.06,60.48,0.06
		c0.81,0,1.7-0.07,1.86,1.08c-1.17,4.89-0.21,9.87-0.55,14.79c-0.12,1.8,0.42,3.65-0.45,5.38c-12.41,0.72-24.82,0.11-37.23,0.33
		c-0.44,0.01-1.11-0.34-1.1-0.26c0.12,1.24,0.89,0.22,1.25,0.22c12.09,0.07,24.19,0.05,36.28,0.06c0.64-0.05,1.23,0.11,1.75,0.48
		c-1.15,1.9-2.98,0.87-4.46,0.88c-11.28,0.09-22.57,0.03-33.85,0.06c-3.74,0.01-3.8,0.06-3.79,3.79c0.01,4.31,0.12,8.62,0.19,12.93
		c1.26,1.69,3.06,0.77,4.58,0.82c11.09,0.36,22.21-0.53,33.29,0.5c0.9,7.03,0.82,14.05,0.04,21.08c-0.33,0-0.66,0-0.98,0
		c-5.75-1.22-11.56-0.47-17.34-0.51c-6.81-0.04-13.63-0.5-20.42,0.3c-1.72,5.17-0.3,10.49-0.76,15.73c-0.01,0.1-0.4,0.63,0.24,0.46
		c-0.2-0.21-0.24-0.51-0.23-0.88c0.2-4.98-0.41-9.98,0.34-14.94c0.47-0.57,0.96-0.59,1.47-0.05c-0.98,5.29-0.21,10.62-0.44,15.93
		c-0.07,1.53,0.74,2.01,2.14,2c3.16-0.03,6.33,0,9.49,0c9.82,0,19.65-0.04,29.47,0.05c1.33,0.01,2.99-0.84,4.01,0.86
		c-0.53,0.37-1.12,0.53-1.77,0.48c-13.13,0.01-26.26,0-39.4,0.05c-0.39,0-1.19-0.94-1.37,0.29c0.53-0.12,1.01-0.33,1.59-0.32
		c13.29,0.16,26.58-0.28,39.87,0.25c1.2,4.81,0.22,9.7,0.58,14.54C540.64,193.2,539.92,195.2,541.05,197.01z"/>
	<path class="st1" d="M55.99,118.01c-4.33-1.23-8.66-1.4-13.01-0.08c-0.42-0.23-0.73-0.14-0.9,0.32c-0.66,0.46-1.37,0.86-1.97,1.39
		c-2.89,2.56-2.77,4.91,0.34,7.22c0.52,0.39,1.05,0.74,1.58,1.11c0,0-0.01,0-0.01,0c2.47,0.62,4.93,1.25,7.07,2.73
		c0.16,0.46,0.47,0.56,0.9,0.35c5.84,1.92,11.55,4.16,17.07,6.9l-0.02-0.01c3.13,1.04,6.51,1.56,9.01,4.01l-0.02-0.01
		c3.14,1.07,5.25,3.33,6.96,6.05c-0.18,0.23-0.16,0.44,0.07,0.63c0.13,0.19,0.29,0.36,0.48,0.49c0-0.01,0.34-0.06,0.34-0.06
		c1.67,1.62,2.68,3.6,3.21,5.85l-0.01-0.02c3.93,10.22,3.4,19.96-3.11,29.06l-0.01,0.02c-0.71,1.76-2,3.02-3.48,4.13
		c-0.78,0.09-1.23,0.52-1.37,1.29c-0.48,0.83-1.12,1.45-2.1,1.64c-0.34-0.03-0.66,0.05-0.93,0.27c-0.5,0.21-0.79,0.59-0.96,1.09
		c-1.44,1.4-3.25,2.07-5.12,2.6l0,0c-0.47,0.75-1.15,1.04-2.01,0.94c-0.42-0.24-0.73-0.16-0.91,0.31
		c-3.21,1.46-6.48,2.71-10.09,2.72c-0.91-0.8-1.89-0.43-2.86-0.15c-2.83,0.32-5.66,0.15-8.49,0.12c-1.21-0.08-2.43-0.98-3.64,0.02
		c-3.61,0-6.86-1.29-10.08-2.73c-0.19-0.46-0.5-0.56-0.92-0.29c-0.86,0.09-1.55-0.17-2.01-0.93l0,0c-2.12-0.71-4.26-1.39-5.89-3.07
		l0.14-0.34l-0.21,0.31c-1.59-0.63-2.9-1.61-3.94-2.96l0.22-0.32l-0.28,0.27c-2.72-2.08-4.77-4.67-5.95-7.92
		c0.17-0.44,0.04-0.74-0.43-0.87c-3.97-7.64-3.93-7.74,4.05-10.24c1.08-0.34,2.07-1.02,3.29-0.85c0.7,0.75,0.69-0.04,0.87-0.41
		c3.12-1.91,6.68-2.59,10.13-3.59c0.33,0.34,0.64,0.68,1.01,0.97c0.25,4.62,3.22,7.11,7,8.98l-0.01,0c6.99,2.24,13.98,2.45,20.98,0
		l-0.01,0c3.03-1.71,5.98-3.5,6.85-7.25c0.91-0.77,0.92-1.03,0.04-1.49c-0.83-1.7-1.43-3.55-3.01-4.78
		c-0.19-0.34-0.08-1.15-0.86-0.53c-2.47-0.69-4.95-1.34-7.08-2.88l0.02,0.01c-4.84-1.52-9.5-3.5-14.06-5.7
		c-0.2-0.36-0.22-1.15-0.89-0.37c-0.86,0.07-1.59-0.15-2.06-0.94l0.02,0.01c-3.87-1.01-7.51-2.62-11.04-4.45
		c-6.4-3.33-10.6-8.36-11.87-15.61c0.39-0.35,0.64-1.1,0.49-1.26c-0.46-0.47-0.17,0.57-0.61,0.43c-1.39-4.13-1.4-8.26-0.05-12.4
		c1.05-0.09,0.16-0.49,0.12-0.75c0.79-5.15,3-9.51,7.08-12.85l0.33,0.27l-0.25-0.34c0.91-1.5,2.29-2.4,3.89-3l0.21,0.29l-0.17-0.32
		c1.52-1.85,3.64-2.58,5.85-3.13l-0.02,0.01c0.47-0.8,1.21-1,2.07-0.96l-0.01,0c2.48-1.46,5.17-2.06,8.02-2.01
		c0.63,0.22-0.25,0.08,0.35,0.33c0.74,0.31,1.51,0.11,2.25,0.29c-0.63-0.28-1.49,0.07-1.92-0.74c3.87-1.21,7.73-1.24,11.59,0.03
		c-0.43,0.78-1.29,0.42-1.9,0.72c0.87-0.24,1.89,0.2,2.63-0.6c10.38,1.19,18.98,5.24,24.04,14.98l-0.01-0.01
		c0.83,0.41,1.05,1.25,1.35,2c1.38,3.46,1.4,3.54-2.24,4.95c-5.09,1.96-10.23,3.81-15.37,5.65c-0.95,0.34-2.19,1.32-2.86-0.47
		l0.01,0.02C59.84,120.05,57.8,119.17,55.99,118.01L55.99,118.01z"/>
	<path class="st1" d="M676.1,114.05c2.65-3.99,5.97-7.29,9.96-9.94l0.26,0.31l-0.19-0.36c12.77-10.16,27.27-12.71,42.97-9.58
		c2.7,0.54,5.59,0.73,7.95,2.46l-0.02-0.01c0.86-0.06,1.6,0.16,2.06,0.97l-0.02-0.01c6.39,1.95,11.28,6.14,16,10.61
		c1.31,1.23,1.05,2.17-0.1,3.31c-4.38,4.32-8.73,8.65-13.03,13.05c-1.02,1.04-1.78,1.26-2.83,0.12c-2.87-3.07-6.55-4.98-10.18-6.94
		l0.02,0.01c-7.3-2.42-14.61-2.45-21.92-0.04l0.01,0c-3.46,1.63-6.51,3.9-9.63,6.08c-0.72,0.14-1.15,0.56-1.29,1.28
		c-1.86,2.92-4.19,5.49-5.61,8.75c-6.53,15.03-0.65,31.86,13.93,39.49c0.58,0.3,1.11,0.67,1.67,1.01c0.2,0.34,0.18,1.16,0.88,0.41
		c6.55,2.11,13.19,2.14,19.88,0.83l-0.01,0c0.51-0.79,1.28-0.92,2.13-0.88l0,0c2.6-1.73,5.52-2.88,7.95-4.93
		c3.74-3.16,3.83-3.06,7.41,0.55c3.14,3.18,6.27,6.37,9.41,9.55c2.95,2.98,2.98,3.08,0,5.79c-0.84,0.77-1.84,1.37-2.77,2.05
		l-0.34-0.12c0,0-0.3,0.19-0.3,0.19c-0.2,0.13-0.36,0.29-0.48,0.5c0.01,0,0.06,0.34,0.06,0.34c-6.69,5.56-14.35,8.87-22.97,9.96
		c-0.84-0.59-1.8-0.34-2.72-0.38c-0.37-0.01-0.78-0.11-1.12,0.14c0.5-0.11,0.87,0.09,1.14,0.5c-4.18,1.14-8.37,1.14-12.55,0.01
		c0.3-0.41,0.73-0.57,1.22-0.61c0.54-0.04,1.07,0.02,1.59,0.18c-0.36-0.42-0.84-0.24-1.26-0.21c-1.42,0.11-2.89-0.38-4.24,0.39
		c-4.34-0.49-8.54-1.46-12.36-3.71c0.34-0.27,0.37-0.45,0.09-0.53c-0.28-0.08-0.53,0-0.74,0.26c-2.55-0.91-5.05-1.91-6.97-3.95
		l-0.02-0.02c-1.19-0.37-2.25-0.92-2.95-2l-0.04-0.02c-3.97-2.68-7.31-5.98-9.94-9.99l0.29-0.26l-0.33,0.2
		c-2.67-2.9-4.82-6.1-5.97-9.91c0.45-0.5,0.37,0.31,0.3-0.35c-0.04-0.32-0.4-0.48-0.75-0.51c-2.04-3.44-3.06-7.2-3.55-11.14
		c0.39-0.52,0.54-1.14,0.4-1.74c-0.15-0.64-0.85-0.7-0.35-0.26c0.5,0.44-0.97,0.31-0.31,0.36c-1.44-5.88-1.42-11.75-0.01-17.63
		c0.66,0.12-0.1,0.64,0.37,0.17c0.36-0.35,0.01-0.64-0.26-0.89c0.51-4.58,1.53-9,4.09-12.94l0.01-0.03
		c1.04-3.89,3.42-6.97,6.02-9.91l0.34,0.18L676.1,114.05z"/>
	<path class="st1" d="M262.07,96.92c4.8,1.41,9.07,3.75,12.76,7.15c-0.02,0.26,0.07,0.47,0.27,0.63c0.09,0.25,0.27,0.37,0.54,0.37
		c0,0,0.35-0.05,0.35-0.05c6.3,4.6,6.31,4.62,1.11,9.89c-3.24,3.29-6.61,6.45-9.78,9.81c-1.18,1.25-1.97,1.46-3.17,0.15
		c-2.84-3.08-6.56-4.87-10.16-6.85l0.01,0c-7.97-2.47-15.81-2.62-23.55,1.01c-3.18,1.49-5.73,3.8-8.52,5.79l-0.34-0.26l0.24,0.35
		c-2.6,3.15-4.91,6.48-6.81,10.1l0,0c0.04,0.85-0.13,1.61-0.91,2.11l0.01-0.02c-1.48,7.04-1.5,14.03,0.82,20.92
		c-0.21,0.44-0.08,0.73,0.38,0.89c1.87,3.27,4.06,6.32,6.49,9.2l-0.23,0.33l0.33-0.22c3.07,2.71,6.53,4.82,10.1,6.79l0,0
		c6.56,2.09,13.2,2.2,19.91,0.91l-0.02,0.01c0.51-0.76,1.27-0.92,2.12-0.87c0.7,0.74,0.68-0.07,0.88-0.41
		c2.71-1.59,5.47-3.09,7.9-5.11c2.99-2.48,3.01-2.48,5.89,0.37c3.54,3.51,7.08,7.03,10.57,10.58c2.45,2.49,2.51,2.97,0.01,5.17
		c-1.34,1.18-2.5,2.67-4.28,3.32l-0.01,0.01c-0.71,1.08-1.76,1.68-2.98,2l-0.01,0.01c-5.88,4.64-12.68,6.94-20.01,7.9
		c-0.83-0.61-1.79-0.36-2.7-0.4c-0.36-0.01-0.76-0.13-1.1,0.15c0.5-0.11,0.86,0.1,1.12,0.51c-4.19,1.13-8.37,1.13-12.56-0.02
		c0.44-0.52,0.89-0.86,1.46-0.15c-0.2-0.4-0.55-0.53-0.97-0.5c-1.07,0.09-2.19-0.28-3.19,0.39c-8.25-1.11-15.69-4.12-22.15-9.43
		c-0.22-0.29,0.01-1.19-0.84-0.62c-3.89-2.67-7.2-5.92-9.79-9.88c0.05-0.46-0.14-0.74-0.6-0.83c-1.28-1.11-2.16-2.48-2.68-4.09
		l0.01,0.01c-3.95-5.39-6.05-11.49-6.89-18.06c0.41-0.53,0.53-1.16,0.4-1.78c-0.14-0.65-0.77-0.81-0.32-0.31s-0.94,0.27-0.29,0.39
		c-1.35-5.19-1.34-10.37,0-15.56c0.92,0.81,0.69,1.77,0.36,2.75c0.7-0.98,0.14-2.07,0.27-3.1c0.06-0.48-0.08-0.97-0.44-1.35
		c2.22-15.04,10.47-26.2,22.53-34.85c2.53-1.81,5.09-3.74,8.32-4.26l-0.02,0.01c4.29-2.81,9.17-3.44,14.11-3.9
		c4.67,0.11,9.33,0.14,14-0.02c4.23,0.14,8.29,0.99,12.09,2.94L262.07,96.92z"/>
	<path class="st1" d="M332.98,175.12c8.23,3.11,15.9,1.89,23.08-3.01l0.26,0.29l-0.2-0.34c1.09-1.54,2.39-2.88,3.94-3.96l0.32,0.2
		l-0.28-0.25c0.86-1.38,1.72-2.77,2.57-4.15c0.34-0.05,0.62-0.21,0.72-0.54c0.07-0.21-0.09-0.35-0.3-0.35
		c1.12-3.99,1.61-8.05,1.59-12.21c-0.03-7.27,0.13-14.53,0.21-21.8c6.99-0.88,13.98-0.66,20.98-0.11c1.33,5.87,0.29,11.82,0.6,17.73
		c0.26,4.78-0.47,9.58,0.39,14.35c-0.2,3.55-1.08,6.91-2.69,10.08c-0.31,0.13-0.45,0.31-0.43,0.55c0.02,0.26,0.07,0.38,0.15,0.38
		c-0.93,2.54-2.02,5-3.87,7.03l0,0c-3.23,5.44-7.55,9.79-12.97,13.05l0.02-0.01c-1.4,1.49-3.22,2.25-5.08,2.91l-0.02,0.01
		c-0.44,0.75-1.09,1.09-1.96,1c-0.6-0.72-0.69-0.02-0.9,0.33c-2.9,1.34-5.85,2.54-9.12,2.62c-0.4-0.34-0.87-0.41-1.37-0.43
		c-0.99-0.03-1.98,0.03-2.96-0.04c0.82,0.36,1.9-0.33,2.56,0.65c-3.84,1.23-7.68,1.19-11.53,0.07c0.29-0.42,0.7-0.58,1.19-0.64
		c0.55-0.06,1.08,0.06,1.61,0.15c-0.36-0.41-0.84-0.22-1.24-0.18c-1.4,0.11-2.87-0.38-4.21,0.39c-3.93-0.5-7.7-1.48-11.12-3.57
		c-0.14-0.45-0.43-0.6-0.88-0.45c-1.84-0.67-3.65-1.41-4.95-2.97c0,0,0.09-0.35,0.09-0.35c-0.16-0.18-0.34-0.35-0.54-0.49
		c0,0-0.31-0.18-0.31-0.18l-0.32,0.16c-1.19-0.36-2.18-1.01-2.81-2.12l0.21-0.36l-0.31,0.28c-1.67-0.94-2.95-2.27-3.92-3.91
		l0.26-0.33l-0.34,0.25c-4.31-4.14-7.68-8.87-9.16-14.76l0.01,0.02c-2.17-3.32-2.79-7.13-2.83-10.91
		c-0.17-20.49-0.12-40.98-0.23-61.47c-0.01-2.2,0.72-2.88,2.87-2.84c5.66,0.12,11.33,0.18,16.99-0.02c2.8-0.1,3.25,1.06,3.24,3.5
		c-0.08,17.66,0.03,35.32-0.09,52.98c-0.03,4.72,0.44,9.27,2.1,13.69l0,0.01c2.85,3.77,6.06,7.17,10.1,9.7
		C332.24,175.17,332.53,175.32,332.98,175.12z"/>
	<path class="st1" d="M443.99,176.01c2.39,4.84,4.58,9.75,6.02,14.98l0-0.01c0.76,0.47,1.01,1.17,0.94,2.03
		c-0.23,0.22-0.34,0.33-0.34,0.33c0.13,0.33,0.37,0.52,0.72,0.55c0.73,0.53,0.78,1.28,0.7,2.08l-0.01-0.02
		c0.73,0.82,1.31,1.97-0.33,2.01c-7.12,0.15-14.24,0.07-21.36,0.09c-1.36,0.01-2.02-0.66-2.53-1.88c-1.4-3.35-3.03-6.6-3.82-10.17
		l0,0c-2.71-5.51-5.12-11.15-6.94-17.02c0.47-0.47,0.34,0.33,0.32-0.34c-0.01-0.33-0.36-0.51-0.72-0.54
		c-0.32-0.56-0.7-1.1-0.94-1.69c-2.87-7.05-1.11-5.89-9.17-6.02c-2.31-0.04-4.63-0.01-6.94,0c-1.04,0-2.28-0.19-2.24-1.38
		c0.23-6.97-1.07-14,0.68-20.92c0.87,0.6,1.96,0.43,2.9,0.8c6.12,0.24,12.25,0.05,18.36,0.1c0.62-0.2,1.77,0.22,1.41-1.18
		c7.22-2.91,9.41-6.25,8.43-12.45c-0.28-1.73-1.37-2.95-2.01-4.44l0.27-0.3l-0.32,0.24c-2.82-2.32-6.03-3.04-9.7-3.01
		c-15.96,0.14-31.92,0.09-47.88,0.02c-1.51-0.01-3.32,0.88-4.57-0.83c0.85-0.72,1.89-0.53,2.87-0.53c16.31-0.01,32.63,0,48.94-0.02
		c0.6,0,1.14,0.15,1.71,0.28c-0.38-1.28-1.24-0.23-1.74-0.23c-15.65-0.09-31.29-0.09-46.94-0.04c-1.61,0.01-3.33-0.57-4.82,0.57
		c-1.25-6.72-0.25-13.51-0.55-20.26c-0.05-1.17,0.54-1.86,1.76-1.89c0.83-0.02,1.66-0.02,2.49-0.02c17.11,0,34.22-0.02,51.33,0.01
		c3.8,0.01,7.62,0.05,11.06,2.06l-0.01,0c0.87-0.07,1.57,0.21,2.04,0.98l-0.02-0.01c6.23,2.19,10.55,6.59,13.97,12.04
		c0,0-0.03,0.48-0.03,0.48c0.12,0.31,0.31,0.57,0.58,0.76c0.12,0.33,0.33,0.56,0.65,0.7c5.12,8.74,5.6,17.8,1.87,27.15l0.01-0.02
		c-0.11,1.55-0.74,2.87-1.73,4.04c-0.35,0.03-0.64,0.2-0.74,0.54c-0.06,0.21,0.11,0.34,0.32,0.34c-2.27,4.57-5.56,8.19-9.99,10.76
		c-0.44-0.09-0.73,0.08-0.86,0.51c-1.12,1.22,0.06,2.48-0.06,3.72l0-0.01c2.46,4.81,4.61,9.75,6.04,14.98l-0.01-0.02
		C443.86,174.4,444.03,175.15,443.99,176.01L443.99,176.01z"/>
	<path class="st1" d="M624.99,198.03c-1.47-0.25-1.1-1.43-1.1-2.32c-0.02-21.94,0.02-43.87-0.06-65.81
		c-0.01-2.43,0.77-3.13,3.13-3.08c6.15,0.14,12.3,0.13,18.44,0.01c2.22-0.04,2.81,0.8,2.8,2.89c-0.12,22.43-0.17,44.85-0.24,67.28
		c-5.86,1.05-11.78,0.18-17.67,0.5C628.52,197.6,626.67,196.98,624.99,198.03z"/>
	<path class="st2" d="M601.99,139.96c-2.9,4.97-6.37,9.53-10.03,13.95l-0.34-0.17l0.31,0.23c-0.8,1.9-1.83,3.37-4.27,3.33
		c-8.22-0.15-16.45-0.19-24.67-0.27c-0.28-0.6-0.32-1.22-0.1-1.85c0.26-4.47,0.16-8.95,0.09-13.42c-0.05-3.26,1.19-5.05,4.56-5.09
		c10.11-0.11,20.22-0.18,30.34,0.05C599.89,136.76,601.94,137.2,601.99,139.96z"/>
	<path class="st2" d="M647.97,95.99c0.07,6.81,0.08,13.62,0.26,20.43c0.06,2.31-0.98,2.74-2.99,2.71c-6.15-0.09-12.31-0.09-18.46,0
		c-2.04,0.03-3-0.47-2.96-2.74c0.11-6.48,0.04-12.97,0.04-19.46c0-1.2-0.03-2.53,1.66-2.47c7.39,0.25,14.82-0.82,22.18,0.56
		c-6.57,1.02-13.18,0.19-19.76,0.48c-0.4,0.02-0.96-0.35-1.19,0.33c0.35,0,0.55-0.34,0.97-0.32
		C634.46,95.79,641.23,94.95,647.97,95.99z"/>
	<path class="st3" d="M620.2,223.58c0.87,0.61,1.5,1.39,1.72,2.46l-0.29,0.22l0.32-0.18c2.3,2.18,3.74,4.99,5.55,7.52
		c1.79,2.52,1.84,2.53,3.53,0.12c2.37-3.38,4.68-6.81,7.06-10.19c0.35-0.49,0.74-1.33,1.51-1c0.68,0.29,0.37,1.12,0.37,1.71
		c0.02,5.3,0,10.59,0.02,15.89c0.01,1.57,0.1,2.98-2.22,2.92c-2.03-0.06-1.86-1.31-1.96-2.66c-0.11-1.55,0.7-4.13-0.46-4.41
		c-1.53-0.37-1.86,2.32-3.02,3.44c-0.81,0.79-1.47,1.74-2.2,2.62c-0.35,0.25-0.71,0.47-1.09,0.68c-1.28-0.6-1.61-1.98-2.42-2.98
		c-1.09-1.34-1.72-3.09-3.43-3.89c-0.05,1.63-0.05,3.26-0.17,4.89c-0.19,2.67-0.67,2.81-3.97,1.24c0.98-4.54,0.16-9.13,0.47-13.69
		C619.64,226.72,618.93,225,620.2,223.58z"/>
	<path class="st4" d="M724.99,222.02c0.8,0.06,1.1,0.57,1.1,1.3c0.01,5.94,0.02,11.88,0,17.82c0,0.47-0.04,1.22-0.3,1.35
		c-0.68,0.32-1.18-0.33-1.65-0.75c-3.32-2.93-6.64-5.87-9.96-8.81c0.02-0.32-0.1-0.55-0.37-0.71c0,0-0.3-0.29-0.3-0.29
		s-0.41,0.01-0.41,0.01c-0.72,0.03-1.94-1.52-2.06,0.43c-0.17,2.76,0.03,5.54-0.09,8.3c-0.12,2.72-0.63,2.86-3.9,1.32
		c1.02-4.6,0.17-9.27,0.49-13.89c0.12-1.78-0.56-3.66,0.56-5.34c4.29,3.04,8.25,6.46,11.89,10.26l0,0c0.77,0.02,1.97,1.13,1.95-0.83
		c-0.03-2.61-0.03-5.22,0.02-7.83c0.02-0.87-0.39-2.04,1.05-2.3C723.68,222.63,724.34,222.62,724.99,222.02z"/>
	<path class="st5" d="M601.98,223.09c2.01,0.61,3.27,2,4.05,3.88l-0.01-0.01c0.24,0.05,0.48,0.09,0.73,0.11
		c2.32,3.64,2.44,7.25-0.2,10.8c-0.21,0.03-0.42,0.06-0.63,0.08c0,0-0.35-0.09-0.35-0.08c-0.21,0.14-0.38,0.31-0.51,0.52
		c-0.21,0.23-0.2,0.44,0.03,0.64c-0.8,1.71-2.16,2.69-3.98,3.06c-0.18-0.02-0.35-0.04-0.53-0.06c-0.55-0.02-1.08,0.1-1.59,0.3
		c-0.37,0.1-0.75,0.15-1.13,0.14c-0.96,0.09-1.99-0.26-2.84,0.47c-2.15,0.08-3.79-0.9-5.12-2.51c-0.13-0.78-0.58-1.23-1.38-1.33
		c-3.65-5.29-3.51-9.12,0.52-14.04l0.28,0.22l-0.26-0.26c0.52-1.3,1.55-1.89,2.87-2.1c0.17,0.14,0.34,0.28,0.51,0.42
		c0.24,0.6,0.22,1.31,0.72,1.82c0.45,0.48,1.02,0.9,0.95,1.68c-4.45,6.76-3.59,9.14,4.12,11.37c0.56,0.59,1.12,1.15,1.35-0.25
		c1.58-2.43,3.04-4.9,2.78-7.97c0.12-0.43,0.4-0.75,0.71-1.06c-0.26,0-0.35,0.31-0.61,0.34c-1.61-0.33-2.57-1.28-2.81-2.91
		c-0.44,0.05,1.08-0.85-0.16-0.35c-0.39,0.16-0.69,0.58-1.13,0.75c-1.34,0.37-2.66,0.44-3.9-0.32c-0.48-0.49-0.97-0.98-1.45-1.47
		c-0.31-0.73-0.04-1.33,0.4-1.9c0.36-0.28,0.77-0.47,1.21-0.58c1.52-0.75,3.04-0.19,4.56,0.03
		C600.14,222.5,600.82,224,601.98,223.09z"/>
	<path class="st6" d="M238,236c-4.38-1.62-4.44-1.52-4.74,2.68c-0.12,1.63,1.36,4.53-2.23,4.28c-3.03-0.21-1.72-2.74-1.77-4.27
		c-0.16-4.66-0.08-9.32-0.03-13.98c0.01-0.88-0.52-2.03,0.8-2.54c0.36,0.48,0.51,1.02,0.47,1.61c0.01,4.78-0.02,9.55,0.03,14.33
		c0.01,0.55-0.44,1.12,0.03,1.65c0.41-0.61-0.08-1.19-0.06-1.81c0.17-4.93-0.19-9.88,0.21-14.81c2.96-1.58,6.28,0.17,9.28-1
		c0.51-0.16,0.91-0.05,1.14,0.47c0.21,0.29,0.09,1.15,0.86,0.52c1.42,0.38,2.09,1.36,2.23,2.77c-0.32,1.7-0.22,3.42-0.11,5.13
		c0.18,2.02-2.68,2.77-2.09,4.96l0,0c1.27,1.02,1.36,2.63,1.8,3.99c0.28,0.86,1.88,2.2,0.17,2.84c-1.38,0.51-3.38,0.86-4.02-1.51
		c-0.3-1.11-0.66-2.19-1-3.29c0,0,0.01,0.01,0.01,0.01C238.21,237.57,237.93,236.87,238,236L238,236z"/>
	<path class="st7" d="M47.13,234.34c-0.03,2.16-0.1,4.31-0.09,6.47c0.01,1.32-0.25,2.2-1.87,2.24c-1.65,0.04-2.41-0.48-2.4-2.24
		c0.06-5.64,0.04-11.28,0.01-16.92c-0.01-1.43,0.52-2.09,2.02-2.07c1.34,0.02,2.3,0.26,2.22,1.88c-0.03,0.66-0.01,1.33,0.01,1.99
		c0.11,4.58,0.88,5.14,5.62,4.51c1.49-0.2,1.97-0.85,1.99-2.23c0.02-1.65,0.16-3.3,0.24-4.95c0.89-0.77,2.1-0.25,3.06-0.76
		c1.54,1.33,0.64,3.09,0.68,4.62c0.13,4.65,0.03,9.31,0.05,13.96c0.01,1.37-0.43,2.18-1.98,2.2c-1.48,0.01-2.02-0.62-2.09-2.07
		c-0.12-2.29,0.55-4.67-0.65-6.86C51.64,233,49.32,231.93,47.13,234.34z"/>
	<path class="st5" d="M120.05,231.76c-4.11-4.24-3.02-7.86,2.95-9.74c1.29,0.81,2.62,0.63,3.96,0.14c0.45,0.12,0.97,0.14,1.34,0.39
		c1.12,0.75,3.1,1.59,2.18,3c-0.74,1.14-2.76,2.47-4.44,0.43l-0.02-0.01c-4.11,0.09-4.22,0.2-3.03,3.03l0,0
		c1.4,0.46,2.81,0.87,4.18,1.4c4.17,1.61,5.74,3.52,5.5,6.6c-0.25,3.27-2.18,4.99-6.69,5.96c-0.99-0.7-1.99-0.7-2.98,0
		c-1.64,0.31-2.92-0.59-4.06-1.48c-1.06-0.83-2.89-1.8-1.59-3.47c0.89-1.14,2.5-1.66,3.89-0.22c1.15,1.18,2.6,1.35,4.13,1.16
		c1.38-0.17,2.73-0.69,2.97-2.18c0.23-1.46-1.23-1.71-2.23-2.2c-1.75-0.85-3.88-0.92-5.3-2.48
		C121.02,230.96,120.35,231.77,120.05,231.76z"/>
	<path class="st3" d="M665.11,233.38c-2.56,2.7-5.91,1.18-8.88,1.67c-1.19,2.26-0.98,4.59-0.33,6.94c-1.72,1.58-3.72,2.37-3.88-0.84
		c-0.31-6.08-0.05-12.19-0.01-18.29c0-0.63,0.54-0.7,1-0.83c2.99,0.79,5.98,0.75,8.98,0.02c5.93,1.81,7.2,4.71,4.43,10.05
		C665.7,232.24,665.26,232.66,665.11,233.38z"/>
	<path class="st5" d="M363.1,222.91c1.41,0.37,2.67,1.38,2.11,2.67c-0.43,0.98-2.16,1.75-3.46,1.16c-1.25-0.56-2.47-0.8-3.78-0.87
		c-0.19-0.2-0.43-0.29-0.72-0.26c-0.01,0-0.34,0.24-0.34,0.25c0,0.01,0.33,0.26,0.33,0.26c-0.45,0.91-0.47,1.82,0.07,2.71
		c-0.31,0.28-0.33,0.45-0.06,0.53c0.27,0.08,0.51-0.01,0.73-0.25c2.73,1.12,6.06,1.05,7.89,3.96l-0.3,0.29l0.36-0.22
		c2.09,2.26,1.96,4.55,0.09,6.86l0,0c-1.08,2-2.8,2.91-5.03,2.93c-0.83-0.73-1.85-0.36-2.78-0.46c-0.37,0.01-0.75-0.03-1.11-0.11
		c-0.51-0.19-1.03-0.34-1.59-0.35c-0.18,0.01-0.36,0.01-0.54,0.02c-1.76-0.74-4.21-1.83-3.04-3.8c1.36-2.29,3.61-1.1,5.14,0.71
		l-0.02-0.01c1.47-0.07,2.99,0.39,4.39-0.37c0.74-0.4,1.45-0.87,1.51-1.81c0.06-0.96-0.58-1.5-1.38-1.82c-1.68-0.68-3.39-1.3-5.07-2
		c-2.43-1.02-4.48-2.57-4.32-5.45c0.16-2.89,1.75-4.91,4.85-5.37c0.87,0.62,1.87,0.3,2.82,0.39c0.37,0,0.75,0.04,1.11,0.13
		c0.51,0.19,1.04,0.33,1.6,0.31C362.74,222.94,362.92,222.92,363.1,222.91z"/>
	<path class="st8" d="M489.11,226.37c-1.02,1.26-2.6,2.13-2.94,3.88c-0.49,2.53-0.42,4.98,1.69,6.87c2,1.79,4.31,2.41,6.89,1.53
		c0.77-0.26,1.45-0.93,2.23-1.05c1.38-0.22,1.98,0.96,2.54,1.94c0.57,1-0.28,1.52-0.97,1.92c-1.12,0.65-2.15,1.58-3.6,1.41
		c-1.15-0.7-2.42-0.26-3.63-0.39c-0.39,0.01-0.78-0.02-1.16-0.09c-0.53-0.18-1.06-0.36-1.63-0.38c-0.18,0-0.37,0-0.55,0
		c-5.92-3.23-8.03-9.48-5.05-14.97c2.9-5.32,9.77-7.23,14.99-4.1c0.89,0.53,2.48,0.86,1.42,2.49c-0.83,1.27-1.76,2.61-3.45,0.94
		c-0.14-0.37-0.38-0.66-0.72-0.85c-0.35-0.16-0.7-0.3-1.07-0.41c-0.93-0.16-1.87-0.12-2.81-0.07c-0.36,0.06-0.71,0.15-1.06,0.28
		C489.7,225.48,489.31,225.83,489.11,226.37z"/>
	<path class="st6" d="M71.05,241c-0.07-5.62-0.1-11.25-0.22-16.87c-0.04-1.68,0.55-2.4,2.29-2.35c2.81,0.08,5.63,0.06,8.44,0
		c1.6-0.03,2.42,0.43,2.41,2.24c-0.02,1.98-1.2,2.03-2.61,2c-1.32-0.02-2.65,0.04-3.97-0.01c-1.54-0.06-2.51,0.26-2.45,2.16
		c0.06,1.99,1.29,1.97,2.67,1.97c1.32,0,2.65,0,3.97,0.04c1.32,0.04,1.54,0.95,1.56,2.04c0.02,1.14-0.32,1.92-1.61,1.94
		c-0.83,0.01-1.66,0.01-2.48,0.03c-4.02,0.1-4.02,0.1-3.96,4.5c2.09,1.98,4.94-0.13,7.13,1.31c0.13,0.64-0.08,1.14-0.62,1.51
		C78.04,242.06,74.48,242.71,71.05,241z"/>
	<path class="st5" d="M291.77,223.81c0.25,1.75-0.73,2.12-2.33,2.25c-5.34,0.43-5.34,0.49-5.34,5.73c0,2.99-0.02,5.97,0,8.96
		c0.01,1.28-0.17,2.24-1.82,2.3c-1.74,0.06-2.34-0.64-2.31-2.33c0.07-3.81-0.15-7.64,0.07-11.44c0.16-2.71-0.89-3.38-3.41-3.33
		c-1.63,0.04-4.48,1.3-4.21-2.28c0.22-3.05,2.7-1.76,4.23-1.82c4.14-0.16,8.29-0.06,12.44-0.05
		C290.45,221.8,291.88,221.72,291.77,223.81z"/>
	<path class="st8" d="M175.86,242.14c-8.4-2.76-8.99-15.66-0.82-19.11c0.18-0.01,0.36-0.01,0.54-0.02c0.55-0.05,1.07-0.22,1.6-0.41
		c0.4-0.07,0.8-0.11,1.22-0.13c1.48-0.74,3.1,0.07,4.6-0.42c0.87-0.12,1.62,0.04,2.08,0.89l-0.02-0.01c1.09,0.32,2.6,0.61,2.13,2.06
		c-0.45,1.36-1.56,2.84-3.41,1.82c-3.97-2.2-6.97-0.65-9.73,2.22l0.01-0.01c-1.7,4.52,0.16,7.63,3.96,9.97h0
		c1.94-0.06,3.92,0.3,5.65-1.04c1.59-1.22,2.36,0.22,3.09,1.2c1.04,1.39-0.17,2.06-1.13,2.63c-1.11,0.65-2.2,1.49-3.63,1.16
		c-0.84-0.75-1.87-0.37-2.82-0.47c-0.38,0-0.76-0.04-1.13-0.13c-0.52-0.19-1.06-0.32-1.63-0.28
		C176.22,242.09,176.04,242.12,175.86,242.14z"/>
	<path class="st9" d="M382.98,236.03c1.1,0.94,2.19,1.88,3.29,2.81c-0.25,0.31-0.25,0.49,0.02,0.52c0.27,0.04,0.5-0.06,0.69-0.31
		c1.34-0.02,2.68-0.03,4.02-0.05l0.01,0c0.96-0.77,1.81-1.96,3.28-1.22c1.9,0.94,1.75,2.39-0.35,4.01c-1.28-0.62-2.25,0.46-3.4,0.61
		c-1.16,0.3-2.46-0.34-3.53,0.54c-5.29-1.37-8.44-4.6-8.95-9.15c-0.54-4.88,1.31-8.26,5.89-10.83c0.18,0.01,0.36,0.01,0.54,0.02
		c0.56-0.01,1.09-0.18,1.62-0.37c0.38-0.1,0.75-0.2,1.13-0.32c1.55-0.81,3.19,0.86,4.72-0.19c0.17-0.01,0.36-0.07,0.5-0.01
		c1.54,0.71,4,0.99,3.16,3.39c-0.83,2.37-2.67,1.3-4.54,0.73c-6.11-1.85-9.97,2.93-8.11,9.8L382.98,236.03z"/>
	<path class="st9" d="M744.1,225.8c0.41,0.5,0.88,0.96,1.22,1.5c0.74,1.19,1.46,1.77,2.44,0.22c0.89-1.4,1.89-2.72,2.73-4.15
		c0.91-1.57,2.32-1.66,3.86-1.58c1.26,0.07,1.91,0.45,1.06,1.77c-1.16,1.81-2.18,3.73-3.51,5.41c-2.38,2.99-3.64,6.23-3.11,10.09
		c0.11,0.81,0.02,1.66-0.04,2.48c-0.1,1.34-1.07,1.45-2.12,1.48c-1.22,0.04-2.05-0.56-1.81-1.73c1.33-6.47-2.5-10.97-5.76-15.74
		c-0.69-1-2.26-2.62-1.44-3.25c1.35-1.05,3.46-1.08,4.83,0.7c0.5,0.64,0.87,1.38,1.29,2.07C743.75,225.37,742.98,226.04,744.1,225.8
		z"/>
	<path class="st9" d="M566.01,242.96c-3.84-0.41-6.43-2.45-7.9-5.99c0.23-0.2,0.31-0.44,0.26-0.7c-0.06-0.26-0.23-0.26-0.53,0.01
		c-1.41-2.78-1.45-5.53,0.16-8.25l0-0.01c0.96-2.36,2.18-4.46,4.93-5.07l-0.02,0.01c0.45-0.85,1.19-1.05,2.08-0.91
		c1.99-0.13,3.96,0.71,5.96,0.09c0.89-0.14,1.62,0.27,2.24,0.79c0.78,0.65,2.43,1,1.41,2.53c-0.97,1.46-2.19,2.65-3.86,0.68
		c0.42-1.15-0.94-0.83-1.15-1.41c0.07,0.1,0.16,0.1,0.25,0.17c0.26,0.21,0.36,0.41,0.32,0.64c-0.04,0.23-0.1,0.34-0.17,0.34
		c-1.66,0.05-3.32,0.1-4.99,0.15c0,0,0.01,0,0.01,0c-0.95,0.76-1.9,1.52-2.86,2.29c-0.94-0.52-0.62,0.49-0.91,0.76
		c-0.41,0.58-1.04,1.13-0.34,1.91c-0.06,1.77,0.47,3.41,1.02,5.05l0.02,0.03c2.22,2.24,4.8,3.46,8.03,2.92l-0.01,0
		c0.8-0.83,1.72-1.81,2.9-1.3c0.82,0.36,1.82,1.33,1.91,2.12c0.18,1.65-1.38,1.96-2.64,2.33c-0.18-0.02-0.35-0.05-0.53-0.07
		c-0.56-0.04-1.09,0.08-1.61,0.28c-0.38,0.1-0.75,0.15-1.14,0.15C567.9,242.58,566.86,242.22,566.01,242.96z"/>
	<path class="st10" d="M315.9,228.95c-2.37,3.33-3.36,6.99-2.89,11.09c0.16,1.4,0.38,3.01-2.01,3.03c-2.35,0.02-2.26-1.51-2.09-2.97
		c0.48-4.1-0.61-7.74-2.92-11.09l0,0c-1.79-1.69-2.85-3.88-4.02-5.99c1.17-1.04,2.71-0.12,3.96-0.75c1.88,1.55,2.76,3.78,4.01,5.76
		l0.02,0.04c1.97,0.42,2.44-1.24,3.26-2.38c0.76-1.06,1.28-2.37,2.22-3.22c1.33-1.19,3.37-1.21,4.55-0.24
		c1.07,0.88-0.71,1.83-1.26,2.69c-0.87,1.35-1.38,3-2.81,3.96l-0.35-0.15L315.9,228.95z"/>
	<path class="st11" d="M212.89,236.72c-0.08-0.3,0.01-0.55,0.26-0.75c1.07-4.33-0.38-8.81,0.81-13.13c2.86-0.81,2.37,1.27,2.53,2.87
		c0.27,2.77-0.66,5.62,0.59,8.31c-0.02,0.33-0.04,0.65-0.05,0.98c-0.97,0.87-0.26,2.2-0.89,3.16l0.03-0.07
		c-0.3,0.12-0.52,0.32-0.63,0.63c-0.14,0.27-0.31,0.52-0.52,0.74c-0.21,0.22-0.39,0.46-0.52,0.74c-0.09,0.3-0.27,0.54-0.53,0.72
		l-0.07,0.05c-0.19,0.35-0.48,0.58-0.85,0.7c-0.16,0.34-0.43,0.48-0.8,0.44c-0.69,0.4-1.46,0.39-2.22,0.39c-1.27,0-2.54,0-3.82,0
		c-0.76-0.01-1.54,0.09-2.16-0.5l-0.02-0.01c-0.37-0.32-0.66-0.73-1.15-0.89l0.07,0.05c-0.25-0.55-0.66-0.9-1.27-1.01
		c-0.49-0.07-0.76-0.34-0.78-0.84c-0.39-0.73-0.19-1.72-1.04-2.24c-1.72-4.47-0.39-9.11-0.74-13.65c-0.1-1.3,0.87-1.53,1.97-1.57
		c1.47-0.06,2.07,0.56,2.05,2.02c-0.05,3.96-0.03,7.93-0.04,11.89c0.15,0.5,0.51,0.88,0.79,1.3l0.07,0.09
		c0.38,0.23,0.69,0.54,0.94,0.91l0.08,0.05c0.4,0.3,0.77,0.65,1.24,0.83c0.31-0.09,0.58-0.02,0.81,0.21
		c1.02,0.53,2.02,0.66,2.97-0.14l-0.01,0c0.54-0.56,1.55-0.33,1.93-1.16l-0.07,0.08C212.4,237.7,212.73,237.28,212.89,236.72z"/>
	<path class="st12" d="M452.84,223.07c0.57,0.09,0.95,0.4,1.16,0.94c0.37,0.31,0.65,0.71,1.08,0.94l-0.04-0.04
		c0.26,0.44,0.61,0.79,1.05,1.04l-0.05-0.04c0.27,0.44,0.61,0.81,1.11,1l-0.07-0.07c0.24,0.51,0.55,0.93,1.18,0.95l-0.08-0.08
		c0.15,0.93,1.29,0.66,1.64,1.35l0.12,0.1c0.31,0.14,0.5,0.38,0.59,0.7c0.18,0.27,0.4,0.48,0.68,0.64c0.29,0.12,0.56,0.28,0.81,0.48
		l-0.01-0.01c0.31,0.38,0.64,0.75,1.08,0.98l-0.05-0.04c0.27,0.44,0.61,0.81,1.1,1.01l-0.07-0.06c0.23,0.51,0.58,0.87,1.13,1.01
		l-0.1-0.14c1.05,1.09,1.36,0.06,1.79-0.63c0.69-3.09-1.04-6.51,1.32-9.36c0.65-0.06,1.05,0.23,1.23,0.85
		c0.01,5.33,0.12,10.65-0.06,15.98c-0.3,0.67-0.78,0.82-1.41,0.45l0.01,0c-0.31-0.39-0.65-0.76-1.14-0.93l0.07,0.06
		c-0.22-0.51-0.56-0.89-1.13-1.01l0.08,0.07c-0.15-0.58-0.5-0.94-1.09-1.06l0.09,0.09c-0.25-0.88-1.34-0.62-1.74-1.29l-0.08-0.06
		c-0.29-0.17-0.48-0.42-0.57-0.73c-0.17-0.27-0.4-0.49-0.68-0.65c-0.3-0.11-0.56-0.28-0.8-0.5l0,0c-0.34-0.34-0.65-0.72-1.1-0.95
		l0.05,0.05c-0.29-0.49-0.69-0.84-1.24-1c-0.8-0.2-1.27-0.8-1.72-1.43c-2.04-1.75-2.59-0.37-2.61,1.38
		c-0.04,2.46,0.16,4.93,0.07,7.4c-0.03,0.88-0.3,1.71-1.25,1.86c-0.94,0.15-1.63-0.45-1.62-1.4c0.07-5.9-0.55-11.82,0.36-17.7
		C451.98,223.05,452.49,223.04,452.84,223.07z"/>
	<path class="st10" d="M685.9,223.74c-0.1-0.3-0.02-0.54,0.26-0.71c1.06-0.54,1.3,0.45,1.79,0.97c0.24,0.14,0.31,0.33,0.18,0.58
		c0.03,0.58,0.41,0.98,0.74,1.41c0.27,0.15,0.35,0.38,0.26,0.67c0.08,0.34,0.18,0.68,0.31,1.01c0.05,0.54,0.21,1.01,0.79,1.22
		l-0.04-0.07c0.29,0.73,0.15,1.64,0.96,2.14l-0.05-0.07c0.21,0.49,0.39,0.99,0.42,1.53c0.07,0.35,0.22,0.65,0.45,0.92
		c0.3,0.18,0.56,0.4,0.78,0.68c0.12,0.3,0.24,0.59,0.36,0.89c0,0-0.08,0.49-0.08,0.49c-0.12,0.41,0.03,0.66,0.44,0.76
		c0.14,0.32,0.34,0.6,0.58,0.84l-0.02-0.03c0.5,0.59,0.34,1.47,0.88,2.05c0.26,0.16,0.33,0.37,0.21,0.65
		c0.15,0.46,0.28,0.93,0.37,1.4c-0.01,0.51-0.21,0.92-0.58,1.26c-0.95,0.18-1.9,0.42-2.75-0.3c-0.28-0.18-0.37-0.43-0.27-0.75
		c-0.17-0.43-0.35-0.86-0.55-1.28c-1.95-1.07-4.08-0.13-6.08-0.57c-0.97-2.69,1.61-2.04,2.64-2.82c0.51-0.28,0.56-0.76,0.5-1.28
		c-0.1-0.31-0.19-0.62-0.31-0.91c-0.14-0.27-0.26-0.54-0.39-0.8c-0.13-0.22-0.29-0.44-0.48-0.61c0,0.02-0.35-0.06-0.35-0.06
		s-0.32,0.17-0.32,0.19c-0.18,0.23-0.35,0.45-0.52,0.68c-0.17,0.27-0.35,0.53-0.51,0.81c0.01,0.02-0.21,0.45-0.2,0.46
		c-0.23,0.7-0.28,1.41-0.42,2.12c-0.18,0.55-0.38,1.09-0.51,1.65c-0.41,0.72-1.42,0.51-1.86,1.19c-0.12,0.36-0.3,0.68-0.55,0.96
		l-0.01,0.01c-1.37,1.6-2.73,2.59-4.04-0.06l-0.01,0.03c0.76-0.57,0.58-1.55,0.96-2.28c-0.11-0.31-0.02-0.55,0.26-0.72
		c0.29-0.39,0.62-0.74,0.77-1.22c-0.08-0.33,0.02-0.59,0.29-0.79c0.25-0.36,0.48-0.73,0.69-1.12l-0.06,0.09
		c0.9-0.56,0.73-1.58,1.02-2.39c-0.11-0.23-0.06-0.41,0.15-0.54c0.37-0.36,0.49-0.88,0.81-1.27c0.32-0.4,0.6-0.81,0.67-1.33
		c0.03-0.52,0.15-1.01,0.5-1.41l0,0c0.62-0.55,0.48-1.46,0.96-2.07l-0.03,0.05C685.68,225.41,685.49,224.44,685.9,223.74z"/>
	<path class="st13" d="M601.99,139.96c-0.65-1.65-1.97-1.98-3.6-1.98c-10.41,0.03-20.83,0.07-31.24-0.02
		c-2.3-0.02-3.29,0.65-3.2,3.08c0.15,3.96,0.06,7.93,0.03,11.9c-0.01,1.1,0.37,2.37-0.99,3.05c-1.06-5.92-0.2-11.89-0.49-17.84
		c-0.09-1.89,0.69-2.7,2.61-2.66c13.26,0.3,26.52-0.57,39.77,0.46C604.13,137.45,603.48,139.01,601.99,139.96z"/>
	<path class="st11" d="M157.09,223c0.27,0.67,0.28,1.33,0,2c-2.59,1.17-5.4-0.09-8.01,0.75c-1.36,1.33-1.36,2.77-0.32,4.28
		c1.52,0.9,3.2,0.3,4.79,0.48c1.2,0.13,2.99-0.38,2.77,1.7c-0.18,1.7-1.59,1.08-2.7,0.97c-1.58-0.15-3.26-0.51-4.52,0.95l0.05-0.04
		c-0.36,0.21-0.65,0.49-0.87,0.83c-0.38,0.98-0.28,1.99-0.17,3c0.13,0.39,0.3,0.75,0.52,1.09c0.28,0.3,0.6,0.55,0.98,0.73
		c0.2,0.06,0.4,0.12,0.61,0.18c2.16,0.31,4.38-0.28,6.51,0.47c0.63,0.36,0.84,1.05,1.23,1.59c-2.37,2.22-5.26,0.88-7.86,0.95
		c-6.68,0.17-5.78,0.89-5.84-5.71c-0.04-4.15-0.04-8.31,0.02-12.46c0.01-0.89-0.51-2.02,0.75-2.58c1.06,5.42,0.19,10.9,0.49,16.34
		c0.02,0.34-0.44,0.9,0.33,1.02c-0.28-0.23-0.31-0.53-0.31-0.89c0-4.5,0.01-8.99,0.01-13.49c-0.01-0.83,0.31-1.52,0.9-2.1
		c0.83-0.64,1.82-0.52,2.77-0.55c0.64,0.14,1.26,0.94,1.97,0.11c0.97-0.17,1.96-0.08,2.94-0.11c0.68-0.03,1.29,0.7,2.02,0.16
		C156.47,222.68,156.8,222.79,157.09,223z"/>
	<path class="st12" d="M24.05,242.01c-3.4,1.45-3.78,1.34-3.87-1.53c-0.1-3.44-0.01-6.89-0.03-10.34c-0.02-3.65,0.82-4.21-3.87-4.16
		c-1.14,0.01-2.66,0.76-3.4-0.94c0.88-0.65,0.56-2.25,1.97-2.48c5.37-0.31,10.76,0.46,16.11-0.44c1.41,3.52,1.34,3.73-1.57,3.9
		c-1.64,0.1-3.3,0.07-4.94,0.09C22.67,231.36,23.33,236.68,24.05,242.01z"/>
	<path class="st14" d="M256.99,242c-0.08-6.11-0.14-12.23-0.24-18.34c-0.03-1.61,0.53-2.41,2.28-2.42c1.75-0.01,2.31,0.8,2.29,2.41
		c-0.1,6.11-0.16,12.23-0.24,18.34C259.72,242.73,258.35,242.72,256.99,242z"/>
	<path class="st15" d="M604.9,135.97c-12.59,0.01-25.19,0-37.78,0.04c-4.04,0.01-4.08,0.06-4.1,4.08
		c-0.04,5.3-0.01,10.61-0.01,15.91c0,0.34-0.01,0.69-0.01,1.03c-1.14-0.07-1.22-0.89-1.22-1.74c-0.01-5.99,0.04-11.97-0.04-17.96
		c-0.02-1.86,0.53-2.65,2.52-2.65c13.3,0.06,26.6,0.03,39.9,0.05c0.46,0,1.05-0.05,1.18,0.57
		C605.38,135.49,605.05,135.75,604.9,135.97z"/>
	<path class="st16" d="M409.02,242.91c-0.48-0.14-0.92-0.32-0.92-0.93c-0.01-6.12,0-12.24-0.06-18.36
		c-0.01-1.64,0.54-2.46,2.29-2.41c1.42,0.04,2.69,0.06,2.67,1.99c-0.07,6.45-0.11,12.89-0.21,19.34c0,0.14-0.52,0.27-0.8,0.41
		c-0.34-0.4-0.64-0.84-0.88-1.3c-1.01-4.57-0.29-9.22-0.51-13.82c-0.03-0.66-0.05-1.32-0.02-1.98c-0.21,0.63-0.14,1.28-0.17,1.93
		c-0.23,4.61,0.49,9.25-0.5,13.84C409.67,242.09,409.37,242.52,409.02,242.91z"/>
	<path class="st3" d="M452.84,223.07c-1.28,0.78-0.82,2.05-0.82,3.14c-0.04,4.63-0.02,9.25,0.01,13.88c0,0.64,0.07,1.39,0.88,1.5
		c0.92,0.12,1.04-0.67,1.04-1.3c0.02-1.81,0.3-3.72-0.19-5.4c-0.42-1.46-0.14-2.76,0.42-3.74c1.06-1.86,2.28-1.77,2.82,0.54
		c-0.95-0.27-1.94-0.73-1.9,1.02c0.07,2.64-0.03,5.27,0.02,7.91c0.03,1.53-0.29,2.48-2.15,2.45c-1.97-0.03-1.98-1.22-1.98-2.62
		c0.01-5.6-0.02-11.21,0.02-16.81C451.03,221.76,451.68,221.45,452.84,223.07z"/>
	<path class="st5" d="M437.99,239.07c1.42,3.53,1.33,3.92-1.56,3.93c-3.62,0-8.13,1.47-10.62-0.61c-2.38-1.98-0.64-6.55-0.81-9.97
		c-0.14-2.82-0.04-5.65-0.02-8.47c0-0.79-0.14-1.7,1.02-1.89c0.34,0.38,0.63,0.8,0.86,1.24c0.89,3.88,0.37,7.81,0.45,11.73
		c0.11,5.49,0.06,5.49,5.72,5.68c0.82,0.03,1.63,0.1,2.43-0.01c0.36-0.18,0.71-0.38,1.02-0.64
		C436.94,239.65,437.52,239.45,437.99,239.07z"/>
	<path class="st17" d="M494.99,157c0.55-1.14,1.59-1,2.58-1c10.97,0,21.93,0,32.9,0c0.99,0,2.03-0.11,2.54,1.05
		c-12.23,0.46-24.46,0.24-36.69,0.11c-0.44-0.05-0.87-0.1-1.31-0.16L494.99,157z"/>
	<path class="st18" d="M534,136c-11.23,0-22.46,0.04-33.69-0.05c-1.44-0.01-3.42,1.04-4.23-1.29c10.98,0.02,21.97,0.02,32.95,0.06
		c1.66,0.01,3.31,0.15,4.97,0.23c0.12,0.18,0.25,0.35,0.38,0.53C534.25,135.65,534.12,135.83,534,136z"/>
	<path class="st17" d="M132,156c10.14,0,20.29,0.04,30.43-0.04c1.53-0.01,3.37,0.85,4.57-0.96c0.39-0.38,0.8-0.37,1.21-0.03
		c0.29,0.7,0.35,1.38-0.22,1.99c-11.99,0.63-23.98,0.34-35.96,0.15c-0.32-0.24-0.43-0.48-0.33-0.73C131.8,156.13,131.9,156,132,156z
		"/>
	<path class="st19" d="M168,134.99c-0.42,0.87-1.19,1.02-2.06,1.02c-10.94-0.01-21.88-0.01-32.82,0c-0.86,0-1.65-0.08-2.09-0.96
		c0.35-0.45,0.75-0.49,1.19-0.14C144.16,134.63,156.08,134.47,168,134.99z"/>
	<path class="st8" d="M149.08,234.13c0.9-2.59,2.82-2.27,4.82-1.69c0.61,0.18,1.41,0.71,1.65-0.2c0.31-1.2-0.79-1.08-1.56-1.24
		c-2.01-0.41-4.35,1.02-6.06-1.07c-0.61-1.3-0.63-2.6,0.01-3.9c2.84-2.15,6.11-0.53,9.14-1.04c-1.08,2.01-2.94,0.65-4.39,1.02
		c-1.49,0.38-3.98-1.1-3.89,2.16c0.08,2.79,2.21,1.75,3.64,1.94c0.81,0.11,1.65,0.03,2.48,0.03c1.51-0.01,1.97,0.84,1.94,2.22
		c-0.02,1.27-0.68,1.79-1.83,1.8C153.05,234.19,151.07,234.15,149.08,234.13z"/>
	<path class="st20" d="M512.02,242c-0.07-5.96-0.11-11.92-0.25-17.88c-0.04-1.72,0.59-2.4,2.31-2.31c3.3,0.18,6.62-0.31,9.92,0.27
		c0.53,1.3,1.16,2.62-0.94,3.12c-0.62-0.21-1.21-0.54-1.87-0.64c-6.32-0.9-6.79-0.46-6.84,5.86c-0.03,3.46,0.39,6.94-0.45,10.37
		C513.5,241.57,513.03,242.21,512.02,242z"/>
	<path class="st21" d="M386.86,160.97c-1.61-1.3-0.81-3.09-0.82-4.64c-0.08-9.11-0.04-18.22-0.04-27.33c0,0,0.26-0.41,0.25-0.42
		c0.28,0.16,0.57,0.3,0.87,0.42C387.42,139.66,387.83,150.32,386.86,160.97z"/>
	<path class="st22" d="M146,224c0,4.99,0.01,9.98-0.01,14.97c0,0.8,0.24,2.2-0.43,2.22c-0.82,0.02-0.53-1.29-0.53-2.03
		c-0.02-5.65-0.02-11.31-0.02-16.96c3.58-0.76,7.2-0.21,10.8-0.33c0.73-0.02,1.21,0.37,1.28,1.15c-0.36,0-0.73,0-1.09,0
		c-0.33,0.34-0.66,0.34-0.99,0c-1.33,0-2.67,0-4,0c-0.33,0.34-0.66,0.34-1,0c-1,0-2,0-3,0C146.66,223.33,146.33,223.66,146,224z"/>
	<path class="st17" d="M71.05,241c3.65,0,7.3,0,10.95,0c0.11-0.38,0.36-0.54,0.75-0.49c0.36-0.04,0.57-0.23,0.61-0.61
		c0.11-0.33,0.32-0.57,0.62-0.72c1.14,1.96,1.74,3.76-1.58,3.83c-3.33,0.07-6.66,0.01-9.99-0.01
		C71.04,242.99,70.79,242.15,71.05,241z"/>
	<path class="st23" d="M636.25,93c-3.31,0-6.63,0.01-9.94,0c-0.59,0-1.26,0.14-1.61-0.57c0.45-0.14,0.91-0.4,1.36-0.41
		c6.96-0.03,13.92-0.03,20.88,0c0.45,0,0.91,0.26,1.36,0.41c-0.35,0.71-1.02,0.57-1.61,0.57C643.21,93,639.73,93,636.25,93z"/>
	<path class="st18" d="M250,93.99c-3.43,1.42-10.51,1.43-14,0.02C240.67,92.82,245.33,92.82,250,93.99z"/>
	<path class="st17" d="M512.02,242c0.54-0.13,0.86-0.47,0.99-1c3.28-1.97,6.81-0.75,10.24-0.77c0.93,0.27,1.25,1.18,1.86,1.79
		c-4.1,2.16-8.45,0.62-12.68,0.78C512.3,242.8,512.15,242.28,512.02,242z"/>
	<path class="st24" d="M420.7,137.82c0.51,0.29,1.5,0.46,0.3,1.18c-7,0.8-14,0.8-21,0c-0.79-0.01-1.6,0.01-1.97-0.9
		C405.58,137.25,413.14,137.76,420.7,137.82z"/>
	<path class="st22" d="M469,241c0-5.67,0-11.33,0-17c-0.4-0.34-0.85-0.52-1.39-0.43c-0.35-0.06-0.64-0.23-0.87-0.5
		c-0.12-0.36-0.02-0.66,0.28-0.89c1.27-0.35,3.13-0.92,3.2,0.87c0.23,6.46,0.42,12.94-0.11,19.41c0,0.05-0.35,0.16-0.46,0.1
		c-0.24-0.14-0.43-0.38-0.63-0.57c-0.28-0.22-0.37-0.44-0.28-0.66C468.82,241.11,468.91,241,469,241z"/>
	<path class="st25" d="M647.97,95.99c-6.63,0-13.26,0.02-19.89,0c-0.8,0-2.34,0.07-2.23-0.36c0.28-1.12,1.59-0.57,2.45-0.58
		c6.46-0.05,12.93-0.03,19.39-0.03C647.78,95.34,647.87,95.67,647.97,95.99z"/>
	<path class="st18" d="M624.99,198.03c0.83-1.57,2.31-0.99,3.55-1c6.47-0.05,12.94-0.02,19.42-0.02c-0.05,1.13-0.86,1.24-1.7,1.23
		C639.17,198.17,632.08,198.1,624.99,198.03z"/>
	<path class="st5" d="M516.07,226.07c0.02,3.95,0.02,3.96,3.32,4.06c0.99,0.03,1.98,0.01,2.96,0.03c1.23,0.03,1.66,0.74,1.71,1.89
		c0.07,1.42-0.46,2.15-1.95,2.13c-1.98-0.03-3.95-0.01-5.93-0.01c-0.13-0.19-0.26-0.39-0.39-0.58c0.62-0.46,0.51-1.51-0.06-1.98
		c-2.18-1.78-2.52-3.72-0.34-5.78C515.63,225.92,515.85,226,516.07,226.07z"/>
	<path class="st18" d="M386,129c-7.03,0-14.07,0-21.1,0.01c0.1-1.1,0.9-1.23,1.76-1.22c6.45,0.07,12.9,0.14,19.35,0.21
		c0.22,0.22,0.3,0.44,0.22,0.66C386.15,128.88,386.08,129,386,129L386,129z"/>
	<path class="st18" d="M534,157.05c0-7.02,0-14.03,0-21.05l0.01,0c0.33-0.31,0.66-0.31,0.99,0c0.07,6.44,0.15,12.87,0.21,19.31
		C535.21,156.15,535.11,156.96,534,157.05z"/>
	<path class="st21" d="M537.98,117c-0.33,0-0.65-0.01-0.98-0.02c-0.36-0.21-0.47-0.43-0.36-0.65c0.11-0.22,0.23-0.33,0.35-0.33
		c0-5.48-0.03-10.97,0.02-16.45c0.01-1.24-0.57-2.72,1-3.55C538.38,103,538.45,110,537.98,117z"/>
	<path class="st26" d="M45,198c3.33,0,6.67,0,10,0c0.55,0.36,0.56,0.74,0.05,1.15c-3.76,1.12-7.52,1.16-11.27-0.03
		C43.97,198.51,44.62,198.4,45,198z"/>
	<path class="st17" d="M132,156c0.01,0.37,0.02,0.74,0.03,1.11c-1.23,1.22-0.87,2.78-0.88,4.24c-0.04,4.48-0.04,8.96-0.06,13.44
		c-0.03,0.4-0.06,0.8-0.09,1.2L131,176c-1.13-0.54-1-1.58-1-2.56c0-4.46,0.03-8.92-0.02-13.38C129.97,158.32,130.05,156.72,132,156z
		"/>
	<path class="st27" d="M540.01,176.04c0.33-0.02,0.65-0.03,0.98-0.04c0.55,7,0.44,14.01,0.06,21.01c-1.6-0.81-1.02-2.31-1.03-3.54
		c-0.05-5.49-0.02-10.98-0.02-16.47c-0.35-0.22-0.47-0.43-0.35-0.64C539.77,176.15,539.89,176.04,540.01,176.04z"/>
	<path class="st22" d="M620.2,223.58c-0.07,4.94-0.1,9.88-0.22,14.82c-0.03,1.23,0.57,2.69-0.91,3.58
		c-0.06-6.14-0.25-12.29-0.11-18.43C619,221.44,619.79,222.41,620.2,223.58z"/>
	<path class="st21" d="M708.1,222.75c-0.03,5.23-0.03,10.47-0.12,15.7c-0.02,1.22,0.57,2.68-0.93,3.54
		c-0.05-6.36-0.1-12.73-0.12-19.09c0-0.22,0.35-0.45,0.53-0.68C707.68,222.39,707.89,222.57,708.1,222.75z"/>
	<path class="st17" d="M132.23,134.91c-0.4,0.05-0.79,0.09-1.19,0.14c-0.31-0.35-0.89-0.69-0.9-1.05c-0.08-4.86-0.1-9.73-0.1-14.6
		c0-0.72,0.49-1.14,1.16-1.35c-0.02,4.26-0.05,8.52-0.06,12.78C131.14,132.28,130.83,133.83,132.23,134.91z"/>
	<path class="st27" d="M30.97,222.11c-0.76,1.28-2.02,0.87-3.11,0.88C23.24,223.02,18.62,223,14,223c-0.13-0.16-0.26-0.32-0.39-0.48
		c0.13-0.16,0.25-0.32,0.38-0.48C19.66,221.71,25.32,221.61,30.97,222.11z"/>
	<path class="st28" d="M606.55,237.87c1.34-3.57,1.29-7.18,0.2-10.8C610.96,232.66,610.96,232.87,606.55,237.87z"/>
	<path class="st17" d="M24.05,242.01c-0.32-0.35-0.91-0.69-0.91-1.04c-0.07-4.58-0.08-9.16-0.03-13.74
		c0.01-0.72,0.66-1.05,1.36-1.13C24.32,231.4,24.19,236.71,24.05,242.01z"/>
	<path class="st3" d="M467.02,222.17c0.02,0.27,0.05,0.54,0.09,0.81C467.67,227,467.85,231,467,235c-0.9-0.02-1.83,0-1.89-1.27
		c1.99-1.23,0.71-3.19,1.07-4.79C466.68,226.71,465.15,224.23,467.02,222.17z"/>
	<path class="st29" d="M217.08,234.02c-2.27-2.35-0.61-5.23-1.05-7.84c-0.23-1.38,0.35-3.1-1.92-3.2c-0.34-0.14-0.47-0.31-0.39-0.51
		c0.09-0.21,0.19-0.31,0.29-0.31c1.77-0.54,3.4-0.78,3.32,1.9C217.23,227.38,217.66,230.71,217.08,234.02z"/>
	<path class="st5" d="M429.16,226.17c0.16,3.86,0.16,3.77,3.43,4.01c1.49,0.11,3.24-0.87,4.46,0.81c-0.37,0.45-0.83,0.76-1.37,0.96
		c-1.45,0.43-2.94,0.42-4.42,0.3c-4.64-0.37-5.36-2.02-2.88-6.38C428.64,225.97,428.9,226.07,429.16,226.17z"/>
	<path class="st27" d="M426.02,222.99c-0.01-0.31-0.01-0.62-0.01-0.94c3.27-0.08,6.55-0.1,9.82-0.25c2.61-0.12,2.49,1.41,2.12,3.19
		c-0.31,0.31-0.67,0.39-1.08,0.24c-0.36-0.19-0.71-0.4-1.06-0.62c-0.62-0.23-1.26-0.29-1.91-0.32
		C431.23,224.08,428.37,225.02,426.02,222.99z"/>
	<path class="st30" d="M214.01,222.17c0,0.28,0.03,0.55,0.1,0.82c-0.03,3.29-0.04,6.58-0.11,9.87c-0.02,1.09,0.4,2.35-0.86,3.12
		c0-3.77-0.02-7.55,0.03-11.32C213.19,223.78,212.69,222.64,214.01,222.17z"/>
	<path class="st3" d="M47.13,234.34c-0.01-0.16-0.02-0.32-0.03-0.49c-0.12-1.61,1.6-2.36,2.04-1.75c1.31,1.83,4.76-2.08,4.83,1.99
		C51.68,234.18,49.41,234.26,47.13,234.34z"/>
	<path class="st5" d="M436,233.97c-2.23,0.1-4.46,0.2-6.69,0.3c-0.17-0.21-0.35-0.43-0.52-0.64c1.61-3.59,4.65-1.76,7.17-1.88
		C436.55,232.47,436.6,233.21,436,233.97z"/>
	<path class="st5" d="M523,225c1.41-0.6,0.87-1.87,1-2.92c1.32,3.63,1.28,3.79-1.56,3.93c-2.12,0.1-4.25,0.05-6.37,0.07l-0.11-0.11
		C517.9,222.66,520.47,223.99,523,225z"/>
	<path class="st17" d="M244.09,231.04c-1.74-1.75-1.78-3.46,0.11-5.13C245.36,227.64,245.46,229.36,244.09,231.04z"/>
	<path class="st27" d="M230.1,222.98c-0.04-0.27-0.06-0.54-0.08-0.81c3.32-0.59,6.64-0.53,9.96-0.03c-2.83,1.9-6,0.36-8.97,0.86
		C230.69,223.49,230.39,223.48,230.1,222.98z"/>
	<path class="st31" d="M682.05,239.95c0.32-0.99,1.15-0.94,1.95-0.95c0.33-0.49,0.67-0.47,1,0c2.31,0.43,4.88-0.99,6.98,0.97
		c-0.39,0.36-0.81,0.41-1.27,0.16c-2.49-0.01-4.98-0.02-7.47-0.03C682.8,240.37,682.4,240.34,682.05,239.95z"/>
	<path class="st32" d="M149.13,238.82c2.4-0.01,4.8-0.03,7.2-0.03c0.83,0,1.61,0.1,1.62,1.21c-0.45,0.37-0.96,0.53-1.55,0.48
		c-2.46-0.25-4.99,0.55-7.4-0.48l0,0c-0.14-0.21-0.29-0.43-0.43-0.64C148.76,239.18,148.94,239,149.13,238.82z"/>
	<path class="st5" d="M437,224.99c0.31,0,0.63,0,0.94,0c-0.67,1.78-2.2,0.87-3.35,0.99c-1.8,0.19-3.62,0.13-5.44,0.18l-0.2-0.22
		C431.25,222.38,434.17,224.02,437,224.99z"/>
	<path class="st29" d="M661.99,222.05c-3,1.55-5.99,1.58-8.98-0.02C656,221.71,659,221.67,661.99,222.05z"/>
	<path class="st33" d="M437.99,239.07c-0.12,0.53-0.45,0.84-0.98,0.94c-2.12,1.64-4.55,0.84-6.87,0.85
		c-0.53-0.13-0.97-0.4-1.33-0.81c-0.17-0.57-0.01-1.02,0.48-1.35C432.18,238.82,435.09,238.95,437.99,239.07z"/>
	<path class="st22" d="M182.99,222.06c-1.75,1.87-4,0.58-5.98,0.94c-0.23-0.2-0.31-0.4-0.23-0.6c0.08-0.2,0.16-0.3,0.23-0.3
		C178.99,221.25,180.98,220.84,182.99,222.06z"/>
	<path class="st22" d="M391.97,222.1c-1.77,1.78-3.99,0.53-5.98,0.9c-0.24-0.21-0.32-0.42-0.24-0.63c0.08-0.21,0.16-0.31,0.24-0.31
		C388,220.92,389.99,221.19,391.97,222.1z"/>
	<path class="st22" d="M570.97,222.13c-2.01,1.37-3.99,1.42-5.96-0.09C567.02,220.88,569,221.22,570.97,222.13z"/>
	<path class="st22" d="M600,223c-2,0-4,0-6,0c-0.24-0.21-0.33-0.42-0.24-0.64c0.08-0.21,0.16-0.32,0.25-0.32
		c2.01-1.17,4-0.81,5.99,0.08c0.13,0.14,0.27,0.29,0.4,0.43C600.26,222.71,600.13,222.85,600,223z"/>
	<path class="st22" d="M655.9,241.99c-0.32-0.05-0.63-0.1-0.95-0.16c0.47-2.25-1.1-4.89,1.28-6.78
		C656.11,237.37,656.01,239.68,655.9,241.99z"/>
	<path class="st33" d="M82,240c-2.28-0.57-5.04,1.35-6.93-1.3c2.64,0.1,5.29,0.2,7.93,0.31c0.22,0.23,0.3,0.46,0.24,0.7
		c-0.06,0.24-0.13,0.36-0.2,0.36C82.67,240.37,82.32,240.34,82,240z"/>
	<path class="st34" d="M516.19,238.79c2.6,0.07,5.21,0.15,7.81,0.22c0.14,0.21,0.27,0.42,0.41,0.63c-0.24,0.46-0.61,0.74-1.13,0.82
		c-2.4-0.16-4.85,0.48-7.22-0.38C515.8,239.62,515.84,239.19,516.19,238.79z"/>
	<path class="st35" d="M709.02,198.89c0.59-1.09,1.64-0.94,2.58-0.87c1.27,0.09,2.61-0.42,3.8,0.41c-1.07,1.07-2.5,0.27-3.69,0.72
		C710.79,199.36,709.9,199.25,709.02,198.89z"/>
	<path class="st5" d="M677.94,240.94c1.32,2.18,2.69,0.5,4.04,0.06c-0.51,2.91-2.69,2.22-4.37,1.74
		C676.68,242.47,677.34,241.48,677.94,240.94z"/>
	<path class="st21" d="M334.03,198.89c0.59-1.09,1.65-0.94,2.6-0.87c1.27,0.1,2.62-0.44,3.79,0.44c-1.1,1.02-2.54,0.26-3.74,0.71
		C335.76,199.38,334.88,199.26,334.03,198.89z"/>
	<path class="st5" d="M692.18,242c0.94,0,1.89,0,2.83,0c0.21-0.24,0.38-0.5,0.51-0.79c0,0,0.44-0.17,0.44-0.17
		c0.49,0.54,1.42,1.4,0.33,1.73C694.98,243.16,693.22,243.92,692.18,242z"/>
	<path class="st22" d="M436,233.97c0-0.66,0-1.31,0-1.97c-0.35-0.21-0.47-0.42-0.34-0.62c0.12-0.2,0.24-0.3,0.37-0.3
		c0.34-0.03,0.68-0.07,1.02-0.1C437.72,232.34,438.64,233.77,436,233.97z"/>
	<path class="st35" d="M348.21,199.1c-0.81-0.04-1.63-0.03-2.43-0.15c-0.4-0.06-0.76-0.35-1.14-0.53c0.28-0.13,0.59-0.41,0.85-0.37
		c1.51,0.21,3.28-0.82,4.5,0.87C349.39,198.98,348.8,199.04,348.21,199.1z"/>
	<path class="st33" d="M167.96,142.99c-1.73-1.43-0.79-3.31-0.83-5.02c-0.01-0.43,0.38-0.51,0.62-0.08c0.23,0.41,0.27,0.93,0.39,1.4
		C168.37,140.53,168.31,141.77,167.96,142.99z"/>
	<path class="st26" d="M191.06,137.01c0.61,0.35,1,0.86,0.92,1.58c-0.14,1.27,0.45,2.62-0.44,3.8c-1.06-1.07-0.26-2.48-0.68-3.67
		C190.93,138.15,190.99,137.58,191.06,137.01z"/>
	<path class="st20" d="M43.68,94.84C44.34,94.9,45,94.95,45.67,95c0.6,0.05,1.64-0.11,1.59,0.51c-0.05,0.69-1.09,0.47-1.73,0.48
		c-0.98,0.02-2.05,0.18-2.54-1.03C43.18,94.71,43.41,94.67,43.68,94.84z"/>
	<path class="st20" d="M56,94.99c-0.2,0.25-0.36,0.64-0.62,0.72c-1.25,0.38-2.53,0.64-3.74-0.17c1.06-1.02,2.45-0.26,3.63-0.67
		C55.55,94.7,55.79,94.74,56,94.99z"/>
	<path class="st5" d="M516.2,234.18c-0.35,1.53-0.34,3.07-0.01,4.61l-0.17,0.28c-2.95-1.67-2.92-3.37-0.05-5.1L516.2,234.18z"/>
	<path class="st18" d="M66.87,166.25c0.11-0.46,0.07-1.06,0.36-1.35c0.67-0.69,0.75,0.21,0.72,0.47c-0.14,1,0.67,2.16-0.47,2.98
		c-0.06,0.04-0.26-0.12-0.39-0.18c0.57-0.34-0.91-0.4-0.25-0.41C66.85,167.24,66.86,166.74,66.87,166.25z"/>
	<path class="st21" d="M724.26,199.13c-0.47-0.12-1.08-0.08-1.37-0.37c-0.74-0.74,0.27-0.73,0.5-0.71c1.22,0.09,2.66-0.62,3.57,0.82
		C726.09,199.23,725.19,199.35,724.26,199.13z"/>
	<path class="st8" d="M495.01,225.94c-1.67,0-3.34,0-5.01,0c-0.22-0.21-0.29-0.42-0.21-0.63c0.07-0.21,0.15-0.31,0.22-0.31
		c1.67-0.75,3.33-0.75,5,0l0,0c0.22,0.21,0.29,0.42,0.22,0.63C495.15,225.84,495.08,225.94,495.01,225.94z"/>
	<path class="st21" d="M234.03,198.87c0.92-1.44,2.35-0.74,3.58-0.82c0.24-0.02,1.23-0.03,0.5,0.71c-0.29,0.29-0.91,0.26-1.37,0.37
		C235.8,199.35,234.9,199.23,234.03,198.87z"/>
	<path class="st8" d="M147.97,234.03c0.39,0.02,0.78,0.05,1.17,0.07c-0.49,1.57-0.47,3.15-0.01,4.72l-0.16,0.29
		c-0.34,0.21-0.66,0.18-0.95-0.09l-0.04-0.04C147.27,237.33,147.27,235.68,147.97,234.03z"/>
	<path class="st21" d="M249.29,199.15c-0.47-0.12-1.08-0.09-1.38-0.38c-0.76-0.72,0.24-0.74,0.48-0.72
		c1.23,0.09,2.68-0.63,3.58,0.84C251.1,199.25,250.21,199.36,249.29,199.15z"/>
	<path class="st36" d="M167.86,154.94c-0.29,0.04-0.57,0.06-0.86,0.06c0.36-1.66-0.84-3.61,0.96-4.99c0.32,1.22,0.4,2.45,0.16,3.69
		C168.51,154.22,168.42,154.63,167.86,154.94z"/>
	<path class="st5" d="M429.31,234.27c-0.01,1.48-0.02,2.96-0.02,4.43c0,0-0.3,0.37-0.3,0.37c-2.9-1.69-2.9-3.39-0.02-5.11
		C428.96,233.96,429.31,234.27,429.31,234.27z"/>
	<path class="st34" d="M490,242c1.64,0.33,3.54-0.79,4.96,0.87c-1.65,0.51-3.3,0.53-4.95,0c-0.23-0.19-0.31-0.38-0.24-0.57
		C489.85,242.1,489.93,242,490,242z"/>
	<path class="st27" d="M126.96,222.16c-1.37,1.31-2.69,1.39-3.96-0.14C124.34,221.52,125.66,221.63,126.96,222.16z"/>
	<path class="st27" d="M15.93,130.16c0.02-0.32,0.03-0.65,0.08-0.97c0.08-0.55-0.19-1.24,0.57-1.54c0.14,0.44,0.35,0.87,0.4,1.32
		c0.1,0.84-0.05,1.62-0.93,2.03C15.81,130.74,15.77,130.46,15.93,130.16z"/>
	<path class="st37" d="M256.99,242c1.36,0,2.73-0.01,4.09-0.01C259.72,243.91,258.36,243.91,256.99,242z"/>
	<path class="st22" d="M665.83,155.34c0.19-0.57,0.41-1.63,0.57-1.62c0.79,0.04,0.56,0.8,0.6,1.33c0.07,0.81-0.08,1.53-0.9,1.93
		C666,156.43,665.92,155.88,665.83,155.34z"/>
	<path class="st22" d="M361,223c-1.33-0.26-2.92,0.69-3.96-0.88c1.31-0.54,2.63-0.58,3.96-0.06c0.24,0.21,0.32,0.42,0.24,0.63
		C361.16,222.9,361.08,223,361,223z"/>
	<path class="st24" d="M305.93,222.27c-1.11,1.34-2.64,0.46-3.96,0.75l0.01,0.01c-0.18-0.2-0.24-0.4-0.17-0.59
		c0.07-0.19,0.14-0.28,0.21-0.28C303.33,221.74,304.64,221.58,305.93,222.27z"/>
	<path class="st38" d="M190.87,154.27c0.15-0.61,0.04-1.33,0.69-1.74c0.15,0.45,0.37,0.89,0.42,1.35c0.09,0.84,0,1.66-0.91,2.09
		C191.01,155.41,190.94,154.84,190.87,154.27z"/>
	<path class="st36" d="M178,242c1.34,0.27,2.98-0.73,3.98,0.95c-1.33,0.41-2.65,0.4-3.97-0.04c-0.24-0.2-0.32-0.4-0.24-0.6
		C177.84,242.1,177.92,242,178,242z"/>
	<path class="st34" d="M206.01,242c1.33,0,2.66,0,3.99,0c0.33,0.21,0.43,0.42,0.32,0.63c-0.11,0.21-0.22,0.31-0.33,0.31
		c-1.33,0.43-2.66,0.41-3.98-0.07c-0.33-0.19-0.44-0.39-0.33-0.58C205.79,242.1,205.9,242,206.01,242z"/>
	<path class="st34" d="M357,242c1.34,0.27,2.97-0.72,3.98,0.94c-1.33,0.44-2.65,0.41-3.97-0.07c-0.23-0.19-0.31-0.38-0.24-0.58
		C356.85,242.1,356.93,242,357,242z"/>
	<path class="st36" d="M387.02,242.94c1.01-1.66,2.64-0.68,3.98-0.94c0.12,0.15,0.24,0.31,0.35,0.46c-0.12,0.15-0.24,0.31-0.36,0.46
		C389.67,243.36,388.34,243.35,387.02,242.94z"/>
	<path class="st36" d="M566.01,242.96c1-1.69,2.65-0.69,3.99-0.96c0.23,0.2,0.31,0.4,0.23,0.6c-0.08,0.2-0.16,0.3-0.24,0.3
		C568.67,243.36,567.34,243.35,566.01,242.96z"/>
	<path class="st39" d="M595.01,242.95c1-1.68,2.65-0.68,3.99-0.95c0.23,0.2,0.31,0.41,0.23,0.61c-0.08,0.2-0.16,0.3-0.24,0.3
		C597.67,243.35,596.34,243.35,595.01,242.95z"/>
	<path class="st30" d="M216.14,238.16c-0.06-1.16-0.63-2.45,0.89-3.16C217.17,236.17,217.3,237.34,216.14,238.16z"/>
	<path class="st27" d="M560.99,229.04c0.1-0.54-0.2-1.29,0.65-1.44c0.14-0.02,0.36,0.46,0.54,0.71c-0.14,0.76-0.35,1.48-1.08,1.9
		C560.55,229.86,560.52,229.47,560.99,229.04z"/>
	<path class="st40" d="M123.01,242.97c0.99-1.37,1.99-1.37,2.98,0C125,243.32,124,243.32,123.01,242.97z"/>
	<path class="st1" d="M167.86,154.94c0.09-0.41,0.18-0.82,0.26-1.24c0.53,1.11,1.47,2.23-0.13,3.25
		C167.95,156.28,167.91,155.61,167.86,154.94z"/>
	<path class="st30" d="M209.99,238.99c-0.93,1.43-1.92,1.4-2.97,0.14C208.01,239.08,209,239.03,209.99,238.99z"/>
	<path class="st18" d="M45,198c-0.18,0.62-0.63,0.94-1.21,1.12c-0.59-0.05-1.18-0.1-1.78-0.16C42.66,197.56,43.94,198.13,45,198z"/>
	<path class="st5" d="M687.95,223.99c-0.6-0.32-1.19-0.64-1.79-0.97c0-0.53,0.29-0.96,0.79-0.88
		C687.97,222.32,687.92,223.21,687.95,223.99z"/>
	<path class="st41" d="M409.02,242.91c0.01-0.3,0.04-0.59,0.07-0.89c0.23-0.31,0.52-0.54,0.87-0.68c0.37-0.07,0.75-0.08,1.12-0.01
		c0.35,0.15,0.64,0.38,0.88,0.68c0.02,0.31,0.03,0.63,0.03,0.94C410.99,243.25,410,243.28,409.02,242.91z"/>
	<path class="st22" d="M16,117c0.24,0.18,0.57,0.3,0.7,0.54c0.37,0.68,0.53,1.38-0.28,1.91c-0.18-0.56-0.36-1.13-0.54-1.69
		C15.71,117.47,15.75,117.22,16,117z"/>
	<path class="st22" d="M57.95,222.25c-0.79,1.18-2.01,0.62-3.06,0.76C55.5,221.11,56.77,221.89,57.95,222.25z"/>
	<path class="st27" d="M391,242c0.89-1.39,1.88-1.38,2.94-0.21c-0.17,0.29-0.41,0.39-0.73,0.29C392.46,242.5,391.71,242.61,391,242
		L391,242z"/>
	<path class="st27" d="M570,225c0.53,0.09,1.25-0.2,1.43,0.6c0.03,0.12-0.43,0.36-0.67,0.54c-0.31,0.08-0.56,0-0.75-0.26
		C570.01,225.59,570.01,225.29,570,225L570,225z"/>
	<path class="st27" d="M713.95,231.97c0.59,0.19,1.2,0.38,0.24,0.96c-0.56-0.12-0.93-0.44-1.09-0.99l0.15-0.07l0.39-0.18
		L713.95,231.97z"/>
	<path class="st27" d="M357.24,226.12c-0.41-0.04-0.83-0.08-1.24-0.12l0,0c0.58-1.15,1.24-1.28,1.97-0.13
		C357.78,226.1,357.53,226.18,357.24,226.12z"/>
	<path class="st5" d="M681.86,232.54c0.09,0.98,0.36,2.04-1.02,2.39C680.87,234.01,681.05,233.14,681.86,232.54z"/>
	<path class="st5" d="M685.9,223.74c0.08,0.92,0.23,1.88-0.98,2.24C684.88,225.07,685.07,224.26,685.9,223.74z"/>
	<path class="st27" d="M557.85,236.27c0.19-0.33,0.35-1.05,0.8-0.62c0.57,0.54,0.06,1.03-0.53,1.32
		C557.83,236.81,557.74,236.58,557.85,236.27z"/>
	<path class="st8" d="M177.01,222.11c0,0.3,0,0.59-0.01,0.89L177,223c-0.53,0.49-1.11,0.52-1.73,0.19l-0.23-0.16
		C175.51,222.34,176.13,221.95,177.01,222.11z"/>
	<path class="st27" d="M75.99,191.02c0.36-0.96,0.7-0.88,1.03,0.02c-0.13,0.53-0.44,0.83-1.02,0.78c-0.25-0.17-0.33-0.35-0.25-0.53
		C75.82,191.11,75.9,191.02,75.99,191.02z"/>
	<path class="st5" d="M678.89,238.7c0.08,0.93,0.25,1.9-0.96,2.28C677.91,240.07,678.11,239.26,678.89,238.7z"/>
	<path class="st5" d="M694.06,236.97c-0.59-0.1-0.94-0.45-1.1-1.02l-0.29-0.37l0.19-0.43l0.24-0.28
		C693.89,235.37,694.09,236.12,694.06,236.97z"/>
	<path class="st27" d="M315.99,191.03c0.34-0.92,0.68-0.93,1.03,0l0.3,0.34l-0.18,0.41l-0.06,0.12
		C316.51,191.85,316.15,191.56,315.99,191.03z"/>
	<path class="st9" d="M386,222.05c0,0.32,0,0.63-0.01,0.95l0,0c-0.55,0.5-1.15,0.53-1.78,0.16l-0.25-0.19
		C384.44,222.2,385.12,221.91,386,222.05z"/>
	<path class="st30" d="M199.84,237.05c1.28,0.31,1.14,1.28,1.04,2.24C199.99,238.8,199.8,237.98,199.84,237.05z"/>
	<path class="st5" d="M361,223c0-0.31,0-0.63,0-0.94c0.87-0.15,1.62,0.02,2.1,0.84l-0.28,0.23C362.18,223.55,361.57,223.52,361,223
		L361,223z"/>
	<path class="st3" d="M463.13,236.94c0.83,0.09,1.7,0.13,1.74,1.29C464.07,238.1,463.45,237.73,463.13,236.94z"/>
	<path class="st27" d="M601.98,223.09c-0.72,1.17-1.37,1.08-1.98-0.09l0,0c0.43-0.36,0.89-0.42,1.39-0.16
		C601.66,222.75,601.86,222.83,601.98,223.09z"/>
	<path class="st31" d="M14,223c-0.01,0.88-0.02,1.75-1.12,2.03c-0.27-0.68-0.26-1.35,0.02-2.02C13.27,222.71,13.63,222.7,14,223
		L14,223z"/>
	<path class="st5" d="M694.92,238.99c-0.96-0.39-0.92-1.22-0.88-2.05C694.75,237.44,695.01,238.14,694.92,238.99z"/>
	<path class="st30" d="M211.92,237.83c-0.16,1.19-1.05,1.17-1.93,1.16C210.45,238.3,211.1,237.94,211.92,237.83z"/>
	<path class="st27" d="M605.09,239.04c-0.83-0.3-1.12-0.63-0.07-1.04l0.32-0.3l0.4,0.18l0.17,0.08
		C605.92,238.52,605.64,238.89,605.09,239.04z"/>
	<path class="st42" d="M724.99,222.02c-0.64,1.18-1.3,1.21-1.98,0.03C723.67,222.05,724.33,222.04,724.99,222.02z"/>
	<path class="st27" d="M275.03,105.02c-0.61-0.2-1.17-0.41-0.21-0.96c0.59,0.07,0.98,0.38,1.16,0.95l-0.18,0.11l-0.41,0.2
		L275.03,105.02z"/>
	<path class="st27" d="M749.98,188.03c0.31-0.88,0.65-0.97,1.01-0.03c-0.11,0.58-0.48,0.88-1.06,0.92l-0.08-0.15l-0.17-0.41
		L749.98,188.03z"/>
	<path class="st18" d="M386.99,239.06c-0.26,0.61-0.74,1.15-1.31,0.6c-0.46-0.44,0.27-0.62,0.6-0.82
		C386.56,238.74,386.8,238.81,386.99,239.06z"/>
	<path class="st19" d="M83.03,149.02c-0.88-0.31-0.97-0.65-0.03-1.02c0.54,0.15,0.84,0.51,0.89,1.07l-0.12,0.06l-0.4,0.18
		L83.03,149.02z"/>
	<path class="st21" d="M665.94,136.99c0.63,0.23,1.26,0.68,0.73,1.31c-0.44,0.51-0.62-0.27-0.84-0.59
		C665.65,137.43,665.69,137.19,665.94,136.99z"/>
	<path class="st27" d="M696.02,194.92c0.29-0.59,0.77-1.15,1.33-0.53c0.41,0.45-0.33,0.61-0.68,0.8l-0.38,0L696.02,194.92z"/>
	<path class="st36" d="M55.05,199.15c-0.02-0.38-0.03-0.77-0.05-1.15c0.82,0.01,1.65-0.01,1.99,0.97
		C56.35,199.03,55.7,199.09,55.05,199.15z"/>
	<path class="st17" d="M157,240.01c0.32,0,0.64-0.01,0.96-0.01c-0.01,0.67-0.01,1.33-0.02,2c-0.53-0.12-0.84-0.46-0.93-1
		c-0.35-0.22-0.46-0.44-0.35-0.66C156.76,240.12,156.88,240.01,157,240.01z"/>
	<path class="st27" d="M448.2,111.94c-0.63-0.04-1.04-0.37-1.23-0.97l-0.3-0.35l0.21-0.41l0.12-0.2
		C447.85,110.36,448.1,111.1,448.2,111.94z"/>
	<path class="st35" d="M525.1,242.02c-0.57-0.12-0.95-0.44-1.1-1.02c-0.35-0.22-0.46-0.44-0.35-0.66c0.12-0.22,0.23-0.33,0.35-0.33
		l0.01-0.01c0.37-0.29,0.74-0.28,1.1,0.02C525.39,240.68,525.4,241.35,525.1,242.02z"/>
	<path class="st5" d="M684.95,225.92c0.05,0.86,0.11,1.73-0.96,2.07C683.98,227.15,684.2,226.42,684.95,225.92z"/>
	<path class="st3" d="M459.82,229.07c-0.82-0.12-1.7-0.17-1.64-1.35C458.99,227.84,459.52,228.33,459.82,229.07z"/>
	<path class="st5" d="M683.99,227.99c0,0.67,0,1.34,0,2.01c-0.17,0.13-0.34,0.25-0.51,0.38c-0.17-0.13-0.33-0.26-0.5-0.39
		C682.99,229.15,683.28,228.47,683.99,227.99z"/>
	<path class="st8" d="M178,242c0,0.3,0.01,0.61,0.01,0.91c-0.86,0.15-1.64,0.06-2.15-0.77l0.3-0.26
		C176.8,241.45,177.42,241.48,178,242L178,242z"/>
	<path class="st5" d="M594,222.05c0,0.32,0,0.63,0,0.95v0c-0.58,0.57-1.2,0.57-1.86,0.14l-0.2-0.21
		C592.42,222.15,593.13,221.92,594,222.05z"/>
	<path class="st30" d="M206.01,242c0,0.29,0,0.58,0,0.87c-0.86,0.15-1.54-0.1-1.98-0.89C204.69,241.99,205.35,242,206.01,242z"/>
	<path class="st27" d="M357.98,229.11c-0.29,0.59-0.78,1.11-1.32,0.51c-0.41-0.45,0.31-0.61,0.66-0.8
		C357.6,228.76,357.82,228.85,357.98,229.11z"/>
	<path class="st30" d="M209.99,242.94c0.01-0.31,0.01-0.63,0.01-0.94c0.74,0.03,1.48,0.06,2.23,0.09
		C211.72,243,210.9,243.1,209.99,242.94z"/>
	<path class="st19" d="M560.99,229.04c0.03,0.39,0.07,0.78,0.1,1.17c0.12,0.3,0.07,0.55-0.17,0.77
		C559.79,230.29,559.76,229.64,560.99,229.04z"/>
	<path class="st5" d="M357,242c0,0.29,0.01,0.58,0.01,0.87c-0.86,0.16-1.58-0.04-2.05-0.83l0.25-0.19
		C355.84,241.47,356.44,241.5,357,242L357,242z"/>
	<path class="st5" d="M691.15,230.94c-1.26-0.29-1.14-1.2-0.96-2.14C691.07,229.26,691.14,230.09,691.15,230.94z"/>
	<path class="st27" d="M744.1,225.8c-0.17,0.33-0.32,0.98-0.77,0.58c-0.54-0.48-0.13-0.99,0.41-1.31
		C744.05,225.23,744.16,225.47,744.1,225.8z"/>
	<path class="st9" d="M391,242c0.74,0.03,1.48,0.06,2.22,0.09c-0.52,0.86-1.32,0.99-2.22,0.83C391,242.62,391,242.31,391,242z"/>
	<path class="st5" d="M683.08,230.93c-0.16,0.55-0.5,0.93-1.07,1.07c-0.08-0.87,0.27-1.53,0.98-2.01l0.17,0.17l0.2,0.41
		L683.08,230.93z"/>
	<path class="st8" d="M490,242c0,0.29,0.01,0.57,0.01,0.86c-0.86,0.16-1.54-0.11-2.03-0.85l0.25-0.19
		C488.86,241.47,489.45,241.5,490,242L490,242z"/>
	<path class="st27" d="M120.05,231.76c0.32-0.54,0.83-0.96,1.32-0.44c0.42,0.44-0.23,0.6-0.56,0.77
		C120.48,232.18,120.22,232.06,120.05,231.76z"/>
	<path class="st5" d="M691,233c0.03-0.71,0.06-1.42,0.1-2.13c0.84,0.45,0.94,1.24,0.96,2.07c-0.17,0.15-0.34,0.3-0.51,0.46
		C691.37,233.27,691.19,233.14,691,233z"/>
	<path class="st9" d="M569.99,242.9c0-0.3,0.01-0.6,0.01-0.9l0,0c0.58-0.52,1.19-0.55,1.83-0.13l0.31,0.26
		C571.62,242.94,570.85,243.05,569.99,242.9z"/>
	<path class="st5" d="M598.99,242.91c0-0.3,0.01-0.6,0.01-0.91v0c0.57-0.52,1.18-0.55,1.82-0.13l0.29,0.23
		C600.61,242.9,599.86,243.06,598.99,242.91z"/>
	<path class="st19" d="M359.1,196.3c0.08-0.3,0.16-0.6,0.24-0.9c0.22,0.19,0.44,0.38,0.66,0.57
		C359.76,196.26,359.46,196.37,359.1,196.3z"/>
	<path class="st43" d="M14,223c-0.36,0-0.72,0.01-1.09,0.01c-0.11-0.85,0.32-1.1,1.09-0.97C14,222.36,14,222.68,14,223z"/>
	<path class="st10" d="M302.02,222.16c0.02,0.29,0.01,0.58-0.04,0.87c-0.24-0.18-0.68-0.37-0.69-0.55
		C301.29,222.08,301.64,221.97,302.02,222.16z"/>
	<path class="st19" d="M241.97,223.13c-0.1,0.4-0.41,0.62-0.7,0.38c-0.18-0.15-0.11-0.59-0.16-0.9
		C241.4,222.79,241.69,222.96,241.97,223.13z"/>
	<path class="st3" d="M455.08,224.96c-0.58-0.07-0.93-0.39-1.08-0.94C454.6,224.05,454.96,224.37,455.08,224.96z"/>
	<path class="st3" d="M456.09,225.96c-0.61-0.09-0.96-0.43-1.05-1.04C455.63,225.02,455.96,225.39,456.09,225.96z"/>
	<path class="st19" d="M490,225c0,0.32,0,0.63-0.01,0.95c-0.29,0.14-0.59,0.28-0.88,0.42C489.09,225.71,489.34,225.22,490,225z"/>
	<path class="st18" d="M495.01,225.94c0-0.31,0-0.63-0.01-0.94c0.66,0.22,0.91,0.71,0.9,1.37
		C495.6,226.23,495.3,226.08,495.01,225.94z"/>
	<path class="st5" d="M688.87,225.98c-0.62-0.27-0.81-0.77-0.74-1.41C688.67,224.89,688.91,225.36,688.87,225.98z"/>
	<path class="st19" d="M180.83,103.97c-0.96-1.14,0.12-0.78,0.62-0.84C181.25,103.41,181.04,103.69,180.83,103.97z"/>
	<path class="st3" d="M457.15,226.91c-0.64-0.04-1-0.37-1.11-1C456.62,226.01,457.01,226.33,457.15,226.91z"/>
	<path class="st18" d="M42.08,118.25c0.09-0.29,0.17-0.58,0.26-0.87c0.22,0.18,0.43,0.36,0.65,0.54
		C42.74,118.2,42.44,118.3,42.08,118.25z"/>
	<path class="st3" d="M458.26,227.8c-0.71,0.08-1.09-0.26-1.18-0.95C457.66,226.93,458.12,227.17,458.26,227.8z"/>
	<path class="st5" d="M601.39,222.84c-0.46,0.05-0.93,0.11-1.39,0.16c-0.01-0.29-0.01-0.58-0.01-0.87
		C600.63,222.03,601.09,222.27,601.39,222.84z"/>
	<path class="st5" d="M689.01,228.01c0.04-0.45,0.08-0.91,0.13-1.36c0.55,0.29,0.84,0.72,0.78,1.36
		C689.61,228.29,689.31,228.31,689.01,228.01z"/>
	<path class="st18" d="M689.01,228.01c0.3,0,0.6,0,0.9,0c0.29,0.22,0.4,0.51,0.32,0.87C689.6,228.9,689.19,228.62,689.01,228.01z"/>
	<path class="st3" d="M460.06,230.04c-0.03-0.29-0.07-0.58-0.12-0.87c0.55,0.04,0.86,0.37,1.01,0.88c-0.15,0.11-0.3,0.22-0.45,0.33
		C460.35,230.26,460.2,230.15,460.06,230.04z"/>
	<path class="st19" d="M696.11,125.38c0.03-0.83,0.47-1.25,1.29-1.28C697.18,124.74,696.75,125.17,696.11,125.38z"/>
	<path class="st3" d="M462.03,230.98c-0.35,0-0.7-0.01-1.05-0.01c-0.31-0.23-0.35-0.5-0.13-0.81l0.11-0.11
		C461.52,230.12,461.9,230.41,462.03,230.98z"/>
	<path class="st44" d="M386,129c0-0.33,0-0.66,0-1c0.79-0.13,1.23,0.14,1.13,1.01C386.75,129,386.38,129,386,129z"/>
	<path class="st19" d="M49.99,131.06c-0.22,0.18-0.44,0.36-0.66,0.54c-0.08-0.3-0.16-0.6-0.23-0.89
		C49.39,130.82,49.69,130.94,49.99,131.06z"/>
	<path class="st3" d="M463.09,231.95c-0.59-0.07-0.95-0.4-1.08-0.98C462.6,231.05,462.95,231.39,463.09,231.95z"/>
	<path class="st43" d="M534.99,136l-0.5,0c0,0-0.5,0-0.5,0c0-0.35,0-0.7-0.01-1.05C534.83,134.83,535.12,135.21,534.99,136z"/>
	<path class="st19" d="M447.94,143.99c-0.4-0.07-0.67-0.36-0.48-0.67c0.11-0.18,0.58-0.15,0.89-0.21
		C448.22,143.4,448.08,143.69,447.94,143.99z"/>
	<path class="st3" d="M464.14,232.92c-0.64-0.05-1-0.39-1.1-1.01C463.65,231.99,464,232.33,464.14,232.92z"/>
	<path class="st21" d="M665.11,233.38c0.04-0.84,0.49-1.25,1.31-1.28C666.18,232.74,665.75,233.17,665.11,233.38z"/>
	<path class="st19" d="M41,151.98c0.05-0.41,0.33-0.69,0.66-0.52c0.18,0.09,0.16,0.59,0.23,0.9C41.6,152.23,41.3,152.11,41,151.98z"
		/>
	<path class="st3" d="M458.72,233.1c0.68,0,1.1,0.32,1.24,1C459.34,234.02,458.95,233.66,458.72,233.1z"/>
	<path class="st3" d="M465.21,233.86c-0.69,0.01-1.06-0.33-1.13-1.01C464.66,232.96,465.08,233.24,465.21,233.86z"/>
	<path class="st5" d="M692.74,234c-0.26-0.01-0.52-0.02-0.78-0.05c-0.33-0.24-0.36-0.51-0.1-0.82l0.2-0.19
		C692.54,233.13,692.81,233.46,692.74,234z"/>
	<path class="st27" d="M437.09,155.26c0.07-0.53-0.06-1.42,0.86-0.51C437.66,154.92,437.37,155.09,437.09,155.26z"/>
	<path class="st3" d="M459.9,234.05c0.59,0.06,0.95,0.38,1.1,0.95C460.44,234.91,460.05,234.62,459.9,234.05z"/>
	<path class="st21" d="M215.3,158.9c-0.3-0.07-0.6-0.14-0.9-0.22c0.17-0.22,0.35-0.45,0.52-0.67
		C215.21,158.25,215.33,158.54,215.3,158.9z"/>
	<path class="st27" d="M63.01,160.94c0.19-0.15,0.37-0.3,0.56-0.46c0.1,0.33,0.2,0.66,0.3,0.99
		C63.58,161.29,63.3,161.11,63.01,160.94z"/>
	<path class="st3" d="M461,235c0.34,0.01,0.68,0.02,1.02,0.02c0.12,0.16,0.24,0.31,0.36,0.47c-0.12,0.16-0.23,0.32-0.35,0.48
		C461.47,235.88,461.13,235.55,461,235z"/>
	<path class="st27" d="M363.09,163.02c0.39,0.08,0.65,0.37,0.45,0.67c-0.11,0.18-0.57,0.15-0.88,0.21
		C362.81,163.6,362.95,163.31,363.09,163.02z"/>
	<path class="st18" d="M32.01,166c-0.54-0.12-0.88-0.44-1.01-0.97C31.94,164.74,32.11,165.23,32.01,166z"/>
	<path class="st5" d="M680.9,234.84c0.05,0.55-0.16,0.93-0.69,1.12C680.14,235.41,680.33,235.01,680.9,234.84z"/>
	<path class="st30" d="M203.89,237.04c-0.58-0.24-0.84-0.68-0.79-1.3C203.61,236.02,203.85,236.47,203.89,237.04z"/>
	<path class="st18" d="M416.65,168.11c0.31,0.06,0.78,0.03,0.89,0.21c0.18,0.32-0.09,0.6-0.49,0.67
		C416.92,168.7,416.79,168.4,416.65,168.11z"/>
	<path class="st3" d="M462.96,235.97c0.02,0.3,0.05,0.61,0.09,0.91c-0.58-0.03-0.88-0.38-1.02-0.91l0.13-0.12
		C462.46,235.62,462.73,235.66,462.96,235.97z"/>
	<path class="st18" d="M669.64,168.12c0.31,0.05,0.77,0.01,0.89,0.19c0.2,0.31-0.05,0.6-0.44,0.68
		C669.93,168.69,669.79,168.4,669.64,168.12z"/>
	<path class="st27" d="M20.88,168.61c-0.06,0.32-0.02,0.81-0.2,0.91c-0.33,0.18-0.61-0.09-0.67-0.5
		C20.23,168.74,20.52,168.6,20.88,168.61z"/>
	<path class="st30" d="M204.9,238.04c-0.31-0.3-0.63-0.6-0.94-0.91C204.48,237.22,204.78,237.53,204.9,238.04z"/>
	<path class="st30" d="M212.89,236.72c0,0.71-0.34,1.12-1.05,1.19C211.96,237.31,212.33,236.93,212.89,236.72z"/>
	<path class="st18" d="M383.89,171.98c-1.04-0.66-0.42-0.81,0.28-0.93C384.08,171.36,383.98,171.67,383.89,171.98z"/>
	<path class="st5" d="M679.91,236.76c0.02,0.58-0.21,1-0.77,1.22C679.1,237.38,679.42,237.01,679.91,236.76z"/>
	<path class="st30" d="M206.21,238.92c-0.61,0.02-1.02-0.26-1.24-0.83C205.57,238.1,205.97,238.39,206.21,238.92z"/>
	<path class="st29" d="M215.01,238.98c0.17-0.58,0.56-0.88,1.17-0.89c-0.1,0.3-0.21,0.6-0.31,0.9
		C215.57,239.4,215.29,239.42,215.01,238.98z"/>
	<path class="st3" d="M464.78,238.15c0.72-0.01,1.08,0.35,1.09,1.06C465.27,239.1,464.9,238.75,464.78,238.15z"/>
	<path class="st18" d="M254.89,174.64c-0.06,0.31-0.03,0.79-0.21,0.9c-0.32,0.18-0.6-0.09-0.67-0.49
		C254.3,174.91,254.59,174.77,254.89,174.64z"/>
	<path class="st45" d="M83,240c0-0.33,0-0.66,0-0.99c0.32,0.06,0.65,0.11,0.97,0.17c-0.04,0.25-0.08,0.5-0.12,0.75
		c-0.13,0.16-0.26,0.32-0.39,0.48C83.31,240.27,83.16,240.13,83,240z"/>
	<path class="st18" d="M332.98,175.12c-0.84,1.09-0.82,0.22-0.89-0.4C332.38,174.86,332.68,174.99,332.98,175.12z"/>
	<path class="st21" d="M706.99,175.04c-0.06,0.41-0.35,0.68-0.67,0.5c-0.18-0.11-0.15-0.59-0.21-0.9
		C706.4,174.77,706.7,174.9,706.99,175.04z"/>
	<path class="st30" d="M215.01,238.98c0.29,0,0.57,0.01,0.86,0.01c0.05,0.61-0.27,0.93-0.83,1.04c-0.14-0.16-0.28-0.33-0.42-0.49
		c0.12-0.18,0.25-0.35,0.37-0.53L215.01,238.98z"/>
	<path class="st3" d="M465.79,239.14c0.69-0.01,1.06,0.34,1.13,1.01C466.31,240.08,465.92,239.75,465.79,239.14z"/>
	<path class="st45" d="M525.11,240.01c-0.37-0.01-0.73-0.01-1.1-0.02c0-0.33-0.01-0.66-0.01-0.99
		C524.79,238.87,525.22,239.14,525.11,240.01z"/>
	<path class="st19" d="M588.52,239.11c0.87,0.02,1.34,0.45,1.38,1.33C589.25,240.2,588.8,239.75,588.52,239.11z"/>
	<path class="st27" d="M200.64,178.12c0.49,0.07,1.5-0.24,0.6,0.83C201.04,178.67,200.84,178.39,200.64,178.12z"/>
	<path class="st30" d="M201.66,240.13c0.72-0.03,1.15,0.29,1.27,1.01C202.3,241.07,201.89,240.71,201.66,240.13z"/>
	<path class="st30" d="M213.96,240.91c0.02-0.32,0.04-0.63,0.06-0.95c0.24-0.3,0.51-0.34,0.83-0.12l0.19,0.19
		C214.88,240.58,214.55,240.91,213.96,240.91z"/>
	<path class="st3" d="M466.85,240.09c0.61,0.02,0.99,0.34,1.14,0.93C467.41,240.96,467.01,240.67,466.85,240.09z"/>
	<path class="st5" d="M682.05,239.95c0.39,0.05,0.78,0.1,1.18,0.15c-0.41,0.29-0.83,0.59-1.24,0.88
		C682.01,240.64,682.03,240.3,682.05,239.95z"/>
	<path class="st5" d="M690.7,240.13c0.42-0.05,0.85-0.1,1.27-0.16c-0.02,0.42-0.05,0.85-0.07,1.27
		C691.5,240.87,691.1,240.5,690.7,240.13z"/>
	<path class="st5" d="M695.01,241.02c0.04-0.46,0.08-0.92,0.13-1.38c0.56,0.3,0.82,0.78,0.82,1.4l-0.19,0.14l-0.42,0.11
		L695.01,241.02z"/>
	<path class="st27" d="M12.67,180.11c0.3,0.06,0.75,0.02,0.87,0.2c0.2,0.3-0.05,0.59-0.44,0.67
		C12.96,180.69,12.82,180.4,12.67,180.11z"/>
	<path class="st30" d="M202.86,241.09c0.61,0,0.98,0.31,1.15,0.89C203.4,241.97,203.02,241.68,202.86,241.09z"/>
	<path class="st30" d="M213.03,241.66c0.28-0.23,0.57-0.46,0.85-0.7C213.79,241.43,213.54,241.7,213.03,241.66z"/>
	<path class="st19" d="M178.3,184.9c-0.56-0.07-1.49,0.08-0.48-0.86C177.98,184.33,178.14,184.61,178.3,184.9z"/>
	<path class="st3" d="M469,241c0.01,0.33,0.02,0.66,0.01,0.99c-0.53-0.12-0.87-0.45-1.02-0.97C468.33,241,468.66,241,469,241z"/>
	<path class="st27" d="M79.12,189.4c0.04-0.88,0.52-1.28,1.37-1.29C80.21,188.74,79.76,189.17,79.12,189.4z"/>
	<path class="st18" d="M211.03,188.83c1.14-0.96,0.78,0.12,0.84,0.62C211.59,189.24,211.31,189.04,211.03,188.83z"/>
	<path class="st27" d="M75.99,191.02c0.01,0.27,0.01,0.53,0.01,0.8c-0.29,0.19-0.58,0.39-0.87,0.58
		C75.08,191.74,75.32,191.25,75.99,191.02z"/>
	<path class="st18" d="M451.34,193.89c-0.31-0.07-0.78-0.04-0.88-0.22c-0.17-0.32,0.1-0.6,0.5-0.66
		C451.08,193.3,451.21,193.6,451.34,193.89z"/>
	<path class="st19" d="M322.02,194.87c0.92-1.08,0.81-0.14,0.88,0.45C322.61,195.17,322.32,195.02,322.02,194.87z"/>
	<path class="st19" d="M31.01,195.94c0.21-0.19,0.42-0.37,0.64-0.56c0.09,0.29,0.19,0.57,0.28,0.86
		C31.62,196.13,31.32,196.03,31.01,195.94z"/>
	<path class="st19" d="M67.08,196.25c0.09-0.29,0.18-0.58,0.27-0.87c0.21,0.19,0.43,0.37,0.64,0.56
		C67.69,196.05,67.38,196.15,67.08,196.25z"/>
	<path class="st21" d="M629.06,242.72c0.21-0.48,0.59-0.67,1.09-0.68C629.98,242.59,629.92,243.31,629.06,242.72z"/>
	<path class="st38" d="M152.01,116.99c-6.15,0-12.29,0-18.44,0c-0.64,0-1.7,0.17-1.77-0.42c-0.08-0.7,0.91-0.56,1.5-0.56
		c12.46-0.01,24.91-0.01,37.37,0c0.6,0,1.6-0.1,1.54,0.55c-0.06,0.58-1.11,0.44-1.76,0.44C164.3,117,158.16,116.99,152.01,116.99z"
		/>
	<path class="st42" d="M134,176c12.1,0,24.21-0.01,36.31,0.03c0.63,0,1.79-0.53,1.79,0.62c0,0.55-1.16,0.34-1.79,0.34
		C158.21,177,146.1,177,134,177c-0.33-0.22-0.44-0.44-0.33-0.67C133.78,176.11,133.89,176,134,176z"/>
	<path class="st18" d="M175.02,114.02c-0.23-0.13-0.45-0.26-0.68-0.39C175,113.02,174.82,113.85,175.02,114.02L175.02,114.02z"/>
	<path class="st17" d="M131,176c0.33,0.01,0.67,0.03,1,0.04c0.32,0.22,0.43,0.43,0.32,0.65c-0.11,0.21-0.22,0.32-0.33,0.32
		C131.46,176.87,131.13,176.54,131,176C131,176,131,176,131,176z"/>
	<path class="st42" d="M132,177c0-0.32,0-0.64,0.01-0.97c0.33-0.02,0.66-0.03,0.99-0.03c0.26,0.22,0.34,0.44,0.26,0.67
		c-0.08,0.22-0.17,0.33-0.26,0.33l-0.5,0L132,177z"/>
	<path class="st17" d="M133,177c0-0.33,0-0.67,0-1c0.33,0,0.67,0,1,0c0,0.33,0,0.67,0,1c0,0-0.5,0-0.5,0L133,177z"/>
	<path class="st27" d="M175.06,178.93c-0.14,0.24-0.27,0.47-0.41,0.71c-0.63-0.7,0.25-0.48,0.42-0.69L175.06,178.93z"/>
	<path class="st27" d="M180.93,189.14c-0.17,0.15-0.34,0.29-0.52,0.44c0.16-0.17,0.31-0.34,0.47-0.51
		C180.88,189.06,180.93,189.14,180.93,189.14z"/>
	<path class="st42" d="M540.01,176.04C540,176.36,540,176.68,540,177c-13.77,0-27.55,0-41.32-0.01c-0.64,0-1.79,0.21-1.79-0.34
		c0-1.14,1.17-0.61,1.8-0.62C512.46,176.01,526.24,176.03,540.01,176.04z"/>
	<path class="st38" d="M537,116c0,0.33,0,0.65,0.01,0.98c-12.77,0.01-25.55,0.02-38.32-0.01c-0.63,0-1.8,0.52-1.8-0.62
		c0-0.55,1.15-0.34,1.79-0.34C511.45,116,524.23,116,537,116z"/>
	<path class="st17" d="M495.01,157.01c0,5.26,0,10.52-0.03,15.79c0,0.46-0.07,1.2-0.34,1.32c-0.61,0.28-0.62-0.39-0.61-0.76
		c0.09-5.25-0.34-10.5,0.26-15.73c0.03-0.23,0.46-0.42,0.71-0.62L495.01,157.01z"/>
	<path class="st17" d="M494.99,127.17c-0.47,2.08,0.78,4.69-0.59,7.11c-0.86-2.4-0.28-4.87-0.39-7.31c-0.1-2.14-0.02-4.29-0.02-6.44
		c0-0.65-0.13-1.7,0.44-1.75c0.62-0.06,0.54,0.94,0.54,1.55C495,122.48,494.99,124.63,494.99,127.17z"/>
	<path class="st27" d="M34.97,96.98c0.23,0.13,0.46,0.27,0.68,0.4c-0.67,0.6-0.48-0.22-0.67-0.4L34.97,96.98z"/>
	<path class="st27" d="M32.91,97.93c0.24,0.14,0.48,0.28,0.72,0.42c-0.71,0.63-0.48-0.26-0.7-0.43L32.91,97.93z"/>
	<path class="st19" d="M27.08,101.05c0.16,0.17,0.32,0.35,0.47,0.52c-0.11-0.02-0.27-0.01-0.33-0.08c-0.09-0.11-0.12-0.27-0.18-0.42
		L27.08,101.05z"/>
	<path class="st21" d="M23.15,104.08c0.14,0.17,0.29,0.34,0.43,0.51c-0.17-0.15-0.34-0.3-0.51-0.44
		C23.08,104.15,23.15,104.08,23.15,104.08z"/>
	<path class="st27" d="M80.03,109.95c-0.13,0.23-0.27,0.46-0.4,0.69c-0.61-0.68,0.23-0.48,0.41-0.68
		C80.04,109.97,80.03,109.95,80.03,109.95z"/>
	<path class="st21" d="M55.99,118.01c0.18-0.18,0.35-0.36,0.53-0.54c-0.03,0.11-0.02,0.27-0.09,0.33
		C56.31,117.9,56.14,117.94,55.99,118.01L55.99,118.01z"/>
	<path class="st27" d="M60.93,122.09c0.14-0.24,0.28-0.48,0.42-0.73c0.64,0.71-0.26,0.48-0.43,0.71L60.93,122.09z"/>
	<path class="st19" d="M42.02,127.97c-0.13,0.23-0.26,0.46-0.39,0.68c-0.6-0.67,0.23-0.48,0.41-0.68L42.02,127.97z"/>
	<path class="st18" d="M67.04,137.95c-0.13,0.23-0.27,0.47-0.4,0.7c-0.61-0.68,0.25-0.48,0.42-0.69L67.04,137.95z"/>
	<path class="st27" d="M76.04,141.95c-0.13,0.23-0.27,0.47-0.4,0.7c-0.61-0.68,0.24-0.48,0.42-0.69L76.04,141.95z"/>
	<path class="st18" d="M83.03,149.02c0.25-0.02,0.5,0.02,0.73,0.12c-0.13,0.18-0.25,0.37-0.38,0.55
		C83.27,149.46,83.15,149.24,83.03,149.02z"/>
	<path class="st18" d="M38.96,151.05c0.13-0.23,0.27-0.47,0.4-0.7c0.61,0.68-0.25,0.48-0.42,0.69L38.96,151.05z"/>
	<path class="st27" d="M87.09,154.9c-0.14,0.24-0.28,0.49-0.42,0.73c-0.64-0.71,0.27-0.49,0.43-0.71L87.09,154.9z"/>
	<path class="st21" d="M55.95,158.06c0.14-0.24,0.27-0.47,0.41-0.71c0.61,0.69-0.26,0.48-0.42,0.7L55.95,158.06z"/>
	<path class="st19" d="M39.01,174.98c-0.13,0.22-0.26,0.45-0.39,0.67C38.02,175,38.84,175.19,39.01,174.98L39.01,174.98z"/>
	<path class="st19" d="M59.98,174.99c0.22,0.13,0.45,0.27,0.67,0.4C60,175.98,60.17,175.18,59.98,174.99
		C59.99,174.99,59.98,174.99,59.98,174.99z"/>
	<path class="st19" d="M83.97,183.98c-0.17-0.17-0.34-0.35-0.51-0.52c0.11,0.02,0.27,0.01,0.33,0.08c0.1,0.11,0.13,0.28,0.19,0.43
		L83.97,183.98z"/>
	<path class="st27" d="M19.05,188.9c0.17-0.16,0.34-0.31,0.52-0.47c-0.15,0.17-0.31,0.34-0.46,0.51L19.05,188.9z"/>
	<path class="st21" d="M23.05,191.9c0.17-0.16,0.34-0.32,0.51-0.48c-0.15,0.17-0.3,0.34-0.45,0.52
		C23.11,191.93,23.05,191.9,23.05,191.9z"/>
	<path class="st21" d="M29,195c0.18-0.18,0.35-0.36,0.53-0.54c-0.03,0.11-0.02,0.27-0.09,0.33C29.32,194.9,29.15,194.94,29,195
		L29,195z"/>
	<path class="st18" d="M70,195c-0.18-0.18-0.35-0.36-0.53-0.54c0.12,0.03,0.28,0.02,0.34,0.09C69.91,194.68,69.94,194.85,70,195
		L70,195z"/>
	<path class="st27" d="M737.04,96.95c-0.13,0.23-0.27,0.47-0.4,0.7c-0.6-0.68,0.25-0.48,0.42-0.69
		C737.06,96.96,737.04,96.95,737.04,96.95z"/>
	<path class="st27" d="M739.07,97.91c-0.14,0.24-0.28,0.48-0.42,0.72c-0.62-0.71,0.27-0.49,0.44-0.71
		C739.09,97.92,739.07,97.91,739.07,97.91z"/>
	<path class="st19" d="M686.13,104.07c0.15,0.17,0.29,0.34,0.44,0.52c-0.17-0.16-0.34-0.31-0.51-0.47L686.13,104.07z"/>
	<path class="st27" d="M676.1,114.05c0.16,0.17,0.32,0.34,0.47,0.51c-0.17-0.15-0.34-0.3-0.51-0.46
		C676.06,114.11,676.1,114.05,676.1,114.05z"/>
	<path class="st18" d="M707.03,118.02c-0.23-0.13-0.46-0.27-0.68-0.4c0.67-0.6,0.48,0.22,0.67,0.41
		C707.02,118.03,707.03,118.02,707.03,118.02z"/>
	<path class="st27" d="M728.94,118.07c0.14-0.24,0.27-0.48,0.41-0.71c0.61,0.7-0.27,0.48-0.43,0.71
		C728.92,118.06,728.94,118.07,728.94,118.07z"/>
	<path class="st18" d="M670.04,124.02c0.17,0.17,0.34,0.35,0.51,0.52c-0.11-0.02-0.27,0-0.33-0.07c-0.1-0.11-0.13-0.28-0.2-0.42
		L670.04,124.02z"/>
	<path class="st19" d="M728.99,174.99c0.18,0.18,0.36,0.36,0.53,0.54c-0.12-0.03-0.28-0.02-0.34-0.09
		C729.09,175.32,729.05,175.14,728.99,174.99C728.99,174.99,728.99,174.99,728.99,174.99z"/>
	<path class="st27" d="M726.86,175.87c0.25,0.15,0.5,0.3,0.76,0.45c-0.73,0.66-0.5-0.3-0.75-0.45L726.86,175.87z"/>
	<path class="st19" d="M676.06,178.89c0.17-0.15,0.34-0.3,0.52-0.46c-0.16,0.17-0.32,0.34-0.48,0.51
		C676.1,178.94,676.06,178.89,676.06,178.89z"/>
	<path class="st18" d="M686.04,188.93c0.17-0.17,0.34-0.33,0.52-0.5c-0.02,0.11,0,0.27-0.07,0.33c-0.11,0.1-0.27,0.13-0.41,0.19
		C686.07,188.96,686.04,188.93,686.04,188.93z"/>
	<path class="st21" d="M749.98,188.03c0.02,0.25-0.03,0.5-0.13,0.73c-0.18-0.13-0.36-0.26-0.54-0.38
		C749.54,188.26,749.76,188.15,749.98,188.03z"/>
	<path class="st27" d="M689.03,190.96c0.17-0.17,0.35-0.34,0.52-0.51c-0.02,0.11,0,0.27-0.07,0.33c-0.11,0.1-0.28,0.13-0.42,0.19
		C689.05,190.97,689.03,190.96,689.03,190.96z"/>
	<path class="st27" d="M214.1,137.09c-0.25-0.14-0.49-0.29-0.74-0.43c0.72-0.63,0.49,0.29,0.73,0.45L214.1,137.09z"/>
	<path class="st27" d="M262.07,96.92c-0.14,0.24-0.28,0.48-0.42,0.72c-0.62-0.71,0.27-0.49,0.44-0.71L262.07,96.92z"/>
	<path class="st27" d="M221.9,97.91c0.24,0.14,0.49,0.28,0.73,0.42c-0.72,0.64-0.49-0.27-0.72-0.43L221.9,97.91z"/>
	<path class="st19" d="M275.03,105.02c0.26-0.02,0.52,0.01,0.77,0.1c-0.13,0.19-0.26,0.38-0.39,0.57
		C275.28,105.47,275.16,105.25,275.03,105.02z"/>
	<path class="st18" d="M253.98,118.03c0.13-0.23,0.26-0.46,0.39-0.68c0.6,0.67-0.23,0.47-0.4,0.68L253.98,118.03z"/>
	<path class="st18" d="M221.82,124.91c-0.14-0.17-0.28-0.34-0.41-0.51c0.17,0.14,0.34,0.28,0.51,0.43L221.82,124.91z"/>
	<path class="st46" d="M215.01,135.01c-0.18-0.18-0.36-0.35-0.54-0.53c0.11,0.03,0.27,0.02,0.33,0.09
		C214.9,134.69,214.94,134.86,215.01,135.01L215.01,135.01z"/>
	<path class="st21" d="M221.9,168.21c-0.17,0.13-0.34,0.26-0.51,0.4c0.14-0.17,0.27-0.34,0.41-0.51
		C221.8,168.1,221.9,168.21,221.9,168.21z"/>
	<path class="st27" d="M197.97,174.04c0.13-0.23,0.27-0.46,0.4-0.69c0.61,0.68-0.22,0.48-0.41,0.68
		C197.96,174.03,197.97,174.04,197.97,174.04z"/>
	<path class="st18" d="M232,175c-0.18,0.18-0.35,0.36-0.53,0.54c0.03-0.12,0.02-0.27,0.09-0.34C231.68,175.1,231.85,175.06,232,175
		C232,175,232,175,232,175z"/>
	<path class="st27" d="M251.89,175.91c0.25,0.14,0.49,0.28,0.74,0.43c-0.72,0.65-0.48-0.28-0.72-0.43L251.89,175.91z"/>
	<path class="st19" d="M274.97,188.98c-0.17-0.18-0.34-0.35-0.51-0.53c0.12,0.03,0.28,0.01,0.34,0.09c0.1,0.12,0.13,0.29,0.19,0.43
		L274.97,188.98z"/>
	<path class="st27" d="M271.98,190.99c-0.17-0.18-0.34-0.35-0.51-0.53c0.12,0.03,0.28,0.01,0.34,0.09c0.1,0.12,0.13,0.29,0.19,0.44
		L271.98,190.99z"/>
	<path class="st38" d="M318.99,126.27c0,8.98,0.01,17.96-0.02,26.93c0,0.71,0.41,1.82-0.58,1.97c-0.46,0.07-0.39-1.12-0.39-1.77
		c-0.01-5.32-0.01-10.64-0.01-15.96c0-12.3,0-24.61,0-36.91c0-0.83-0.05-1.67,0.02-2.49c0.04-0.46,0.27-0.91,0.42-1.36
		c0.18,0.39,0.5,0.77,0.52,1.16c0.07,1.16,0.03,2.33,0.03,3.49C318.99,109.65,318.99,117.96,318.99,126.27z"/>
	<path class="st27" d="M321.99,165.02c-0.18,0.17-0.35,0.34-0.53,0.52c0.03-0.12,0.02-0.28,0.09-0.34
		C321.66,165.1,321.84,165.07,321.99,165.02L321.99,165.02z"/>
	<path class="st27" d="M360.1,168.05c0.16,0.17,0.32,0.34,0.48,0.52c-0.11-0.02-0.27,0.01-0.33-0.06c-0.1-0.1-0.13-0.27-0.19-0.4
		L360.1,168.05z"/>
	<path class="st27" d="M299.93,170.09c0.14-0.24,0.28-0.48,0.42-0.72c0.63,0.7-0.26,0.48-0.43,0.7L299.93,170.09z"/>
	<path class="st19" d="M356.12,172.06c0.15,0.17,0.3,0.34,0.45,0.52c-0.17-0.16-0.34-0.31-0.51-0.47L356.12,172.06z"/>
	<path class="st27" d="M380.01,179.01c-0.22-0.13-0.45-0.26-0.67-0.39C380,178.02,379.82,178.83,380.01,179.01L380.01,179.01z"/>
	<path class="st27" d="M309.08,184.83c0.17-0.14,0.34-0.28,0.51-0.42c-0.14,0.17-0.29,0.34-0.43,0.51L309.08,184.83z"/>
	<path class="st46" d="M313.08,188.82c0.17-0.14,0.34-0.28,0.51-0.43c-0.14,0.17-0.27,0.34-0.41,0.51L313.08,188.82z"/>
	<path class="st27" d="M317.13,191.78c-0.1-0.24-0.13-0.49-0.11-0.75c0.22,0.12,0.45,0.24,0.67,0.36
		C317.5,191.52,317.32,191.65,317.13,191.78z"/>
	<path class="st27" d="M367.06,192.05c-0.23-0.14-0.47-0.27-0.7-0.41c0.69-0.62,0.48,0.24,0.69,0.42L367.06,192.05z"/>
	<path class="st18" d="M361.95,194.97c-0.16-0.18-0.33-0.35-0.49-0.53c0.12,0.03,0.27,0.02,0.34,0.09c0.1,0.11,0.13,0.28,0.18,0.43
		L361.95,194.97z"/>
	<path class="st38" d="M364.92,117.08c0.53-1.11,1.54-1.08,2.55-1.08c16.96,0,33.91,0,50.87,0.01c0.64,0,1.81-0.18,1.79,0.35
		c-0.04,1.12-1.2,0.6-1.85,0.61c-17.79,0.05-35.57,0.07-53.36,0.09L364.92,117.08z"/>
	<path class="st6" d="M400,139c7,0,14,0,21,0c-0.36,0.31-0.72,0.88-1.08,0.89c-6.28,0.06-12.55,0.06-18.83,0
		C400.72,139.89,400.36,139.31,400,139z"/>
	<path class="st7" d="M440.2,196c2.72,0.47,5.99-0.8,9.1,0.57c-3.07,0.9-6.2,0.27-9.3,0.4c-2.81,0.12-5.63,0.03-8.44,0.02
		c-0.64,0-1.83,0.02-1.75-0.4c0.18-0.96,1.28-0.57,2-0.58C434.45,195.98,437.1,196,440.2,196z"/>
	<path class="st27" d="M431.02,127.43c-0.16,0.31-0.35,0.69-0.54,1.07c-0.14-0.26-0.41-0.54-0.38-0.78
		c0.05-0.41,0.29-0.81,0.45-1.21C430.68,126.77,430.82,127.03,431.02,127.43z"/>
	<path class="st7" d="M452.03,195.96c-0.13,0.23-0.27,0.46-0.4,0.69c-0.62-0.68,0.22-0.48,0.4-0.68L452.03,195.96z"/>
	<path class="st19" d="M431.01,96.99c-0.13,0.22-0.26,0.45-0.39,0.67C430.02,97,430.84,97.19,431.01,96.99L431.01,96.99z"/>
	<path class="st19" d="M433.03,97.96c-0.13,0.23-0.27,0.46-0.4,0.69c-0.61-0.68,0.24-0.48,0.41-0.69
		C433.05,97.96,433.03,97.96,433.03,97.96z"/>
	<path class="st18" d="M446.88,110.2c0.08,0.25,0.11,0.5,0.09,0.77c-0.22-0.13-0.44-0.25-0.66-0.38
		C446.5,110.46,446.69,110.33,446.88,110.2z"/>
	<path class="st18" d="M427.06,120.88c0.17-0.15,0.34-0.3,0.52-0.45c-0.15,0.17-0.31,0.34-0.46,0.51L427.06,120.88z"/>
	<path class="st27" d="M450.08,139.07c-0.24-0.14-0.48-0.28-0.72-0.42c0.71-0.62,0.49,0.27,0.71,0.44L450.08,139.07z"/>
	<path class="st18" d="M437.02,158.97c-0.13,0.23-0.27,0.46-0.4,0.68c-0.6-0.67,0.22-0.48,0.41-0.67L437.02,158.97z"/>
	<path class="st27" d="M443.06,173.92c-0.14,0.24-0.27,0.48-0.41,0.71c-0.63-0.7,0.25-0.48,0.42-0.69L443.06,173.92z"/>
	<path class="st18" d="M443.99,176.01c-0.18,0.17-0.36,0.35-0.53,0.52c0.03-0.12,0.02-0.28,0.09-0.34
		C443.67,176.1,443.84,176.06,443.99,176.01L443.99,176.01z"/>
	<path class="st18" d="M423.99,186.01c0.18-0.18,0.36-0.36,0.54-0.53c-0.03,0.12-0.02,0.28-0.09,0.34
		C424.32,185.91,424.14,185.95,423.99,186.01L423.99,186.01z"/>
	<path class="st27" d="M450.01,190.98c-0.13,0.22-0.27,0.45-0.4,0.67C449.02,191,449.82,191.17,450.01,190.98L450.01,190.98z"/>
	<path class="st47" d="M591.93,153.97c-0.17-0.18-0.33-0.35-0.5-0.53c0.18,0.16,0.36,0.31,0.53,0.47
		C591.97,153.91,591.93,153.97,591.93,153.97z"/>
	<path class="st27" d="M621.95,226.09c-0.17,0.16-0.35,0.31-0.52,0.47c0.02-0.11,0.01-0.27,0.08-0.33c0.11-0.09,0.27-0.12,0.41-0.18
		L621.95,226.09z"/>
	<path class="st19" d="M713.95,231.97c-0.24,0.03-0.48-0.01-0.7-0.1c0.12-0.19,0.24-0.37,0.36-0.56
		C713.72,231.53,713.83,231.75,713.95,231.97z"/>
	<path class="st27" d="M720,233.01c-0.18,0.18-0.35,0.35-0.53,0.53c0.03-0.12,0.01-0.28,0.09-0.34
		C719.67,233.1,719.84,233.07,720,233.01C719.99,233.01,720,233.01,720,233.01z"/>
	<path class="st48" d="M602.96,229.03c1.37,3.96,0.19,7.1-3.07,9.57c-0.11,0.53-0.4,0.67-0.88,0.41c-0.98-0.01-1.97,0.11-2.93-0.04
		c-2.81-0.43-4.86-1.95-5.69-4.69c-0.76-2.52-0.16-4.84,1.8-6.71c0.58-0.55,1.23-1.04,1.85-1.55c0,0-0.01,0-0.01,0
		c1.67-0.05,3.34-0.11,5.01-0.16c0.38-0.32,0.64-0.22,0.77,0.24c1.05,0.98,2.11,1.96,3.16,2.94L602.96,229.03z"/>
	<path class="st27" d="M592.14,223.14c0.62-0.05,1.24-0.1,1.86-0.14c-0.33,0.67-0.67,1.33-1,2c0,0,0,0,0,0
		C592.07,224.68,591.97,223.97,592.14,223.14z"/>
	<path class="st27" d="M600.82,241.87c-0.61,0.04-1.22,0.09-1.82,0.13C599.54,241.04,600.11,240.5,600.82,241.87z"/>
	<path class="st27" d="M599.8,226.1c-0.31,0.07-0.56-0.01-0.77-0.24c0.28-0.58,0.78-1.06,1.31-0.55
		C600.81,225.75,600.13,225.92,599.8,226.1z"/>
	<path class="st27" d="M589.07,225.04c0.16,0.17,0.33,0.35,0.49,0.52c-0.11-0.02-0.27-0.01-0.33-0.07c-0.1-0.11-0.13-0.27-0.19-0.42
		L589.07,225.04z"/>
	<path class="st27" d="M594.03,226.02c-0.53-0.15-0.9-0.47-1.03-1.02v0c0.55,0.13,0.89,0.48,1.02,1.03L594.03,226.02z"/>
	<path class="st19" d="M606.03,226.96c-0.14,0.23-0.27,0.46-0.41,0.69c-0.6-0.67,0.23-0.48,0.41-0.68L606.03,226.96z"/>
	<path class="st27" d="M602.96,229.05c0.14-0.23,0.27-0.46,0.41-0.69c0.61,0.68-0.23,0.48-0.41,0.68L602.96,229.05z"/>
	<path class="st18" d="M605.75,237.87c-0.23,0.09-0.48,0.13-0.73,0.12c0.12-0.23,0.23-0.45,0.35-0.68
		C605.5,237.5,605.63,237.69,605.75,237.87z"/>
	<path class="st19" d="M599,239.01c0.23-0.26,0.53-0.4,0.88-0.41c-0.06,0.32-0.02,0.82-0.2,0.92
		C599.35,239.71,599.06,239.43,599,239.01z"/>
	<path class="st49" d="M236.83,230.9c-2,0.14-3.66,0.04-3.65-2.71c0.02-2.76,1.92-2.16,3.47-2.21c1.87-0.07,4.07-0.13,4.13,2.38
		C240.85,230.84,238.76,231.01,236.83,230.9z"/>
	<path class="st17" d="M230.1,222.98c0.3,0.02,0.6,0.02,0.91,0.02c0,5.61,0.01,11.22-0.02,16.83c0,0.46-0.23,1.32-0.34,1.32
		c-0.95-0.03-0.62-0.84-0.62-1.34C230.03,234.2,230.07,228.59,230.1,222.98z"/>
	<path class="st27" d="M238,236c0.18-0.18,0.36-0.35,0.54-0.53c-0.03,0.12-0.02,0.28-0.09,0.34C238.32,235.91,238.15,235.94,238,236
		L238,236z"/>
	<path class="st46" d="M242,236c-0.18,0.18-0.36,0.35-0.54,0.53c0.03-0.12,0.02-0.28,0.1-0.34C241.68,236.09,241.85,236.06,242,236
		C242,236,242,236,242,236z"/>
	<path class="st19" d="M238.97,238.04c0.14-0.23,0.27-0.46,0.41-0.69c0.6,0.68-0.23,0.48-0.41,0.68L238.97,238.04z"/>
	<path class="st17" d="M45,237.39c0.02-0.68,0.1-1.83,0.48-1.69c0.84,0.33,0.5,1.42,0.5,2.2c0,0.46-0.21,0.91-0.33,1.37
		C44.58,238.91,45.2,237.98,45,237.39z"/>
	<polygon class="st17" points="45.68,241.53 45.42,241.62 45.45,241.37 	"/>
	<path class="st27" d="M126.02,225.97c0.17-0.17,0.35-0.35,0.52-0.52c-0.02,0.11-0.01,0.27-0.08,0.33c-0.11,0.1-0.28,0.14-0.43,0.2
		C126.04,225.98,126.02,225.97,126.02,225.97z"/>
	<path class="st27" d="M123,229.01c-0.18,0.18-0.35,0.36-0.53,0.53c0.03-0.11,0.01-0.27,0.09-0.33
		C122.67,229.11,122.84,229.07,123,229.01L123,229.01z"/>
	<path class="st50" d="M662.89,226.39c0.87,3.23,0.49,4.12-2.13,4.46c-1.46,0.19-2.95,0.06-4.43,0.07
		c-1.32-1.59-1.08-3.22-0.13-4.87c1.94-0.04,3.89-0.08,5.83-0.11C662.49,225.72,662.78,225.89,662.89,226.39z"/>
	<path class="st29" d="M656.19,226.05c-0.2,1.63-0.25,3.26,0.13,4.87C654.16,229.35,654.35,227.72,656.19,226.05z"/>
	<path class="st18" d="M662.89,226.39c-0.34-0.06-0.63-0.21-0.87-0.45c0.07-0.41,0.37-0.67,0.68-0.46
		C662.88,225.6,662.83,226.07,662.89,226.39z"/>
	<path class="st27" d="M361,223c0.61,0.04,1.21,0.09,1.82,0.13C362.11,224.5,361.54,223.96,361,223z"/>
	<path class="st27" d="M357,242c-0.6-0.05-1.19-0.1-1.79-0.15C355.93,240.46,356.48,241.09,357,242z"/>
	<path class="st18" d="M356,226c-0.1,0.46-0.13,0.96-0.33,1.37c-0.11,0.22-0.49,0.03-0.51-0.36C355.13,226.46,355.5,226.16,356,226
		L356,226z"/>
	<path class="st19" d="M365.92,233.15c-0.17,0.14-0.34,0.29-0.52,0.43c0.15-0.17,0.3-0.34,0.46-0.51L365.92,233.15z"/>
	<path class="st19" d="M357.05,238.94c-0.13,0.24-0.27,0.47-0.4,0.71c-0.61-0.69,0.27-0.47,0.42-0.7L357.05,238.94z"/>
	<path class="st18" d="M366.01,240.01c-0.18-0.18-0.36-0.36-0.54-0.54c0.12,0.03,0.27,0.02,0.34,0.09
		C365.91,239.69,365.95,239.86,366.01,240.01L366.01,240.01z"/>
	<path class="st31" d="M495,225c-1.67,0-3.33,0-5,0C491.67,223.45,493.33,223.45,495,225z"/>
	<path class="st19" d="M490,242c-0.59-0.06-1.17-0.11-1.76-0.17C488.96,240.44,489.49,241.12,490,242z"/>
	<path class="st3" d="M82,240c0.33,0,0.67-0.01,1-0.01c0,0,0,0,0,0c0.28,0.22,0.38,0.45,0.28,0.67c-0.1,0.22-0.19,0.33-0.29,0.33
		l-0.5,0l-0.5,0C82,240.67,82,240.34,82,240z"/>
	<path class="st27" d="M180.79,225.01c-1.02-0.07-2.21-0.07-2.08-0.47c0.27-0.85,1.36-0.52,2.13-0.51c0.53,0,1.34-0.26,1.36,0.63
		C182.19,224.79,181.05,224.94,180.79,225.01z"/>
	<path class="st19" d="M175.27,223.19c0.58-0.06,1.15-0.13,1.73-0.19C176.51,223.84,176,224.59,175.27,223.19z"/>
	<path class="st27" d="M178,242c-0.61-0.04-1.23-0.08-1.84-0.12C176.86,240.53,177.45,241.01,178,242z"/>
	<path class="st19" d="M185.05,222.94c-0.14,0.24-0.27,0.47-0.41,0.71c-0.62-0.69,0.26-0.48,0.42-0.7L185.05,222.94z"/>
	<path class="st27" d="M174.04,229.03c-0.23-0.13-0.46-0.27-0.69-0.4c0.68-0.61,0.48,0.24,0.69,0.41L174.04,229.03z"/>
	<path class="st21" d="M178,239c-0.18,0.18-0.35,0.36-0.53,0.54c0.03-0.11,0.02-0.27,0.09-0.33C177.68,239.1,177.85,239.06,178,239
		L178,239z"/>
	<path class="st22" d="M388.93,225.08c-0.46-0.19-0.89-0.37-1.32-0.55c0.39-0.18,0.77-0.47,1.18-0.5c0.56-0.04,1.27-0.22,1.56,0.58
		C389.89,224.77,389.44,224.92,388.93,225.08z"/>
	<path class="st27" d="M384.22,223.16c0.59-0.05,1.19-0.11,1.78-0.16C385.48,223.9,384.94,224.54,384.22,223.16z"/>
	<path class="st27" d="M382.98,236.03c-0.18,0.17-0.35,0.34-0.53,0.51c0.03-0.12,0.02-0.28,0.09-0.34c0.12-0.1,0.29-0.13,0.43-0.19
		L382.98,236.03z"/>
	<path class="st27" d="M391.01,239.01c0.17,0.18,0.35,0.36,0.52,0.54c-0.12-0.03-0.28-0.02-0.34-0.09
		C391.09,239.33,391.06,239.16,391.01,239.01C391.01,239.01,391.01,239.01,391.01,239.01z"/>
	<path class="st22" d="M570,225c-0.64-0.01-1.29,0.04-1.92-0.04c-0.48-0.07-1.3,0.37-1.3-0.59c0-0.12,0.81-0.3,1.26-0.35
		C568.88,223.92,569.62,224.12,570,225L570,225z"/>
	<path class="st19" d="M571.83,241.87c-0.61,0.04-1.22,0.08-1.83,0.13C570.54,241.03,571.12,240.51,571.83,241.87z"/>
	<path class="st19" d="M558.02,228.01c0.49,0.16,0.85,0.46,0.82,1c-0.01,0.14-0.34,0.25-0.52,0.38c-0.1-0.46-0.2-0.91-0.3-1.37
		L558.02,228.01z"/>
	<path class="st27" d="M562.93,222.95c0.24,0.14,0.47,0.27,0.71,0.41c-0.69,0.62-0.48-0.25-0.69-0.42
		C562.95,222.94,562.93,222.95,562.93,222.95z"/>
	<path class="st18" d="M565.03,226.03c-0.23-0.14-0.46-0.27-0.69-0.41c0.67-0.6,0.48,0.22,0.67,0.41L565.03,226.03z"/>
	<path class="st18" d="M561.96,236.07c-0.17,0.16-0.35,0.32-0.53,0.48c0.03-0.11,0.02-0.27,0.09-0.33c0.11-0.1,0.28-0.12,0.42-0.18
		L561.96,236.07z"/>
	<path class="st27" d="M569.98,238.99c0.22,0.13,0.45,0.27,0.67,0.4C570,239.98,570.17,239.18,569.98,238.99L569.98,238.99z"/>
	<path class="st18" d="M305.99,229.01c0.18-0.18,0.36-0.36,0.54-0.54c-0.03,0.12-0.02,0.28-0.09,0.34
		C306.32,228.91,306.14,228.95,305.99,229.01L305.99,229.01z"/>
	<path class="st27" d="M309.96,228.07c-0.17,0.16-0.35,0.32-0.52,0.48c0.02-0.11,0.01-0.27,0.08-0.33c0.11-0.1,0.28-0.13,0.42-0.18
		C309.94,228.04,309.96,228.07,309.96,228.07z"/>
	<path class="st18" d="M315.9,228.95c-0.16-0.17-0.32-0.34-0.48-0.51c0.17,0.15,0.34,0.3,0.52,0.45L315.9,228.95z"/>
	<path class="st27" d="M214.84,239.84c-0.27,0.1-0.54,0.14-0.83,0.12c0.1-0.54,0.42-0.85,0.96-0.96
		C214.99,239.3,214.94,239.57,214.84,239.84z"/>
	<path class="st42" d="M467,235c0.04-4,0.07-8.01,0.11-12.01c0.3,0.01,0.59,0.02,0.89,0.01c0.25,0.22,0.34,0.44,0.25,0.67
		c-0.08,0.22-0.17,0.33-0.25,0.33c0,2.81,0,5.62,0,8.44C468,233.42,468.14,234.46,467,235z"/>
	<path class="st3" d="M468,224c0-0.33,0-0.67,0-1c0.54,0.13,0.87,0.46,1,1C468.66,224,468.33,224,468,224z"/>
	<path class="st27" d="M460.84,230.16c0.1,0.26,0.15,0.53,0.13,0.81c-0.54-0.09-0.86-0.38-0.92-0.94
		C460.33,230.03,460.59,230.07,460.84,230.16z"/>
	<path class="st27" d="M462.96,235.97c-0.28,0.01-0.55-0.03-0.81-0.12c-0.1-0.27-0.14-0.54-0.13-0.82
		C462.56,235.11,462.88,235.42,462.96,235.97z"/>
	<path class="st51" d="M685.64,233.06c0.12-0.35,0.24-0.7,0.36-1.06c0.69-0.56,1.35-0.59,1.98,0.1c-0.03,0.34,0.06,0.65,0.25,0.94
		c0.19,0.43,0.56,0.77,0.67,1.24c-0.05,0.28,0.02,0.53,0.22,0.74c-0.34,2-1.73,2.01-3.19,1.55c-1.29-0.4-1.67-1.34-0.96-2.58
		l0.02-0.03C685.31,233.74,685.53,233.44,685.64,233.06z"/>
	<path class="st5" d="M684.97,233.99c0.55,2.76,1.54,3,4.15,1.03c0.91,0.38,0.87,1.19,0.88,1.98c-2,0.75-4,0.8-6,0
		C684.12,235.93,683.57,234.65,684.97,233.99z"/>
	<path class="st42" d="M684,237c2,0,4,0,6,0c-0.5,1.17-1.54,0.98-2.5,1s-2-0.17-2.5,1l-0.5,0l-0.5,0C684,238.33,684,237.67,684,237z
		"/>
	<path class="st5" d="M687.98,232.1c-0.66-0.03-1.32-0.07-1.98-0.1C686.72,230.75,687.38,230.76,687.98,232.1z"/>
	<path class="st18" d="M683.08,230.93c-0.04-0.26-0.01-0.52,0.08-0.77c0.27-0.11,0.55-0.16,0.84-0.15
		C683.9,230.52,683.63,230.86,683.08,230.93z"/>
	<path class="st5" d="M685.64,233.06c0.04,0.49-0.22,0.75-0.65,0.9C685.2,233.66,685.42,233.36,685.64,233.06z"/>
	<path class="st5" d="M688.9,234.28c-0.48-0.27-0.72-0.68-0.67-1.24C688.76,233.29,688.95,233.72,688.9,234.28z"/>
	<path class="st27" d="M691.86,233.13c0.08,0.27,0.11,0.54,0.1,0.82c-0.56-0.07-0.86-0.41-0.96-0.95
		C691.3,233,691.58,233.04,691.86,233.13z"/>
	<path class="st18" d="M692.87,235.16c0.08,0.26,0.11,0.52,0.1,0.79c-0.22-0.13-0.44-0.25-0.66-0.38
		C692.49,235.44,692.68,235.3,692.87,235.16z"/>
	<path class="st18" d="M695.01,241.02c0.27-0.02,0.52,0.04,0.76,0.16c0.04,0.54-0.3,0.73-0.76,0.82
		C695,241.67,695,241.34,695.01,241.02z"/>
	<path class="st8" d="M157,240.01c0,0.33,0,0.66,0,0.99c-2.64-0.5-5.55,1.08-8-1C151.67,240,154.33,240,157,240.01z"/>
	<path class="st19" d="M147.97,234.03c0,1.65,0,3.3,0,4.95C146.47,237.33,146.47,235.68,147.97,234.03z"/>
	<path class="st18" d="M147.94,226.04c0,1.3-0.01,2.6-0.01,3.9C146.44,228.64,146.45,227.34,147.94,226.04z"/>
	<path class="st8" d="M155,223c0.33,0,0.66,0,0.99,0C155.66,223.91,155.33,223.9,155,223z"/>
	<path class="st8" d="M150,223c0.33,0,0.66,0,1,0C150.67,223.9,150.33,223.9,150,223z"/>
	<path class="st8" d="M146,224c0.13-0.54,0.46-0.87,1-1C146.87,223.54,146.54,223.87,146,224z"/>
	<path class="st17" d="M148.01,239.02c0.32-0.01,0.64,0.02,0.95,0.09c0.03,0.3,0.04,0.59,0.04,0.89
		C148.47,239.88,148.13,239.55,148.01,239.02z"/>
	<path class="st42" d="M21.02,233.8c0-1.98-0.03-3.96,0.02-5.94c0.01-0.4,0.33-0.8,0.51-1.2c0.14,0.28,0.41,0.57,0.41,0.85
		c0.03,4.29,0.03,8.58,0.01,12.87c0,0.29-0.26,0.84-0.35,0.83c-0.54-0.06-0.6-0.51-0.59-0.97C21.02,238.1,21.02,235.95,21.02,233.8z
		"/>
	<path class="st7" d="M26.59,225.01c-0.57-0.26-1.85,0.44-1.71-0.67c0.09-0.67,1.46-0.3,2.25-0.33c0.78-0.03,2.32,0.08,2.16,0.43
		C28.85,225.44,27.57,224.87,26.59,225.01z"/>
	<path class="st19" d="M410.01,242c-0.31,0-0.62,0.01-0.93,0.03c-0.02-5.76-0.05-11.53-0.05-17.29c0-1.11-0.23-2.56,1.46-2.56
		c1.69,0,1.48,1.44,1.48,2.55c0.01,5.76-0.01,11.53-0.01,17.29c-0.32-0.01-0.65-0.01-0.97-0.02
		C410.66,241.65,410.34,241.63,410.01,242z"/>
	<path class="st17" d="M428.96,233.96c-1.48,1.71-1.49,3.41,0.02,5.11c0.01,0.31,0.02,0.62,0.02,0.93c2.53,1.4,5.46-0.33,8,1
		c0.52,0.36,0.5,0.9-0.06,0.96c-10.65,1.32-10.94,1.06-10.94-9.57c0-3.14,0.01-6.27,0.01-9.41c3.33,0,6.66,0.01,9.98,0.01
		c0.32,0.34,0.61,0.72,1,1c0,0.33,0,0.66,0,0.99c-2.66,0.48-5.56-1.01-8.05,0.96c-2.21,4.74-2.1,4.95,2.63,5.06
		c1.48,0.03,2.96,0.05,4.44,0.08c-0.02,0.3-0.03,0.61-0.03,0.92C433.59,232.43,430.59,230.74,428.96,233.96z"/>
	<path class="st3" d="M437,241c-2.64-0.51-5.55,1.08-8-1c2.67,0,5.33,0,8,0.01C437,240.34,437,240.67,437,241z"/>
	<path class="st3" d="M524,240c0,0.33,0,0.66,0,1c-3.66,0-7.33,0-10.99,0c0-4.6-0.03-9.19,0-13.79c0.03-4.16,0.05-4.17,4.41-4.21
		c1.31-0.01,2.63,0.01,3.94,0.03c1.31,0.02,1.58,0.91,1.65,1.97c-2.33,0.41-4.91-0.95-7.03,0.96c-1.68,4.42-1.43,4.88,2.82,5.03
		c0.66,0.02,1.33-0.03,2,0.02c0.77,0.06,1.91-0.13,1.79,1.08c-0.11,1.07-1.23,0.76-1.99,0.9c-1.54,0.28-3.37-0.78-4.61,0.96
		c-1.48,1.71-1.52,3.41,0.05,5.1C518.48,241,521.36,239.53,524,240z"/>
	<path class="st18" d="M83,241c0-0.33,0-0.67,0-1c0.29,0.01,0.57-0.01,0.85-0.07c0.05,0.54,0.29,1.12-0.26,1.53
		C83.53,241.5,83.2,241.16,83,241z"/>
	<path class="st5" d="M437,224c-0.54-0.13-0.87-0.46-1-1C436.54,223.13,436.88,223.46,437,224z"/>
	<path class="st16" d="M410.01,242c0.33-0.9,0.66-0.9,0.98,0l-0.49,0L410.01,242z"/>
	<polygon class="st16" points="410.68,223.53 410.42,223.62 410.45,223.37 	"/>
</g>
</svg>
