<?xml version="1.0" encoding="UTF-8"?>
<svg id="Calque_1" data-name="Calque 1" xmlns="http://www.w3.org/2000/svg" viewBox="0 0 5114.2 1000">
  <defs>
    <style>
      .cls-1 {
        fill: #7382e6;
      }

      .cls-1, .cls-2 {
        stroke-width: 0px;
      }

      .cls-2 {
        fill: #430099;
      }
    </style>
  </defs>
  <g>
    <polygon class="cls-2" points="565.75 250 615.71 500 565.75 750 604.71 750 655.67 500 604.72 250 565.75 250"/>
    <polygon class="cls-1" points="656.24 250 789.58 500 656.21 750 696.92 750 830.23 500 696.96 250 656.24 250"/>
    <polygon class="cls-2" points="475.51 250 424.56 500 475.52 750 514.48 750 464.52 500 514.48 250 475.51 250"/>
    <polygon class="cls-2" points="383.28 250 250 500 383.32 750 424.02 750 290.65 500 423.99 250 383.28 250"/>
  </g>
  <g>
    <g>
      <path class="cls-1" d="M4726.69,728.97c-13.41-12.49-21.33-28.04-22.85-44.19l33.83-9.14c2.44,13.1,7.92,23.47,16.46,31.08,8.53,7.61,19.5,11.58,32.6,11.58,11.28,0,20.72-3.05,28.65-8.84,7.62-5.79,11.58-13.11,11.58-22.24,0-17.37-13.1-28.34-32.91-32.61l-27.42-5.49c-17.68-3.66-31.39-10.97-41.14-21.94-10.05-10.97-14.93-23.77-14.93-38.4-.92-35.96,34.13-67.65,73.14-67.04,30.17.3,50.28,10.97,61.56,25.29,8.23,9.75,12.19,19.2,14.32,29.56l-32.61,10.06c-2.14-8.53-7.01-16.46-14.63-23.16-7.62-6.7-16.76-10.05-27.73-10.05s-19.81,3.04-27.12,9.45c-7.62,6.4-11.28,13.71-11.28,22.55,0,6.71,2.44,12.8,7.62,18.59,5.18,5.48,11.88,9.14,20.42,10.97l28.03,5.49c39.31,7.93,60.64,31.08,60.64,64.3,0,16.46-7.31,32.3-19.8,44.49-12.8,12.19-33.22,20.42-56.98,20.42-24.99,0-46.32-8.23-59.43-20.72"/>
      <path class="cls-1" d="M972.92,728.79c-13.53-12.6-21.52-28.28-23.05-44.57l34.11-9.22c2.46,13.22,7.99,23.67,16.6,31.35,8.61,7.69,19.67,11.68,32.89,11.68,11.37,0,20.9-3.07,28.89-8.91,7.68-5.84,11.68-13.22,11.68-22.44,0-17.52-13.22-28.59-33.19-32.89l-27.67-5.54c-17.82-3.69-31.66-11.06-41.49-22.13-10.15-11.06-15.06-23.97-15.06-38.73-.92-36.27,34.43-68.24,73.77-67.62,30.43.31,50.72,11.07,62.09,25.51,8.3,9.84,12.29,19.36,14.44,29.81l-32.89,10.14c-2.15-8.61-7.07-16.6-14.75-23.36-7.68-6.76-16.91-10.14-27.97-10.14s-19.98,3.07-27.36,9.53c-7.69,6.46-11.37,13.83-11.37,22.74,0,6.77,2.46,12.91,7.69,18.76,5.22,5.53,11.99,9.22,20.59,11.06l28.28,5.53c39.65,8,61.17,31.35,61.17,64.86,0,16.6-7.37,32.58-19.98,44.87-12.91,12.3-33.5,20.6-57.48,20.6-25.2,0-46.72-8.3-59.93-20.9"/>
    </g>
    <polygon class="cls-1" points="1165.05 523.15 1165.05 747.23 1309.51 747.23 1309.51 715.26 1200.09 715.26 1200.09 649.18 1298.76 649.18 1298.76 617.21 1200.09 617.21 1200.09 555.12 1308.59 555.12 1308.59 523.15 1165.05 523.15"/>
    <g>
      <path class="cls-1" d="M1366.38,707.27c-14.45-17.83-23.36-43.34-23.36-71.31,0-16.6,3.07-31.97,9.22-46.72,6.15-14.44,14.45-26.74,24.91-36.89,10.45-9.84,22.74-17.82,36.57-23.67,13.83-5.84,28.28-8.91,43.34-8.91,24.28,0,46.42,7.07,61.78,16.9,7.38,5.22,14.14,10.76,20.28,17.52,11.68,13.22,18.14,26.13,21.52,39.04l-34.73,11.99c-1.54-7.07-4-14.14-11.06-24.28-3.69-5.23-8-9.84-12.91-13.53-9.53-7.99-26.13-14.45-45.19-14.45s-38.73,8.3-53.18,22.13c-14.14,13.83-23.67,35.35-23.67,59.63s9.22,46.1,23.36,59.93c14.14,13.83,33.2,22.13,53.18,22.13,17.52,0,33.5-6.15,43.34-13.83,4.92-4,9.53-8.3,13.53-13.53,7.69-10.14,11.06-18.13,13.22-25.82l34.73,11.99c-3.99,14.14-13.22,32.28-30.73,47.34-11.99,10.15-25.82,18.44-44.57,23.36-9.84,2.46-19.98,3.69-30.43,3.69-33.81.31-67.62-15.37-89.14-42.72"/>
      <path class="cls-1" d="M1783.2,660.24c0,26.44-7.68,48.57-22.12,64.55-14.14,16.29-36.89,25.2-65.47,25.2s-51.95-9.52-65.78-25.51c-13.83-15.98-20.9-37.5-20.9-62.7v-138.63h35.04v137.4c0,17.21,4.92,31.05,14.45,41.19,9.84,10.14,22.44,15.06,37.81,15.06,16.29,0,28.89-4.92,38.12-15.37,8.91-10.14,13.52-23.36,13.52-39.65v-138.63h35.35v137.09Z"/>
      <path class="cls-1" d="M1930.45,630.43c33.82,0,44.27-19.67,44.27-37.19s-7.69-37.5-44.27-37.5h-45.49v74.69h45.49ZM1884.96,662.09v85.14h-35.04v-224.08h84.22c27.05,0,47.64,8.3,59.33,21.52,11.68,13.52,16.9,29.2,16.9,47.65,0,29.2-15.37,52.56-44.26,62.7l49.79,92.21h-39.04l-45.18-85.14h-46.72Z"/>
    </g>
    <polygon class="cls-1" points="2068.18 523.15 2068.18 747.23 2212.64 747.23 2212.64 715.26 2103.21 715.26 2103.21 649.18 2201.88 649.18 2201.88 617.21 2103.21 617.21 2103.21 555.12 2211.72 555.12 2211.72 523.15 2068.18 523.15"/>
    <polygon class="cls-1" points="2312.54 523.15 2312.54 555.73 2383.86 555.73 2383.86 747.23 2418.9 747.23 2418.9 555.73 2490.22 555.73 2490.22 523.15 2312.54 523.15"/>
    <path class="cls-1" d="M2617.17,630.43c33.82,0,44.27-19.67,44.27-37.19s-7.69-37.5-44.27-37.5h-45.49v74.69h45.49ZM2571.68,662.09v85.14h-35.04v-224.08h84.22c27.05,0,47.64,8.3,59.33,21.52,11.68,13.52,16.9,29.2,16.9,47.65,0,29.2-15.37,52.56-44.26,62.7l49.79,92.21h-39.04l-45.18-85.14h-46.72Z"/>
    <path class="cls-1" d="M2837.89,556.96l42.73,106.35h-85.15l42.42-106.35ZM2817.6,523.15l-91.29,224.08h35.97l20.9-52.56h109.43l20.59,52.56h36.58l-90.68-224.08h-41.49Z"/>
    <polygon class="cls-1" points="3145.59 523.15 3145.59 693.75 3031.85 523.15 2991.28 523.15 2991.28 747.23 3026.02 747.23 3026.02 575.71 3140.97 747.23 3180.32 747.23 3180.32 523.15 3145.59 523.15"/>
    <path class="cls-1" d="M3255.95,728.79c-13.52-12.6-21.52-28.28-23.05-44.57l34.12-9.22c2.46,13.22,7.99,23.67,16.59,31.35,8.61,7.69,19.67,11.68,32.89,11.68,11.37,0,20.9-3.07,28.89-8.91,7.69-5.84,11.68-13.22,11.68-22.44,0-17.52-13.21-28.59-33.19-32.89l-27.66-5.54c-17.83-3.69-31.66-11.06-41.5-22.13-10.14-11.06-15.06-23.97-15.06-38.73-.93-36.27,34.43-68.24,73.77-67.62,30.43.31,50.72,11.07,62.09,25.51,8.3,9.84,12.3,19.36,14.45,29.81l-32.89,10.14c-2.15-8.61-7.06-16.6-14.75-23.36-7.68-6.76-16.9-10.14-27.97-10.14s-19.98,3.07-27.35,9.53c-7.69,6.46-11.38,13.83-11.38,22.74,0,6.77,2.46,12.91,7.69,18.76,5.22,5.53,11.99,9.22,20.6,11.06l28.28,5.53c39.65,8,61.17,31.35,61.17,64.86,0,16.6-7.38,32.58-19.98,44.87-12.91,12.3-33.51,20.6-57.48,20.6-25.21,0-46.72-8.3-59.94-20.9"/>
    <path class="cls-1" d="M3523.38,556.96l42.73,106.35h-85.15l42.42-106.35ZM3503.09,523.15l-91.29,224.08h35.97l20.9-52.56h109.43l20.59,52.56h36.58l-90.68-224.08h-41.5Z"/>
    <path class="cls-1" d="M3672.47,707.27c-14.45-17.83-23.36-43.34-23.36-71.31,0-16.6,3.07-31.97,9.22-46.72,6.15-14.44,14.45-26.74,24.9-36.89,10.46-9.84,22.75-17.82,36.58-23.67,13.83-5.84,28.28-8.91,43.34-8.91,24.28,0,46.42,7.07,61.78,16.9,7.38,5.22,14.14,10.76,20.28,17.52,11.68,13.22,18.14,26.13,21.52,39.04l-34.73,11.99c-1.54-7.07-4-14.14-11.07-24.28-3.68-5.23-7.99-9.84-12.91-13.53-9.53-7.99-26.13-14.45-45.19-14.45s-38.73,8.3-53.18,22.13c-14.14,13.83-23.67,35.35-23.67,59.63s9.22,46.1,23.36,59.93c14.14,13.83,33.2,22.13,53.18,22.13,17.52,0,33.5-6.15,43.34-13.83,4.92-4,9.53-8.3,13.53-13.53,7.69-10.14,11.06-18.13,13.22-25.82l34.73,11.99c-3.99,14.14-13.22,32.28-30.73,47.34-11.99,10.15-25.82,18.44-44.57,23.36-9.84,2.46-19.98,3.69-30.43,3.69-33.81.31-67.62-15.37-89.14-42.72"/>
    <polygon class="cls-1" points="3888.27 523.15 3888.27 555.73 3959.58 555.73 3959.58 747.23 3994.63 747.23 3994.63 555.73 4065.93 555.73 4065.93 523.15 3888.27 523.15"/>
    <rect class="cls-1" x="4112.36" y="523.15" width="35.04" height="224.08"/>
    <path class="cls-1" d="M4317.07,717.11c21.52,0,41.5-9.52,55.64-23.97,13.83-14.76,22.44-35.96,22.44-58.1,0-15.06-3.38-28.89-10.14-41.5-7.07-12.6-16.6-22.44-28.59-29.81-11.98-7.38-25.21-11.07-39.35-11.07-43.33-.92-78.99,37.5-78.07,82.38-.92,44.26,34.74,82.99,78.07,82.07M4211.34,590.16c5.85-14.44,14.14-26.74,24.59-36.89,10.15-10.45,22.44-18.44,36.89-24.28,13.83-6.15,28.89-9.22,44.57-9.22,20.91,0,40.27,5.22,57.79,15.06,17.52,9.84,31.36,23.67,41.5,41.5,10.14,17.52,15.37,37.19,15.37,58.4,0,16.29-3.07,31.35-9.22,45.8-6.14,14.44-14.44,26.74-24.59,36.58-10.45,10.15-22.75,18.14-36.89,23.98-14.45,5.84-29.2,8.92-44.88,8.92s-30.43-3.07-44.57-8.92c-14.14-5.53-26.44-13.52-36.58-23.36-10.14-10.14-18.13-22.13-24.28-36.58-5.84-13.83-8.91-29.2-8.91-45.49s3.07-31.35,9.22-45.49"/>
    <polygon class="cls-1" points="4641.07 523.15 4641.07 693.75 4527.34 523.15 4486.77 523.15 4486.77 747.23 4521.51 747.23 4521.51 575.71 4636.47 747.23 4675.81 747.23 4675.81 523.15 4641.07 523.15"/>
    <rect class="cls-2" x="962.71" y="250" width="35.09" height="224.38"/>
    <path class="cls-2" d="M1192.94,300.48c-12.62-10.77-32.32-17.85-55.09-17.85h-35.4v159.12h35.09c22.77,0,42.47-7.08,55.09-17.23,6.15-5.23,11.7-11.39,16.31-18.16,8.61-13.85,12.31-28.62,12.31-44.01.62-20.93-9.24-45.25-28.32-61.87M1216.95,449.76c-18.17,14.77-45.86,24.62-77.87,24.62h-71.71v-224.38h71.1c24.01,0,45.55,5.23,61.56,13.85,16.01,8.93,29.55,21.24,38.48,34.78,13.54,20.62,19.7,43.4,19.7,63.72.61,31.08-13.55,64.95-41.24,87.41"/>
    <polygon class="cls-2" points="1312.68 250 1312.68 474.38 1457.34 474.38 1457.34 442.37 1347.77 442.37 1347.77 376.19 1446.56 376.19 1446.56 344.18 1347.77 344.18 1347.77 282.01 1456.42 282.01 1456.42 250 1312.68 250"/>
    <polygon class="cls-2" points="1706.96 250 1635.56 423.59 1635.24 423.59 1562.61 250 1514.9 250 1514.9 474.38 1549.37 474.38 1549.37 306.94 1550.3 306.94 1620.16 474.38 1650.02 474.38 1720.19 306.32 1720.81 306.32 1720.81 474.38 1755.9 474.38 1755.9 250 1706.96 250"/>
    <rect class="cls-2" x="1825.48" y="250" width="35.08" height="224.38"/>
    <path class="cls-2" d="M2013.23,283.85l42.79,106.5h-85.26l42.48-106.5ZM1992.92,250l-91.41,224.38h36.02l20.92-52.63h109.58l20.62,52.63h36.62l-90.8-224.38h-41.55Z"/>
  </g>
</svg>